<?xml version="1.0" encoding="utf-8"?>
<!-- Generator: Adobe Illustrator 23.0.2, SVG Export Plug-In . SVG Version: 6.00 Build 0)  -->
<svg version="1.1" id="Layer_1" xmlns="http://www.w3.org/2000/svg" xmlns:xlink="http://www.w3.org/1999/xlink" x="0px" y="0px"
	 viewBox="0 0 488.45 488.45" style="enable-background:new 0 0 488.45 488.45;" xml:space="preserve">
<style type="text/css">
	.st0{fill:#C6C6C6;}
	.st1{fill:#070707;}
	.st2{fill:#090909;}
	.st3{fill:none;stroke:#000000;stroke-width:3;stroke-miterlimit:10;}
	.st4{fill:#F5E586;}
	.st5{fill:#2582AC;}
	.st6{fill:#6B3C39;}
	.st7{fill:#823F32;}
	.st8{fill:#562B25;}
	.st9{fill:none;stroke:#070707;stroke-miterlimit:10;}
	.st10{clip-path:url(#SVGID_2_);}
	.st11{fill:none;stroke:#F5E586;stroke-width:5;stroke-miterlimit:10;}
	.st12{clip-path:url(#SVGID_4_);}
	.st13{fill:#191413;}
	.st14{fill:#B88B74;}
	.st15{fill:#F1A562;}
	.st16{fill:#FDFDFD;}
	.st17{fill:#EF331A;}
	.st18{fill:#D6271A;}
	.st19{fill:#FFFFFF;}
	.st20{fill:#6B0E0A;}
	.st21{fill:#F9F9F8;}
	.st22{fill:#FEFEFF;}
	.st23{fill:#1D9533;stroke:#FFFFFF;stroke-width:5;stroke-miterlimit:10;}
	.st24{fill:#EF331A;stroke:#B23B32;stroke-width:2;stroke-miterlimit:10;}
	.st25{fill:#4A0F7B;}
	.st26{fill:#C6160E;}
	.st27{clip-path:url(#SVGID_6_);}
	.st28{fill:none;stroke:#562B25;stroke-width:1.2;stroke-miterlimit:10;}
	.st29{clip-path:url(#SVGID_8_);}
	.st30{fill:#1D9533;}
	.st31{fill:#0C5822;}
	.st32{fill:#0B3615;}
	.st33{fill:#1D9533;stroke:#115F24;stroke-width:1.5;stroke-miterlimit:10;}
	.st34{fill:#134A1D;}
	.st35{clip-path:url(#SVGID_10_);}
	.st36{fill:#EEF4F5;}
	.st37{fill:#155D84;}
	.st38{fill:#1879AE;}
	.st39{fill:#114156;}
	.st40{fill:#121111;}
	.st41{fill:#33110D;}
	.st42{clip-path:url(#SVGID_12_);}
	.st43{fill:#A0522D;}
	.st44{fill:#F42121;}
	.st45{fill:#FAB00B;}
	.st46{fill:#F5DDDB;}
	.st47{fill:#F66831;}
	.st48{opacity:0.49;fill:url(#);}
	.st49{opacity:0.53;}
	.st50{clip-path:url(#SVGID_14_);}
	.st51{fill:#DDDDDD;}
	.st52{fill:#B2B2B2;}
	.st53{fill:#757575;}
	.st54{fill:#3F3F3F;}
	.st55{fill:#070706;}
	.st56{fill:#F6C7DB;}
	.st57{fill:#040404;}
	.st58{fill:#F13C8B;}
	.st59{fill:#0A0A09;}
	.st60{fill:#239830;}
	.st61{fill:#1F6DAF;}
	.st62{clip-path:url(#SVGID_16_);}
	.st63{fill:#A6DAE9;}
	.st64{fill:#144863;}
	.st65{clip-path:url(#SVGID_18_);}
	.st66{clip-path:url(#SVGID_20_);}
	.st67{clip-path:url(#SVGID_22_);}
	.st68{clip-path:url(#SVGID_24_);}
	.st69{clip-path:url(#SVGID_26_);}
	.st70{fill:#10441D;}
	.st71{fill:#2B9B2E;}
</style>
<g>
	<g>
		<g>
			<path class="st36" d="M117.53,96.46c0,0,17.66,69.56,3.24,111c0,0-6.85,113.89-3.24,134.79c0,0,1.95,43.25,8.91,45.41l2.15,27.75
				h4.44l-2.16,37.84l-51.3-3.24l-1.68-39.16c0,0-9.85-86.5-3.6-135.99S94.46,131.9,117.53,96.46z"/>
			<g>
				<polygon points="77.93,412.06 128.58,413.98 128.58,424.79 77.93,421.42 				"/>
				<polygon points="78.53,425.99 132.24,429.12 131.75,437.77 78.89,434.4 				"/>
				<polygon points="79.19,442.33 131.58,444.97 130.86,453.26 79.56,450.02 				"/>
			</g>
		</g>
		<g>
			<path class="st36" d="M370.92,96.46c0,0-17.66,69.56-3.24,111c0,0,6.85,113.89,3.24,134.79c0,0-1.95,43.25-8.91,45.41
				l-2.15,27.75h-4.44l2.16,37.84l51.3-3.24l1.68-39.16c0,0,9.85-86.5,3.6-135.99C407.92,225.37,393.99,131.9,370.92,96.46z"/>
			<g>
				<polygon points="410.51,412.06 359.87,413.98 359.87,424.79 410.51,421.42 				"/>
				<polygon points="409.92,425.99 356.21,429.12 356.7,437.77 409.56,434.4 				"/>
				<polygon points="409.26,442.33 356.87,444.97 357.59,453.26 408.88,450.02 				"/>
			</g>
		</g>
		<g>
			<g>
				<path d="M362.6,386.91c15.36-31.79,7.21-181.24,7.21-181.24c-17.3-26.67,0-110.28,0-110.28c-5.94-10.56-53.55-31.38-61.54-34.82
					v-0.5H181.68C134.83,78.8,117.1,96.58,117.1,96.58c20.24,73.94,2.35,111.96,2.35,111.96c-5.29,56.22,0,158.1,0,158.1
					c0.91,9.66,3.66,15.81,7.02,19.7h-0.77v28.83c0,0-3.36,13.7,13.22,12.97H345.3c0,0,19.22,1.87,17.3-13.96V386.91z"/>
				<g>
					<path class="st36" d="M126.15,386.35v28.83c0,0-3.36,13.7,13.21,12.97h206.39c0,0,19.22,1.87,17.3-13.96v-27.85H126.15z"/>
					<path d="M126.15,393.79c0,0,7.69,5.77,13.94,5.53c6.25-0.24,206.63,0,206.63,0s12.49,0,16.34-5.53v6.86
						c0,0-6.49,6.78-15.86,6.63H140.69c0,0-11.77-2.65-14.54-6.63V393.79z"/>
					<path d="M126.15,408.81c0,0,7.69,5.77,13.94,5.53c6.25-0.24,206.63,0,206.63,0s12.49,0,16.34-5.53v6.86
						c0,0-6.49,6.78-15.86,6.63H140.69c0,0-11.77-2.65-14.54-6.63V408.81z"/>
				</g>
			</g>
			<g>
				<path class="st36" d="M204.5,35.19c0,0-2.94,13.43-24.43,25.32c0,0,30.7,19.95,66,16.88c0,0,39.14,0,62.93-16.5
					c0,0-14.58-7.67-24.94-24.17C284.05,36.72,229.31,42.48,204.5,35.19z"/>
				<path d="M201.85,41.07l-6.02,7.7c0,0,36.81,8.93,96.12-1.72l-5.85-5.98C286.1,41.07,230.41,52.59,201.85,41.07z"/>
				<path d="M190.36,53.71c0,0,25.65,9.87,63,7.82c0,0,33.45-0.81,45.5-7.82l5.21,4.05c0,0-13.62,11.45-64.53,10.93
					c0,0-48.98-4.23-56.08-10.17L190.36,53.71z"/>
			</g>
		</g>
	</g>
</g>
<g>
	<circle class="st36" cx="245.64" cy="196.8" r="74.44"/>
	<g>
		<g>
			<path d="M197.41,219.54l3.9-1.65l-0.83-1.96l-3.84,1.62c-0.6,0.26-1.09,0.32-1.45,0.2c-0.36-0.12-0.63-0.39-0.8-0.81
				c-0.18-0.42-0.18-0.8-0.02-1.15c0.16-0.35,0.54-0.65,1.15-0.9l3.84-1.62l-0.84-1.99l-3.9,1.65c-1.05,0.44-1.73,1.08-2.06,1.9
				c-0.32,0.82-0.27,1.76,0.17,2.8c0.44,1.04,1.07,1.73,1.88,2.07S196.37,219.98,197.41,219.54z"/>
			<polygon points="204.53,223.13 201.09,225.31 202.73,220.28 201.78,218.78 195.32,222.86 196.45,224.65 199.89,222.47 
				198.25,227.5 199.2,229.01 205.67,224.92 			"/>
			<rect x="200.37" y="227.97" transform="matrix(0.7769 -0.6296 0.6296 0.7769 -98.6557 179.6453)" width="7.65" height="2.16"/>
			<polygon points="212.55,232.39 207.54,234.46 209.56,229.45 207.89,227.81 204.86,235.55 206.38,237.04 214.07,233.89 			"/>
			<polygon points="215.93,240.81 216.88,239.5 214.15,237.49 214.91,236.45 218.02,238.73 219.01,237.39 214.17,233.84 209.65,240 
				214.6,243.64 215.59,242.29 212.36,239.92 213.19,238.8 			"/>
			<path d="M223.49,244.75c0.44-0.24,0.8-0.61,1.07-1.12c0.27-0.51,0.39-1.03,0.34-1.53c-0.04-0.51-0.24-0.98-0.58-1.41
				c-0.34-0.44-0.82-0.82-1.44-1.15l-3.09-1.64l-3.58,6.75l1.91,1.01l0.95-1.79l1.04,0.55l0.27,2.44l2.05,1.09l-0.33-2.9
				C222.61,245.07,223.08,244.98,223.49,244.75z M221.95,243.17c-0.29,0.07-0.63,0-1.03-0.21l-1.06-0.56l1.05-1.98l1.06,0.56
				c0.4,0.21,0.65,0.46,0.75,0.73c0.1,0.28,0.07,0.57-0.09,0.89C222.46,242.91,222.24,243.1,221.95,243.17z"/>
			<path d="M227.75,243.78c0.11-0.07,0.26-0.1,0.45-0.1c0.19,0,0.43,0.05,0.71,0.16c0.32,0.11,0.62,0.28,0.93,0.49
				c0.3,0.21,0.59,0.47,0.87,0.78l1.17-1.29c-0.28-0.33-0.63-0.64-1.05-0.9c-0.42-0.27-0.86-0.49-1.34-0.66
				c-0.71-0.25-1.33-0.36-1.88-0.31c-0.55,0.04-1,0.2-1.37,0.46c-0.36,0.26-0.62,0.61-0.77,1.05c-0.14,0.38-0.18,0.73-0.11,1.03
				c0.06,0.3,0.18,0.58,0.37,0.82c0.18,0.24,0.41,0.46,0.66,0.66c0.26,0.2,0.52,0.38,0.79,0.55c0.27,0.17,0.51,0.32,0.73,0.47
				c0.22,0.15,0.38,0.3,0.5,0.45s0.15,0.31,0.09,0.47c-0.04,0.12-0.12,0.2-0.23,0.26c-0.11,0.06-0.26,0.08-0.45,0.07
				c-0.19-0.01-0.43-0.07-0.71-0.17c-0.42-0.15-0.81-0.37-1.19-0.65c-0.37-0.28-0.68-0.59-0.93-0.91l-1.21,1.26
				c0.26,0.36,0.63,0.71,1.13,1.05c0.49,0.34,1.03,0.62,1.62,0.83c0.71,0.26,1.34,0.36,1.89,0.32c0.55-0.04,1-0.2,1.36-0.47
				c0.36-0.27,0.62-0.61,0.77-1.03c0.13-0.38,0.17-0.72,0.12-1.02c-0.06-0.3-0.18-0.57-0.36-0.82c-0.18-0.24-0.41-0.46-0.66-0.66
				c-0.26-0.2-0.52-0.38-0.79-0.54c-0.27-0.17-0.52-0.32-0.74-0.47c-0.22-0.15-0.39-0.29-0.51-0.44c-0.11-0.15-0.14-0.3-0.09-0.45
				C227.56,243.94,227.64,243.85,227.75,243.78z"/>
			<rect x="229.36" y="246.42" transform="matrix(0.2395 -0.9709 0.9709 0.2395 -62.9618 414.6296)" width="7.65" height="2.16"/>
			<polygon points="247.64,245.28 245.77,248.28 244.01,245.22 242.14,245.19 235.65,244.27 235.4,245.97 237.73,246.3 
				236.9,252.17 239.04,252.47 239.87,246.6 242.19,246.93 242.29,246.16 244.57,250.1 244.52,252.88 246.68,252.91 246.73,250.17 
				249.74,245.31 			"/>
			<path d="M260.85,245.56c-0.31-0.43-0.69-0.78-1.13-1.05c-0.44-0.27-0.94-0.46-1.48-0.54s-1.12-0.07-1.72,0.06
				c-0.6,0.13-1.13,0.34-1.6,0.64c-0.47,0.3-0.85,0.66-1.15,1.1c-0.3,0.43-0.5,0.9-0.61,1.42c-0.11,0.51-0.1,1.05,0.02,1.61
				c0.12,0.56,0.33,1.06,0.64,1.49c0.31,0.43,0.68,0.78,1.13,1.05c0.45,0.27,0.95,0.45,1.49,0.54c0.55,0.09,1.12,0.07,1.72-0.06
				c0.61-0.13,1.14-0.34,1.6-0.64c0.46-0.3,0.84-0.66,1.14-1.09c0.3-0.43,0.5-0.9,0.61-1.42c0.11-0.52,0.11-1.06-0.01-1.62
				C261.37,246.48,261.15,245.98,260.85,245.56z M259.38,248.4c-0.05,0.29-0.14,0.54-0.28,0.77s-0.33,0.42-0.55,0.57
				c-0.22,0.15-0.48,0.26-0.76,0.32c-0.29,0.06-0.56,0.07-0.83,0.02c-0.27-0.05-0.51-0.15-0.73-0.3c-0.22-0.15-0.41-0.35-0.57-0.59
				c-0.16-0.24-0.27-0.52-0.34-0.84c-0.07-0.33-0.08-0.63-0.03-0.91c0.05-0.28,0.14-0.54,0.29-0.76c0.14-0.23,0.33-0.42,0.55-0.57
				c0.22-0.15,0.48-0.26,0.76-0.32c0.28-0.06,0.56-0.07,0.83-0.02c0.27,0.05,0.51,0.15,0.73,0.3c0.22,0.15,0.41,0.34,0.57,0.58
				c0.16,0.24,0.27,0.52,0.34,0.85C259.42,247.81,259.43,248.12,259.38,248.4z"/>
			<polygon points="267.71,244.17 264.55,245.36 263.96,243.79 267.54,242.43 266.95,240.87 261.34,242.99 264.05,250.14 
				266.07,249.38 265.14,246.93 268.3,245.73 			"/>
			<polygon points="275.15,243.12 272.04,238.07 270.2,239.2 274.21,245.71 279.16,242.67 278.26,241.21 			"/>
			<path d="M277.47,234.29l2.31,8.03l1.69-1.41l-0.49-1.52l2.49-2.08l1.41,0.76l1.73-1.44l-7.5-3.7L277.47,234.29z M280.45,237.75
				l-0.81-2.51l2.32,1.25L280.45,237.75z"/>
			<path d="M287.81,229.21l1.57,1.37c-0.02,0.08-0.04,0.17-0.07,0.24c-0.12,0.3-0.29,0.57-0.5,0.81c-0.21,0.24-0.44,0.43-0.7,0.56
				c-0.25,0.13-0.52,0.2-0.79,0.22c-0.27,0.02-0.54-0.03-0.81-0.12c-0.27-0.1-0.53-0.25-0.77-0.46c-0.25-0.22-0.44-0.46-0.57-0.71
				c-0.13-0.25-0.21-0.52-0.23-0.79c-0.02-0.27,0.02-0.54,0.12-0.81c0.1-0.27,0.26-0.53,0.47-0.78c0.24-0.28,0.52-0.49,0.83-0.62
				c0.31-0.13,0.65-0.21,1.04-0.22l-0.03-1.86c-0.58-0.02-1.15,0.11-1.71,0.38c-0.55,0.27-1.07,0.68-1.54,1.22
				c-0.41,0.47-0.71,0.96-0.91,1.48c-0.2,0.52-0.29,1.04-0.27,1.56c0.02,0.52,0.14,1.02,0.37,1.5c0.23,0.48,0.56,0.91,1,1.29
				c0.44,0.38,0.91,0.65,1.41,0.81c0.5,0.16,1.01,0.22,1.53,0.17c0.52-0.05,1.02-0.2,1.5-0.47c0.49-0.26,0.93-0.62,1.32-1.08
				c0.36-0.42,0.67-0.9,0.92-1.44c0.25-0.54,0.4-1.08,0.46-1.62l-2.39-2.08L287.81,229.21z"/>
			<path d="M295.57,220.85c-0.3-0.44-0.69-0.81-1.18-1.11c-0.49-0.3-1-0.49-1.52-0.56c-0.52-0.07-1.04-0.04-1.54,0.1
				c-0.51,0.13-0.98,0.37-1.41,0.7c-0.44,0.33-0.82,0.76-1.14,1.29c-0.32,0.52-0.53,1.05-0.64,1.6c-0.1,0.54-0.1,1.07,0,1.59
				c0.11,0.51,0.31,0.99,0.61,1.42c0.3,0.43,0.69,0.8,1.18,1.1c0.49,0.3,0.99,0.49,1.51,0.56c0.52,0.07,1.03,0.04,1.54-0.1
				c0.51-0.14,0.98-0.37,1.42-0.71c0.44-0.34,0.82-0.77,1.14-1.29c0.32-0.53,0.54-1.06,0.64-1.6c0.1-0.54,0.1-1.06-0.01-1.57
				C296.07,221.76,295.87,221.28,295.57,220.85z M294.31,223.73c-0.04,0.27-0.14,0.52-0.3,0.77s-0.34,0.45-0.56,0.61
				c-0.22,0.16-0.46,0.27-0.72,0.33c-0.26,0.06-0.53,0.06-0.82,0.01c-0.28-0.05-0.57-0.16-0.85-0.33c-0.28-0.18-0.51-0.38-0.68-0.61
				c-0.17-0.23-0.29-0.47-0.36-0.73c-0.07-0.26-0.08-0.52-0.03-0.79c0.04-0.27,0.14-0.52,0.3-0.77c0.15-0.25,0.34-0.45,0.56-0.61
				s0.46-0.27,0.72-0.33c0.26-0.06,0.53-0.06,0.82-0.01c0.28,0.05,0.57,0.16,0.85,0.34c0.28,0.17,0.51,0.37,0.68,0.6
				c0.17,0.23,0.29,0.48,0.36,0.74C294.35,223.2,294.36,223.46,294.31,223.73z"/>
			<path d="M299.6,214.35c-0.25-0.38-0.58-0.65-0.99-0.82c-0.37-0.15-0.71-0.21-1.01-0.17s-0.58,0.15-0.83,0.32
				c-0.25,0.17-0.48,0.38-0.69,0.63c-0.21,0.25-0.41,0.5-0.59,0.76c-0.18,0.26-0.35,0.5-0.51,0.71c-0.16,0.21-0.31,0.37-0.46,0.48
				c-0.15,0.11-0.3,0.13-0.46,0.06c-0.12-0.05-0.21-0.13-0.28-0.25c-0.06-0.11-0.09-0.27-0.07-0.46c0.01-0.19,0.08-0.43,0.19-0.7
				c0.13-0.31,0.31-0.61,0.54-0.9s0.5-0.57,0.83-0.83l-1.22-1.24c-0.35,0.26-0.67,0.6-0.96,1c-0.29,0.4-0.53,0.84-0.73,1.3
				c-0.29,0.69-0.43,1.31-0.42,1.86c0.01,0.55,0.14,1.01,0.39,1.39c0.24,0.38,0.58,0.65,1,0.83c0.38,0.16,0.72,0.22,1.02,0.17
				c0.31-0.04,0.59-0.15,0.84-0.32c0.25-0.17,0.48-0.38,0.7-0.63c0.21-0.25,0.41-0.5,0.59-0.76c0.18-0.26,0.35-0.49,0.51-0.7
				c0.16-0.21,0.32-0.37,0.47-0.48c0.16-0.11,0.31-0.13,0.48-0.06c0.11,0.05,0.2,0.13,0.25,0.24c0.05,0.11,0.07,0.26,0.05,0.45
				c-0.02,0.19-0.09,0.42-0.2,0.7c-0.17,0.41-0.41,0.79-0.71,1.15c-0.3,0.36-0.62,0.65-0.96,0.88l1.2,1.27
				c0.37-0.24,0.74-0.6,1.11-1.07c0.37-0.47,0.67-1,0.92-1.57c0.29-0.7,0.43-1.32,0.42-1.87
				C299.98,215.19,299.85,214.73,299.6,214.35z"/>
		</g>
		<g>
			<path d="M207.01,161.53c-0.14,0.37-0.37,0.69-0.69,0.98c-0.28,0.25-0.57,0.43-0.88,0.55c-0.31,0.12-0.62,0.16-0.94,0.14
				c-0.32-0.02-0.63-0.11-0.93-0.27c-0.31-0.15-0.59-0.38-0.85-0.67c-0.26-0.29-0.45-0.59-0.57-0.91c-0.12-0.32-0.17-0.64-0.16-0.96
				c0.01-0.32,0.09-0.62,0.24-0.92c0.15-0.3,0.36-0.57,0.64-0.82c0.32-0.29,0.67-0.48,1.05-0.58c0.38-0.1,0.79-0.12,1.24-0.05
				l0.23-2.18c-0.69-0.12-1.39-0.07-2.07,0.15c-0.69,0.22-1.34,0.61-1.96,1.17c-0.53,0.48-0.95,1-1.25,1.58
				c-0.3,0.58-0.48,1.17-0.52,1.78c-0.05,0.61,0.02,1.21,0.22,1.81c0.2,0.59,0.52,1.15,0.98,1.66c0.46,0.51,0.97,0.9,1.54,1.16
				c0.57,0.26,1.16,0.4,1.77,0.42c0.61,0.02,1.22-0.09,1.82-0.32c0.6-0.23,1.17-0.59,1.71-1.07c0.62-0.56,1.08-1.17,1.37-1.83
				c0.29-0.66,0.42-1.34,0.39-2.04l-2.2-0.01C207.22,160.75,207.15,161.16,207.01,161.53z"/>
			<path d="M216.65,147.27l0.12,9.59l-0.91-1.39l-3.6,2.38L208.4,152l-2.14,1.41l4.98,7.55l5.74-3.78l-0.05-0.08l2.23-1.02
				l-0.09-1.89l3.49-1.59l1.37,1.3l2.42-1.11l-7.4-6.56L216.65,147.27z M218.97,152.15l-0.15-3.11l2.26,2.15L218.97,152.15z"/>
			<path d="M232.49,147.13c-0.26-0.25-0.56-0.43-0.91-0.54c-0.34-0.11-0.71-0.17-1.09-0.18c-0.38-0.01-0.76-0.01-1.14,0.01
				c-0.37,0.02-0.72,0.04-1.03,0.05c-0.31,0.01-0.58-0.01-0.79-0.08c-0.21-0.06-0.34-0.19-0.39-0.38c-0.04-0.15-0.03-0.3,0.03-0.44
				c0.06-0.14,0.18-0.28,0.37-0.4c0.19-0.13,0.45-0.24,0.79-0.33c0.38-0.11,0.79-0.16,1.23-0.16c0.44,0,0.9,0.05,1.37,0.16
				l0.25-2.04c-0.5-0.13-1.04-0.18-1.63-0.16c-0.59,0.02-1.17,0.12-1.74,0.28c-0.85,0.24-1.53,0.56-2.03,0.98
				c-0.5,0.42-0.84,0.88-1.01,1.38c-0.17,0.5-0.18,1.02-0.04,1.54c0.13,0.46,0.33,0.82,0.59,1.08c0.27,0.25,0.57,0.43,0.91,0.54
				c0.34,0.11,0.71,0.17,1.09,0.19c0.38,0.02,0.76,0.02,1.14-0.01c0.37-0.02,0.72-0.04,1.03-0.04c0.31-0.01,0.57,0.02,0.79,0.09
				c0.21,0.07,0.35,0.2,0.41,0.4c0.04,0.14,0.03,0.28-0.04,0.41c-0.07,0.13-0.2,0.26-0.39,0.38c-0.19,0.12-0.46,0.23-0.8,0.32
				c-0.51,0.14-1.04,0.2-1.59,0.18c-0.56-0.02-1.06-0.1-1.52-0.24l-0.3,2.04c0.49,0.17,1.09,0.25,1.8,0.24
				c0.71,0,1.42-0.11,2.13-0.3c0.86-0.24,1.54-0.57,2.04-0.98c0.5-0.41,0.83-0.88,1-1.38c0.17-0.51,0.18-1.01,0.04-1.52
				C232.95,147.74,232.76,147.38,232.49,147.13z"/>
			<path d="M241.15,145.9c-0.22-0.29-0.5-0.51-0.82-0.66c-0.32-0.15-0.67-0.26-1.05-0.33c-0.38-0.07-0.75-0.12-1.13-0.15
				c-0.37-0.03-0.72-0.06-1.03-0.09c-0.31-0.03-0.57-0.1-0.77-0.19c-0.2-0.09-0.31-0.23-0.34-0.43c-0.02-0.15,0.01-0.3,0.09-0.43
				c0.08-0.13,0.22-0.25,0.42-0.35c0.2-0.1,0.48-0.17,0.83-0.22c0.39-0.05,0.81-0.05,1.24,0.02c0.43,0.06,0.88,0.18,1.34,0.35
				l0.54-1.98c-0.48-0.2-1.01-0.33-1.59-0.39c-0.59-0.06-1.17-0.05-1.76,0.03c-0.88,0.11-1.6,0.34-2.15,0.68
				c-0.56,0.34-0.95,0.75-1.19,1.22s-0.32,0.98-0.25,1.52c0.06,0.48,0.21,0.86,0.44,1.15c0.23,0.29,0.5,0.51,0.83,0.66
				c0.32,0.15,0.67,0.27,1.05,0.34s0.75,0.12,1.13,0.15c0.37,0.03,0.71,0.06,1.02,0.1c0.31,0.04,0.56,0.1,0.77,0.2
				c0.2,0.1,0.32,0.25,0.34,0.45c0.02,0.15-0.01,0.28-0.1,0.4c-0.08,0.12-0.23,0.22-0.43,0.32c-0.21,0.09-0.48,0.16-0.83,0.21
				c-0.52,0.07-1.05,0.05-1.6-0.05c-0.55-0.1-1.04-0.25-1.47-0.45l-0.59,1.98c0.46,0.23,1.05,0.4,1.75,0.5c0.7,0.1,1.42,0.1,2.16,0
				c0.89-0.11,1.61-0.34,2.16-0.68c0.55-0.34,0.95-0.75,1.18-1.23c0.24-0.48,0.32-0.98,0.26-1.5
				C241.51,146.57,241.37,146.19,241.15,145.9z"/>
			<path d="M255.55,142.55c-0.4-0.47-0.9-0.85-1.48-1.14c-0.58-0.29-1.24-0.47-1.97-0.54c-0.72-0.07-1.4-0.02-2.03,0.15
				c-0.63,0.17-1.19,0.45-1.68,0.83c-0.49,0.38-0.89,0.84-1.19,1.38c-0.3,0.54-0.49,1.15-0.55,1.83c-0.07,0.68,0,1.31,0.19,1.9
				c0.19,0.59,0.49,1.12,0.9,1.59c0.41,0.47,0.91,0.85,1.49,1.14c0.59,0.29,1.24,0.47,1.96,0.54c0.73,0.07,1.41,0.02,2.03-0.15
				c0.63-0.17,1.18-0.45,1.67-0.82c0.49-0.38,0.88-0.84,1.19-1.38c0.31-0.55,0.5-1.16,0.56-1.83s0-1.31-0.2-1.9
				C256.25,143.54,255.95,143.01,255.55,142.55z M254.08,145.78c-0.04,0.39-0.13,0.73-0.29,1.04c-0.16,0.3-0.35,0.56-0.59,0.77
				c-0.24,0.21-0.51,0.35-0.82,0.45c-0.31,0.09-0.63,0.12-0.98,0.09c-0.34-0.03-0.66-0.12-0.94-0.27c-0.28-0.15-0.52-0.35-0.72-0.6
				c-0.2-0.25-0.34-0.54-0.44-0.87c-0.09-0.33-0.12-0.69-0.08-1.07c0.04-0.39,0.13-0.74,0.29-1.04c0.15-0.3,0.35-0.55,0.59-0.76
				c0.24-0.21,0.51-0.35,0.82-0.45c0.31-0.09,0.63-0.12,0.98-0.09s0.66,0.12,0.94,0.27c0.28,0.15,0.52,0.35,0.72,0.6
				c0.2,0.25,0.34,0.53,0.44,0.86C254.09,145.03,254.11,145.39,254.08,145.78z"/>
			<polygon points="257.29,150.88 259.77,151.53 260.56,148.54 264.42,149.56 264.93,147.65 261.07,146.63 261.58,144.7 
				265.96,145.87 266.47,143.96 259.61,142.14 			"/>
			<path d="M275.81,152.82c0.34-0.19,0.61-0.4,0.81-0.62c0.2-0.22,0.36-0.47,0.49-0.73c0.25-0.5,0.33-1,0.25-1.51
				c-0.08-0.5-0.31-0.97-0.68-1.41c-0.37-0.43-0.87-0.81-1.49-1.12c-0.79-0.4-1.55-0.58-2.28-0.56c-0.72,0.02-1.36,0.22-1.92,0.58
				l1.23,1.79c0.29-0.18,0.6-0.27,0.92-0.28c0.32,0,0.63,0.07,0.92,0.21c0.35,0.17,0.57,0.37,0.67,0.61
				c0.1,0.23,0.09,0.48-0.04,0.74c-0.05,0.11-0.13,0.22-0.23,0.33c-0.1,0.11-0.24,0.22-0.42,0.32c-0.18,0.1-0.43,0.2-0.74,0.29
				l-4.44,1.33l-0.71,1.43l6.3,3.14l0.9-1.82l-3.13-1.55l2.23-0.65C275.02,153.19,275.47,153.02,275.81,152.82z"/>
			<path d="M284.11,158.45c0.57-0.82,0.9-1.62,1.02-2.39c0.11-0.77,0.03-1.48-0.26-2.12c-0.28-0.64-0.74-1.18-1.37-1.62
				c-0.64-0.44-1.31-0.68-2.01-0.71c-0.7-0.03-1.39,0.14-2.07,0.52c-0.68,0.38-1.3,0.98-1.87,1.8c-0.57,0.82-0.91,1.62-1.02,2.39
				c-0.11,0.77-0.03,1.48,0.26,2.12c0.28,0.64,0.74,1.19,1.38,1.63c0.63,0.43,1.3,0.67,2,0.7c0.7,0.03,1.39-0.14,2.07-0.52
				C282.92,159.87,283.54,159.27,284.11,158.45z M280.98,158.14c-0.32,0.25-0.61,0.38-0.88,0.41c-0.27,0.02-0.52-0.04-0.75-0.2
				c-0.23-0.16-0.38-0.37-0.45-0.63c-0.08-0.26-0.06-0.59,0.06-0.97c0.11-0.39,0.35-0.84,0.71-1.36c0.36-0.52,0.7-0.91,1.02-1.15
				c0.32-0.24,0.61-0.37,0.88-0.4c0.27-0.02,0.52,0.04,0.75,0.2c0.23,0.16,0.38,0.37,0.45,0.63c0.08,0.26,0.06,0.58-0.06,0.96
				c-0.12,0.38-0.35,0.83-0.71,1.36C281.63,157.51,281.3,157.89,280.98,158.14z"/>
			<path d="M285.96,163.46l2.32-0.01c0.59,0,1.07-0.05,1.45-0.14c0.38-0.09,0.7-0.22,0.95-0.38c0.25-0.16,0.48-0.35,0.67-0.57
				c0.38-0.41,0.6-0.87,0.66-1.38c0.06-0.51-0.03-1.02-0.27-1.54c-0.24-0.52-0.61-1.02-1.13-1.49c-0.65-0.6-1.33-0.99-2.04-1.16
				c-0.7-0.18-1.37-0.17-2,0.03l0.69,2.06c0.33-0.09,0.65-0.1,0.96-0.02c0.31,0.08,0.58,0.24,0.83,0.46
				c0.29,0.26,0.45,0.52,0.48,0.77c0.03,0.25-0.05,0.49-0.25,0.7c-0.08,0.09-0.18,0.17-0.31,0.25c-0.12,0.08-0.29,0.14-0.49,0.19
				c-0.2,0.05-0.47,0.07-0.8,0.08l-4.63,0.05l-1.08,1.18l5.2,4.75l1.37-1.5L285.96,163.46z"/>
			<path d="M298.69,166.91l-4.21-5l-1.51,1.27l2.3,2.73l-2.37-0.11l-1.24,1.04l0.69,0.82c0.32,0.38,0.48,0.7,0.5,0.96
				c0.02,0.27-0.08,0.49-0.28,0.66c-0.23,0.19-0.49,0.25-0.78,0.15c-0.29-0.09-0.58-0.31-0.86-0.64c-0.27-0.32-0.5-0.7-0.69-1.12
				c-0.19-0.42-0.3-0.85-0.35-1.28l-2.07,0.53c0.08,0.54,0.26,1.1,0.55,1.68c0.28,0.58,0.63,1.11,1.03,1.59
				c0.59,0.7,1.18,1.18,1.77,1.43c0.59,0.26,1.15,0.34,1.68,0.26c0.53-0.08,0.99-0.29,1.39-0.62c0.61-0.51,0.92-1.15,0.93-1.92
				c0.01-0.49-0.15-1-0.44-1.53l2.76,0.13L298.69,166.91z"/>
		</g>
		<path d="M243.02,127.27c-0.03,0.03-1.24,0.1-2.68,0.15c-1.8,0.07-2.79,0.14-3.15,0.24c-0.29,0.08-0.98,0.19-1.53,0.24
			c-0.56,0.05-1.24,0.18-1.51,0.29c-0.34,0.13-0.73,0.19-1.26,0.19c-0.56,0-0.85,0.05-1.12,0.19c-0.2,0.1-0.66,0.21-1.03,0.25
			c-0.36,0.03-0.86,0.14-1.1,0.25c-0.24,0.11-0.77,0.22-1.17,0.26c-0.41,0.05-0.8,0.12-0.87,0.18c-0.07,0.06-0.38,0.17-0.7,0.24
			c-0.32,0.08-0.7,0.2-0.85,0.29c-0.16,0.08-0.54,0.17-0.83,0.21c-0.34,0.05-0.6,0.13-0.71,0.25s-0.3,0.18-0.51,0.18
			c-0.19,0-0.57,0.11-0.85,0.24c-0.29,0.13-0.63,0.24-0.77,0.24c-0.14,0-0.43,0.11-0.64,0.24c-0.21,0.12-0.47,0.24-0.57,0.24
			s-0.4,0.11-0.67,0.24c-0.26,0.13-0.58,0.24-0.72,0.24c-0.13,0-0.34,0.08-0.48,0.16c-0.43,0.3-1.51,0.79-1.75,0.79
			c-0.12,0-0.31,0.09-0.39,0.18c-0.1,0.11-0.31,0.22-0.48,0.26c-0.16,0.04-0.4,0.14-0.53,0.24c-0.12,0.11-0.32,0.18-0.42,0.18
			s-0.34,0.11-0.51,0.24c-0.17,0.13-0.37,0.24-0.44,0.24c-0.08,0-0.28,0.11-0.46,0.24c-0.18,0.13-0.4,0.24-0.51,0.24
			c-0.11,0-0.31,0.11-0.47,0.24c-0.15,0.13-0.35,0.24-0.45,0.24s-0.25,0.09-0.34,0.18c-0.1,0.11-0.29,0.21-0.42,0.25
			c-0.14,0.03-0.55,0.25-0.89,0.49c-0.34,0.23-0.67,0.42-0.74,0.42c-0.19,0-0.54,0.19-0.98,0.53c-0.24,0.18-0.56,0.39-0.72,0.48
			c-0.32,0.16-0.74,0.43-1.77,1.15c-0.37,0.26-0.8,0.55-0.94,0.62c-0.72,0.41-2.45,1.7-3.17,2.35c-0.82,0.75-1.49,1.28-1.71,1.36
			c-0.11,0.05-0.64,0.5-1.19,1.01c-0.55,0.51-1.43,1.33-1.97,1.82c-1.21,1.09-3.17,3.06-3.18,3.18c0,0.05-0.34,0.44-0.75,0.86
			c-0.66,0.7-1.76,1.91-2.27,2.51c-0.11,0.12-0.4,0.51-0.67,0.85c-0.26,0.34-0.59,0.77-0.75,0.92c-0.14,0.15-0.26,0.33-0.26,0.37
			c0,0.05-0.18,0.3-0.4,0.56c-0.23,0.26-0.5,0.61-0.6,0.79c-0.4,0.67-0.7,1.08-1.26,1.79c-0.23,0.28-0.41,0.56-0.41,0.63
			s-0.12,0.29-0.29,0.49c-0.15,0.2-0.29,0.4-0.29,0.45c0,0.04-0.19,0.34-0.43,0.67c-0.24,0.33-0.43,0.65-0.43,0.73
			s-0.1,0.26-0.21,0.41c-0.57,0.73-0.65,0.84-0.65,0.98c0,0.09-0.11,0.28-0.24,0.43c-0.13,0.16-0.24,0.37-0.24,0.48
			s-0.11,0.33-0.24,0.48c-0.13,0.16-0.24,0.33-0.24,0.37c0,0.04-0.11,0.24-0.24,0.43c-0.13,0.19-0.24,0.44-0.24,0.54
			s-0.11,0.3-0.24,0.44c-0.13,0.14-0.24,0.34-0.24,0.43c0,0.09-0.11,0.31-0.24,0.49c-0.13,0.18-0.24,0.4-0.24,0.49
			c0,0.1-0.11,0.34-0.24,0.53c-0.13,0.19-0.24,0.42-0.24,0.51s-0.07,0.24-0.15,0.34c-0.08,0.11-0.18,0.36-0.24,0.57
			c-0.06,0.21-0.18,0.47-0.28,0.57c-0.09,0.11-0.2,0.36-0.24,0.56c-0.03,0.21-0.14,0.49-0.25,0.61c-0.1,0.13-0.18,0.33-0.18,0.44
			c0,0.11-0.11,0.4-0.24,0.65c-0.13,0.25-0.24,0.56-0.24,0.7c0,0.14-0.11,0.39-0.24,0.56s-0.24,0.43-0.24,0.56
			c0,0.13-0.11,0.45-0.24,0.7c-0.13,0.25-0.24,0.6-0.24,0.79s-0.08,0.47-0.17,0.63c-0.1,0.15-0.21,0.48-0.25,0.7
			c-0.03,0.23-0.14,0.57-0.24,0.77c-0.1,0.2-0.2,0.58-0.23,0.86c-0.04,0.28-0.14,0.65-0.26,0.82c-0.12,0.21-0.19,0.49-0.19,0.79
			c0,0.28-0.08,0.62-0.19,0.84c-0.11,0.21-0.24,0.73-0.29,1.15s-0.17,1.01-0.29,1.31c-0.11,0.32-0.19,0.79-0.19,1.11
			c0,0.32-0.09,0.84-0.2,1.18c-0.11,0.34-0.23,1.08-0.28,1.67c-0.05,0.57-0.15,1.35-0.24,1.72c-0.1,0.4-0.17,1.27-0.2,2.15
			c-0.02,0.81-0.08,2.02-0.13,2.68c-0.15,2.05-0.19,3.82-0.09,5.36c0.05,0.81,0.13,2.5,0.18,3.73c0.06,1.48,0.13,2.43,0.24,2.78
			c0.08,0.29,0.18,1.01,0.24,1.58c0.05,0.58,0.16,1.27,0.25,1.53c0.09,0.27,0.18,0.89,0.22,1.39c0.05,0.52,0.14,1.04,0.23,1.22
			c0.09,0.16,0.2,0.66,0.25,1.1c0.06,0.43,0.18,1.02,0.3,1.3c0.11,0.28,0.19,0.62,0.19,0.77s0.09,0.41,0.18,0.6
			c0.11,0.18,0.21,0.59,0.25,0.91c0.04,0.31,0.14,0.69,0.24,0.85c0.1,0.15,0.2,0.53,0.23,0.81c0.04,0.3,0.15,0.66,0.25,0.81
			c0.11,0.16,0.19,0.42,0.19,0.58s0.11,0.46,0.24,0.65c0.13,0.19,0.24,0.49,0.24,0.66c0,0.17,0.11,0.51,0.24,0.76
			c0.13,0.25,0.24,0.51,0.24,0.57c0,0.07,0.11,0.33,0.24,0.57s0.24,0.56,0.24,0.68s0.09,0.34,0.19,0.48
			c0.11,0.13,0.19,0.32,0.19,0.41c0,0.09,0.11,0.34,0.23,0.56c0.12,0.22,0.26,0.55,0.3,0.73s0.15,0.44,0.25,0.56
			c0.11,0.12,0.18,0.3,0.18,0.39c0,0.09,0.11,0.33,0.24,0.52c0.13,0.19,0.24,0.4,0.24,0.45c0,0.06,0.11,0.31,0.23,0.56
			c0.12,0.24,0.28,0.55,0.34,0.68c0.06,0.13,0.22,0.45,0.37,0.72c0.25,0.46,0.36,0.67,0.6,1.12c0.33,0.62,0.56,1.03,0.82,1.46
			c0.16,0.26,0.38,0.66,0.48,0.87c0.11,0.22,0.24,0.43,0.3,0.46c0.06,0.04,0.11,0.13,0.11,0.22c0,0.08,0.13,0.3,0.29,0.48
			c0.16,0.17,0.29,0.36,0.29,0.41c0,0.05,0.14,0.29,0.32,0.53c0.48,0.69,0.82,1.23,0.92,1.44c0.05,0.11,0.15,0.26,0.24,0.33
			c0.18,0.15,0.73,0.94,0.73,1.05c0,0.04,0.22,0.33,0.48,0.62c0.27,0.3,0.48,0.6,0.48,0.66c0,0.14,0.35,0.58,0.98,1.25
			c0.26,0.26,0.46,0.51,0.46,0.55s0.29,0.43,0.63,0.87c0.59,0.76,1.01,1.2,2.25,2.45c0.3,0.31,0.79,0.86,1.1,1.25
			c0.62,0.79,1.96,2.14,2.34,2.38c0.13,0.09,0.6,0.51,1.05,0.95c1.39,1.35,3.05,2.81,3.23,2.81c0.09,0,0.36,0.2,0.6,0.45
			c0.47,0.48,1.56,1.37,1.68,1.37c0.04,0,0.32,0.22,0.62,0.48c0.31,0.27,0.59,0.48,0.64,0.48c0.06,0,0.17,0.09,0.27,0.19
			c0.1,0.11,0.22,0.19,0.28,0.19s0.28,0.13,0.48,0.29c0.21,0.16,0.42,0.29,0.47,0.29c0.05,0,0.29,0.16,0.54,0.37
			c0.4,0.34,0.65,0.49,1.34,0.86c0.13,0.08,0.37,0.24,0.52,0.36c0.15,0.11,0.35,0.22,0.45,0.22c0.11,0,0.26,0.09,0.35,0.18
			c0.1,0.11,0.28,0.23,0.41,0.29c0.13,0.06,0.51,0.28,0.83,0.48c0.34,0.21,0.68,0.4,0.78,0.44c0.11,0.03,0.26,0.13,0.35,0.24
			c0.1,0.11,0.29,0.19,0.43,0.19s0.37,0.11,0.52,0.24c0.14,0.13,0.32,0.24,0.38,0.24c0.06,0,0.26,0.11,0.44,0.24s0.4,0.24,0.51,0.24
			c0.1,0,0.32,0.11,0.49,0.24c0.17,0.13,0.39,0.24,0.48,0.24c0.1,0,0.29,0.09,0.43,0.18c0.13,0.1,0.43,0.23,0.64,0.29
			c0.22,0.06,0.45,0.17,0.52,0.25s0.17,0.14,0.24,0.14c0.06,0,0.32,0.11,0.56,0.24c0.25,0.13,0.52,0.24,0.6,0.24
			c0.09,0,0.38,0.11,0.67,0.24c0.28,0.13,0.74,0.34,1.01,0.48c0.29,0.13,0.62,0.24,0.76,0.24c0.12,0,0.37,0.11,0.56,0.24
			c0.18,0.13,0.43,0.24,0.56,0.24c0.13,0,0.47,0.11,0.73,0.24c0.27,0.13,0.64,0.24,0.84,0.24c0.23,0,0.5,0.09,0.72,0.24
			c0.2,0.14,0.49,0.24,0.68,0.24c0.17,0,0.46,0.08,0.62,0.18c0.16,0.1,0.56,0.2,0.88,0.23c0.32,0.02,0.75,0.13,0.96,0.23
			c0.2,0.11,0.6,0.22,0.89,0.25c0.28,0.04,0.62,0.13,0.77,0.22c0.16,0.11,0.56,0.19,1.22,0.24c0.67,0.06,1.07,0.13,1.29,0.27
			c0.19,0.11,0.6,0.2,1,0.23c0.37,0.03,0.86,0.12,1.1,0.22c0.29,0.11,0.91,0.18,1.82,0.23c0.77,0.04,1.68,0.13,2.02,0.22
			c0.64,0.16,1.98,0.26,6.36,0.46c2.05,0.1,2.69,0.1,4.45-0.04c1.13-0.09,2.49-0.18,3.02-0.21c0.53-0.04,1.37-0.14,1.89-0.25
			c0.54-0.11,1.31-0.18,1.87-0.18c0.65,0,1.18-0.06,1.67-0.19c0.39-0.11,1.01-0.23,1.38-0.29c0.37-0.05,0.87-0.17,1.1-0.28
			c0.3-0.13,0.63-0.2,1.08-0.2c0.43,0,0.8-0.07,1.1-0.19c0.25-0.11,0.74-0.23,1.08-0.28c0.35-0.05,0.76-0.16,0.89-0.25
			c0.13-0.09,0.52-0.18,0.84-0.21c0.35-0.04,0.71-0.12,0.86-0.23c0.13-0.11,0.37-0.18,0.54-0.18c0.15,0,0.48-0.11,0.73-0.24
			c0.25-0.13,0.6-0.24,0.79-0.24c0.18,0,0.54-0.11,0.79-0.24c0.25-0.13,0.53-0.24,0.62-0.24c0.1,0,0.38-0.11,0.64-0.24
			c0.26-0.13,0.58-0.24,0.72-0.24c0.13,0,0.45-0.11,0.7-0.24c0.25-0.13,0.52-0.24,0.6-0.24c0.09,0,0.26-0.08,0.38-0.17
			c0.12-0.1,0.38-0.22,0.56-0.28c0.54-0.17,1.37-0.55,1.63-0.73c0.12-0.09,0.35-0.16,0.49-0.16c0.14,0,0.39-0.11,0.55-0.24
			c0.16-0.13,0.33-0.24,0.38-0.24c0.17,0,1.52-0.66,1.65-0.81c0.07-0.08,0.19-0.14,0.28-0.14c0.1,0,0.31-0.11,0.49-0.24
			c0.18-0.13,0.42-0.24,0.54-0.24s0.26-0.07,0.34-0.15c0.12-0.15,0.44-0.34,1.28-0.75c0.27-0.12,0.69-0.38,0.94-0.57
			s0.51-0.34,0.58-0.34s0.36-0.19,0.65-0.42c0.28-0.22,0.6-0.44,0.73-0.48s0.5-0.27,0.84-0.5c0.34-0.23,0.65-0.42,0.7-0.42
			c0.05,0,0.32-0.19,0.6-0.41c0.28-0.23,0.61-0.48,0.75-0.55c0.13-0.07,0.46-0.32,0.73-0.55c0.27-0.22,0.53-0.41,0.56-0.41
			s0.3-0.18,0.56-0.41c0.68-0.56,1.56-1.24,1.78-1.37c0.11-0.06,0.61-0.5,1.12-0.98c0.52-0.48,1.24-1.12,1.61-1.43
			c0.37-0.32,0.86-0.76,1.1-1c0.24-0.23,0.71-0.68,1.05-1.01c1.57-1.47,5.05-5.4,6.32-7.15c0.18-0.25,0.54-0.72,0.79-1.03
			s0.69-0.93,0.98-1.36c0.29-0.43,0.6-0.87,0.72-0.97c0.11-0.11,0.2-0.24,0.2-0.32c0-0.13,0.09-0.27,0.89-1.35
			c0.25-0.34,0.45-0.66,0.45-0.71c0-0.06,0.11-0.22,0.24-0.38c0.13-0.15,0.24-0.35,0.24-0.45c0-0.1,0.09-0.25,0.2-0.35
			c0.11-0.1,0.26-0.31,0.34-0.47c0.08-0.15,0.26-0.51,0.41-0.77c0.15-0.27,0.34-0.61,0.42-0.78s0.19-0.33,0.24-0.36
			c0.06-0.03,0.15-0.22,0.22-0.42c0.06-0.19,0.19-0.46,0.29-0.58c0.11-0.12,0.18-0.3,0.18-0.38c0-0.1,0.11-0.31,0.24-0.49
			s0.24-0.38,0.24-0.44c0-0.07,0.11-0.29,0.24-0.48c0.13-0.19,0.24-0.41,0.24-0.48c0-0.07,0.11-0.29,0.24-0.48
			c0.13-0.19,0.24-0.43,0.24-0.52c0-0.1,0.09-0.28,0.19-0.41c0.11-0.13,0.19-0.31,0.19-0.37c0-0.08,0.11-0.35,0.24-0.6
			c0.12-0.26,0.26-0.6,0.3-0.76c0.04-0.16,0.14-0.4,0.24-0.53c0.11-0.12,0.18-0.32,0.18-0.43c0-0.11,0.11-0.37,0.24-0.58
			c0.12-0.21,0.24-0.49,0.24-0.62s0.11-0.46,0.24-0.72c0.13-0.27,0.24-0.61,0.24-0.78c0-0.16,0.09-0.41,0.2-0.56
			c0.11-0.14,0.22-0.44,0.25-0.66c0.03-0.22,0.13-0.54,0.23-0.7c0.11-0.16,0.21-0.51,0.24-0.77c0.04-0.26,0.14-0.57,0.23-0.71
			s0.19-0.53,0.23-0.89c0.04-0.37,0.14-0.78,0.25-0.96c0.11-0.16,0.19-0.44,0.19-0.59c0-0.16,0.1-0.53,0.2-0.81
			c0.11-0.29,0.23-0.87,0.28-1.3c0.04-0.43,0.14-0.91,0.23-1.07c0.09-0.16,0.18-0.63,0.21-1.04c0.04-0.41,0.14-0.97,0.25-1.23
			c0.12-0.33,0.21-0.91,0.28-1.86c0.05-0.77,0.15-1.6,0.24-1.87c0.1-0.34,0.17-1.22,0.23-2.79c0.05-1.26,0.13-2.56,0.19-2.87
			c0.12-0.74,0.12-4.21,0-5.52c-0.05-0.55-0.13-1.82-0.19-2.82c-0.06-1.18-0.15-1.98-0.24-2.25c-0.09-0.23-0.19-1.01-0.24-1.71
			c-0.04-0.71-0.14-1.47-0.23-1.69c-0.08-0.22-0.18-0.79-0.24-1.24c-0.05-0.46-0.15-1-0.24-1.19c-0.08-0.19-0.19-0.7-0.24-1.12
			c-0.06-0.43-0.19-0.98-0.3-1.21c-0.11-0.24-0.19-0.61-0.19-0.84c0-0.23-0.09-0.59-0.19-0.79c-0.11-0.21-0.22-0.62-0.26-0.91
			c-0.03-0.29-0.13-0.69-0.24-0.88c-0.1-0.2-0.19-0.56-0.22-0.79c-0.02-0.24-0.12-0.58-0.23-0.76c-0.11-0.17-0.2-0.43-0.2-0.56
			c0-0.13-0.11-0.44-0.24-0.69c-0.13-0.25-0.24-0.59-0.24-0.77c0-0.18-0.1-0.44-0.24-0.63c-0.13-0.18-0.24-0.46-0.24-0.61
			c0-0.16-0.11-0.47-0.24-0.68c-0.13-0.21-0.24-0.46-0.24-0.56s-0.11-0.37-0.24-0.62c-0.13-0.25-0.24-0.54-0.24-0.64
			c0-0.11-0.11-0.34-0.24-0.53c-0.13-0.18-0.24-0.4-0.24-0.51c0-0.1-0.09-0.29-0.19-0.42c-0.11-0.13-0.19-0.34-0.19-0.47
			c0-0.11-0.11-0.34-0.24-0.5c-0.13-0.16-0.24-0.36-0.24-0.47s-0.11-0.33-0.24-0.51s-0.24-0.39-0.24-0.48c0-0.09-0.11-0.3-0.24-0.48
			s-0.24-0.4-0.24-0.5s-0.09-0.26-0.18-0.35c-0.1-0.1-0.21-0.31-0.25-0.47c-0.03-0.15-0.16-0.38-0.3-0.5
			c-0.12-0.12-0.23-0.3-0.23-0.38c0-0.09-0.11-0.3-0.24-0.48s-0.24-0.4-0.24-0.49c0-0.1-0.04-0.2-0.1-0.23
			c-0.11-0.07-0.77-1.04-0.77-1.15c0-0.04-0.19-0.36-0.43-0.73s-0.43-0.69-0.43-0.74c0-0.04-0.12-0.2-0.29-0.35
			c-0.15-0.15-0.29-0.34-0.29-0.43s-0.09-0.24-0.19-0.34s-0.19-0.23-0.19-0.29c0-0.07-0.07-0.18-0.15-0.25
			c-0.09-0.07-0.33-0.38-0.53-0.71c-0.2-0.32-0.42-0.63-0.48-0.71c-0.26-0.29-0.76-0.98-0.76-1.02c0-0.07-0.34-0.5-0.85-1.09
			c-0.21-0.24-0.55-0.65-0.75-0.92c-0.57-0.78-1.38-1.74-2.14-2.58c-0.39-0.43-0.83-0.92-1-1.09c-0.97-1.05-2.41-2.56-2.54-2.63
			c-0.08-0.05-0.54-0.46-1.01-0.91c-0.49-0.45-1.36-1.25-1.95-1.78c-0.59-0.53-1.3-1.16-1.58-1.42c-0.27-0.25-0.55-0.45-0.61-0.45
			c-0.06,0-0.32-0.18-0.56-0.41c-0.25-0.23-0.66-0.56-0.93-0.75c-0.26-0.17-0.69-0.5-0.96-0.71c-0.68-0.56-0.99-0.77-1.73-1.16
			c-0.36-0.19-0.68-0.38-0.71-0.42c-0.08-0.11-0.91-0.74-1.25-0.93c-0.45-0.26-0.58-0.34-0.92-0.58c-0.16-0.11-0.34-0.21-0.39-0.21
			c-0.05,0-0.14-0.07-0.21-0.14c-0.06-0.08-0.43-0.3-0.82-0.5c-0.39-0.19-0.79-0.43-0.87-0.53s-0.22-0.17-0.31-0.17
			c-0.09,0-0.32-0.11-0.51-0.24c-0.19-0.13-0.39-0.24-0.44-0.24c-0.04,0-0.22-0.11-0.4-0.24c-0.18-0.13-0.42-0.24-0.55-0.24
			c-0.19,0-0.91-0.42-1.25-0.74c-0.07-0.07-0.28-0.14-0.48-0.18c-0.19-0.03-0.46-0.13-0.59-0.23c-0.13-0.09-0.35-0.2-0.48-0.24
			c-0.13-0.04-0.34-0.15-0.47-0.25c-0.12-0.11-0.32-0.18-0.43-0.18c-0.18,0-0.74-0.24-1.79-0.78c-0.19-0.11-0.44-0.18-0.56-0.18
			s-0.41-0.11-0.66-0.24c-0.25-0.13-0.52-0.24-0.59-0.24s-0.35-0.11-0.62-0.24c-0.26-0.13-0.6-0.24-0.75-0.24
			c-0.15,0-0.4-0.09-0.56-0.2c-0.16-0.11-0.47-0.22-0.69-0.25c-0.22-0.03-0.54-0.13-0.7-0.23c-0.16-0.11-0.51-0.21-0.77-0.24
			c-0.26-0.04-0.6-0.13-0.76-0.23c-0.16-0.09-0.53-0.19-0.81-0.23c-0.29-0.04-0.65-0.14-0.81-0.24c-0.17-0.11-0.56-0.2-0.98-0.23
			c-0.39-0.03-0.79-0.12-0.93-0.21c-0.13-0.09-0.56-0.2-0.96-0.25c-0.39-0.05-0.88-0.16-1.08-0.25s-0.79-0.18-1.32-0.22
			c-0.56-0.04-1.21-0.15-1.55-0.28c-0.34-0.11-0.84-0.2-1.15-0.2c-0.31,0-0.97-0.1-1.47-0.2c-0.69-0.15-1.47-0.23-3.21-0.3
			C247.79,127.29,243.09,127.21,243.02,127.27z M250.31,129.97c0.87,0.08,2.32,0.18,3.21,0.22c1.54,0.08,2.73,0.25,3.33,0.48
			c0.15,0.06,0.39,0.11,0.54,0.11c0.15,0,0.42,0.06,0.59,0.13c0.18,0.08,0.72,0.16,1.19,0.2c1.09,0.08,1.64,0.19,2.54,0.55
			c0.39,0.16,1.01,0.33,1.38,0.37c0.38,0.05,0.87,0.19,1.13,0.33c0.25,0.13,0.52,0.24,0.59,0.24c0.07,0,0.32,0.09,0.55,0.19
			c0.23,0.11,0.57,0.19,0.76,0.19c0.18,0,0.57,0.11,0.86,0.25c0.57,0.27,1.84,0.71,2.05,0.71c0.07,0,0.29,0.11,0.48,0.24
			c0.19,0.13,0.43,0.24,0.52,0.24c0.1,0,0.33,0.09,0.53,0.19c0.19,0.11,0.46,0.19,0.59,0.19c0.28,0,0.62,0.14,1.44,0.61
			c0.32,0.18,0.7,0.34,0.84,0.34c0.29,0,1.32,0.5,1.5,0.72c0.07,0.08,0.27,0.16,0.47,0.2c0.45,0.09,0.77,0.25,1.05,0.56
			c0.12,0.13,0.45,0.31,0.73,0.39c0.27,0.08,0.69,0.3,0.92,0.48c0.23,0.19,0.6,0.42,0.83,0.53c0.23,0.11,0.6,0.32,0.84,0.48
			c0.24,0.15,0.55,0.32,0.69,0.34c0.14,0.04,0.41,0.19,0.58,0.35c0.18,0.15,0.56,0.38,0.82,0.5c0.27,0.12,0.55,0.3,0.62,0.38
			c0.21,0.25,0.83,0.62,1.04,0.62c0.11,0,0.3,0.14,0.44,0.31c0.34,0.4,0.71,0.65,0.97,0.65c0.13,0,0.3,0.13,0.45,0.37
			c0.17,0.26,0.36,0.41,0.58,0.47c0.34,0.1,1,0.54,1.14,0.76c0.04,0.07,0.2,0.19,0.35,0.27c0.15,0.09,0.35,0.28,0.43,0.44
			c0.09,0.16,0.28,0.34,0.42,0.4c0.15,0.07,0.47,0.29,0.72,0.5c1.24,1.08,1.94,1.73,2.09,1.94c0.09,0.13,0.3,0.33,0.46,0.43
			c0.16,0.11,0.34,0.3,0.39,0.42c0.05,0.12,0.19,0.27,0.32,0.32c0.13,0.05,0.46,0.36,0.74,0.71c0.28,0.35,0.56,0.63,0.63,0.63
			c0.07,0,0.18,0.12,0.27,0.28c0.08,0.15,0.23,0.31,0.33,0.34c0.11,0.03,0.34,0.24,0.51,0.46c0.17,0.22,0.82,0.91,1.44,1.53
			c0.64,0.64,1.13,1.21,1.13,1.31c0,0.1,0.14,0.27,0.34,0.38c0.2,0.12,0.42,0.38,0.54,0.62c0.11,0.23,0.28,0.49,0.38,0.58
			c0.1,0.09,0.18,0.22,0.18,0.29c0,0.08,0.17,0.25,0.38,0.38c0.21,0.13,0.4,0.34,0.44,0.46c0.04,0.11,0.17,0.34,0.32,0.5
			c0.13,0.17,0.44,0.59,0.68,0.95c0.24,0.34,0.55,0.78,0.68,0.94c0.13,0.17,0.28,0.42,0.32,0.56c0.03,0.14,0.14,0.31,0.24,0.36
			c0.11,0.05,0.4,0.47,0.67,0.93c0.27,0.47,0.57,0.9,0.68,0.97c0.11,0.07,0.19,0.22,0.19,0.38c0,0.15,0.11,0.41,0.24,0.59
			s0.24,0.38,0.24,0.45c0,0.08,0.07,0.15,0.15,0.19c0.14,0.05,0.34,0.39,0.75,1.24c0.1,0.2,0.23,0.48,0.31,0.61
			c0.07,0.13,0.23,0.44,0.36,0.68c0.12,0.24,0.31,0.49,0.38,0.56c0.09,0.08,0.22,0.37,0.31,0.67c0.09,0.3,0.27,0.75,0.41,1.01
			c0.38,0.7,0.97,2.1,0.97,2.32c0,0.11,0.11,0.31,0.23,0.46c0.12,0.14,0.28,0.42,0.34,0.62c0.06,0.2,0.17,0.41,0.25,0.48
			s0.14,0.2,0.14,0.31c0,0.1,0.07,0.31,0.14,0.45c0.08,0.15,0.21,0.56,0.3,0.93s0.24,0.82,0.34,1.01c0.11,0.2,0.18,0.44,0.18,0.55
			s0.11,0.39,0.24,0.64c0.13,0.25,0.24,0.55,0.24,0.66c0,0.12,0.11,0.45,0.23,0.73c0.13,0.28,0.21,0.55,0.18,0.59
			c-0.03,0.05,0.01,0.24,0.1,0.43c0.29,0.72,0.45,1.32,0.45,1.65c0,0.19,0.07,0.6,0.15,0.91c0.09,0.32,0.19,0.75,0.23,0.96
			c0.04,0.21,0.15,0.64,0.26,0.96c0.11,0.32,0.23,0.92,0.27,1.34c0.04,0.42,0.11,0.96,0.15,1.2c0.05,0.24,0.2,1.03,0.34,1.77
			c0.13,0.73,0.27,1.38,0.31,1.44c0.04,0.05,0.1,1.06,0.12,2.25c0.03,1.19,0.11,2.74,0.17,3.45c0.11,1.11,0.1,1.88-0.08,5.55
			c-0.15,3.31-0.24,4.46-0.39,5.17c-0.11,0.5-0.19,1.19-0.19,1.53c0,0.6-0.09,1.21-0.29,2.11c-0.06,0.24-0.14,0.72-0.19,1.06
			c-0.05,0.35-0.17,0.87-0.29,1.15c-0.11,0.29-0.19,0.72-0.19,0.96c0,0.25-0.06,0.61-0.13,0.81c-0.07,0.21-0.18,0.67-0.25,1.04
			c-0.06,0.36-0.24,1.04-0.39,1.49c-0.15,0.46-0.28,0.88-0.28,0.95c0,0.08-0.07,0.2-0.15,0.3c-0.08,0.09-0.16,0.32-0.17,0.51
			c-0.02,0.19-0.08,0.39-0.13,0.46c-0.14,0.18-0.67,1.77-0.75,2.28c-0.08,0.46-0.55,1.57-0.71,1.68c-0.05,0.03-0.1,0.12-0.1,0.2
			s-0.17,0.51-0.38,0.96c-0.21,0.45-0.38,0.86-0.38,0.91s-0.09,0.25-0.19,0.44c-0.11,0.2-0.19,0.45-0.19,0.56
			c0,0.11-0.09,0.32-0.19,0.45c-0.11,0.13-0.19,0.32-0.19,0.42c0,0.23-0.1,0.35-0.35,0.5c-0.15,0.08-0.22,0.2-0.22,0.38
			c0,0.17-0.1,0.35-0.29,0.52c-0.19,0.17-0.29,0.35-0.29,0.54c0,0.14-0.09,0.38-0.19,0.52c-0.11,0.13-0.19,0.33-0.19,0.43
			c0,0.11-0.04,0.22-0.09,0.25c-0.11,0.08-0.68,1.08-0.68,1.21c0,0.15-1.02,1.87-1.2,2.01c-0.08,0.07-0.14,0.17-0.14,0.23
			c0,0.07-0.12,0.24-0.29,0.39c-0.15,0.15-0.29,0.35-0.29,0.46c0,0.1-0.11,0.31-0.24,0.47c-0.13,0.15-0.24,0.34-0.24,0.41
			c0,0.08-0.18,0.35-0.4,0.62c-0.81,0.95-0.94,1.13-0.94,1.32c0,0.11-0.11,0.29-0.26,0.39c-0.15,0.11-0.3,0.23-0.34,0.27
			c-0.62,0.69-0.84,0.99-0.84,1.13c0,0.1-0.16,0.33-0.36,0.52c-0.21,0.19-0.42,0.43-0.48,0.54c-0.11,0.21-0.53,0.7-1.09,1.29
			c-0.2,0.21-0.36,0.45-0.36,0.54c0,0.15-1.04,1.26-1.35,1.44c-0.2,0.11-1.08,1.18-1.17,1.4c-0.03,0.09-0.18,0.24-0.33,0.34
			c-0.3,0.18-1.33,1.23-1.47,1.48c-0.05,0.1-0.25,0.26-0.45,0.35c-0.19,0.11-0.51,0.36-0.69,0.59c-0.18,0.22-0.55,0.59-0.81,0.84
			c-0.26,0.24-0.68,0.64-0.93,0.89c-0.25,0.25-0.56,0.48-0.69,0.52c-0.27,0.07-1.69,1.27-1.92,1.63c-0.08,0.12-0.24,0.23-0.34,0.23
			c-0.28,0-0.94,0.4-1.01,0.6c-0.03,0.1-0.25,0.26-0.48,0.35c-0.35,0.15-0.7,0.43-1.91,1.52c-0.11,0.1-0.31,0.2-0.44,0.24
			c-0.13,0.03-0.46,0.23-0.73,0.44c-0.27,0.21-0.69,0.47-0.95,0.57c-0.26,0.11-0.58,0.33-0.72,0.48c-0.14,0.15-0.43,0.33-0.65,0.38
			c-0.21,0.06-0.58,0.27-0.82,0.48c-0.25,0.21-0.49,0.38-0.54,0.38c-0.13,0-0.66,0.25-1,0.48c-0.46,0.31-1.03,0.57-1.25,0.57
			c-0.11,0-0.48,0.19-0.83,0.43c-0.35,0.24-0.7,0.43-0.77,0.43c-0.27,0-1.09,0.35-1.42,0.59c-0.19,0.15-0.56,0.31-0.83,0.36
			c-0.51,0.1-0.93,0.28-1.36,0.58c-0.13,0.1-0.52,0.27-0.86,0.37c-0.34,0.11-0.84,0.32-1.12,0.44c-0.27,0.13-0.75,0.29-1.05,0.34
			c-0.31,0.06-0.74,0.19-0.97,0.29c-0.22,0.1-0.46,0.18-0.53,0.18c-0.06,0-0.39,0.13-0.72,0.29c-0.37,0.17-0.77,0.29-1.01,0.29
			c-0.22,0-0.59,0.09-0.82,0.19c-0.23,0.11-0.47,0.19-0.54,0.19s-0.51,0.12-0.99,0.29c-0.48,0.15-1.02,0.29-1.2,0.29
			c-0.18,0-0.52,0.07-0.75,0.15c-0.23,0.09-0.68,0.19-1,0.23c-0.32,0.05-0.83,0.17-1.14,0.28c-0.32,0.11-0.8,0.2-1.1,0.2
			c-0.3,0-0.88,0.04-1.3,0.1c-0.42,0.05-0.92,0.11-1.1,0.12c-0.19,0.02-0.45,0.11-0.58,0.19c-0.55,0.36-2.55,0.48-8.73,0.52
			c-5.45,0.04-5.84,0.03-6.08-0.12c-0.27-0.18-0.72-0.28-1.98-0.42c-0.42-0.05-1.01-0.13-1.29-0.19c-0.29-0.06-1.04-0.14-1.68-0.19
			c-0.63-0.05-1.41-0.15-1.72-0.24c-0.32-0.09-0.77-0.19-1.01-0.24c-0.24-0.04-0.6-0.14-0.81-0.22c-0.21-0.09-0.67-0.17-1.02-0.2
			c-0.64-0.06-1.03-0.16-1.58-0.4c-0.16-0.08-0.36-0.13-0.45-0.13c-0.08,0-0.34-0.09-0.56-0.19c-0.23-0.11-0.65-0.23-0.95-0.29
			c-0.31-0.06-0.61-0.18-0.71-0.29c-0.13-0.14-0.3-0.19-0.67-0.19c-0.3,0-0.68-0.08-0.92-0.19c-0.23-0.11-0.54-0.19-0.68-0.19
			c-0.14,0-0.63-0.19-1.08-0.42c-0.46-0.24-1.02-0.45-1.3-0.49c-0.29-0.04-0.58-0.15-0.75-0.3c-0.15-0.12-0.34-0.23-0.42-0.23
			s-0.24-0.09-0.37-0.18c-0.12-0.11-0.44-0.21-0.7-0.25c-0.27-0.04-0.59-0.14-0.74-0.25c-0.14-0.1-0.34-0.18-0.46-0.18
			c-0.11,0-0.28-0.09-0.39-0.2c-0.11-0.11-0.4-0.27-0.64-0.34c-0.25-0.09-0.68-0.3-0.96-0.48c-0.28-0.17-0.63-0.32-0.79-0.32
			c-0.18,0-0.42-0.12-0.74-0.4c-0.25-0.22-0.64-0.48-0.86-0.57s-0.43-0.22-0.46-0.26c-0.07-0.12-1.07-0.68-1.23-0.68
			c-0.07,0-0.27-0.12-0.45-0.29c-0.18-0.15-0.38-0.28-0.43-0.29c-0.19,0-0.81-0.36-1.16-0.66c-0.18-0.16-0.56-0.43-0.83-0.58
			c-0.28-0.15-0.67-0.43-0.87-0.62c-0.21-0.18-0.45-0.34-0.55-0.34c-0.09,0-0.44-0.23-0.79-0.52c-0.34-0.29-0.72-0.55-0.82-0.58
			c-0.1-0.03-0.56-0.41-1.01-0.84c-0.45-0.43-1-0.85-1.2-0.93c-0.21-0.09-0.44-0.25-0.53-0.37s-0.29-0.28-0.45-0.34
			c-0.15-0.07-0.7-0.51-1.21-0.98c-0.51-0.47-1.24-1.16-1.64-1.51c-0.39-0.36-0.77-0.75-0.83-0.86c-0.06-0.11-0.27-0.32-0.46-0.47
			c-0.19-0.15-0.41-0.4-0.49-0.55c-0.08-0.15-0.27-0.34-0.43-0.42c-0.15-0.09-0.33-0.26-0.37-0.38c-0.05-0.12-0.26-0.34-0.46-0.47
			c-0.21-0.12-0.47-0.39-0.57-0.57c-0.11-0.19-0.24-0.34-0.29-0.34c-0.05,0-0.16-0.14-0.26-0.33c-0.11-0.18-0.29-0.38-0.41-0.45
			c-0.12-0.08-0.31-0.24-0.4-0.37c-0.19-0.27-0.82-0.97-1.44-1.58c-0.21-0.21-0.38-0.43-0.38-0.5c0-0.06-0.15-0.29-0.34-0.51
			s-0.34-0.45-0.34-0.52c0-0.14-0.36-0.48-0.59-0.56c-0.1-0.03-0.23-0.2-0.3-0.37c-0.08-0.17-0.23-0.4-0.34-0.5
			c-0.11-0.11-0.2-0.25-0.2-0.32c0-0.16-0.47-0.86-0.93-1.4c-0.17-0.19-0.32-0.42-0.32-0.5s-0.13-0.29-0.29-0.46
			c-0.16-0.18-0.29-0.41-0.29-0.51c0-0.11-0.09-0.24-0.19-0.3c-0.1-0.07-0.3-0.36-0.43-0.65c-0.14-0.3-0.41-0.76-0.59-1.03
			c-0.19-0.27-0.51-0.84-0.71-1.27c-0.21-0.45-0.46-0.84-0.6-0.94c-0.17-0.11-0.25-0.24-0.25-0.43c0-0.15-0.09-0.38-0.19-0.52
			c-0.11-0.13-0.19-0.31-0.19-0.38c0-0.08-0.12-0.3-0.29-0.5c-0.15-0.2-0.29-0.41-0.29-0.47c0-0.07-0.11-0.26-0.24-0.44
			c-0.13-0.18-0.24-0.42-0.24-0.54c0-0.11-0.08-0.31-0.18-0.43c-0.1-0.12-0.2-0.38-0.24-0.57c-0.04-0.2-0.12-0.4-0.19-0.46
			c-0.08-0.07-0.16-0.22-0.19-0.35c-0.04-0.14-0.14-0.36-0.23-0.5c-0.09-0.13-0.21-0.38-0.27-0.55c-0.07-0.15-0.2-0.51-0.3-0.77
			c-0.11-0.27-0.22-0.62-0.25-0.79c-0.04-0.18-0.15-0.43-0.26-0.56c-0.11-0.13-0.19-0.38-0.19-0.56c0-0.19-0.08-0.37-0.23-0.52
			c-0.17-0.16-0.24-0.34-0.28-0.85c-0.05-0.41-0.13-0.73-0.26-0.9c-0.11-0.14-0.19-0.37-0.19-0.52s-0.09-0.36-0.2-0.48
			c-0.14-0.16-0.21-0.41-0.28-1.05c-0.09-0.89-0.21-1.41-0.37-1.61c-0.21-0.25-0.41-1-0.54-1.92c-0.07-0.53-0.19-1.21-0.28-1.51
			c-0.09-0.31-0.15-0.66-0.15-0.79c0-0.12-0.1-0.56-0.2-0.98c-0.11-0.4-0.24-1.1-0.28-1.55c-0.05-0.45-0.12-1.05-0.18-1.34
			s-0.15-1.15-0.2-1.92c-0.06-0.77-0.14-1.65-0.19-1.96c-0.14-1.01-0.2-5.37-0.11-7.8c0.13-3.07,0.24-4.34,0.48-5.53
			c0.11-0.54,0.2-1.34,0.2-1.77c0-0.69,0.14-1.59,0.47-2.89c0.29-1.19,0.39-1.69,0.39-1.93c0-0.15,0.11-0.59,0.25-0.99
			c0.13-0.39,0.28-0.87,0.32-1.05c0.04-0.18,0.14-0.5,0.23-0.71c0.1-0.2,0.16-0.56,0.16-0.78c0-0.58,0.19-1.4,0.4-1.67
			c0.1-0.12,0.17-0.32,0.17-0.43c0-0.11,0.09-0.34,0.19-0.49c0.11-0.16,0.19-0.36,0.19-0.45c0-0.1,0.13-0.44,0.3-0.77
			c0.32-0.65,0.6-1.47,0.7-1.97c0.03-0.18,0.13-0.44,0.24-0.57c0.1-0.14,0.21-0.36,0.25-0.5s0.15-0.37,0.25-0.54
			c0.11-0.16,0.18-0.39,0.18-0.5c0-0.18,0.83-2.07,1.22-2.75c0.42-0.75,1.21-2.35,1.38-2.79c0.11-0.27,0.27-0.56,0.37-0.66
			s0.19-0.23,0.19-0.3s0.11-0.24,0.23-0.39c0.12-0.14,0.25-0.43,0.29-0.64c0.08-0.4,0.48-1.11,0.64-1.11c0.05,0,0.18-0.19,0.28-0.42
			c0.11-0.23,0.26-0.47,0.34-0.55c0.08-0.07,0.23-0.28,0.33-0.46c0.1-0.19,0.29-0.45,0.42-0.57c0.13-0.13,0.25-0.29,0.25-0.35
			s0.13-0.28,0.29-0.45c0.16-0.18,0.29-0.44,0.29-0.57c0-0.19,0.1-0.3,0.38-0.46c0.22-0.12,0.41-0.32,0.44-0.44
			c0.04-0.12,0.18-0.31,0.34-0.41c0.14-0.11,0.3-0.3,0.34-0.41c0.04-0.11,0.19-0.36,0.34-0.56c0.15-0.19,0.28-0.39,0.28-0.45
			s0.17-0.24,0.38-0.4c0.21-0.16,0.38-0.36,0.38-0.44s0.17-0.33,0.38-0.56c0.21-0.23,0.38-0.46,0.38-0.51
			c0-0.06,0.19-0.26,0.43-0.45c0.24-0.2,0.43-0.4,0.43-0.45c0-0.31,3.97-4.34,4.9-4.98c0.17-0.11,0.45-0.34,0.62-0.51
			c0.16-0.16,0.45-0.42,0.64-0.56c0.19-0.15,0.34-0.35,0.34-0.45c0-0.18,0.2-0.38,0.54-0.53c0.12-0.06,0.33-0.25,0.44-0.43
			c0.12-0.18,0.33-0.34,0.44-0.36c0.12-0.02,0.37-0.2,0.57-0.39c0.19-0.2,0.55-0.49,0.79-0.63s0.53-0.38,0.65-0.54
			s0.28-0.28,0.35-0.28c0.07,0,0.38-0.21,0.69-0.46c0.31-0.26,0.68-0.5,0.82-0.54c0.15-0.04,0.43-0.22,0.62-0.4
			c0.2-0.19,0.52-0.43,0.71-0.53c0.2-0.11,0.4-0.27,0.46-0.38c0.13-0.25,0.65-0.56,0.93-0.56c0.12,0,0.33-0.14,0.51-0.38
			c0.23-0.29,0.41-0.41,0.74-0.49c0.24-0.07,0.64-0.28,0.9-0.48c0.26-0.21,0.72-0.47,1.01-0.58c0.31-0.11,0.71-0.33,0.89-0.48
			c0.18-0.14,0.42-0.27,0.55-0.27c0.11,0,0.33-0.1,0.48-0.22c0.55-0.44,1.04-0.73,1.47-0.83c0.56-0.15,0.96-0.36,1.17-0.62
			c0.11-0.14,0.32-0.23,0.62-0.28c0.33-0.04,0.66-0.19,1.1-0.49c0.52-0.34,0.73-0.43,1.05-0.43c0.39,0,0.9-0.2,1.63-0.65
			c0.18-0.11,0.53-0.23,0.78-0.26c0.39-0.06,1.33-0.47,1.67-0.74c0.07-0.05,0.47-0.12,0.91-0.16c0.66-0.07,0.95-0.15,1.7-0.51
			c0.78-0.37,1.02-0.44,1.68-0.49c0.57-0.04,1.04-0.15,1.87-0.45c0.82-0.31,1.31-0.42,1.96-0.48c1.66-0.13,2.63-0.31,3.73-0.63
			c0.27-0.08,1.2-0.17,2.07-0.22c0.88-0.04,1.65-0.11,1.71-0.15c0.07-0.04,0.64-0.1,1.28-0.11c0.63-0.03,1.18-0.07,1.2-0.09
			C242.08,129.74,248.87,129.84,250.31,129.97z"/>
		<path d="M242.5,131.94c-2.15,0.04-4.18,0.12-4.5,0.17c-0.32,0.06-1.01,0.14-1.53,0.2c-0.53,0.07-1.03,0.15-1.12,0.19
			c-0.31,0.16-1.44,0.38-1.97,0.38c-0.3,0-0.82,0.09-1.17,0.19c-0.34,0.11-0.88,0.22-1.2,0.25c-0.32,0.04-0.62,0.11-0.68,0.19
			c-0.15,0.19-0.57,0.33-1.07,0.33c-0.25,0.01-0.62,0.07-0.83,0.14c-0.21,0.08-0.6,0.14-0.88,0.14c-0.4,0-0.52,0.04-0.6,0.19
			c-0.11,0.19-0.9,0.48-1.34,0.48c-0.14,0-0.68,0.19-1.21,0.43c-0.52,0.24-1.04,0.43-1.17,0.43s-0.36,0.11-0.54,0.24
			s-0.36,0.24-0.43,0.24c-0.06,0-0.27,0.11-0.47,0.24s-0.55,0.25-0.79,0.27c-0.67,0.07-1.27,0.28-1.53,0.56
			c-0.16,0.17-0.39,0.27-0.72,0.32c-0.26,0.05-0.57,0.15-0.7,0.26c-0.13,0.1-0.29,0.18-0.35,0.18c-0.07,0-0.28,0.12-0.48,0.29
			c-0.2,0.15-0.46,0.29-0.57,0.29c-0.28,0-1.07,0.35-1.29,0.57c-0.09,0.09-0.51,0.28-0.93,0.42c-0.58,0.19-0.79,0.32-0.87,0.49
			c-0.06,0.12-0.27,0.3-0.46,0.38c-0.19,0.08-0.56,0.3-0.81,0.48c-0.26,0.18-0.54,0.34-0.61,0.34c-0.21,0-0.85,0.34-1.01,0.53
			c-0.15,0.18-1.24,0.72-1.45,0.72c-0.08,0-0.3,0.15-0.49,0.34c-0.2,0.18-0.5,0.39-0.68,0.47c-0.17,0.07-0.53,0.34-0.79,0.61
			c-0.3,0.3-0.57,0.49-0.71,0.49c-0.12,0-0.23,0.07-0.26,0.18c-0.06,0.21-1.38,1.35-1.75,1.51c-0.13,0.06-0.54,0.37-0.91,0.72
			c-0.36,0.34-1.29,1.13-2.06,1.77c-0.77,0.63-1.82,1.58-2.35,2.11c-1.53,1.51-3.02,3.09-3.02,3.21c0,0.05-0.12,0.26-0.28,0.45
			c-0.15,0.19-0.29,0.43-0.31,0.54c-0.03,0.11-0.15,0.24-0.29,0.31c-0.14,0.07-0.31,0.25-0.37,0.41c-0.07,0.16-0.26,0.41-0.43,0.56
			c-0.17,0.14-0.37,0.37-0.44,0.51c-0.36,0.64-0.74,1.13-0.98,1.27c-0.14,0.09-0.33,0.3-0.41,0.46c-0.09,0.17-0.29,0.46-0.43,0.65
			c-0.15,0.19-0.28,0.4-0.28,0.47c0,0.07-0.13,0.28-0.3,0.47c-0.51,0.59-1.24,1.64-1.24,1.77c0,0.08-0.07,0.18-0.14,0.25
			c-0.08,0.07-0.14,0.17-0.14,0.23s-0.12,0.26-0.28,0.44c-0.14,0.18-0.3,0.43-0.34,0.55c-0.04,0.12-0.11,0.22-0.15,0.22
			c-0.04,0-0.14,0.18-0.24,0.4c-0.09,0.23-0.24,0.5-0.33,0.6c-0.15,0.17-0.28,0.4-0.72,1.39c-0.09,0.18-0.28,0.55-0.43,0.81
			c-0.37,0.64-0.83,1.58-0.92,1.85c-0.13,0.46-0.62,1.34-0.77,1.39c-0.09,0.04-0.14,0.18-0.14,0.4c0,0.24-0.07,0.39-0.24,0.55
			c-0.17,0.15-0.24,0.31-0.24,0.56c0,0.22-0.08,0.46-0.21,0.63c-0.12,0.15-0.22,0.39-0.23,0.55c-0.01,0.14-0.09,0.34-0.17,0.44
			c-0.09,0.1-0.23,0.45-0.32,0.79c-0.08,0.34-0.2,0.68-0.27,0.76c-0.07,0.08-0.15,0.32-0.19,0.53c-0.04,0.21-0.14,0.49-0.23,0.62
			s-0.17,0.39-0.2,0.57c-0.03,0.23-0.12,0.36-0.28,0.45c-0.21,0.1-0.24,0.17-0.25,0.77c-0.01,0.35-0.08,0.78-0.16,0.94
			c-0.08,0.15-0.19,0.58-0.26,0.96c-0.08,0.36-0.21,0.81-0.32,0.98c-0.11,0.17-0.16,0.35-0.12,0.41c0.09,0.13-0.13,1.15-0.3,1.41
			c-0.08,0.12-0.13,0.46-0.13,0.79c0,0.36-0.09,0.85-0.23,1.27c-0.12,0.38-0.25,1.04-0.28,1.47c-0.04,0.44-0.12,0.91-0.2,1.06
			c-0.1,0.18-0.17,0.91-0.25,2.32c-0.1,1.76-0.14,2.09-0.29,2.25c-0.16,0.17-0.18,0.42-0.19,2.92c0,1.5-0.01,3.14-0.01,3.64
			c-0.03,3.33-0.01,3.7,0.2,4.04c0.19,0.34,0.23,0.62,0.42,3.57c0.03,0.36,0.11,1.03,0.19,1.48c0.09,0.45,0.15,1.05,0.15,1.34
			c0,0.3,0.05,0.58,0.11,0.64c0.13,0.13,0.28,0.77,0.34,1.47c0.03,0.29,0.11,0.59,0.16,0.67c0.2,0.24,0.27,0.5,0.34,1.3
			c0.04,0.51,0.13,0.92,0.28,1.19c0.11,0.22,0.19,0.47,0.16,0.54c-0.03,0.07,0.01,0.28,0.09,0.46c0.08,0.19,0.14,0.45,0.14,0.57
			c0,0.13,0.06,0.38,0.13,0.56c0.41,0.95,0.54,1.34,0.52,1.6c-0.01,0.15,0.03,0.34,0.08,0.41c0.06,0.07,0.18,0.36,0.29,0.65
			c0.1,0.29,0.25,0.64,0.34,0.78c0.24,0.34,0.31,0.68,0.19,0.98c-0.09,0.21-0.07,0.28,0.09,0.38c0.19,0.13,0.59,1.01,0.77,1.68
			c0.08,0.29,0.17,0.44,0.34,0.5c0.2,0.08,0.39,0.5,0.32,0.73c-0.01,0.05,0.1,0.2,0.24,0.34c0.16,0.16,0.26,0.36,0.26,0.54
			c0,0.15,0.09,0.39,0.19,0.53c0.11,0.13,0.19,0.34,0.19,0.45c0,0.12,0.11,0.32,0.24,0.44c0.13,0.12,0.24,0.31,0.24,0.4
			c0,0.11,0.11,0.3,0.24,0.44c0.13,0.14,0.24,0.36,0.24,0.49s0.07,0.27,0.13,0.31c0.08,0.05,0.26,0.32,0.39,0.6
			c0.34,0.73,0.56,1.09,0.7,1.18c0.06,0.04,0.11,0.12,0.11,0.19c0,0.07,0.17,0.35,0.38,0.64c0.21,0.29,0.47,0.7,0.56,0.92
			s0.26,0.42,0.34,0.46c0.12,0.05,0.15,0.13,0.11,0.34c-0.05,0.25-0.02,0.31,0.17,0.38c0.23,0.09,0.34,0.28,0.34,0.56
			c0,0.09,0.13,0.29,0.3,0.45c0.35,0.34,1.04,1.35,1.04,1.53c0,0.07,0.09,0.17,0.19,0.23c0.1,0.05,0.34,0.34,0.55,0.65
			c0.19,0.3,0.41,0.58,0.48,0.62c0.07,0.04,0.12,0.13,0.12,0.21s0.1,0.19,0.22,0.25c0.24,0.13,0.33,0.24,0.78,0.9
			c0.18,0.26,0.55,0.71,0.81,1c0.27,0.29,0.49,0.6,0.49,0.7c0,0.1,0.1,0.21,0.22,0.26c0.11,0.05,0.34,0.28,0.49,0.53
			c0.15,0.24,0.42,0.51,0.62,0.61c0.19,0.1,0.41,0.32,0.49,0.48c0.08,0.15,0.26,0.38,0.4,0.49c0.14,0.11,0.28,0.28,0.31,0.37
			c0.03,0.09,0.24,0.29,0.47,0.45c0.23,0.15,0.52,0.42,0.62,0.59c0.11,0.16,0.35,0.37,0.54,0.46c0.19,0.1,0.35,0.25,0.38,0.38
			c0.03,0.12,0.25,0.34,0.48,0.49c0.24,0.15,0.47,0.36,0.53,0.49c0.06,0.11,0.27,0.3,0.48,0.41c0.25,0.12,0.41,0.28,0.45,0.43
			c0.03,0.12,0.15,0.26,0.26,0.3c0.46,0.13,0.83,0.35,0.88,0.52c0.03,0.1,0.29,0.35,0.57,0.57c0.29,0.22,0.55,0.48,0.57,0.57
			c0.03,0.11,0.26,0.25,0.51,0.34c0.25,0.1,0.59,0.32,0.77,0.49c0.17,0.17,0.45,0.38,0.62,0.47c0.17,0.09,0.42,0.27,0.56,0.41
			c0.14,0.13,0.41,0.35,0.61,0.49c0.2,0.13,0.47,0.34,0.61,0.48c0.32,0.3,0.65,0.48,0.89,0.48c0.11,0,0.33,0.14,0.5,0.32
			c0.16,0.18,0.55,0.44,0.84,0.58c0.3,0.15,0.59,0.33,0.66,0.4c0.06,0.08,0.16,0.13,0.22,0.13s0.28,0.13,0.48,0.29
			c0.21,0.16,0.43,0.29,0.5,0.29c0.07,0,0.16,0.06,0.2,0.13c0.1,0.16,1.18,0.73,1.4,0.73c0.09,0,0.26,0.1,0.37,0.21
			c0.24,0.24,1.2,0.75,1.4,0.75c0.07,0,0.23,0.11,0.36,0.26c0.25,0.27,1.06,0.59,1.5,0.6c0.15,0,0.35,0.1,0.48,0.23
			c0.3,0.32,0.96,0.63,1.33,0.63c0.17,0,0.45,0.09,0.6,0.2c0.56,0.38,1.35,0.73,1.79,0.79c0.27,0.04,0.57,0.16,0.73,0.3
			c0.35,0.3,0.98,0.53,1.71,0.62c0.33,0.05,0.8,0.2,1.07,0.34c0.27,0.13,0.56,0.24,0.66,0.24s0.34,0.09,0.54,0.18
			c0.2,0.11,0.59,0.22,0.87,0.25c0.36,0.05,0.57,0.13,0.73,0.3c0.13,0.14,0.33,0.23,0.52,0.23c0.16,0,0.52,0.06,0.78,0.13
			c0.26,0.08,0.82,0.16,1.24,0.19c0.88,0.07,1.34,0.19,1.63,0.45c0.14,0.13,0.34,0.18,0.81,0.18c0.34,0,0.87,0.06,1.19,0.13
			s1.05,0.16,1.63,0.19c1.14,0.08,2.77,0.31,3.01,0.43c0.57,0.31,12.1,0.29,12.68-0.01c0.22-0.11,2.11-0.34,3.71-0.46
			c0.66-0.04,1.35-0.12,1.53-0.18c0.18-0.06,0.55-0.11,0.81-0.11c0.26,0,0.58-0.07,0.72-0.14c0.49-0.28,0.72-0.34,1.73-0.48
			c0.56-0.07,1.16-0.2,1.32-0.28c0.15-0.09,0.34-0.15,0.42-0.15s0.34-0.09,0.57-0.19c0.25-0.11,0.72-0.24,1.04-0.29
			c0.6-0.08,1.87-0.5,2.44-0.79c0.17-0.09,0.48-0.16,0.7-0.16c0.21,0,0.55-0.09,0.74-0.19c0.2-0.11,0.42-0.19,0.5-0.19
			s0.3-0.11,0.49-0.24c0.21-0.14,0.57-0.27,0.96-0.33c0.34-0.05,0.79-0.16,0.99-0.24c0.2-0.09,0.39-0.13,0.44-0.11
			c0.04,0.03,0.17-0.08,0.28-0.23c0.14-0.18,0.34-0.3,0.56-0.34c0.2-0.04,0.48-0.14,0.62-0.24c0.13-0.11,0.3-0.18,0.35-0.18
			c0.05,0,0.26-0.11,0.45-0.24s0.43-0.24,0.53-0.24c0.27,0,1.07-0.37,1.33-0.62c0.13-0.12,0.52-0.32,0.86-0.43
			c0.34-0.11,0.72-0.31,0.84-0.44c0.12-0.12,0.26-0.23,0.32-0.23c0.21,0,1.12-0.47,1.17-0.6c0.03-0.08,0.39-0.31,0.8-0.5
			c0.41-0.2,0.84-0.46,0.96-0.58c0.11-0.12,0.33-0.25,0.48-0.29c0.14-0.04,0.42-0.2,0.6-0.38c0.28-0.26,1.3-0.88,1.48-0.9
			c0.03,0,0.1,0,0.14,0c0.06,0,0.1-0.06,0.1-0.12c0-0.21,0.31-0.43,0.81-0.6c0.34-0.11,0.56-0.27,0.77-0.52
			c0.16-0.2,0.38-0.41,0.5-0.47c0.11-0.05,0.28-0.22,0.35-0.38c0.11-0.22,0.27-0.32,0.67-0.43c0.38-0.11,0.57-0.23,0.68-0.42
			c0.09-0.14,0.31-0.36,0.49-0.5c0.18-0.13,0.41-0.38,0.52-0.56c0.12-0.2,0.29-0.34,0.48-0.36c0.16-0.04,0.38-0.16,0.51-0.3
			c0.11-0.12,0.41-0.37,0.66-0.56c0.25-0.18,0.48-0.41,0.51-0.5s0.25-0.31,0.48-0.49c0.24-0.17,0.43-0.37,0.43-0.44
			c0-0.08,0.14-0.21,0.32-0.33c0.17-0.11,0.49-0.37,0.71-0.6c0.22-0.23,0.5-0.51,0.62-0.63c0.3-0.29,1.15-1.21,1.28-1.37
			c0.06-0.08,0.25-0.27,0.43-0.43c0.18-0.17,0.54-0.58,0.79-0.94c0.26-0.35,0.62-0.73,0.83-0.84c0.24-0.13,0.37-0.28,0.37-0.4
			c0-0.19,0.16-0.39,1.08-1.32c0.25-0.25,0.45-0.52,0.45-0.59c0-0.28,0.54-1.14,0.87-1.42c0.2-0.16,0.38-0.39,0.41-0.52
			c0.04-0.12,0.19-0.29,0.34-0.37c0.17-0.09,0.35-0.31,0.48-0.59c0.11-0.25,0.26-0.52,0.33-0.6c0.08-0.08,0.16-0.25,0.2-0.38
			c0.04-0.13,0.14-0.33,0.24-0.43s0.19-0.28,0.23-0.38c0.03-0.11,0.17-0.26,0.32-0.34c0.15-0.09,0.34-0.3,0.42-0.48
			c0.08-0.18,0.24-0.5,0.34-0.71c0.11-0.21,0.35-0.69,0.54-1.05c0.17-0.37,0.39-0.73,0.48-0.8c0.09-0.07,0.16-0.2,0.16-0.3
			c0-0.09,0.11-0.33,0.24-0.52c0.13-0.19,0.24-0.41,0.24-0.49c0-0.07,0.11-0.26,0.24-0.41c0.13-0.16,0.24-0.37,0.24-0.48
			c0-0.1,0.09-0.29,0.18-0.42c0.11-0.12,0.22-0.35,0.26-0.49c0.03-0.14,0.16-0.34,0.29-0.44s0.23-0.28,0.23-0.4s0.09-0.34,0.19-0.47
			c0.11-0.13,0.19-0.34,0.19-0.48c0-0.13,0.15-0.47,0.34-0.75c0.18-0.28,0.46-0.85,0.61-1.27c0.15-0.43,0.34-0.84,0.41-0.94
			c0.08-0.09,0.16-0.34,0.2-0.57c0.04-0.23,0.12-0.51,0.2-0.61c0.08-0.11,0.14-0.3,0.14-0.41c0-0.11,0.11-0.45,0.24-0.75
			c0.13-0.3,0.24-0.66,0.24-0.8c0-0.15,0.11-0.41,0.24-0.59c0.14-0.2,0.24-0.45,0.24-0.66c0-0.36,0.29-1.09,0.47-1.2
			c0.06-0.04,0.11-0.31,0.11-0.6c0-0.37,0.07-0.66,0.23-0.98c0.14-0.27,0.25-0.67,0.28-1.04c0.03-0.36,0.12-0.73,0.25-0.94
			c0.11-0.2,0.2-0.5,0.2-0.75c0-0.22,0.06-0.62,0.13-0.88s0.16-0.8,0.19-1.23c0.07-0.83,0.21-1.82,0.36-2.4
			c0.39-1.53,0.67-9.58,0.47-13.64c-0.17-3.43-0.28-4.37-0.58-5.33c-0.23-0.71-0.29-1.04-0.29-1.73c0-0.65-0.05-0.96-0.19-1.27
			c-0.11-0.23-0.19-0.52-0.19-0.64c0-0.12-0.11-0.56-0.25-0.96s-0.27-0.98-0.29-1.26c-0.07-0.79-0.41-2.3-0.62-2.7
			c-0.1-0.19-0.18-0.52-0.18-0.71c0-0.2-0.06-0.43-0.13-0.51c-0.15-0.19-0.34-0.74-0.34-1.01c0-0.11-0.11-0.34-0.24-0.53
			c-0.13-0.18-0.24-0.41-0.24-0.52c0-0.11-0.11-0.51-0.24-0.87c-0.13-0.37-0.24-0.75-0.24-0.84s-0.11-0.32-0.24-0.5
			c-0.17-0.22-0.23-0.38-0.19-0.55s-0.01-0.29-0.18-0.46c-0.14-0.12-0.25-0.31-0.25-0.4c0-0.23-0.18-0.57-0.34-0.67
			c-0.07-0.05-0.18-0.31-0.24-0.57c-0.13-0.54-0.42-1.18-0.63-1.39c-0.07-0.08-0.15-0.29-0.19-0.49c-0.04-0.19-0.14-0.47-0.24-0.61
			c-0.11-0.13-0.18-0.32-0.18-0.39c0-0.09-0.11-0.27-0.23-0.42c-0.13-0.15-0.34-0.53-0.48-0.83c-0.13-0.3-0.34-0.68-0.45-0.83
			c-0.29-0.41-0.62-1.04-0.69-1.35c-0.04-0.14-0.14-0.28-0.25-0.32c-0.16-0.05-0.39-0.42-0.39-0.64c0-0.05-0.11-0.22-0.24-0.38
			c-0.13-0.15-0.24-0.34-0.24-0.42c0-0.09-0.19-0.39-0.43-0.69c-0.75-0.96-0.81-1.05-0.81-1.17c0-0.12-0.23-0.43-0.98-1.29
			c-0.26-0.29-0.46-0.58-0.46-0.66s-0.11-0.2-0.23-0.29c-0.13-0.08-0.27-0.24-0.31-0.36c-0.11-0.34-0.69-1.14-1.22-1.68
			c-0.66-0.65-1.02-1.12-1.02-1.3c0-0.08-0.19-0.27-0.43-0.42c-0.24-0.14-0.46-0.36-0.49-0.49c-0.04-0.11-0.17-0.31-0.32-0.43
			c-0.3-0.27-1.31-1.34-1.97-2.12c-0.26-0.31-0.59-0.61-0.74-0.69c-0.14-0.08-0.32-0.25-0.38-0.39s-0.28-0.35-0.46-0.47
			c-0.18-0.12-0.39-0.28-0.46-0.34c-0.07-0.07-0.42-0.44-0.79-0.82c-0.44-0.46-0.77-0.71-0.95-0.75c-0.19-0.04-0.4-0.2-0.6-0.48
			c-0.17-0.23-0.39-0.44-0.49-0.48c-0.11-0.03-0.24-0.2-0.31-0.36c-0.11-0.24-0.24-0.35-0.58-0.49c-0.24-0.1-0.67-0.35-0.95-0.57
			c-0.27-0.22-0.59-0.46-0.71-0.52c-0.11-0.07-0.25-0.22-0.3-0.34c-0.05-0.13-0.29-0.34-0.57-0.48c-0.34-0.17-0.48-0.3-0.48-0.43
			s-0.07-0.19-0.2-0.19c-0.27,0-1.02-0.46-1.2-0.73c-0.09-0.12-0.42-0.33-0.79-0.47c-0.39-0.14-0.78-0.37-0.97-0.57
			c-0.19-0.19-0.46-0.35-0.65-0.39c-0.18-0.04-0.47-0.2-0.65-0.38c-0.19-0.2-0.61-0.44-1.03-0.6c-0.39-0.15-0.87-0.4-1.08-0.56
			c-0.2-0.15-0.5-0.32-0.66-0.35c-0.16-0.03-0.4-0.16-0.52-0.3c-0.12-0.12-0.3-0.23-0.38-0.23s-0.3-0.11-0.48-0.24
			c-0.18-0.13-0.4-0.24-0.49-0.24c-0.1,0-0.29-0.1-0.44-0.22c-0.31-0.26-1.21-0.64-1.49-0.64c-0.11,0-0.45-0.13-0.78-0.31
			c-1.16-0.59-1.28-0.65-1.47-0.65c-0.28,0-0.98-0.32-1.31-0.59c-0.22-0.18-0.43-0.25-0.86-0.29c-0.42-0.03-0.68-0.11-0.96-0.3
			c-0.21-0.14-0.46-0.26-0.56-0.26c-0.1,0-0.31-0.08-0.48-0.16c-0.17-0.09-0.58-0.19-0.93-0.22c-0.34-0.04-0.83-0.16-1.1-0.29
			c-0.81-0.38-1.8-0.67-2.28-0.67c-0.25,0-0.7-0.09-1.01-0.18c-0.3-0.1-0.79-0.23-1.08-0.29c-0.3-0.07-0.69-0.19-0.88-0.29
			c-0.21-0.11-0.56-0.17-0.95-0.18c-0.52-0.01-1.15-0.09-3-0.36c-0.21-0.03-0.54-0.11-0.72-0.18c-0.6-0.23-1.64-0.33-3.88-0.38
			c-1.21-0.03-2.59-0.07-3.06-0.09C246.82,131.87,244.67,131.89,242.5,131.94z M249.64,133.37c0.81,0.05,1.97,0.16,2.56,0.24
			c0.59,0.08,1.63,0.18,2.3,0.23c0.68,0.06,1.52,0.18,1.9,0.29c0.36,0.11,0.79,0.19,0.92,0.19c0.14,0,0.53,0.09,0.86,0.2
			c0.34,0.11,0.89,0.21,1.24,0.24c0.63,0.06,2.3,0.48,3.24,0.81c0.28,0.1,0.62,0.18,0.77,0.18c0.14,0,0.49,0.11,0.77,0.24
			c0.29,0.13,0.6,0.24,0.7,0.24c0.11,0,0.32,0.07,0.46,0.14c0.15,0.08,0.49,0.18,0.74,0.24c0.46,0.1,1.29,0.4,2.13,0.78
			c0.22,0.1,0.48,0.18,0.56,0.18c0.09,0,0.38,0.11,0.67,0.24c0.28,0.13,0.74,0.34,1.01,0.48c0.29,0.13,0.56,0.24,0.62,0.24
			c0.2,0,4.06,1.87,4.59,2.22c0.14,0.1,0.34,0.17,0.42,0.17s0.23,0.09,0.33,0.19c0.1,0.11,0.25,0.21,0.35,0.25
			c0.11,0.03,0.37,0.18,0.6,0.34c0.23,0.15,0.57,0.35,0.79,0.45c0.2,0.09,0.63,0.34,0.96,0.57c0.33,0.22,0.65,0.4,0.73,0.4
			s0.2,0.07,0.27,0.15c0.14,0.17,0.74,0.57,1.14,0.78c0.13,0.07,0.43,0.27,0.67,0.46c0.24,0.18,0.56,0.4,0.71,0.49
			c0.27,0.15,2.43,1.84,2.98,2.32c0.16,0.14,0.4,0.33,0.55,0.4c0.14,0.08,0.66,0.52,1.15,0.98c0.49,0.46,1.46,1.34,2.14,1.96
			s1.53,1.45,1.86,1.82c0.34,0.38,0.63,0.7,0.68,0.7c0.04,0,0.25,0.23,0.47,0.5c0.22,0.28,0.7,0.83,1.06,1.23
			c0.37,0.39,0.87,0.94,1.12,1.21c0.25,0.27,0.56,0.64,0.69,0.84c0.13,0.19,0.61,0.83,1.08,1.43c1.08,1.4,2.75,3.72,2.75,3.86
			c0,0.02,0.13,0.22,0.29,0.44c0.16,0.21,0.29,0.45,0.29,0.51c0,0.07,0.07,0.17,0.15,0.25c0.08,0.07,0.23,0.28,0.34,0.46
			c0.11,0.19,0.31,0.55,0.45,0.79c0.14,0.24,0.44,0.76,0.67,1.15c0.23,0.39,0.45,0.78,0.5,0.85c0.11,0.17,0.34,0.63,0.48,0.96
			c0.34,0.77,0.65,1.32,0.84,1.56c0.11,0.15,0.21,0.35,0.21,0.45s0.19,0.57,0.42,1.07c0.61,1.31,1.01,2.25,1.01,2.39
			c0,0.07,0.11,0.3,0.24,0.51c0.13,0.21,0.24,0.49,0.24,0.62s0.09,0.38,0.19,0.56c0.11,0.17,0.19,0.38,0.19,0.48
			c0,0.09,0.11,0.39,0.24,0.68c0.13,0.28,0.27,0.69,0.3,0.91c0.04,0.21,0.12,0.52,0.2,0.67c0.08,0.14,0.2,0.51,0.28,0.79
			c0.08,0.29,0.2,0.62,0.28,0.73c0.08,0.11,0.14,0.27,0.14,0.35c0,0.08,0.11,0.35,0.23,0.62c0.12,0.26,0.27,0.78,0.33,1.15
			c0.06,0.36,0.16,1.08,0.25,1.58c0.16,0.99,0.13,1.24-0.12,1.24c-0.25,0-1.24-0.47-1.46-0.68c-0.11-0.11-0.3-0.18-0.44-0.18
			c-0.15,0-0.65-0.1-1.13-0.2c-0.7-0.16-1.31-0.21-3.21-0.25c-2.19-0.05-2.4-0.03-3.16,0.16c-0.44,0.11-1.11,0.23-1.48,0.26
			c-0.43,0.04-0.82,0.13-1.1,0.28c-0.24,0.12-0.51,0.23-0.6,0.23s-0.33,0.08-0.53,0.18c-0.19,0.1-0.51,0.2-0.7,0.24
			c-0.19,0.03-0.42,0.14-0.52,0.25c-0.1,0.11-0.21,0.19-0.26,0.19c-0.16,0-1.11,0.76-1.32,1.05c-0.42,0.59-0.89,0.29-1.05-0.72
			c-0.09-0.51-0.13-0.59-0.69-1.1c-0.37-0.34-0.72-0.58-0.9-0.62c-0.17-0.03-0.45-0.12-0.62-0.21c-0.26-0.13-0.72-0.17-2.4-0.2
			c-1.83-0.04-2.12-0.03-2.33,0.11c-0.13,0.09-0.62,0.22-1.09,0.29c-0.46,0.07-0.95,0.19-1.07,0.28c-0.31,0.22-0.72,0.2-1.07-0.05
			c-0.29-0.21-0.39-0.21-3.25-0.25l-2.96-0.04l-0.33,0.36c-0.18,0.21-0.33,0.44-0.34,0.53c0,0.09,0.14,0.43,0.31,0.77
			c0.24,0.46,0.31,0.73,0.31,1.09c-0.02,0.66-0.19,1.47-0.36,1.67c-0.09,0.1-0.18,0.32-0.22,0.5c-0.03,0.18-0.16,0.54-0.29,0.8
			c-0.11,0.26-0.22,0.61-0.22,0.79c0,0.18-0.1,0.41-0.24,0.58c-0.13,0.16-0.24,0.4-0.24,0.57c0,0.15-0.07,0.34-0.14,0.4
			c-0.08,0.07-0.21,0.34-0.29,0.61c-0.18,0.61-0.49,1.41-0.78,2.02c-0.12,0.27-0.23,0.56-0.23,0.65c0,0.1-0.09,0.34-0.19,0.55
			c-0.11,0.21-0.19,0.46-0.19,0.56c0,0.11-0.11,0.38-0.24,0.63c-0.13,0.25-0.24,0.51-0.24,0.56c0,0.07-0.1,0.29-0.21,0.5
			c-0.11,0.21-0.24,0.58-0.28,0.82s-0.18,0.6-0.32,0.8c-0.3,0.44-0.32,0.77-0.05,0.91c0.13,0.08,1.09,0.1,3.04,0.08
			c2.93-0.03,3.27-0.08,3.27-0.43c0-0.08,0.09-0.29,0.18-0.45c0.11-0.16,0.22-0.47,0.26-0.68c0.04-0.21,0.14-0.54,0.24-0.72
			c0.11-0.18,0.18-0.45,0.18-0.59c0-0.13,0.11-0.38,0.24-0.54c0.13-0.16,0.27-0.43,0.31-0.61c0.03-0.17,0.13-0.43,0.23-0.57
			c0.11-0.13,0.18-0.33,0.18-0.43c0-0.1,0.11-0.4,0.24-0.68c0.13-0.29,0.24-0.56,0.24-0.63c0-0.06,0.08-0.26,0.18-0.44
			c0.1-0.18,0.2-0.54,0.24-0.78c0.04-0.25,0.14-0.52,0.25-0.61c0.1-0.09,0.21-0.3,0.25-0.47c0.03-0.16,0.13-0.45,0.23-0.63
			c0.1-0.18,0.24-0.56,0.34-0.81c0.09-0.27,0.26-0.74,0.38-1.05c0.11-0.32,0.27-0.73,0.34-0.91c0.46-1.29,0.9-1.74,1.84-1.87
			c0.77-0.11,1.21,0.02,1.71,0.5c0.67,0.63,0.79,1.19,0.45,2.09c-0.25,0.64-1.12,1.57-1.61,1.72c-0.22,0.07-0.33,0.36-0.25,0.68
			c0.06,0.21,0.11,0.23,0.56,0.23c0.85,0,2.43-0.27,2.82-0.48c0.2-0.11,0.47-0.19,0.6-0.19c0.13,0,0.34-0.07,0.48-0.14
			c0.36-0.2,0.87-0.49,1.25-0.69c0.71-0.38,1.78-1.35,1.94-1.75c0.11-0.26,0.21-0.38,0.34-0.38c0.21,0,0.64,0.53,0.74,0.91
			c0.12,0.5,0.63,1.11,1.51,1.83c1.27,1.03,1.23,0.98,1.12,1.17c-0.07,0.12-0.44,0.2-1.85,0.36c-1.98,0.24-2.53,0.42-3.4,1.16
			c-0.81,0.69-1.01,1.01-1.13,1.87c-0.16,1.09-0.03,1.91,0.41,2.49c0.48,0.64,1.47,1.41,2.01,1.56c0.25,0.07,0.69,0.22,0.98,0.34
			c1.46,0.57,1.5,0.58,5.12,0.58c3.34-0.01,3.36-0.01,4.05-0.25c0.37-0.13,0.77-0.24,0.85-0.24c0.1,0,0.31-0.09,0.48-0.18
			c0.16-0.11,0.47-0.22,0.67-0.26c0.2-0.03,0.43-0.11,0.51-0.18c0.08-0.07,0.29-0.19,0.46-0.28c0.53-0.27,1.32-1.16,1.76-1.96
			c0.56-1.05,0.73-1.02,0.93,0.13c0.09,0.49,0.09,0.76,0.02,0.95c-0.06,0.14-0.11,0.37-0.11,0.52c0,0.18-0.11,0.34-0.35,0.55
			c-0.52,0.41-0.98,0.72-1.08,0.72c-0.05,0-0.24,0.13-0.41,0.29c-0.18,0.16-0.41,0.29-0.52,0.29c-0.11,0-0.29,0.11-0.41,0.24
			c-0.12,0.13-0.34,0.24-0.47,0.24c-0.13,0-0.39,0.09-0.57,0.2c-0.18,0.11-0.57,0.22-0.86,0.25c-0.3,0.03-0.7,0.13-0.9,0.24
			c-0.21,0.11-0.43,0.16-0.51,0.13c-0.07-0.03-0.55,0.08-1.06,0.23c-0.79,0.23-1.19,0.28-2.51,0.34c-0.98,0.04-1.72,0.12-1.96,0.21
			c-0.29,0.1-1.19,0.16-3.27,0.23c-3.01,0.09-6.53,0.23-9.77,0.38c-1.05,0.05-3.33,0.07-5.07,0.04c-1.73-0.03-4.82-0.07-6.85-0.1
			c-2.03-0.03-4.76-0.11-6.08-0.16c-1.65-0.08-7.64-0.11-19.29-0.11c-15.68-0.01-16.99,0.01-18.1,0.16
			c-0.66,0.1-1.92,0.21-2.82,0.25c-1.12,0.06-1.74,0.13-1.99,0.24c-0.2,0.08-0.71,0.19-1.13,0.24c-0.41,0.06-0.88,0.16-1.03,0.25
			c-0.15,0.08-0.54,0.17-0.84,0.2c-0.31,0.04-0.68,0.13-0.84,0.23c-0.15,0.1-0.48,0.19-0.71,0.23c-0.23,0.04-0.54,0.15-0.68,0.25
			c-0.15,0.11-0.34,0.19-0.45,0.19c-0.14,0-1.13,0.43-1.56,0.69c-0.08,0.04-0.3,0.15-0.48,0.25c-0.72,0.35-1.72,1.2-2.36,1.97
			c-0.95,1.16-1.46,1.89-1.52,2.21c-0.04,0.16-0.12,0.38-0.2,0.49c-0.35,0.57-0.4,3.44-0.06,3.96c0.09,0.13,0.18,0.47,0.22,0.74
			c0.04,0.28,0.16,0.62,0.27,0.76c0.11,0.14,0.2,0.38,0.2,0.55c0,0.25,0.33,1.14,0.6,1.65c0.06,0.11,0.21,0.38,0.34,0.62
			c0.43,0.8,0.55,1.01,0.65,1.15c0.06,0.08,0.27,0.44,0.45,0.79c0.19,0.36,0.47,0.79,0.61,0.98c0.14,0.18,0.42,0.53,0.6,0.78
			c0.9,1.21,2.87,3.3,5.15,5.5c0.93,0.89,2.14,1.92,2.27,1.92c0.04,0,0.31,0.21,0.6,0.46c0.77,0.65,1.57,1.2,2.65,1.8
			c0.16,0.09,0.41,0.26,0.56,0.38c0.15,0.12,0.32,0.23,0.36,0.23c0.06,0,0.24,0.11,0.41,0.24c0.17,0.13,0.36,0.24,0.42,0.24
			s0.39,0.15,0.76,0.35c0.35,0.19,0.96,0.49,1.32,0.67c0.37,0.18,0.74,0.37,0.81,0.42c0.08,0.05,0.3,0.15,0.48,0.24
			c0.18,0.08,0.51,0.23,0.73,0.33c0.22,0.11,0.48,0.19,0.57,0.19c0.1,0,0.44,0.12,0.76,0.28c1.11,0.53,1.49,0.68,1.73,0.68
			c0.13,0,0.51,0.11,0.83,0.23c1,0.38,1.92,0.64,2.41,0.7c0.27,0.02,0.67,0.11,0.91,0.18c0.99,0.3,2.92,0.62,4.31,0.72
			c0.81,0.05,1.96,0.13,2.54,0.18c0.58,0.06,1.45,0.1,1.92,0.1c1.45,0,5.3-0.29,6.42-0.49c0.59-0.1,1.2-0.18,1.34-0.18
			c0.15-0.01,0.52-0.1,0.8-0.2c0.29-0.11,0.81-0.23,1.17-0.27c0.34-0.05,0.93-0.19,1.29-0.32c1.19-0.44,1.9-0.65,2.13-0.65
			c0.13,0,0.41-0.08,0.62-0.18c1.33-0.6,1.77-0.78,1.96-0.78c0.11,0,0.59-0.19,1.05-0.43c0.46-0.24,0.87-0.43,0.91-0.43
			c0.19,0,1.75-0.82,2.64-1.41c0.34-0.22,0.75-0.45,0.89-0.5c0.38-0.15,2.08-1.28,2.36-1.58c0.13-0.13,0.28-0.25,0.34-0.25
			c0.25,0,2.15-1.49,3.69-2.88c1.34-1.21,3.59-3.58,4.32-4.54c1.47-1.93,1.7-2.25,2.2-3.02c1.14-1.73,2.39-3.86,2.39-4.05
			c0-0.08,0.08-0.24,0.18-0.36c0.1-0.12,0.21-0.34,0.25-0.47s0.15-0.34,0.25-0.47c0.11-0.12,0.18-0.3,0.18-0.39
			c0-0.09,0.12-0.35,0.29-0.58c0.15-0.23,0.29-0.5,0.29-0.59s0.09-0.34,0.19-0.53c0.34-0.64,0.67-1.44,0.67-1.62
			c0-0.1,0.09-0.32,0.19-0.49c0.11-0.17,0.22-0.52,0.26-0.77c0.03-0.25,0.14-0.64,0.24-0.87c0.11-0.24,0.22-0.69,0.24-1.01
			c0.06-0.58,0.28-1.17,0.53-1.38c0.08-0.06,0.63-0.13,1.24-0.17c0.6-0.03,1.28-0.11,1.52-0.18c0.24-0.08,1.38-0.18,2.54-0.24
			c1.16-0.07,2.38-0.17,2.73-0.26c0.34-0.08,1.1-0.15,1.68-0.18c0.58-0.03,1.29-0.11,1.59-0.19c0.3-0.08,1.17-0.2,1.93-0.27
			c0.88-0.09,1.49-0.19,1.69-0.3c0.19-0.1,0.63-0.18,1.09-0.21c0.81-0.05,1.57-0.29,2.16-0.67c0.18-0.12,0.38-0.22,0.44-0.22
			c0.21,0,1.76-1.58,1.76-1.8c0-0.11,0.11-0.36,0.24-0.56c0.13-0.19,0.24-0.41,0.24-0.49c0-0.07,0.09-0.3,0.19-0.51
			c0.16-0.33,0.19-0.56,0.19-1.84c0-1.29-0.02-1.5-0.19-1.78c-0.11-0.17-0.19-0.37-0.19-0.45s-0.09-0.21-0.18-0.31
			c-0.48-0.45-1.25-1.8-1.25-2.19c0-0.6-0.89-1.84-1.52-2.11c-0.13-0.06-0.44-0.3-0.68-0.53c-0.49-0.49-1.16-1.03-1.87-1.52
			c-0.26-0.18-0.49-0.36-0.51-0.4c-0.04-0.08-0.75-0.65-1.23-0.99c-0.15-0.11-0.47-0.36-0.69-0.57c-0.34-0.33-0.43-0.47-0.47-0.81
			c-0.07-0.6,0.34-1.17,1-1.37c0.86-0.28,1.6-0.3,2.31-0.06c1.1,0.35,1.46,0.83,1.46,1.96c0,0.64-0.03,0.77-0.25,1.01
			c-0.15,0.19-0.23,0.38-0.21,0.55l0.03,0.25l1.34,0.03c1.58,0.04,2.33-0.12,2.65-0.57c0.15-0.23,0.26-0.27,0.63-0.27
			c0.51,0,0.61-0.05,0.78-0.36c0.14-0.28,0.47-0.28,0.53,0c0.03,0.12,0.07,0.51,0.08,0.85c0.03,0.46,0.09,0.7,0.24,0.89
			c0.13,0.17,0.23,0.46,0.27,0.85c0.03,0.33,0.08,0.77,0.1,0.98c0.03,0.21,0.07,0.75,0.1,1.18c0.03,0.44,0.07,0.83,0.1,0.88
			c0.02,0.04,0.05,1.88,0.06,4.08c0.01,3.68-0.01,4.09-0.18,4.97c-0.11,0.53-0.22,1.4-0.26,1.94c-0.03,0.54-0.12,1.16-0.2,1.38
			c-0.08,0.23-0.18,0.84-0.24,1.37c-0.06,0.53-0.18,1.3-0.28,1.72c-0.11,0.42-0.21,0.98-0.24,1.24c-0.04,0.26-0.14,0.76-0.25,1.09
			c-0.1,0.34-0.18,0.76-0.18,0.93c0,0.18-0.09,0.5-0.19,0.71c-0.11,0.2-0.22,0.62-0.25,0.93c-0.04,0.31-0.14,0.72-0.25,0.92
			c-0.1,0.2-0.21,0.59-0.24,0.86c-0.03,0.28-0.13,0.65-0.22,0.83c-0.1,0.18-0.2,0.55-0.23,0.8c-0.04,0.25-0.15,0.59-0.26,0.77
			c-0.1,0.16-0.18,0.36-0.18,0.45s-0.11,0.35-0.24,0.6c-0.13,0.25-0.24,0.53-0.24,0.61c0,0.1-0.11,0.33-0.24,0.52
			c-0.13,0.19-0.24,0.45-0.24,0.56c0,0.11-0.11,0.33-0.24,0.49c-0.13,0.15-0.24,0.35-0.24,0.44c0,0.12-0.95,2.11-1.24,2.6
			c-0.05,0.08-0.22,0.44-0.38,0.81c-0.16,0.36-0.34,0.74-0.39,0.81c-0.05,0.08-0.17,0.32-0.28,0.53c-0.29,0.58-0.77,1.43-0.87,1.52
			c-0.05,0.06-0.09,0.15-0.09,0.21c0,0.07-0.2,0.41-0.44,0.76c-0.24,0.35-0.47,0.74-0.52,0.86c-0.11,0.27-1.29,2.11-1.58,2.44
			c-0.11,0.13-0.41,0.57-0.67,1c-0.25,0.41-0.58,0.86-0.73,1c-0.15,0.13-0.28,0.3-0.28,0.36c0,0.07-0.18,0.34-0.4,0.6
			c-0.23,0.27-0.54,0.65-0.7,0.87c-0.15,0.22-0.52,0.66-0.8,0.99c-0.29,0.33-0.63,0.75-0.77,0.93c-0.5,0.69-4.6,4.86-5.54,5.67
			c-0.43,0.36-1.18,1.02-1.66,1.47c-0.48,0.45-1.05,0.93-1.27,1.06c-0.21,0.13-0.59,0.42-0.83,0.64c-0.25,0.22-0.74,0.58-1.08,0.82
			c-0.35,0.24-0.89,0.63-1.2,0.89c-0.32,0.25-0.59,0.45-0.63,0.45s-0.32,0.19-0.62,0.42c-0.3,0.23-0.64,0.45-0.76,0.49
			c-0.11,0.03-0.42,0.25-0.7,0.47c-0.28,0.23-0.61,0.45-0.75,0.49c-0.28,0.09-1.78,0.97-2.06,1.21c-0.11,0.1-0.3,0.21-0.43,0.27
			c-0.13,0.06-0.31,0.14-0.38,0.18c-0.26,0.15-1.55,0.81-2.6,1.33c-0.56,0.28-1.04,0.55-1.08,0.6c-0.03,0.05-0.15,0.1-0.28,0.1
			c-0.11,0-0.59,0.2-1.05,0.44c-0.46,0.24-1.03,0.49-1.28,0.56c-0.67,0.19-1.27,0.41-1.59,0.58c-0.14,0.09-0.47,0.21-0.72,0.29
			c-0.53,0.14-1.96,0.67-2.19,0.79c-0.1,0.05-0.35,0.11-0.57,0.15c-0.22,0.03-0.58,0.14-0.8,0.24c-0.23,0.11-0.5,0.19-0.59,0.19
			c-0.11,0-0.54,0.11-0.96,0.23c-0.96,0.29-1.83,0.51-2.64,0.68c-0.34,0.07-1.03,0.21-1.53,0.32c-1.16,0.25-2.97,0.57-3.59,0.63
			c-0.26,0.03-1.03,0.14-1.72,0.25c-1.83,0.29-6.54,0.41-10.55,0.29c-1.72-0.06-3.35-0.14-3.62-0.19c-0.26-0.05-1-0.15-1.63-0.24
			c-0.63-0.09-1.53-0.24-2.01-0.34c-0.47-0.1-1.05-0.18-1.29-0.18c-0.38,0-0.95-0.11-3.02-0.62c-0.36-0.1-0.88-0.21-1.15-0.26
			c-0.26-0.06-0.79-0.2-1.18-0.33s-0.75-0.23-0.81-0.23c-0.06,0-0.37-0.11-0.69-0.24c-0.32-0.12-0.69-0.24-0.83-0.24
			c-0.24,0-0.97-0.27-1.86-0.68c-0.22-0.1-0.51-0.18-0.65-0.18c-0.14,0-0.55-0.13-0.9-0.3c-1.29-0.6-1.43-0.66-1.59-0.66
			c-0.1,0-0.37-0.11-0.62-0.24c-0.65-0.34-1.49-0.72-1.63-0.72c-0.07,0-0.24-0.08-0.37-0.17c-0.29-0.2-1.47-0.79-1.59-0.79
			c-0.04,0-0.34-0.15-0.66-0.35c-0.59-0.34-1.28-0.72-2.27-1.23c-0.29-0.15-0.61-0.34-0.72-0.44c-0.11-0.09-0.49-0.33-0.86-0.52
			c-0.36-0.19-0.88-0.5-1.13-0.68c-0.26-0.18-0.56-0.37-0.68-0.42c-0.12-0.04-0.41-0.21-0.64-0.37c-0.23-0.17-0.53-0.37-0.66-0.46
			c-0.13-0.1-0.43-0.33-0.67-0.52s-0.55-0.4-0.68-0.48c-0.32-0.17-1.09-0.77-1.83-1.41c-0.32-0.27-0.61-0.5-0.66-0.5
			c-0.05,0-0.26-0.15-0.46-0.34c-0.21-0.18-0.51-0.43-0.67-0.55c-0.43-0.32-3.44-3.04-3.48-3.14c-0.02-0.05-0.61-0.69-1.32-1.43
			c-1.76-1.81-3.31-3.51-3.61-3.97c-0.13-0.21-0.4-0.56-0.59-0.78c-0.19-0.21-0.52-0.63-0.73-0.95c-0.21-0.31-0.45-0.62-0.53-0.71
			c-0.09-0.09-0.29-0.36-0.45-0.6c-0.47-0.69-0.73-1.05-0.99-1.38c-0.13-0.17-0.34-0.49-0.48-0.72c-0.13-0.22-0.42-0.68-0.64-1.01
			c-0.23-0.34-0.41-0.65-0.41-0.69c0-0.05-0.12-0.26-0.29-0.47c-0.15-0.22-0.29-0.42-0.29-0.46c0-0.03-0.11-0.19-0.24-0.36
			c-0.13-0.17-0.24-0.36-0.24-0.43c0-0.07-0.11-0.28-0.24-0.47c-0.13-0.19-0.24-0.38-0.24-0.43c0-0.04-0.11-0.24-0.24-0.43
			c-0.13-0.19-0.24-0.45-0.24-0.56c0-0.11-0.11-0.34-0.24-0.49c-0.13-0.16-0.24-0.37-0.24-0.48c0-0.11-0.07-0.24-0.15-0.32
			c-0.23-0.19-1.67-3.23-1.67-3.52c0-0.1-0.11-0.27-0.24-0.39c-0.16-0.15-0.24-0.33-0.24-0.55c0-0.29-0.15-0.68-0.68-1.8
			c-0.11-0.22-0.21-0.56-0.25-0.77c-0.03-0.21-0.13-0.5-0.23-0.64c-0.11-0.13-0.18-0.35-0.18-0.48s-0.11-0.42-0.24-0.67
			c-0.15-0.28-0.24-0.6-0.24-0.86c0-0.29-0.08-0.53-0.24-0.77c-0.13-0.2-0.24-0.5-0.24-0.67c0-0.17-0.1-0.51-0.2-0.75
			c-0.12-0.26-0.23-0.76-0.27-1.26c-0.05-0.47-0.13-0.93-0.22-1.05c-0.09-0.12-0.18-0.46-0.22-0.75c-0.04-0.29-0.15-0.77-0.25-1.05
			c-0.11-0.29-0.21-0.87-0.24-1.29c-0.03-0.42-0.12-1.2-0.23-1.72c-0.1-0.53-0.25-1.69-0.34-2.59c-0.09-0.9-0.19-1.79-0.24-1.96
			c-0.12-0.44-0.12-4.14,0.01-5.74c0.08-0.92,0.08-1.41,0.01-1.67c-0.11-0.39,0-2.69,0.17-3.6c0.05-0.27,0.11-0.91,0.15-1.42
			c0.03-0.51,0.11-1.12,0.19-1.36c0.07-0.24,0.17-0.92,0.23-1.51c0.07-0.59,0.2-1.37,0.31-1.72c0.11-0.35,0.22-0.9,0.27-1.22
			c0.05-0.32,0.15-0.77,0.23-1c0.09-0.23,0.15-0.51,0.15-0.62c0-0.2,0.27-1.22,0.73-2.69c0.12-0.42,0.23-0.84,0.23-0.94
			s0.21-0.71,0.48-1.37c0.26-0.66,0.48-1.27,0.48-1.36s0.08-0.3,0.17-0.45c0.1-0.16,0.23-0.48,0.3-0.72s0.16-0.48,0.2-0.53
			c0.04-0.06,0.14-0.34,0.24-0.62s0.34-0.88,0.55-1.31c0.2-0.43,0.36-0.81,0.36-0.86c0-0.04,0.11-0.29,0.23-0.56
			c0.12-0.26,0.28-0.58,0.34-0.72c0.11-0.22,0.32-0.63,0.51-0.96c0.05-0.08,0.15-0.3,0.25-0.48c0.09-0.18,0.34-0.64,0.57-1.02
			c0.22-0.37,0.55-0.96,0.72-1.29c0.55-1.02,1.14-2.03,1.33-2.24c0.1-0.11,0.17-0.23,0.17-0.27c0-0.14,1.45-2.32,2.39-3.6
			c0.36-0.5,0.77-1.05,0.87-1.23c0.11-0.17,0.28-0.35,0.37-0.4c0.1-0.06,0.39-0.41,0.66-0.79c0.27-0.38,1.06-1.3,1.77-2.04
			c5.57-5.86,5.59-5.88,7.66-7.46c1.49-1.15,6.48-4.56,6.66-4.56c0.11,0,1.31-0.75,2.92-1.81c0.68-0.45,1.46-0.94,1.72-1.07
			c0.27-0.13,0.7-0.35,0.96-0.49c1.55-0.79,3.3-1.57,3.86-1.7c0.17-0.04,0.37-0.12,0.44-0.18c0.07-0.06,0.35-0.19,0.64-0.29
			c0.6-0.21,1.44-0.55,1.89-0.76c0.16-0.08,0.49-0.18,0.72-0.22c0.22-0.04,0.77-0.21,1.22-0.37c0.81-0.3,0.98-0.35,2.06-0.61
			c0.94-0.23,1.42-0.35,1.72-0.46c0.45-0.15,1.85-0.47,3.45-0.76c0.27-0.05,0.87-0.17,1.34-0.28c1.01-0.21,4.12-0.56,6.07-0.68
			c0.76-0.05,1.4-0.11,1.43-0.13C242.44,133.23,248.12,133.27,249.64,133.37z M308.81,186.08c0,0.08-0.04,0.13-0.1,0.13
			c-0.05,0-0.1-0.09-0.1-0.2c0-0.11,0.05-0.16,0.1-0.13C308.77,185.91,308.81,186.01,308.81,186.08z M295.88,192.48
			c0.62,0.41,1.89,1.75,2.01,2.13c0.22,0.65-0.08,1.47-0.53,1.47c-0.14,0-0.3,0.1-0.39,0.24c-0.17,0.27-0.53,0.32-0.71,0.1
			c-0.09-0.11-0.28-0.14-0.61-0.13c-0.27,0.01-0.94-0.04-1.49-0.11c-0.98-0.12-1.01-0.13-1.36-0.5c-0.2-0.2-0.43-0.51-0.52-0.67
			c-0.23-0.45-0.11-1.2,0.29-1.82c0.59-0.93,0.86-1.05,2.15-0.99C295.38,192.23,295.6,192.29,295.88,192.48z M283.8,206.35
			c0.21,0.21,0.13,1.09-0.12,1.59c-0.13,0.25-0.24,0.58-0.24,0.75c0,0.17-0.08,0.36-0.18,0.46c-0.12,0.11-0.21,0.36-0.26,0.72
			c-0.03,0.3-0.14,0.67-0.24,0.83c-0.11,0.16-0.18,0.39-0.18,0.52c0,0.52-1.87,4.38-2.87,5.94c-0.15,0.24-0.33,0.54-0.38,0.66
			c-0.06,0.12-0.23,0.37-0.38,0.56c-0.16,0.18-0.29,0.36-0.29,0.41c0,0.12-0.76,1.25-1.02,1.52c-0.11,0.12-0.22,0.31-0.22,0.4
			c0,0.09-0.11,0.26-0.26,0.37c-0.15,0.11-0.39,0.37-0.56,0.57c-1.21,1.55-3.22,3.75-3.8,4.16c-0.11,0.08-0.52,0.45-0.92,0.84
			c-0.41,0.39-0.86,0.79-1.02,0.89c-0.15,0.1-0.51,0.37-0.78,0.61c-0.27,0.25-0.92,0.74-1.47,1.11c-0.54,0.36-1.13,0.79-1.32,0.93
			c-0.19,0.15-0.39,0.27-0.45,0.27c-0.06,0-0.33,0.15-0.58,0.34c-0.76,0.54-2.01,1.27-2.41,1.42c-0.2,0.07-0.63,0.29-0.97,0.48
			c-0.33,0.2-0.87,0.44-1.2,0.56c-0.33,0.11-0.89,0.34-1.26,0.51c-0.89,0.41-1.65,0.72-2.07,0.82c-0.18,0.04-0.53,0.16-0.77,0.27
			c-0.23,0.11-0.57,0.2-0.76,0.2s-0.68,0.11-1.1,0.25c-1.61,0.52-1.93,0.6-2.63,0.66c-0.39,0.03-1.19,0.13-1.77,0.24
			c-3.2,0.57-7.71,0.58-11.11,0.03c-0.47-0.08-1.24-0.18-1.72-0.23c-0.47-0.05-1.07-0.14-1.34-0.22c-0.26-0.08-0.74-0.2-1.05-0.28
			c-1.38-0.34-3.52-1-4.12-1.26c-0.83-0.38-1.43-0.62-1.52-0.62c-0.06,0-0.26-0.08-0.44-0.18c-0.18-0.1-0.49-0.21-0.67-0.25
			s-0.4-0.12-0.48-0.19c-0.16-0.12-1.1-0.63-1.64-0.86c-0.19-0.09-0.78-0.51-1.3-0.95c-0.52-0.43-1.01-0.81-1.1-0.85
			c-0.1-0.03-0.25-0.22-0.35-0.42c-0.11-0.2-0.44-0.62-0.74-0.94c-0.75-0.79-2.04-2.64-2.05-2.92c0-0.09-0.07-0.24-0.14-0.35
			c-0.19-0.28-0.62-1.49-0.74-2.09c-0.05-0.27-0.18-0.76-0.29-1.1c-0.19-0.6-0.19-0.65-0.04-1.34c0.09-0.39,0.19-1.1,0.25-1.56
			c0.06-0.56,0.15-0.96,0.29-1.16c0.11-0.18,0.19-0.4,0.19-0.5c0-0.11,0.11-0.34,0.24-0.54c0.13-0.19,0.24-0.39,0.24-0.43
			c0-0.18,2.14-2.81,2.3-2.81c0.03,0,0.36-0.24,0.76-0.53c0.39-0.29,0.76-0.53,0.82-0.53s0.19-0.09,0.28-0.18
			c0.1-0.11,0.28-0.21,0.42-0.25c0.13-0.03,0.35-0.13,0.49-0.23c0.13-0.1,0.34-0.21,0.47-0.24c0.11-0.04,0.5-0.24,0.85-0.45
			c0.35-0.2,0.79-0.4,0.99-0.43c0.18-0.04,0.53-0.16,0.77-0.29c0.27-0.14,0.59-0.23,0.86-0.23c0.26,0,0.56-0.08,0.74-0.18
			c0.16-0.11,0.54-0.23,0.83-0.29c0.29-0.06,0.65-0.16,0.79-0.23c0.15-0.08,0.66-0.17,1.13-0.21c0.48-0.04,1.03-0.13,1.24-0.21
			c0.21-0.08,0.88-0.2,1.48-0.27s1.41-0.19,1.77-0.28c0.46-0.11,1.18-0.15,2.31-0.15c1.12,0,1.78-0.04,2.11-0.13
			c0.58-0.17,1.33-0.23,4.54-0.34c1.4-0.05,3.02-0.15,3.59-0.24c0.67-0.1,2.3-0.18,4.45-0.24c1.96-0.05,3.91-0.15,4.6-0.24
			c0.66-0.09,2.23-0.19,3.49-0.24c1.26-0.05,2.75-0.15,3.3-0.24c0.62-0.09,1.99-0.16,3.59-0.19c2.77-0.06,5.31-0.21,5.69-0.35
			c0.12-0.05,0.99-0.11,1.92-0.12c0.93-0.03,2.1-0.08,2.59-0.11c0.5-0.04,1.13-0.06,1.39-0.05c0.27,0,0.58-0.06,0.72-0.13
			C283.26,206.2,283.65,206.19,283.8,206.35z"/>
		<path d="M241.4,156.25c-0.66,0.05-1.39,0.13-1.63,0.18c-0.24,0.06-0.79,0.17-1.24,0.25c-0.45,0.08-1.05,0.21-1.34,0.29
			c-0.29,0.08-0.68,0.14-0.88,0.14c-0.33,0-2.08,0.48-2.9,0.8c-0.21,0.08-0.49,0.14-0.61,0.15c-0.21,0-0.86,0.25-1.78,0.67
			c-0.21,0.1-0.51,0.2-0.66,0.24c-0.15,0.03-0.41,0.16-0.56,0.3c-0.15,0.12-0.35,0.23-0.46,0.23c-0.11,0-0.35,0.09-0.56,0.19
			c-0.21,0.11-0.45,0.19-0.54,0.19c-0.09,0-0.3,0.11-0.46,0.22c-0.16,0.12-0.57,0.35-0.92,0.51c-0.34,0.14-0.97,0.48-1.39,0.73
			c-0.42,0.25-0.79,0.46-0.83,0.46s-0.56,0.34-1.15,0.74c-0.59,0.4-1.27,0.86-1.51,1.02c-0.23,0.16-0.5,0.35-0.58,0.44
			c-0.09,0.08-0.33,0.25-0.52,0.38c-0.19,0.13-0.58,0.43-0.87,0.67c-0.29,0.24-0.76,0.62-1.04,0.86c-1.79,1.46-4.22,3.93-5.32,5.41
			c-0.81,1.09-0.78,1.06-1.58,1.14c-0.49,0.04-0.79,0.02-0.93-0.06c-0.61-0.34-1.41-0.38-6.77-0.43l-5.32-0.05l-1.5,0.3
			c-0.83,0.16-1.66,0.35-1.84,0.43c-0.18,0.08-0.54,0.17-0.79,0.21c-0.47,0.07-1.55,0.53-1.93,0.82c-0.12,0.1-0.32,0.17-0.42,0.17
			c-0.37,0-2.61,1.66-3.03,2.24c-0.08,0.11-0.15,0.34-0.17,0.53c-0.01,0.2-0.11,0.4-0.21,0.49c-0.11,0.08-0.24,0.34-0.29,0.57
			c-0.06,0.24-0.16,0.62-0.25,0.85c-0.08,0.23-0.14,0.62-0.14,0.88c0,0.46,0.04,0.55,0.69,1.51c0.35,0.51,0.95,1.16,1.08,1.16
			c0.07,0,0.17,0.07,0.25,0.15c0.21,0.25,1.1,0.8,1.3,0.8c0.11,0,0.3,0.08,0.42,0.17c0.12,0.11,0.34,0.21,0.48,0.24
			c0.28,0.07,0.85,0.66,0.85,0.88c0,0.08,0.11,0.3,0.24,0.49c0.13,0.19,0.24,0.43,0.24,0.53s0.04,0.2,0.1,0.23
			c0.14,0.09,0.77,1.06,0.77,1.2c0,0.11,0.73,1.35,1.08,1.82c0.3,0.4,0.64,0.96,0.93,1.49c0.14,0.28,0.36,0.64,0.47,0.79
			c0.11,0.16,0.49,0.84,0.84,1.51c0.34,0.67,0.66,1.27,0.7,1.32c0.05,0.06,0.13,0.32,0.2,0.57c0.06,0.27,0.17,0.59,0.24,0.74
			c0.09,0.15,0.13,0.57,0.13,1.07c0,0.92-0.35,2.2-0.74,2.67c-0.12,0.15-0.22,0.31-0.22,0.35c0,0.05-0.26,0.37-0.57,0.74
			c-0.32,0.35-0.62,0.79-0.68,0.97c-0.07,0.19-0.18,0.33-0.33,0.36c-0.11,0.03-1.08,0.04-2.14,0.02c-1.8-0.03-1.93-0.04-2.14-0.23
			c-0.12-0.11-0.36-0.28-0.54-0.36c-0.16-0.09-0.31-0.2-0.31-0.24c0-0.05-0.17-0.27-0.38-0.49c-0.21-0.22-0.38-0.48-0.38-0.57
			c0-0.11-0.09-0.4-0.19-0.67c-0.27-0.69-0.27-2.11,0-2.63c0.11-0.21,0.19-0.49,0.19-0.62s0.06-0.34,0.13-0.48
			c0.07-0.13,0.26-0.49,0.41-0.79c0.32-0.59,0.82-1.32,1.13-1.62c0.58-0.56,1.41-1.13,1.64-1.13c0.34,0,0.9-0.56,0.9-0.9
			c0-0.13-0.08-0.28-0.16-0.34c-0.44-0.23-3.72-0.08-4.92,0.24c-0.3,0.08-0.71,0.13-0.91,0.13c-0.21,0-0.6,0.11-0.88,0.24
			c-0.29,0.13-0.57,0.24-0.64,0.24c-0.07,0-0.22,0.08-0.34,0.18c-0.12,0.1-0.38,0.21-0.56,0.25c-0.53,0.11-0.95,0.4-1.74,1.22
			c-1.06,1.08-1.22,1.39-1.68,3.33c-0.13,0.56-0.13,1.79,0,2.78c0.06,0.44,0.38,1.19,0.61,1.45c0.11,0.13,0.22,0.32,0.22,0.4
			c0,0.15,0.16,0.45,0.75,1.34c0.2,0.31,0.97,0.93,1.13,0.93c0.03,0,0.3,0.22,0.59,0.48c0.3,0.27,0.6,0.48,0.7,0.48
			c0.09,0,0.31,0.11,0.49,0.23c0.19,0.12,0.53,0.26,0.76,0.3c0.23,0.04,0.57,0.13,0.76,0.2c0.35,0.14,1.44,0.38,2.3,0.52
			c0.67,0.11,2.67,0.11,3.35,0c2.02-0.3,2.52-0.39,2.76-0.51c0.14-0.08,0.47-0.16,0.73-0.2c0.29-0.04,0.56-0.14,0.7-0.27
			c0.15-0.14,0.38-0.22,0.77-0.25c0.34-0.03,0.64-0.11,0.79-0.22c0.12-0.11,0.32-0.18,0.43-0.18c0.11,0,0.44-0.15,0.73-0.34
			c0.29-0.18,0.7-0.43,0.91-0.54c0.62-0.32,1.6-1.17,2.06-1.79c0.24-0.33,0.55-0.75,0.7-0.94c0.14-0.18,0.26-0.41,0.26-0.5
			c0-0.09,0.11-0.32,0.24-0.51c0.13-0.19,0.24-0.43,0.24-0.52c0-0.1,0.09-0.48,0.18-0.84c0.11-0.37,0.21-0.9,0.24-1.18
			c0.06-0.46,0.05-0.51-0.18-0.66c-0.23-0.15-0.24-0.18-0.24-1.33c0-1.02-0.02-1.2-0.19-1.42c-0.11-0.13-0.22-0.45-0.26-0.71
			c-0.03-0.25-0.13-0.56-0.24-0.69c-0.1-0.12-0.17-0.33-0.17-0.45c0-0.11-0.11-0.34-0.23-0.49c-0.12-0.14-0.26-0.37-0.3-0.51
			s-0.14-0.33-0.24-0.43c-0.22-0.27-0.54-0.81-0.62-1.1c-0.12-0.4-0.98-1.88-1.24-2.14c-0.13-0.14-0.25-0.34-0.25-0.45
			c0-0.11-0.09-0.33-0.2-0.47c-0.13-0.18-0.18-0.34-0.14-0.47c0.08-0.24,0.56-0.42,0.85-0.32c0.3,0.11,2.99,0.03,3.3-0.11
			c0.14-0.06,0.79-0.13,1.46-0.17c0.95-0.06,1.28-0.11,1.6-0.27c0.22-0.11,0.51-0.21,0.64-0.21s0.27-0.05,0.3-0.1
			c0.03-0.06,0.35-0.29,0.71-0.53c0.36-0.23,0.76-0.58,0.88-0.78c0.12-0.2,0.35-0.56,0.51-0.79c0.27-0.41,0.29-0.53,0.33-1.52
			c0.04-1.07,0.04-1.08-0.28-1.69c-0.42-0.83-1.26-1.62-2.37-2.24c-0.74-0.41-1.02-0.52-1.58-0.58c-0.38-0.04-0.86-0.15-1.06-0.24
			c-0.51-0.21-3.46-0.34-5.57-0.23c-1.19,0.06-1.67,0.12-2.06,0.28c-0.29,0.11-0.68,0.19-0.89,0.19c-0.34,0-0.89,0.19-1.92,0.67
			c-0.21,0.1-0.66,0.31-1.01,0.46c-0.87,0.39-1.92,1.37-2.51,2.36c-0.27,0.45-0.55,1.24-0.59,1.68c-0.06,0.58-0.18,0.78-0.5,0.78
			c-0.56,0-1.78-1.29-2.02-2.16c-0.14-0.49-0.14-0.58,0.01-1.22c0.1-0.38,0.23-0.76,0.3-0.83c0.07-0.08,0.32-0.42,0.55-0.77
			c0.29-0.44,0.49-0.63,0.65-0.65c0.12-0.02,0.34-0.12,0.47-0.22c0.12-0.1,0.3-0.18,0.38-0.18s0.43-0.18,0.78-0.4
			c0.34-0.22,0.88-0.48,1.2-0.56c0.32-0.1,0.81-0.24,1.1-0.33c1.7-0.51,1.9-0.54,4.26-0.58c4.17-0.11,7.15,0.1,11.11,0.73
			c0.63,0.1,1.56,0.21,2.06,0.24c0.8,0.05,2.66,0.35,3.78,0.61c0.42,0.1,1.45,0.25,2.54,0.37c0.7,0.09,2.21,0.35,3.59,0.64
			c0.37,0.09,1.1,0.19,1.64,0.24c0.53,0.05,1.08,0.13,1.22,0.18c0.14,0.06,0.59,0.14,1.01,0.19c0.41,0.06,0.95,0.16,1.19,0.24
			c0.24,0.09,0.97,0.22,1.62,0.3c1.3,0.15,1.75,0.25,2.07,0.41c0.11,0.07,0.36,0.11,0.55,0.11c0.19,0,0.73,0.09,1.19,0.18
			s1.18,0.21,1.6,0.24c0.42,0.04,1.01,0.13,1.3,0.2c0.3,0.08,0.85,0.18,1.24,0.23c0.39,0.05,0.97,0.15,1.28,0.24
			c0.32,0.09,0.98,0.2,1.48,0.25c0.51,0.05,1.16,0.15,1.46,0.23c0.29,0.08,0.79,0.16,1.09,0.2c0.32,0.04,1.06,0.14,1.67,0.25
			c0.6,0.1,1.62,0.22,2.25,0.28c0.63,0.06,1.29,0.15,1.47,0.21c0.17,0.05,0.79,0.13,1.39,0.18c0.58,0.04,1.46,0.14,1.92,0.23
			c1.46,0.25,4.63,0.36,8.23,0.3c3.67-0.06,4.83-0.18,7.23-0.76c0.34-0.09,0.88-0.2,1.19-0.25c0.31-0.06,0.64-0.17,0.74-0.26
			c0.1-0.09,0.42-0.19,0.73-0.23c1.01-0.15,2.57-0.67,3.52-1.19c0.16-0.09,0.34-0.15,0.39-0.15c0.06,0,0.21-0.08,0.34-0.18
			c0.12-0.1,0.56-0.34,0.95-0.54c0.39-0.2,0.9-0.56,1.12-0.78c0.23-0.23,0.47-0.45,0.55-0.49s0.33-0.4,0.56-0.79l0.41-0.72v-1.01
			c0-0.88-0.04-1.1-0.27-1.72c-0.33-0.84-0.7-1.6-0.93-1.87c-0.1-0.11-0.23-0.31-0.3-0.44c-0.14-0.27-4-4.04-4.4-4.29
			c-0.13-0.09-0.6-0.44-1.04-0.8c-0.45-0.35-0.85-0.64-0.9-0.64c-0.05,0-0.29-0.18-0.53-0.39c-0.25-0.22-0.59-0.46-0.76-0.53
			c-0.17-0.08-0.32-0.18-0.32-0.23c0-0.06-0.11-0.14-0.24-0.19c-0.13-0.06-0.52-0.28-0.84-0.51c-0.33-0.22-0.72-0.46-0.88-0.54
			c-0.15-0.07-0.54-0.29-0.83-0.5c-0.31-0.2-0.63-0.37-0.72-0.37c-0.1,0-0.3-0.09-0.46-0.19c-0.15-0.11-0.55-0.32-0.86-0.47
			c-0.32-0.14-0.99-0.47-1.48-0.71c-0.5-0.24-1.03-0.47-1.2-0.51c-0.15-0.04-0.74-0.25-1.29-0.47s-1.2-0.43-1.42-0.47
			c-0.23-0.03-0.58-0.14-0.79-0.25c-0.2-0.11-0.43-0.19-0.5-0.19c-0.08,0-0.47-0.11-0.87-0.24s-0.9-0.24-1.11-0.24
			c-0.2,0-0.49-0.05-0.64-0.11c-0.14-0.06-0.85-0.21-1.56-0.34c-0.71-0.13-1.5-0.28-1.77-0.33
			C250.28,156.22,242.89,156.15,241.4,156.25z M250.02,157.7c0.71,0.11,1.72,0.23,2.25,0.28c1.09,0.1,1.5,0.18,1.93,0.4
			c0.17,0.1,0.46,0.16,0.65,0.16c0.19,0,0.51,0.09,0.72,0.19c0.21,0.11,0.44,0.19,0.53,0.19c0.08,0,0.58,0.21,1.12,0.48
			c0.54,0.26,1.01,0.48,1.06,0.48c0.11,0,1.75,0.97,2.09,1.24c0.13,0.11,0.45,0.3,0.69,0.43c0.25,0.12,0.59,0.37,0.77,0.56
			c0.17,0.17,0.67,0.63,1.09,1.01c1.67,1.47,2.77,3.26,2.99,4.79c0.14,0.98,0.04,1.55-0.42,2.42c-0.29,0.56-1.26,1.62-1.46,1.62
			c-0.05,0-0.16,0.09-0.26,0.19c-0.24,0.27-0.95,0.65-1.43,0.78c-0.21,0.05-0.5,0.17-0.63,0.27c-0.27,0.18-1.37,0.55-1.96,0.64
			c-0.21,0.03-0.6,0.12-0.87,0.19c-2.86,0.8-8.45,1.13-15.22,0.91c-1.84-0.07-4.54-0.15-5.98-0.2c-1.45-0.04-3.51-0.17-4.6-0.28
			c-3.55-0.36-5.87-0.57-7.42-0.68c-1.47-0.1-2.3-0.19-4.79-0.54c-2.04-0.28-2.47-0.32-3.42-0.33c-0.95,0-2.21-0.21-2.44-0.39
			c-0.24-0.2-0.12-0.42,0.7-1.33c0.45-0.5,1-1.16,1.22-1.47c0.22-0.3,0.43-0.55,0.48-0.55c0.05,0,0.43-0.34,0.87-0.75
			c0.69-0.65,1.7-1.54,2.96-2.6c0.22-0.19,0.52-0.39,0.65-0.46c0.13-0.08,0.4-0.28,0.6-0.46c0.19-0.18,0.5-0.39,0.66-0.48
			c0.17-0.09,0.53-0.33,0.79-0.53c0.27-0.21,0.51-0.37,0.54-0.37s0.34-0.17,0.66-0.38c0.34-0.21,0.79-0.46,1-0.57
			c0.21-0.11,0.56-0.3,0.77-0.43c0.21-0.13,0.49-0.29,0.62-0.34s0.46-0.21,0.73-0.34c0.27-0.12,0.53-0.23,0.57-0.23
			c0.05,0,0.19-0.09,0.33-0.19c0.13-0.11,0.31-0.19,0.38-0.19s0.35-0.11,0.62-0.23c1.37-0.66,1.76-0.82,1.98-0.82
			c0.13,0,0.35-0.09,0.48-0.19c0.13-0.1,0.43-0.23,0.66-0.28c0.23-0.06,0.58-0.16,0.78-0.25c0.2-0.08,0.48-0.14,0.62-0.14
			c0.15,0,0.51-0.07,0.79-0.14c0.29-0.09,0.79-0.21,1.1-0.29c0.32-0.08,0.87-0.22,1.24-0.34c0.36-0.11,0.85-0.19,1.08-0.19
			c0.22,0,0.98-0.09,1.68-0.19c0.84-0.13,2.09-0.22,3.75-0.28C247.29,157.42,248.3,157.44,250.02,157.7z M204.25,178.7
			c0.42,0.11,0.81,0.26,0.96,0.38c0.13,0.12,0.33,0.24,0.43,0.26c0.11,0.02,0.28,0.21,0.42,0.51l0.22,0.47l-0.17,0.73
			c-0.25,1.05-0.53,1.45-1.28,1.82c-0.34,0.16-0.87,0.43-1.19,0.59c-0.48,0.26-0.65,0.29-1.31,0.29c-0.84,0-1-0.08-1.1-0.53
			c-0.03-0.17-0.14-0.41-0.24-0.54c-0.11-0.12-0.18-0.34-0.18-0.46s-0.09-0.39-0.19-0.6c-0.24-0.47-0.24-0.62,0.01-1.25
			c0.22-0.56,0.57-0.94,1.28-1.37c0.42-0.26,1.32-0.55,1.53-0.49C203.49,178.52,203.86,178.61,204.25,178.7z"/>
		<path d="M217.89,182.81c-0.32,0.07-0.7,0.17-0.84,0.24c-0.15,0.06-0.39,0.11-0.55,0.11c-0.3,0-0.88,0.23-1.87,0.74
			c-0.11,0.05-0.38,0.19-0.62,0.31c-0.6,0.3-2.11,1.51-3.25,2.64c-0.73,0.72-1.04,1.11-1.27,1.58c-0.16,0.34-0.39,0.71-0.52,0.81
			c-0.31,0.27-0.93,1.52-1.27,2.58c-0.53,1.62-0.5,3.49,0.07,4.76c0.35,0.79,1.49,2.04,2.01,2.19c0.19,0.06,0.53,0.19,0.74,0.29
			c0.21,0.1,0.71,0.3,1.1,0.45l0.72,0.27l2.49-0.01c2.24-0.01,2.54-0.04,2.97-0.2c0.27-0.11,0.65-0.23,0.86-0.26
			c0.2-0.04,0.53-0.15,0.72-0.25c0.18-0.09,0.49-0.2,0.67-0.23c0.18-0.04,0.6-0.2,0.93-0.35c0.53-0.25,0.6-0.33,0.66-0.62
			c0.08-0.42,0.26-0.51,0.93-0.49c0.44,0.02,0.57-0.02,0.77-0.2c0.51-0.47,0.98-0.02,0.56,0.52c-0.26,0.33-0.25,0.38,0.05,0.74
			c0.2,0.24,0.24,0.36,0.19,0.68c-0.1,0.79-0.22,0.76,2.6,0.76c2.92,0.01,2.85,0.03,3.24-0.94c0.12-0.32,0.27-0.66,0.33-0.77
			c0.05-0.11,0.24-0.6,0.43-1.1c0.18-0.5,0.4-1.04,0.48-1.2c0.08-0.16,0.2-0.48,0.28-0.72c0.08-0.24,0.25-0.71,0.38-1.05
			c0.29-0.75,0.65-1.72,0.85-2.26c0.08-0.22,0.23-0.56,0.34-0.79c0.11-0.22,0.2-0.47,0.2-0.56c0-0.1,0.11-0.39,0.24-0.65
			c0.12-0.27,0.24-0.54,0.24-0.6c0-0.07,0.08-0.26,0.16-0.43c0.09-0.17,0.26-0.58,0.38-0.93c0.47-1.26,0.53-1.39,0.61-1.5
			c0.15-0.18,1.24-0.51,1.69-0.51c0.99,0,1.55,0.79,1.14,1.61c-0.07,0.14-0.16,0.43-0.19,0.64c-0.04,0.21-0.12,0.47-0.19,0.57
			c-0.07,0.11-0.18,0.36-0.25,0.57c-0.07,0.21-0.17,0.45-0.24,0.53c-0.07,0.08-0.18,0.34-0.27,0.57c-0.08,0.24-0.31,0.79-0.5,1.24
			c-0.19,0.45-0.39,0.94-0.44,1.1c-0.05,0.15-0.16,0.46-0.27,0.67c-0.24,0.51-0.32,0.73-0.86,2.49c-0.55,1.74-0.48,2.7,0.23,3.4
			c0.5,0.49,0.81,0.56,2.49,0.56c1.41,0,1.93-0.09,3.06-0.5c0.53-0.19,1.16-0.41,1.4-0.49c0.25-0.09,0.69-0.25,0.99-0.38
			c0.3-0.13,0.57-0.24,0.62-0.24c0.05,0,0.13,0.12,0.19,0.27c0.07,0.15,0.32,0.48,0.56,0.72c0.37,0.37,0.58,0.49,1.15,0.64
			c0.65,0.18,0.74,0.18,1.65,0.05c0.53-0.08,1.09-0.14,1.26-0.14c0.31,0,1.45-0.34,2.28-0.67c0.24-0.1,0.61-0.22,0.82-0.28
			c0.22-0.06,0.45-0.17,0.52-0.25c0.07-0.08,0.16-0.14,0.21-0.14c0.05,0,0.32-0.11,0.58-0.22c0.28-0.12,0.71-0.3,0.97-0.38
			l0.48-0.15l0.35,0.31c0.19,0.17,0.4,0.39,0.47,0.51c0.06,0.11,0.25,0.26,0.41,0.34c0.17,0.08,0.63,0.33,1.03,0.54
			c0.7,0.38,0.78,0.4,1.87,0.46c0.62,0.04,1.78,0.03,2.56-0.01c1.3-0.07,1.44-0.09,1.69-0.3c0.2-0.16,0.39-0.23,0.69-0.23
			c0.23,0,0.61-0.09,0.84-0.19c0.23-0.11,0.49-0.19,0.57-0.19c0.46,0,3.04-1.68,4.01-2.61c0.39-0.37,1.62-1.9,1.92-2.37
			c0.31-0.49,0.88-1.69,0.88-1.84c0-0.07,0.09-0.27,0.2-0.45c0.29-0.48,0.68-2.58,0.63-3.41c-0.04-0.69-0.29-1.87-0.48-2.2
			c-0.06-0.11-0.16-0.33-0.25-0.48c-0.38-0.78-0.88-1.3-1.49-1.59c-0.34-0.15-0.73-0.38-0.88-0.51c-0.54-0.45-3.15-0.66-5.09-0.39
			c-1.31,0.17-1.42,0.2-2.55,0.69c-1.08,0.47-1.3,0.58-1.63,0.79c-0.15,0.11-0.49,0.3-0.74,0.43c-0.26,0.13-0.46,0.28-0.46,0.33
			s-0.16,0.19-0.37,0.33c-0.87,0.57-2.98,3.05-2.98,3.5c0,0.08-0.12,0.28-0.29,0.46c-0.15,0.17-0.29,0.38-0.29,0.46
			c0,0.08-0.09,0.28-0.19,0.45c-0.11,0.17-0.19,0.43-0.19,0.57c0,0.14-0.11,0.56-0.24,0.91c-0.22,0.56-0.26,0.86-0.31,2.23
			c-0.03,0.87-0.1,1.63-0.14,1.69c-0.11,0.14-1.55,0.6-1.89,0.6c-0.6,0-0.87-0.5-0.62-1.17c0.08-0.23,0.18-0.55,0.22-0.71
			c0.05-0.16,0.19-0.54,0.33-0.81c0.13-0.29,0.37-0.93,0.54-1.43c0.17-0.5,0.34-0.96,0.4-1.01c0.05-0.07,0.17-0.38,0.27-0.72
			c0.27-0.89,0.5-1.52,0.7-1.92c0.1-0.19,0.17-0.42,0.17-0.51s0.08-0.32,0.18-0.52c0.1-0.19,0.21-0.51,0.25-0.69
			c0.03-0.18,0.16-0.56,0.29-0.81c0.3-0.64,0.54-1.36,0.59-1.79c0.04-0.28,0-0.38-0.15-0.52c-0.11-0.1-0.2-0.24-0.2-0.31
			c0-0.07-0.11-0.25-0.27-0.39c-0.34-0.35-0.94-0.41-4.08-0.4c-2.29,0.01-2.41,0.02-2.82,0.22c-0.57,0.29-0.65,0.64-0.22,1.02
			c0.67,0.62,0.83,1.16,0.62,2.1c-0.08,0.35-0.25,0.86-0.37,1.12c-0.12,0.27-0.23,0.55-0.23,0.62s-0.08,0.28-0.18,0.43
			c-0.1,0.16-0.23,0.46-0.3,0.67c-0.07,0.21-0.15,0.42-0.19,0.48c-0.05,0.05-0.24,0.51-0.43,1.01c-0.19,0.5-0.43,1.01-0.53,1.15
			c-0.09,0.13-0.19,0.36-0.23,0.53c-0.04,0.15-0.15,0.48-0.27,0.72c-0.11,0.24-0.26,0.56-0.33,0.72c-0.07,0.15-0.27,0.62-0.45,1.02
			c-0.19,0.4-0.36,0.86-0.4,1.02c-0.08,0.35-0.79,0.97-1.13,0.97c-0.41,0-1.07-0.34-1.2-0.61c-0.14-0.32,0-1.41,0.27-2.07
			c0.1-0.24,0.24-0.62,0.32-0.86c0.34-0.99,0.53-1.45,0.67-1.61c0.1-0.1,0.16-0.25,0.16-0.34c0-0.1,0.09-0.34,0.19-0.57
			c0.1-0.22,0.25-0.59,0.34-0.83c0.09-0.24,0.28-0.78,0.43-1.2s0.39-1.3,0.53-1.96c0.21-1.04,0.22-1.25,0.12-1.68
			c-0.15-0.66-0.24-0.8-0.73-1.26c-0.32-0.31-0.6-0.47-1.11-0.62c-0.61-0.2-0.87-0.22-2.46-0.21c-1.28,0.01-1.93,0.05-2.35,0.16
			c-0.32,0.08-0.9,0.18-1.29,0.21c-0.39,0.04-0.88,0.15-1.07,0.25c-0.46,0.24-0.72,0.23-1.18-0.03c-0.37-0.21-0.49-0.22-3.35-0.25
			c-3.09-0.03-3.28-0.01-3.53,0.38c-0.11,0.18,0.1,0.86,0.49,1.61c0.2,0.36,0.22,0.51,0.17,0.96c-0.04,0.29-0.14,0.72-0.25,0.95
			c-0.1,0.23-0.18,0.5-0.18,0.6c0,0.1-0.09,0.34-0.18,0.54c-0.1,0.19-0.23,0.55-0.3,0.77c-0.06,0.23-0.19,0.56-0.3,0.72
			c-0.1,0.17-0.18,0.39-0.18,0.5s-0.11,0.4-0.24,0.67c-0.13,0.26-0.24,0.54-0.24,0.6c0,0.08-0.08,0.25-0.18,0.38
			c-0.1,0.14-0.21,0.41-0.25,0.59s-0.14,0.46-0.24,0.62c-0.1,0.15-0.2,0.44-0.24,0.62c-0.1,0.44-0.91,1.33-1.47,1.6
			c-0.24,0.12-0.65,0.35-0.92,0.52c-0.26,0.16-0.65,0.35-0.86,0.42c-0.21,0.07-0.81,0.29-1.34,0.49l-0.96,0.36l-1.72,0.01
			c-1.64,0-1.76-0.01-2.41-0.26c-0.73-0.27-1.34-0.8-1.49-1.31c-0.17-0.57-0.25-1.28-0.16-1.46c0.13-0.24,0.22-0.26,2.25-0.42
			c1.01-0.09,2.06-0.19,2.35-0.24c0.29-0.05,0.73-0.09,0.98-0.09c0.51-0.01,1.8-0.38,2.52-0.74c0.27-0.12,0.53-0.23,0.58-0.23
			c0.05,0,0.35-0.18,0.66-0.41c0.32-0.23,0.65-0.44,0.74-0.48c0.1-0.03,0.24-0.2,0.32-0.37c0.25-0.53,0.5-0.94,0.66-1.12
			c0.09-0.09,0.2-0.32,0.26-0.5s0.17-0.47,0.25-0.65c0.11-0.23,0.14-0.64,0.14-1.41c0-0.89-0.04-1.15-0.19-1.45
			c-0.11-0.2-0.24-0.5-0.31-0.66c-0.3-0.81-1.91-1.92-3.11-2.14c-0.29-0.06-0.62-0.15-0.74-0.21
			C221.15,182.68,218.6,182.66,217.89,182.81z M265.66,185.65c0.34,0.15,0.46,0.43,0.52,1.18c0.05,0.78-0.31,2.72-0.64,3.48
			c-0.11,0.24-0.19,0.5-0.19,0.57c0,0.08-0.08,0.3-0.18,0.49c-0.1,0.19-0.28,0.59-0.41,0.88c-1.05,2.33-1.74,3.42-2.7,4.23
			c-0.63,0.55-0.87,0.65-1.53,0.65c-0.42,0-0.55-0.04-0.74-0.25c-0.21-0.22-0.23-0.33-0.23-1.12c0-0.97,0.18-2.16,0.39-2.59
			c0.07-0.14,0.15-0.42,0.19-0.62c0.06-0.34,0.53-1.54,0.71-1.83c0.06-0.08,0.19-0.34,0.32-0.57c0.48-0.91,1.24-2.17,1.63-2.67
			c0.7-0.91,1.97-1.9,2.48-1.92C265.35,185.55,265.53,185.6,265.66,185.65z M219.29,186.03c0.28,0.15,0.47,0.61,0.47,1.12
			c0,0.76-0.37,2.03-0.76,2.57c-0.5,0.7-1.09,1.27-1.41,1.35c-0.15,0.04-0.46,0.15-0.68,0.25c-0.32,0.14-0.59,0.17-1.24,0.15
			c-0.79-0.03-0.84-0.04-0.87-0.25c-0.03-0.18,0.3-1.03,0.56-1.46c0.05-0.08,0.16-0.3,0.26-0.48c0.14-0.3,0.61-0.99,1.16-1.72
			c0.1-0.13,0.34-0.49,0.54-0.79c0.25-0.36,0.43-0.55,0.56-0.55c0.11-0.01,0.31-0.07,0.44-0.14
			C218.61,185.91,219.03,185.89,219.29,186.03z"/>
	</g>
</g>
</svg>
