<?xml version="1.0" encoding="utf-8"?>
<!-- Generator: Adobe Illustrator 23.0.2, SVG Export Plug-In . SVG Version: 6.00 Build 0)  -->
<svg version="1.1" id="Layer_1" xmlns="http://www.w3.org/2000/svg" xmlns:xlink="http://www.w3.org/1999/xlink" x="0px" y="0px"
	 viewBox="0 0 488.45 488.45" style="enable-background:new 0 0 488.45 488.45;" xml:space="preserve">
<style type="text/css">
	.st0{fill:#C6C6C6;}
	.st1{fill:#070707;}
	.st2{fill:#090909;}
	.st3{fill:none;stroke:#000000;stroke-width:3;stroke-miterlimit:10;}
	.st4{fill:#F5E586;}
	.st5{fill:#2582AC;}
	.st6{fill:#6B3C39;}
	.st7{fill:#823F32;}
	.st8{fill:#562B25;}
	.st9{fill:none;stroke:#070707;stroke-miterlimit:10;}
	.st10{clip-path:url(#SVGID_2_);}
	.st11{fill:none;stroke:#F5E586;stroke-width:5;stroke-miterlimit:10;}
	.st12{clip-path:url(#SVGID_4_);}
	.st13{fill:#191413;}
	.st14{fill:#B88B74;}
	.st15{fill:#F1A562;}
	.st16{fill:#FDFDFD;}
	.st17{fill:#EF331A;}
	.st18{fill:#D6271A;}
	.st19{fill:#FFFFFF;}
	.st20{fill:#6B0E0A;}
	.st21{fill:#F9F9F8;}
	.st22{fill:#FEFEFF;}
	.st23{fill:#1D9533;stroke:#FFFFFF;stroke-width:5;stroke-miterlimit:10;}
	.st24{fill:#EF331A;stroke:#B23B32;stroke-width:2;stroke-miterlimit:10;}
	.st25{fill:#4A0F7B;}
	.st26{fill:#C6160E;}
	.st27{clip-path:url(#SVGID_6_);}
	.st28{fill:none;stroke:#562B25;stroke-width:1.2;stroke-miterlimit:10;}
	.st29{clip-path:url(#SVGID_8_);}
	.st30{fill:#1D9533;}
	.st31{fill:#0C5822;}
	.st32{fill:#0B3615;}
	.st33{fill:#1D9533;stroke:#115F24;stroke-width:1.5;stroke-miterlimit:10;}
	.st34{fill:#134A1D;}
	.st35{clip-path:url(#SVGID_10_);}
	.st36{fill:#EEF4F5;}
	.st37{fill:#155D84;}
	.st38{fill:#1879AE;}
	.st39{fill:#114156;}
	.st40{fill:#121111;}
	.st41{fill:#33110D;}
	.st42{clip-path:url(#SVGID_12_);}
	.st43{fill:#A0522D;}
	.st44{fill:#F42121;}
	.st45{fill:#FAB00B;}
	.st46{fill:#F5DDDB;}
	.st47{fill:#F66831;}
	.st48{opacity:0.49;fill:url(#);}
	.st49{opacity:0.53;}
	.st50{clip-path:url(#SVGID_14_);}
	.st51{fill:#DDDDDD;}
	.st52{fill:#B2B2B2;}
	.st53{fill:#757575;}
	.st54{fill:#3F3F3F;}
	.st55{fill:#070706;}
	.st56{fill:#F6C7DB;}
	.st57{fill:#040404;}
	.st58{fill:#F13C8B;}
	.st59{fill:#0A0A09;}
	.st60{fill:#239830;}
	.st61{fill:#1F6DAF;}
	.st62{clip-path:url(#SVGID_16_);}
	.st63{fill:#A6DAE9;}
	.st64{fill:#144863;}
	.st65{clip-path:url(#SVGID_18_);}
	.st66{clip-path:url(#SVGID_20_);}
	.st67{clip-path:url(#SVGID_22_);}
	.st68{clip-path:url(#SVGID_24_);}
	.st69{clip-path:url(#SVGID_26_);}
	.st70{fill:#10441D;}
	.st71{fill:#2B9B2E;}
</style>
<g>
	<g>
		<g>
			<path d="M126.19,386.14v28.83c0,0-3.36,13.7,13.21,12.97H345.8c0,0,19.22,1.87,17.3-13.96v-27.85H126.19z"/>
			<path class="st36" d="M126.19,393.59c0,0,7.69,5.77,13.94,5.53c6.25-0.24,206.63,0,206.63,0s12.49,0,16.34-5.53v6.86
				c0,0-6.49,6.78-15.86,6.63H140.73c0,0-11.77-2.65-14.54-6.63V393.59z"/>
			<path class="st36" d="M126.19,408.61c0,0,7.69,5.77,13.94,5.53c6.25-0.24,206.63,0,206.63,0s12.49,0,16.34-5.53v6.86
				c0,0-6.49,6.78-15.86,6.63H140.73c0,0-11.77-2.65-14.54-6.63V408.61z"/>
		</g>
		<g>
			<path class="st36" d="M118.03,96.26c0,0,17.66,69.56,3.24,111c0,0-6.85,113.89-3.24,134.79c0,0,1.95,43.25,8.91,45.41l2.15,27.75
				h4.44l-2.16,37.84l-51.3-3.24l-1.68-39.16c0,0-9.85-86.5-3.6-135.99S94.96,131.7,118.03,96.26z"/>
			<g>
				<polygon points="78.43,411.86 129.08,413.77 129.08,424.58 78.43,421.22 				"/>
				<polygon points="79.03,425.79 132.74,428.91 132.25,437.56 79.39,434.19 				"/>
				<polygon points="79.69,442.12 132.08,444.77 131.36,453.06 80.06,449.81 				"/>
			</g>
		</g>
		<g>
			<path class="st36" d="M370.18,95.36c0,0-17.75,69.93-3.26,111.6c0,0,6.88,114.49,3.26,135.51c0,0-1.96,43.48-8.95,45.65
				l-2.16,27.9h-4.47l2.17,38.04l51.57-3.26l1.69-39.37c0,0,9.9-86.96,3.62-136.72C407.38,224.95,393.37,130.99,370.18,95.36z"/>
			<g>
				<polygon points="409.98,412.64 359.07,414.56 359.07,425.43 409.98,422.05 				"/>
				<polygon points="409.38,426.64 355.39,429.78 355.88,438.48 409.02,435.09 				"/>
				<polygon points="408.72,443.07 356.05,445.72 356.77,454.06 408.35,450.8 				"/>
			</g>
		</g>
		<g>
			<polygon class="st40" points="200.73,56.27 287.76,56.27 258.18,116.55 231.91,116.55 			"/>
			<path d="M182.18,59.86c0,0,10.81,44.69,62.71,49.01c0,0,38.92,2.16,62.71-49.01c0,0,56.22,23.79,62.71,35.32
				c0,0-17.3,83.61,0,110.28c0,0,8.65,158.58-8.65,183.8c0,0-2.16,6.13-27.39,5.05h-74.6v33.52h-37.84v-35.44h-77.37
				c0,0-21.62,4.81-24.51-25.95c0,0-5.29-101.87,0-158.1c0,0,17.89-38.02-2.35-111.96C117.6,96.38,135.32,78.6,182.18,59.86z"/>
		</g>
		<g>
			<polygon class="st36" points="150.42,277.54 161.95,277.54 146.1,374.13 134.08,374.13 			"/>
			<polygon class="st36" points="339.75,277.54 328.22,277.54 344.08,374.13 356.09,374.13 			"/>
			<polygon class="st40" points="236.23,108.42 220.38,106.09 220.38,427.95 238.64,427.95 238.64,426.21 222.9,426.57 
				223.02,108.89 			"/>
			<g>
				<circle class="st19" cx="236.06" cy="400.45" r="3.69"/>
				<circle class="st19" cx="236.06" cy="344.46" r="3.69"/>
				<circle class="st19" cx="236.06" cy="288.98" r="3.69"/>
				<circle class="st19" cx="236.06" cy="232.56" r="3.69"/>
				<circle class="st19" cx="236.06" cy="176.15" r="3.69"/>
				<circle class="st19" cx="236.06" cy="120.24" r="3.69"/>
				<circle class="st19" cx="236.06" cy="417.68" r="3.69"/>
			</g>
		</g>
		<g>
			<g>
				<path d="M209.33,67.55c0,0,41.81,10.57,67.76-2.4l4.81-30.75c0,0-34.6,9.13-72.56,0V67.55z"/>
				<path class="st36" d="M212.86,43.9c0,0,47.41,3.26,63.99,0l-2.88,7.31c0,0-37.77,1.17-58.26,0L212.86,43.9z"/>
				<path class="st36" d="M218.26,57.54c0,0,37.92,2.49,53.3,0l-2.88,6.4c0,0-36.33,2.4-48.12-0.93L218.26,57.54z"/>
			</g>
			<g>
				<path d="M280.77,34.39c0,0,10.57,15.38,27.15,25.47c0,0-17.06,49.98-62.71,49.01C245.21,108.87,260.58,90.13,280.77,34.39z"/>
				<path class="st36" d="M292.89,48.18c0,0-23.66,56.05-32.05,57.91h-2.65c0,0,28.12-55.45,30.46-62.2L292.89,48.18z"/>
				<path class="st36" d="M298.34,53c0,0-16.13,42.8-21.78,46.58c0,0,12.47-9.55,13.01-10.14S302.17,56,302.17,56L298.34,53z"/>
			</g>
			<g>
				<path d="M209.33,34.39c0,0-10.57,15.38-27.15,25.47c0,0,17.06,49.98,62.71,49.01C244.89,108.87,229.51,90.13,209.33,34.39z"/>
				<path class="st36" d="M197.21,48.18c0,0,23.66,56.05,32.05,57.91h2.65c0,0-28.12-55.45-30.46-62.2L197.21,48.18z"/>
				<path class="st36" d="M191.76,53c0,0,16.13,42.8,21.78,46.58c0,0-12.47-9.55-13.01-10.14S187.92,56,187.92,56L191.76,53z"/>
			</g>
		</g>
	</g>
</g>
<g>
	<polygon class="st19" points="179.27,183.4 179.27,188.44 149.31,188.44 149.31,177.15 158.79,168.39 149.31,168.39 149.31,158.54 
		155.97,151.87 175.45,151.87 178.31,154.74 181.46,151.59 201.43,151.59 206.64,156.81 206.64,170.02 206.64,181.64 199.79,188.49 
		181.97,188.49 	"/>
	<path d="M152.21,186.91v-7.67l15.95-14.63v-2.12l-1.08-1.08h-4.75l-1.08,1.08v3.29h-9.03v-6.54l5.27-5.27h14.49l5.27,5.27v8.7
		l-10.44,10.44h10.44v8.51H152.21z M176.48,186.11v-6.91h-11.43l11.38-11.38v-8.37l-4.66-4.66h-14.02l-4.75,4.75v5.46h7.48v-2.73
		l1.55-1.55h5.41l1.51,1.51v2.49l-15.8,14.68v6.73H176.48z M154.04,185.07v-5.08l15.95-14.68v-3.72l-2.02-2.02h-6.49l-2.02,2.02
		v2.35h-5.41v-3.76l4.33-4.37h12.75l4.33,4.33v7.1l-12.94,12.94h12.94v4.89H154.04z"/>
	<path d="M179.27,181.64v-4.8h9.03v1.6l1.08,1.08h4.8l1.03-1.03v-3.2l-1.03-1.03h-4.09v-7.62h4.19l0.94-0.99v-3.2l-1.03-1.03h-4.84
		l-1.03,1.03v2.26h-9.03v-5.46l5.27-5.27h14.49l5.27,5.27v9.78l-1.41,1.41l1.41,1.41v9.78l-5.27,5.27h-14.49L179.27,181.64z
		 M184.73,186.11h14.11l4.66-4.66v-9.41l-1.6-1.6l1.6-1.6v-9.27l-4.8-4.8h-13.88l-4.75,4.75v4.42h7.48v-1.69l1.65-1.65h5.17l1.6,1.6
		v3.67l-1.55,1.55h-3.53v6.02h3.53l1.6,1.65v3.53l-1.65,1.65h-5.17l-1.65-1.65v-0.99h-7.48v3.81L184.73,186.11z M181.16,180.74
		v-2.12h5.36v0.66l2.02,2.02h6.44l2.07-2.07v-4.75l-2.07-2.07h-3.1v-3.95h3.1l2.07-2.07v-4.75l-2.07-2.07h-6.44l-2.02,2.02v1.32
		h-5.41v-2.73l4.37-4.37h12.7l4.33,4.33v8.09l-2.21,2.21l2.21,2.21v8.09l-4.28,4.28h-12.79L181.16,180.74z"/>
</g>
<g>
	<path class="st19" d="M292.14,313.92c0.35-0.36,0.72-0.7,1.12-1c0.47-0.36,0.99-0.68,1.53-0.95c2.1-1.13,4.58-1.51,6.95-0.79
		c0.53,0.15,1.05,0.35,1.55,0.61c1.35,0.71,2.51,1.75,3.45,2.94c0.23,0.29,0.93,1.02,1.09,1.5c0.16-0.49,0.86-1.21,1.09-1.5
		c0.95-1.19,2.1-2.23,3.45-2.94c0.49-0.26,1.01-0.46,1.55-0.61c2.37-0.72,4.85-0.34,6.95,0.79c0.54,0.27,1.05,0.59,1.53,0.95
		c0.4,0.3,0.78,0.64,1.12,1c1.93,2.04,2.67,4.36,2.62,6.73c-0.11,5.19-3.52,9.79-7.12,13.25c-0.94,0.9-10.7,9.84-11.16,9.46
		c0,0-0.01-0.01-0.03-0.02c-0.02,0.01-0.03,0.02-0.03,0.02c-0.46,0.38-10.22-8.56-11.16-9.46c-3.59-3.46-7.01-8.06-7.12-13.25
		C289.47,318.28,290.21,315.96,292.14,313.92z"/>
	<g>
		<path class="st37" d="M293.75,315.27c0.31-0.33,0.65-0.63,1.01-0.9c0.42-0.32,0.88-0.61,1.37-0.85c1.89-1.01,4.11-1.36,6.23-0.71
			c0.48,0.13,0.94,0.31,1.39,0.55c1.21,0.64,2.25,1.57,3.1,2.64c0.21,0.26,0.84,0.91,0.98,1.35c0.14-0.44,0.77-1.08,0.98-1.35
			c0.85-1.07,1.89-2,3.1-2.64c0.44-0.23,0.91-0.41,1.39-0.55c2.12-0.65,4.35-0.3,6.23,0.71c0.48,0.24,0.95,0.53,1.37,0.85
			c0.36,0.27,0.7,0.57,1.01,0.9c1.73,1.83,2.39,3.91,2.35,6.04c-0.1,4.66-3.16,8.79-6.39,11.89c-0.84,0.81-9.6,8.83-10.01,8.49
			c0,0-0.01-0.01-0.03-0.02c-0.02,0.01-0.03,0.02-0.03,0.02c-0.41,0.34-9.17-7.68-10.01-8.49c-3.22-3.1-6.29-7.23-6.39-11.89
			C291.35,319.19,292.02,317.1,293.75,315.27z"/>
		<g>
			<defs>
				<path id="SVGID_23_" d="M293.75,315.27c0.31-0.33,0.65-0.63,1.01-0.9c0.42-0.32,0.88-0.61,1.37-0.85
					c1.89-1.01,4.11-1.36,6.23-0.71c0.48,0.13,0.94,0.31,1.39,0.55c1.21,0.64,2.25,1.57,3.1,2.64c0.21,0.26,0.84,0.91,0.98,1.35
					c0.14-0.44,0.77-1.08,0.98-1.35c0.85-1.07,1.89-2,3.1-2.64c0.44-0.23,0.91-0.41,1.39-0.55c2.12-0.65,4.35-0.3,6.23,0.71
					c0.48,0.24,0.95,0.53,1.37,0.85c0.36,0.27,0.7,0.57,1.01,0.9c1.73,1.83,2.39,3.91,2.35,6.04c-0.1,4.66-3.16,8.79-6.39,11.89
					c-0.84,0.81-9.6,8.83-10.01,8.49c0,0-0.01-0.01-0.03-0.02c-0.02,0.01-0.03,0.02-0.03,0.02c-0.41,0.34-9.17-7.68-10.01-8.49
					c-3.22-3.1-6.29-7.23-6.39-11.89C291.35,319.19,292.02,317.1,293.75,315.27z"/>
			</defs>
			<use xlink:href="#SVGID_23_"  style="overflow:visible;"/>
			<clipPath id="SVGID_2_">
				<use xlink:href="#SVGID_23_"  style="overflow:visible;"/>
			</clipPath>
			<g class="st10">
				<polygon class="st51" points="300.71,320.21 305.4,324.71 305.4,329.21 309.9,329.21 309.9,324.71 314.38,320.23 315,329.39 
					310.3,334.08 310.3,342.13 305.35,342.13 305.35,333.99 300.52,329.39 				"/>
				<circle class="st52" cx="307.66" cy="327.05" r="1.76"/>
				<polygon class="st53" points="300.52,329.39 305.35,333.99 305.35,338.58 298.02,338.58 298.02,333.99 301.15,333.53 				"/>
				<polygon class="st53" points="315,329.39 310.18,333.99 310.18,338.58 317.51,338.58 317.51,333.99 314.38,333.53 				"/>
				<path class="st19" d="M284.94,327.12l15.2-3.43l0.54,0.39l5.01,3.96c0,0,0.2,0.5-0.28,0.34l-4.75-3.06l-0.02,0.73l-15.7,4.17
					V327.12z"/>
				<path class="st19" d="M330.4,327.12l-15.2-3.43l-0.54,0.39l-5.01,3.96c0,0-0.2,0.5,0.28,0.34l4.75-3.06l0.02,0.73l15.7,4.17
					V327.12z"/>
				<polygon class="st53" points="301.15,333.53 305.35,333.99 300.52,329.39 				"/>
				<polygon class="st54" points="305.35,333.99 305.35,342.13 301.13,342.13 301.15,333.53 				"/>
				<polygon class="st53" points="314.38,333.53 310.18,333.99 315,329.39 				"/>
				<polygon class="st54" points="310.18,333.99 310.18,342.13 314.4,342.13 314.38,333.53 				"/>
			</g>
		</g>
	</g>
</g>
<g>
	<circle class="st19" cx="308.42" cy="167.79" r="26.78"/>
	<g>
		<g>
			<path d="M322.82,180.4c0.82,0.42,1.16,0.76,1.57,1.57c0.42-0.82,0.76-1.16,1.57-1.57c-0.82-0.42-1.16-0.76-1.57-1.57
				C323.98,179.64,323.64,179.98,322.82,180.4z"/>
		</g>
		<g>
			<path d="M289.4,180.4c0.82,0.42,1.16,0.76,1.57,1.57c0.42-0.82,0.76-1.16,1.57-1.57c-0.82-0.42-1.16-0.76-1.57-1.57
				C290.55,179.64,290.21,179.98,289.4,180.4z"/>
		</g>
		<path d="M296.06,158.12c0.27-0.29,0.57-0.55,0.88-0.79c0.37-0.28,0.78-0.53,1.2-0.75c1.66-0.89,3.61-1.19,5.48-0.62
			c0.42,0.12,0.83,0.28,1.22,0.48c1.06,0.56,1.98,1.38,2.72,2.32c0.18,0.23,0.74,0.8,0.86,1.19c0.13-0.38,0.68-0.95,0.86-1.19
			c0.75-0.94,1.66-1.76,2.72-2.32c0.39-0.2,0.8-0.36,1.22-0.48c1.87-0.57,3.82-0.27,5.48,0.62c0.43,0.21,0.83,0.46,1.2,0.75
			c0.32,0.24,0.61,0.5,0.88,0.79c1.52,1.61,2.1,3.44,2.07,5.31c-0.08,4.1-2.78,7.72-5.61,10.45c-0.74,0.71-8.44,7.76-8.8,7.46
			c0,0-0.01-0.01-0.02-0.02c-0.01,0.01-0.02,0.02-0.02,0.02c-0.36,0.3-8.06-6.75-8.8-7.46c-2.83-2.73-5.53-6.35-5.61-10.45
			C293.96,161.56,294.54,159.72,296.06,158.12z"/>
		<g>
			<g>
				<path d="M301.15,187.83l-1.39-0.54l-0.44,0.54l-0.65-0.25l2.34-2.81l0.92,0.36l-0.17,3.66l-0.64-0.25L301.15,187.83z
					 M301.19,187.32l0.1-1.9l-1.21,1.47L301.19,187.32z"/>
				<path d="M304.23,185.8l-0.26,1.39l0.3,0.06l1.39-1.18l0.8,0.15l-1.68,1.4l1.2,2.03l-0.83-0.15l-0.98-1.71l-0.31-0.06l-0.27,1.48
					l-0.65-0.12l0.63-3.41L304.23,185.8z"/>
				<path d="M308.6,186.22c0.63,0,1.04,0.1,1.22,0.31c0.18,0.21,0.28,0.68,0.28,1.4c0,0.79-0.08,1.3-0.26,1.5
					c-0.18,0.21-0.62,0.31-1.32,0.32c-0.63,0-1.04-0.1-1.22-0.3c-0.19-0.2-0.28-0.65-0.28-1.35c-0.01-0.83,0.08-1.35,0.26-1.56
					C307.45,186.33,307.89,186.22,308.6,186.22z M308.55,186.78c-0.44,0-0.7,0.06-0.77,0.18c-0.07,0.11-0.11,0.51-0.1,1.18
					c0,0.5,0.05,0.8,0.14,0.9c0.09,0.1,0.34,0.15,0.77,0.15c0.41,0,0.65-0.06,0.73-0.18c0.08-0.11,0.12-0.46,0.12-1.04
					c0-0.58-0.04-0.92-0.12-1.03S308.98,186.78,308.55,186.78z"/>
				<path d="M311.46,186.03l0.27,1.39l0.3-0.06l0.86-1.61l0.8-0.16l-1.05,1.92l1.86,1.45l-0.83,0.16l-1.54-1.23l-0.31,0.06
					l0.29,1.47l-0.65,0.13l-0.67-3.4L311.46,186.03z"/>
				<path d="M317.34,187.18l-1.39,0.56l0.05,0.7l-0.65,0.26l-0.23-3.65l0.92-0.37l2.38,2.78l-0.63,0.26L317.34,187.18z
					 M317.02,186.79l-1.23-1.45l0.13,1.9L317.02,186.79z"/>
			</g>
		</g>
		<g>
			<g>
				<path d="M285.84,169.74l-0.06-0.65l2.3-0.21c0.48-0.04,0.81,0.02,0.98,0.19c0.17,0.17,0.28,0.54,0.34,1.11
					c0.06,0.6,0.02,1-0.11,1.2c-0.13,0.2-0.43,0.32-0.9,0.37l-2.33,0.21l-0.06-0.65l2.33-0.21c0.25-0.02,0.41-0.08,0.47-0.18
					c0.06-0.1,0.07-0.31,0.04-0.65c-0.03-0.35-0.09-0.56-0.16-0.64c-0.08-0.08-0.25-0.11-0.52-0.09L285.84,169.74z"/>
				<path d="M286.06,164.77l3.45,0.32l-0.1,1.11l-1.98,0.81c-0.1,0.04-0.27,0.1-0.52,0.18l-0.26,0.09l-0.26,0.09l0,0.03l0.23,0.01
					l0.23,0.01l0.45,0.04l1.98,0.18l-0.06,0.65l-3.45-0.32l0.1-1.11l1.83-0.74c0.16-0.06,0.36-0.14,0.59-0.22l0.29-0.11l0.3-0.11
					l0-0.02l-0.22-0.01l-0.22-0.01l-0.45-0.04l-1.99-0.18L286.06,164.77z"/>
				<path d="M286.44,163.14l3.38,0.77l-0.15,0.64l-3.38-0.77L286.44,163.14z"/>
				<path d="M287.41,160.06l0.23-0.66l2.9,2.21l-0.34,0.95l-3.64-0.11l0.23-0.64l2.07,0.04c0.2,0.01,0.52,0.02,0.98,0.06l0.01-0.02
					l-0.2-0.14c-0.25-0.17-0.45-0.32-0.6-0.43L287.41,160.06z"/>
				<path d="M288.74,158.49l0.79,0.42l0.77-1.43l0.43,0.23l-0.77,1.43l0.86,0.46l0.82-1.52l0.49,0.26l-1.13,2.1l-3.05-1.64
					l1.12-2.09l0.49,0.26L288.74,158.49z"/>
				<path d="M292.33,158l-2.76-2.09l1.03-1.36c0.26-0.34,0.49-0.53,0.71-0.57c0.21-0.04,0.48,0.06,0.78,0.29
					c0.28,0.21,0.45,0.39,0.5,0.53c0.05,0.14,0.03,0.33-0.09,0.55l0.02,0.01c0.25-0.29,0.55-0.31,0.88-0.05l0.61,0.46l-0.4,0.52
					l-0.5-0.38c-0.28-0.22-0.53-0.18-0.75,0.1l-0.57,0.75l0.93,0.71L292.33,158z M291.36,156.44l0.57-0.75
					c0.14-0.18,0.19-0.32,0.17-0.43c-0.02-0.11-0.13-0.23-0.32-0.38c-0.2-0.15-0.34-0.22-0.44-0.21c-0.1,0.01-0.21,0.1-0.34,0.27
					l-0.6,0.79L291.36,156.44z"/>
				<path d="M294.52,151.88l-0.47,0.44c-0.02-0.02-0.04-0.04-0.05-0.05c-0.15-0.13-0.26-0.19-0.35-0.18s-0.22,0.11-0.42,0.29
					c-0.23,0.21-0.35,0.38-0.38,0.48c-0.03,0.11,0.02,0.23,0.15,0.36c0.15,0.16,0.27,0.23,0.36,0.21c0.09-0.02,0.3-0.17,0.63-0.46
					c0.39-0.33,0.69-0.51,0.88-0.53c0.19-0.02,0.42,0.11,0.67,0.38c0.32,0.33,0.46,0.61,0.42,0.83c-0.04,0.22-0.27,0.54-0.71,0.96
					c-0.4,0.38-0.7,0.58-0.92,0.6c-0.22,0.03-0.47-0.11-0.75-0.4l-0.09-0.09l0.46-0.44l0.05,0.05c0.17,0.18,0.3,0.25,0.4,0.23
					c0.1-0.02,0.29-0.16,0.56-0.42c0.21-0.2,0.33-0.36,0.34-0.46c0.02-0.1-0.05-0.23-0.21-0.4c-0.12-0.12-0.21-0.18-0.3-0.18
					c-0.08,0-0.2,0.07-0.36,0.2l-0.28,0.23c-0.42,0.35-0.73,0.54-0.92,0.56c-0.19,0.02-0.43-0.12-0.7-0.4
					c-0.28-0.29-0.4-0.55-0.36-0.78c0.04-0.22,0.26-0.53,0.66-0.9c0.38-0.36,0.68-0.56,0.89-0.59c0.22-0.04,0.45,0.08,0.7,0.34
					L294.52,151.88z"/>
				<path d="M295.09,150.2l2.09,2.77l-0.52,0.4l-2.09-2.77L295.09,150.2z"/>
				<path d="M297.36,149.41l1.48,2.47l-0.56,0.34l-1.48-2.47l-0.86,0.52l-0.3-0.51l2.31-1.39l0.3,0.51L297.36,149.41z"/>
				<path d="M301.3,146.94l-0.37,2.47l0.5,1.22l-0.61,0.25l-0.5-1.22l-1.97-1.51l0.7-0.29l0.83,0.65c0.05,0.04,0.13,0.1,0.24,0.2
					l0.12,0.1l0.12,0.1l0.02-0.01l0.02-0.16l0.01-0.16c0.01-0.14,0.02-0.25,0.03-0.32l0.14-1.05L301.3,146.94z"/>
				<path d="M306.61,145.89c0.63-0.05,1.04,0.02,1.24,0.21c0.2,0.19,0.33,0.65,0.39,1.38c0.07,0.79,0.02,1.3-0.15,1.52
					c-0.16,0.22-0.59,0.36-1.29,0.42c-0.63,0.05-1.04-0.02-1.24-0.2c-0.2-0.19-0.33-0.63-0.39-1.32c-0.07-0.82-0.02-1.35,0.14-1.57
					C305.47,146.09,305.9,145.95,306.61,145.89z M306.6,146.46c-0.44,0.04-0.69,0.11-0.76,0.23c-0.06,0.12-0.07,0.51-0.01,1.18
					c0.04,0.5,0.11,0.79,0.2,0.89c0.1,0.09,0.36,0.12,0.78,0.09c0.41-0.03,0.65-0.11,0.72-0.23c0.07-0.12,0.08-0.47,0.04-1.05
					c-0.05-0.58-0.12-0.92-0.2-1.02C307.28,146.45,307.03,146.42,306.6,146.46z"/>
				<path d="M309.61,146.43l-0.06,0.93l1.55,0.11l-0.04,0.55l-1.55-0.11l-0.1,1.42l-0.66-0.05l0.24-3.46l2.29,0.16l-0.04,0.55
					L309.61,146.43z"/>
				<path d="M315.65,147.61l-0.32,0.88l1.46,0.53l-0.19,0.52l-1.46-0.53l-0.49,1.34l-0.62-0.23l1.19-3.26l2.16,0.79l-0.19,0.52
					L315.65,147.61z"/>
				<path d="M318.65,148.28l-1.52,3.11l-0.59-0.29l1.52-3.11L318.65,148.28z"/>
				<path d="M317.67,151.63l1.88-2.91l1.44,0.93c0.36,0.23,0.56,0.45,0.62,0.66c0.05,0.21-0.02,0.48-0.23,0.8
					c-0.19,0.29-0.35,0.47-0.49,0.54c-0.14,0.06-0.32,0.05-0.56-0.04l-0.01,0.02c0.31,0.23,0.35,0.52,0.12,0.88l-0.41,0.64
					l-0.55-0.36l0.34-0.53c0.19-0.3,0.14-0.55-0.15-0.74l-0.8-0.51l-0.63,0.98L317.67,151.63z M319.16,150.54l0.79,0.51
					c0.19,0.12,0.34,0.17,0.44,0.14c0.11-0.03,0.22-0.14,0.36-0.35c0.13-0.21,0.19-0.36,0.18-0.45c-0.01-0.09-0.11-0.2-0.29-0.32
					l-0.83-0.54L319.16,150.54z"/>
				<path d="M323.93,153.35l-0.48-0.43c0.02-0.03,0.03-0.04,0.04-0.06c0.12-0.15,0.17-0.27,0.15-0.36s-0.13-0.22-0.32-0.39
					c-0.23-0.21-0.4-0.32-0.51-0.35c-0.11-0.02-0.23,0.04-0.35,0.17c-0.15,0.16-0.21,0.29-0.18,0.37c0.03,0.09,0.2,0.28,0.5,0.59
					c0.36,0.37,0.56,0.65,0.59,0.84c0.03,0.19-0.08,0.42-0.33,0.7c-0.31,0.34-0.58,0.5-0.8,0.48c-0.22-0.02-0.56-0.23-1.01-0.64
					c-0.4-0.37-0.63-0.66-0.67-0.88c-0.04-0.22,0.07-0.48,0.34-0.77l0.08-0.1l0.47,0.43l-0.05,0.06c-0.16,0.18-0.23,0.32-0.21,0.41
					c0.03,0.1,0.18,0.27,0.46,0.53c0.22,0.2,0.38,0.3,0.48,0.31c0.1,0.01,0.23-0.07,0.38-0.24c0.11-0.12,0.16-0.23,0.16-0.31
					s-0.09-0.2-0.23-0.34l-0.25-0.26c-0.38-0.39-0.59-0.68-0.62-0.88c-0.03-0.19,0.09-0.43,0.35-0.73c0.27-0.3,0.52-0.44,0.75-0.41
					c0.23,0.02,0.54,0.22,0.95,0.59c0.39,0.35,0.6,0.63,0.66,0.85c0.05,0.21-0.04,0.45-0.29,0.72L323.93,153.35z"/>
				<path d="M325.7,154.78l-2.23,1.82l-0.42-0.51l2.23-1.82l-0.63-0.77l0.46-0.37l1.71,2.09l-0.46,0.37L325.7,154.78z"/>
				<path d="M327.61,161.46l0.25,0.61l-0.11,0.05c-0.45,0.18-0.77,0.22-0.97,0.11c-0.2-0.11-0.41-0.44-0.64-1
					c-0.26-0.63-0.32-1.06-0.17-1.29c0.15-0.23,0.67-0.53,1.57-0.9c0.53-0.22,0.92-0.26,1.17-0.13c0.25,0.13,0.5,0.51,0.76,1.13
					c0.19,0.46,0.25,0.79,0.17,1c-0.07,0.21-0.31,0.4-0.72,0.57l-0.07,0.03l-0.25-0.61l0.08-0.03c0.21-0.09,0.33-0.18,0.35-0.28
					c0.03-0.1-0.02-0.3-0.14-0.58c-0.16-0.38-0.3-0.58-0.42-0.62c-0.12-0.04-0.41,0.04-0.87,0.22c-0.61,0.25-0.96,0.44-1.05,0.55
					c-0.08,0.11-0.05,0.36,0.1,0.73c0.12,0.3,0.24,0.49,0.34,0.55c0.1,0.06,0.26,0.05,0.47-0.04L327.61,161.46z"/>
				<path d="M330.83,164.96l-3.38,0.75l-0.14-0.64l1.46-0.33l-0.35-1.59l-1.46,0.33l-0.14-0.64l3.38-0.75l0.14,0.64l-1.38,0.31
					l0.35,1.59l1.38-0.31L330.83,164.96z"/>
				<path d="M331.06,167.49c0.03,0.63-0.06,1.04-0.26,1.23s-0.66,0.3-1.39,0.34c-0.79,0.04-1.3-0.03-1.51-0.2
					c-0.21-0.17-0.34-0.61-0.37-1.31c-0.03-0.63,0.05-1.04,0.25-1.23c0.2-0.19,0.64-0.31,1.33-0.34c0.83-0.04,1.35,0.03,1.57,0.2
					C330.9,166.34,331.03,166.78,331.06,167.49z M330.5,167.46c-0.02-0.44-0.09-0.7-0.21-0.77c-0.12-0.07-0.51-0.09-1.18-0.06
					c-0.5,0.02-0.79,0.08-0.89,0.17c-0.1,0.09-0.14,0.35-0.12,0.78c0.02,0.41,0.09,0.65,0.2,0.73c0.12,0.08,0.47,0.1,1.04,0.07
					c0.58-0.03,0.92-0.08,1.02-0.16C330.47,168.14,330.52,167.89,330.5,167.46z"/>
				<path d="M330.97,170.46l-3.46-0.25l0.05-0.66l3.46,0.25L330.97,170.46z"/>
				<path d="M328.3,173.14l-0.12,0.65l-0.12-0.02c-0.47-0.09-0.76-0.24-0.87-0.44c-0.11-0.2-0.1-0.6,0.01-1.19
					c0.13-0.67,0.32-1.06,0.57-1.18c0.25-0.11,0.85-0.08,1.81,0.11c0.56,0.11,0.91,0.28,1.05,0.53c0.14,0.24,0.14,0.7,0.01,1.37
					c-0.09,0.49-0.23,0.8-0.4,0.93c-0.18,0.14-0.48,0.16-0.91,0.08l-0.08-0.01l0.12-0.65l0.09,0.02c0.22,0.04,0.37,0.03,0.45-0.04
					c0.08-0.07,0.15-0.26,0.2-0.56c0.08-0.4,0.07-0.65-0.01-0.75c-0.08-0.1-0.37-0.2-0.85-0.29c-0.65-0.13-1.04-0.16-1.18-0.11
					c-0.13,0.05-0.24,0.27-0.31,0.67c-0.06,0.32-0.07,0.54-0.02,0.64c0.05,0.11,0.19,0.18,0.41,0.23L328.3,173.14z"/>
				<path d="M329.39,175.41l-0.84-0.3l-0.55,1.53l-0.46-0.16l0.55-1.53l-0.92-0.33l-0.58,1.63l-0.52-0.19l0.8-2.25l3.26,1.17
					l-0.8,2.23l-0.52-0.19L329.39,175.41z"/>
			</g>
		</g>
		<path class="st19" d="M316.9,171.64c-0.07-0.01-0.12-0.04-0.17-0.1c-0.29-0.36-0.35-1.31,0.19-1.63c0.2-0.12,0.19-0.22,0.01-0.36
			c-0.05-0.04-0.11-0.07-0.17-0.09c-0.39-0.11-0.77-0.26-1.15-0.42c-0.11-0.04-0.16-0.1-0.17-0.22c-0.02-0.21-0.12-0.4-0.32-0.47
			c-0.15-0.05-0.17-0.13-0.17-0.25c0-0.71,0-1.42,0-2.13c0-0.06-0.04-0.15,0.04-0.18c0.17-0.06,0.32-0.18,0.49-0.22
			c0.29-0.07,0.56-0.19,0.84-0.27c0.11-0.04,0.21-0.08,0.22-0.21c0-0.14-0.12-0.19-0.22-0.23c-0.35-0.11-0.71-0.22-1.04-0.36
			c-0.48-0.2-0.98-0.34-1.46-0.55c-0.43-0.19-0.87-0.33-1.31-0.49c-0.21-0.07-0.43-0.11-0.62-0.21c-0.37-0.19-0.77-0.29-1.15-0.44
			c-0.32-0.13-0.66-0.23-0.98-0.35c-0.34-0.13-0.69-0.21-1.02-0.39c-0.11-0.06-0.26-0.09-0.39-0.04c-0.26,0.09-0.52,0.18-0.78,0.27
			c-0.47,0.18-0.93,0.39-1.41,0.54c-0.64,0.19-1.25,0.47-1.89,0.68c-0.56,0.19-1.11,0.41-1.67,0.61c-0.67,0.25-1.35,0.5-2.02,0.74
			c-0.1,0.04-0.19,0.07-0.2,0.2c0,0.14,0.09,0.18,0.2,0.22c0.33,0.12,0.67,0.24,1,0.36c0.63,0.23,1.26,0.47,1.89,0.7
			c0.13,0.05,0.18,0.11,0.18,0.25c-0.01,0.51-0.01,1.02,0,1.53c0,0.13-0.04,0.19-0.16,0.25c-0.45,0.2-0.92,0.35-1.38,0.52
			c-0.56,0.21-1.11,0.42-1.68,0.6c-0.27,0.09-0.45,0.26-0.55,0.54c-0.08,0.23-0.1,0.46-0.11,0.68c0.03,0.74,0.19,1.2,0.84,1.37
			c0.06,0.01,0.11,0.02,0.17,0.04c0.85,0.32,1.69,0.64,2.54,0.95c0.84,0.3,1.67,0.6,2.51,0.92c0.83,0.31,1.66,0.6,2.48,0.93
			c0.23,0.09,0.46,0.08,0.69-0.01c0.59-0.22,1.18-0.43,1.77-0.65c0.57-0.21,1.14-0.42,1.71-0.63c0.58-0.22,1.15-0.45,1.73-0.66
			c0.54-0.2,1.09-0.4,1.64-0.58c0.2-0.06,0.35-0.21,0.56-0.23c0.17-0.02,0.32-0.1,0.48-0.16c0.08-0.03,0.14-0.11,0.14-0.2
			C317.06,171.73,317,171.65,316.9,171.64z M315.4,169.38c0.27,0.09,0.53,0.2,0.8,0.3c0.11,0.04,0.04,0.11,0.01,0.12
			c-0.24,0.05-0.47,0.13-0.69,0.22c-0.05,0-0.07-0.03-0.08-0.06c-0.05-0.15-0.11-0.3-0.16-0.46
			C315.24,169.38,315.31,169.35,315.4,169.38z M315.25,170.6c-0.33,0-0.65,0-1,0c0.11-0.31,0.21-0.59,0.31-0.88
			c0.04-0.13,0.14-0.06,0.22-0.08c0.1-0.02,0.17,0.01,0.21,0.11C315.07,170.03,315.16,170.31,315.25,170.6z M313.24,168.14
			c0-0.01-0.01-0.02-0.01-0.03C313.23,168.13,313.23,168.14,313.24,168.14z M313.27,168.18c0-0.57,0-1.15,0-1.72
			c0.02-0.02,0.03-0.06,0.05-0.07c0.42-0.09,0.8-0.29,1.23-0.41c0,0.3,0,0.6,0,0.89c0,0.32,0,0.63,0,0.95c0,0.43,0,0.43-0.33,0.67
			c-0.06,0.04-0.13,0.06-0.18,0.03C313.81,168.36,313.52,168.3,313.27,168.18z M315.07,168.97c0,0.14-0.16,0.28-0.33,0.28
			c-0.15,0-0.3-0.15-0.31-0.31c-0.01-0.15,0.14-0.31,0.29-0.31C314.93,168.62,315.08,168.77,315.07,168.97z M303.44,165.94
			c-0.46-0.16-0.91-0.35-1.38-0.48c-0.27-0.08-0.51-0.25-0.8-0.29c-0.03-0.01-0.06-0.02-0.05-0.05c0.01-0.02,0.03-0.05,0.05-0.06
			c0.13-0.05,0.25-0.09,0.38-0.14c0.48-0.2,0.98-0.37,1.47-0.55c0.33-0.12,0.67-0.24,1-0.36c0.35-0.13,0.69-0.27,1.04-0.39
			c0.33-0.12,0.67-0.23,1-0.36c0.5-0.2,1.02-0.34,1.51-0.57c0.23-0.1,0.48-0.19,0.73-0.25c0.1-0.02,0.19,0,0.28,0.04
			c1.48,0.55,2.96,1.09,4.44,1.64c0.84,0.31,1.69,0.62,2.53,0.94c0.04,0.02,0.09,0.01,0.11,0.07c-0.84,0.35-1.7,0.63-2.55,0.95
			c-0.49,0.18-0.97,0.36-1.46,0.54c-0.42,0.16-0.84,0.31-1.26,0.47c-0.55,0.2-1.1,0.39-1.65,0.61c-0.26,0.1-0.48,0.08-0.74-0.01
			c-0.33-0.11-0.65-0.25-0.98-0.35c-0.34-0.11-0.67-0.25-1-0.39c-0.44-0.18-0.88-0.33-1.33-0.5
			C304.33,166.26,303.89,166.09,303.44,165.94z M309.01,170.83c-0.37,0-0.73,0-1.1,0c-0.41-0.07-0.82-0.06-1.23-0.17
			c-0.34-0.09-0.69-0.16-1.03-0.28c-0.49-0.19-0.93-0.44-1.3-0.81c-0.16-0.16-0.21-0.36-0.3-0.55c0-0.81,0-1.62,0-2.43
			c0.67,0.24,1.34,0.49,2.01,0.73c0.7,0.26,1.39,0.51,2.09,0.77c0.33,0.13,0.63-0.01,0.92-0.11c0.35-0.12,0.69-0.25,1.03-0.38
			c0.61-0.22,1.22-0.45,1.83-0.67c0.32-0.12,0.64-0.23,0.96-0.34c0,0.78,0.01,1.56,0.01,2.34c-0.11,0.57-0.51,0.89-0.98,1.15
			c-0.81,0.45-1.7,0.64-2.62,0.72C309.21,170.8,309.11,170.82,309.01,170.83z M304.01,169.01c0-0.01-0.01-0.01,0-0.02
			C304,169,304,169.01,304.01,169.01z M312.94,166.62c0.01,0.01,0.01,0.02,0.01,0.03C312.95,166.64,312.95,166.63,312.94,166.62z
			 M302.36,169.23c0.39-0.15,0.78-0.29,1.17-0.43c0.06-0.02,0.14-0.09,0.15,0.06c0.01,0.78,0.52,1.2,1.12,1.55
			c0.77,0.44,1.62,0.65,2.49,0.75c0.13,0.02,0.26,0.02,0.4,0.04l0,0c0.52,0.03,1.03,0.03,1.55,0c1.13-0.09,2.22-0.31,3.18-0.95
			c0.39-0.26,0.7-0.59,0.83-1.06c0.04-0.14,0.03-0.28,0.03-0.42c0-0.14,0.06-0.16,0.17-0.12c0.16,0.06,0.32,0.12,0.49,0.19
			c0.08,0.03,0.14,0.07,0.13,0.18c0,0.06,0.01,0.13,0.04,0.17c0.21,0.26,0.08,0.51-0.01,0.75c-0.07,0.18-0.15,0.37-0.2,0.55
			c-0.04,0.15-0.15,0.22-0.27,0.26c-0.68,0.22-1.33,0.5-2,0.74c-0.69,0.24-1.37,0.5-2.06,0.74c-0.13,0.04-0.27,0.08-0.39,0.14
			c-0.42,0.23-0.8,0.1-1.2-0.07c-0.44-0.19-0.9-0.34-1.35-0.51c-0.42-0.15-0.84-0.3-1.27-0.46c-0.54-0.2-1.08-0.4-1.62-0.6
			c-0.68-0.25-1.35-0.5-2.03-0.75c-0.21-0.08-0.41-0.15-0.65-0.24C301.5,169.52,301.94,169.39,302.36,169.23z M308.11,172.93
			c-0.09,0.16-0.15,0.33-0.16,0.52c-0.02,0.22-0.02,0.44,0.01,0.66c0.02,0.08,0.03,0.17,0.06,0.29c-0.28-0.11-0.55-0.17-0.81-0.28
			c-0.22-0.1-0.45-0.18-0.69-0.24c-0.19-0.05-0.36-0.15-0.55-0.21c-0.21-0.07-0.42-0.16-0.64-0.23c-0.16-0.04-0.3-0.13-0.46-0.18
			c-0.34-0.1-0.65-0.27-0.99-0.37c-0.37-0.12-0.73-0.26-1.09-0.39c-0.2-0.07-0.4-0.14-0.6-0.23c-0.18-0.09-0.38-0.13-0.57-0.2
			c-0.39-0.15-0.78-0.28-1.15-0.46c-0.22-0.11-0.25-0.37-0.27-0.6c-0.02-0.23-0.02-0.47,0.04-0.7c0.08-0.33,0.21-0.41,0.53-0.28
			c0.82,0.33,1.67,0.61,2.5,0.93c0.88,0.33,1.76,0.65,2.64,0.99c0.7,0.27,1.41,0.52,2.11,0.78
			C308.15,172.75,308.19,172.8,308.11,172.93z M314.5,172.5c-0.7,0.27-1.41,0.52-2.11,0.79c-0.48,0.19-0.97,0.34-1.45,0.52
			c-0.64,0.24-1.29,0.45-1.91,0.73c-0.36,0.16-0.57,0.04-0.67-0.35c-0.09-0.35-0.07-0.7,0.05-1.04c0.04-0.11,0.12-0.23,0.22-0.24
			c0.25-0.04,0.47-0.15,0.7-0.23c0.22-0.07,0.45-0.13,0.66-0.22c0.46-0.19,0.94-0.36,1.4-0.53c0.55-0.21,1.12-0.36,1.65-0.61
			c0.68-0.31,1.37-0.34,2.08-0.31c0.12,0,0.24,0,0.35,0c0.2-0.01,0.26-0.11,0.22-0.3c-0.02-0.1-0.14-0.23-0.07-0.3
			c0.1-0.09,0.25-0.12,0.39-0.18c0.05-0.02,0.11-0.03,0.19-0.04c-0.14,0.57-0.12,1.1,0.2,1.61
			C315.77,172.03,315.13,172.26,314.5,172.5z"/>
		<g>
			<path d="M306.6,183.46v0.22h-1.13v-0.31c0-0.16,0.03-0.26,0.09-0.31c0.06-0.05,0.19-0.1,0.4-0.13c0.18-0.03,0.28-0.06,0.31-0.09
				c0.03-0.03,0.05-0.09,0.05-0.2c0-0.1-0.02-0.17-0.05-0.2c-0.03-0.03-0.11-0.04-0.23-0.04c-0.13,0-0.21,0.01-0.24,0.04
				c-0.03,0.03-0.05,0.1-0.05,0.21v0.06h-0.28v-0.06c0-0.19,0.04-0.31,0.12-0.38c0.08-0.07,0.23-0.1,0.45-0.1
				c0.22,0,0.37,0.03,0.44,0.1c0.08,0.07,0.12,0.19,0.12,0.38c0,0.17-0.03,0.29-0.09,0.35c-0.06,0.06-0.2,0.11-0.41,0.15
				c-0.18,0.03-0.28,0.06-0.31,0.08c-0.03,0.02-0.04,0.09-0.04,0.19v0.04H306.6z"/>
			<path d="M307.53,182.17c0.28,0,0.44,0.04,0.51,0.12s0.1,0.29,0.1,0.64c0,0.35-0.03,0.56-0.1,0.64s-0.23,0.12-0.51,0.12
				c-0.28,0-0.44-0.04-0.51-0.12c-0.06-0.08-0.1-0.29-0.1-0.64c0-0.35,0.03-0.56,0.1-0.64
				C307.08,182.21,307.25,182.17,307.53,182.17z M307.51,182.42c-0.13,0-0.21,0.02-0.25,0.06c-0.03,0.04-0.05,0.13-0.05,0.27l0,0.2
				l0,0.18c0,0.15,0.02,0.25,0.05,0.28c0.04,0.04,0.13,0.05,0.27,0.05c0.15,0,0.24-0.03,0.28-0.08c0.03-0.05,0.05-0.2,0.05-0.45
				c0-0.25-0.01-0.4-0.04-0.44C307.78,182.44,307.68,182.42,307.51,182.42z"/>
			<path d="M309.57,183.46v0.22h-1.13v-0.31c0-0.16,0.03-0.26,0.09-0.31c0.06-0.05,0.19-0.1,0.4-0.13c0.18-0.03,0.28-0.06,0.31-0.09
				c0.03-0.03,0.05-0.09,0.05-0.2c0-0.1-0.02-0.17-0.05-0.2c-0.03-0.03-0.11-0.04-0.23-0.04c-0.13,0-0.21,0.01-0.24,0.04
				c-0.03,0.03-0.05,0.1-0.05,0.21v0.06h-0.28v-0.06c0-0.19,0.04-0.31,0.12-0.38c0.08-0.07,0.23-0.1,0.45-0.1
				c0.22,0,0.37,0.03,0.44,0.1c0.08,0.07,0.12,0.19,0.12,0.38c0,0.17-0.03,0.29-0.09,0.35c-0.06,0.06-0.2,0.11-0.41,0.15
				c-0.18,0.03-0.28,0.06-0.31,0.08c-0.03,0.02-0.04,0.09-0.04,0.19v0.04H309.57z"/>
			<path d="M310.38,183.03v-0.22l0.05,0c0.16,0,0.26-0.01,0.29-0.03c0.03-0.02,0.05-0.07,0.05-0.16c0-0.1-0.02-0.16-0.05-0.18
				c-0.03-0.02-0.11-0.03-0.25-0.03c-0.12,0-0.2,0.01-0.23,0.04c-0.03,0.02-0.05,0.09-0.05,0.18v0.04h-0.27v-0.06
				c0-0.17,0.04-0.29,0.11-0.35s0.22-0.09,0.44-0.09c0.22,0,0.37,0.03,0.45,0.08c0.08,0.06,0.12,0.16,0.12,0.31
				c0,0.21-0.08,0.32-0.25,0.35v0.01c0.18,0.02,0.27,0.13,0.27,0.33c0,0.18-0.04,0.29-0.12,0.36c-0.08,0.06-0.24,0.09-0.47,0.09
				c-0.23,0-0.38-0.03-0.46-0.09c-0.08-0.06-0.12-0.18-0.12-0.34l0-0.08h0.28c0,0.03,0,0.05,0,0.06c0,0.1,0.02,0.17,0.05,0.19
				c0.03,0.03,0.12,0.04,0.26,0.04c0.13,0,0.21-0.01,0.24-0.04c0.03-0.03,0.05-0.09,0.05-0.2c0-0.08-0.02-0.13-0.05-0.16
				s-0.1-0.04-0.19-0.04h-0.12H310.38z"/>
		</g>
	</g>
</g>
</svg>
