<?xml version="1.0" encoding="utf-8"?>
<!-- Generator: Adobe Illustrator 23.0.2, SVG Export Plug-In . SVG Version: 6.00 Build 0)  -->
<svg version="1.1" id="Layer_1" xmlns="http://www.w3.org/2000/svg" xmlns:xlink="http://www.w3.org/1999/xlink" x="0px" y="0px"
	 viewBox="0 0 488.45 488.45" style="enable-background:new 0 0 488.45 488.45;" xml:space="preserve">
<style type="text/css">
	.st0{fill:#C6C6C6;}
	.st1{fill:#070707;}
	.st2{fill:#090909;}
	.st3{fill:none;stroke:#000000;stroke-width:3;stroke-miterlimit:10;}
	.st4{fill:#F5E586;}
	.st5{fill:#2582AC;}
	.st6{fill:#6B3C39;}
	.st7{fill:#823F32;}
	.st8{fill:#562B25;}
	.st9{fill:none;stroke:#070707;stroke-miterlimit:10;}
	.st10{clip-path:url(#SVGID_2_);}
	.st11{fill:none;stroke:#F5E586;stroke-width:5;stroke-miterlimit:10;}
	.st12{clip-path:url(#SVGID_4_);}
	.st13{fill:#191413;}
	.st14{fill:#B88B74;}
	.st15{fill:#F1A562;}
	.st16{fill:#FDFDFD;}
	.st17{fill:#EF331A;}
	.st18{fill:#D6271A;}
	.st19{fill:#FFFFFF;}
	.st20{fill:#6B0E0A;}
	.st21{fill:#F9F9F8;}
	.st22{fill:#FEFEFF;}
	.st23{fill:#1D9533;stroke:#FFFFFF;stroke-width:5;stroke-miterlimit:10;}
	.st24{fill:#EF331A;stroke:#B23B32;stroke-width:2;stroke-miterlimit:10;}
	.st25{fill:#4A0F7B;}
	.st26{fill:#C6160E;}
	.st27{clip-path:url(#SVGID_6_);}
	.st28{fill:none;stroke:#562B25;stroke-width:1.2;stroke-miterlimit:10;}
	.st29{clip-path:url(#SVGID_8_);}
	.st30{fill:#1D9533;}
	.st31{fill:#0C5822;}
	.st32{fill:#0B3615;}
	.st33{fill:#1D9533;stroke:#115F24;stroke-width:1.5;stroke-miterlimit:10;}
	.st34{fill:#134A1D;}
	.st35{clip-path:url(#SVGID_10_);}
	.st36{fill:#EEF4F5;}
	.st37{fill:#155D84;}
	.st38{fill:#1879AE;}
	.st39{fill:#114156;}
	.st40{fill:#121111;}
	.st41{fill:#33110D;}
	.st42{clip-path:url(#SVGID_12_);}
	.st43{fill:#A0522D;}
	.st44{fill:#F42121;}
	.st45{fill:#FAB00B;}
	.st46{fill:#F5DDDB;}
	.st47{fill:#F66831;}
	.st48{opacity:0.49;fill:url(#);}
	.st49{opacity:0.53;}
	.st50{clip-path:url(#SVGID_14_);}
	.st51{fill:#DDDDDD;}
	.st52{fill:#B2B2B2;}
	.st53{fill:#757575;}
	.st54{fill:#3F3F3F;}
	.st55{fill:#070706;}
	.st56{fill:#F6C7DB;}
	.st57{fill:#040404;}
	.st58{fill:#F13C8B;}
	.st59{fill:#0A0A09;}
	.st60{fill:#239830;}
	.st61{fill:#1F6DAF;}
	.st62{clip-path:url(#SVGID_16_);}
	.st63{fill:#A6DAE9;}
	.st64{fill:#144863;}
	.st65{clip-path:url(#SVGID_18_);}
	.st66{clip-path:url(#SVGID_20_);}
	.st67{clip-path:url(#SVGID_22_);}
	.st68{clip-path:url(#SVGID_24_);}
	.st69{clip-path:url(#SVGID_26_);}
	.st70{fill:#10441D;}
	.st71{fill:#2B9B2E;}
</style>
<g>
	<g>
		<g>
			<path class="st4" d="M117.53,96.46c0,0,17.66,69.56,3.24,111c0,0-6.85,113.89-3.24,134.79c0,0,1.95,43.25,8.91,45.41l2.15,27.75
				h4.44l-2.16,37.84l-51.3-3.24l-1.68-39.16c0,0-9.85-86.5-3.6-135.99S94.46,131.9,117.53,96.46z"/>
			<g>
				<g>
					<polygon class="st41" points="77.93,412.06 128.58,413.98 128.58,424.79 77.93,421.42 					"/>
					<polygon class="st41" points="78.53,425.99 132.24,429.12 131.75,437.77 78.89,434.4 					"/>
					<polygon class="st41" points="79.19,442.33 131.58,444.97 130.86,453.26 79.56,450.02 					"/>
				</g>
			</g>
		</g>
		<g>
			<path class="st4" d="M370.92,96.46c0,0-17.66,69.56-3.24,111c0,0,6.85,113.89,3.24,134.79c0,0-1.95,43.25-8.91,45.41l-2.15,27.75
				h-4.44l2.16,37.84l51.3-3.24l1.68-39.16c0,0,9.85-86.5,3.6-135.99C407.92,225.37,393.99,131.9,370.92,96.46z"/>
			<g>
				<polygon class="st41" points="410.51,412.06 359.87,413.98 359.87,424.79 410.51,421.42 				"/>
				<polygon class="st41" points="409.92,425.99 356.21,429.12 356.7,437.77 409.56,434.4 				"/>
				<polygon class="st41" points="409.26,442.33 356.87,444.97 357.59,453.26 408.88,450.02 				"/>
			</g>
		</g>
		<g>
			<g>
				<path class="st8" d="M362.6,386.91c15.36-31.79,7.21-181.24,7.21-181.24c-17.3-26.67,0-110.28,0-110.28
					c-5.94-10.56-53.55-31.38-61.54-34.82v-0.5H181.68C134.83,78.8,117.1,96.58,117.1,96.58c20.24,73.94,2.35,111.96,2.35,111.96
					c-5.29,56.22,0,158.1,0,158.1c0.91,9.66,3.66,15.81,7.02,19.7h-0.77v28.83c0,0-3.36,13.7,13.22,12.97H345.3
					c0,0,19.22,1.87,17.3-13.96V386.91z"/>
				<g>
					<path class="st41" d="M126.15,386.35v28.83c0,0-3.36,13.7,13.21,12.97h206.39c0,0,19.22,1.87,17.3-13.96v-27.85H126.15z"/>
					<path class="st4" d="M126.15,393.79c0,0,7.69,5.77,13.94,5.53c6.25-0.24,206.63,0,206.63,0s12.49,0,16.34-5.53v6.86
						c0,0-6.49,6.78-15.86,6.63H140.69c0,0-11.77-2.65-14.54-6.63V393.79z"/>
					<path class="st4" d="M126.15,408.81c0,0,7.69,5.77,13.94,5.53c6.25-0.24,206.63,0,206.63,0s12.49,0,16.34-5.53v6.86
						c0,0-6.49,6.78-15.86,6.63H140.69c0,0-11.77-2.65-14.54-6.63V408.81z"/>
				</g>
			</g>
			<g>
				<path class="st41" d="M204.5,35.19c0,0-2.94,13.43-24.43,25.32c0,0,30.7,19.95,66,16.88c0,0,39.14,0,62.93-16.5
					c0,0-14.58-7.67-24.94-24.17C284.05,36.72,229.31,42.48,204.5,35.19z"/>
				<path class="st4" d="M201.85,41.07l-6.02,7.7c0,0,36.81,8.93,96.12-1.72l-5.85-5.98C286.1,41.07,230.41,52.59,201.85,41.07z"/>
				<path class="st4" d="M190.36,53.71c0,0,25.65,9.87,63,7.82c0,0,33.45-0.81,45.5-7.82l5.21,4.05c0,0-13.62,11.45-64.53,10.93
					c0,0-48.98-4.23-56.08-10.17L190.36,53.71z"/>
			</g>
		</g>
	</g>
</g>
<g>
	<g>
		<g>
			<g>
				
					<ellipse transform="matrix(0.7071 -0.7071 0.7071 0.7071 -70.733 232.7206)" class="st41" cx="245.55" cy="201.74" rx="75.61" ry="75.61"/>
			</g>
			<g>
				<g>
					
						<ellipse transform="matrix(0.7071 -0.7071 0.7071 0.7071 -70.733 232.7206)" class="st4" cx="245.55" cy="201.74" rx="73.46" ry="73.46"/>
				</g>
			</g>
		</g>
		
			<ellipse transform="matrix(0.2298 -0.9732 0.9732 0.2298 -7.2099 394.375)" class="st8" cx="245.55" cy="201.74" rx="46.23" ry="46.23"/>
	</g>
	<path class="st19" d="M214.13,178.91c0.69-0.73,1.45-1.4,2.25-2.01c0.95-0.72,1.98-1.35,3.06-1.9c4.21-2.26,9.18-3.03,13.92-1.59
		c1.07,0.3,2.11,0.7,3.1,1.22c2.7,1.42,5.02,3.51,6.92,5.89c0.47,0.59,1.87,2.03,2.19,3.01c0.32-0.98,1.72-2.42,2.19-3.01
		c1.89-2.38,4.21-4.47,6.92-5.89c0.99-0.52,2.03-0.93,3.1-1.22c4.74-1.45,9.71-0.68,13.92,1.59c1.08,0.54,2.11,1.18,3.06,1.9
		c0.8,0.61,1.55,1.28,2.25,2.01c3.86,4.08,5.34,8.73,5.25,13.48c-0.21,10.41-7.06,19.62-14.26,26.54
		c-1.88,1.81-21.44,19.71-22.36,18.96c0,0-0.02-0.02-0.06-0.05c-0.04,0.03-0.06,0.05-0.06,0.05c-0.92,0.76-20.48-17.15-22.36-18.96
		c-7.19-6.93-14.04-16.14-14.26-26.54C208.79,187.65,210.27,182.99,214.13,178.91z"/>
	<g>
		<g>
			<path class="st41" d="M224.5,261.3l-4.03-1.57l-1.28,1.57l-1.87-0.73l6.75-8.13l2.66,1.04l-0.49,10.57l-1.84-0.72L224.5,261.3z
				 M224.6,259.84l0.29-5.5l-3.49,4.24L224.6,259.84z"/>
			<path class="st41" d="M233.4,255.44l-0.74,4.02l0.88,0.16l4.02-3.41l2.33,0.43l-4.87,4.05l3.46,5.88l-2.4-0.44l-2.82-4.94
				l-0.89-0.17l-0.79,4.27l-1.87-0.35l1.82-9.86L233.4,255.44z"/>
			<path class="st41" d="M246.04,256.65c1.82-0.01,3,0.28,3.52,0.89c0.53,0.6,0.8,1.95,0.81,4.05c0.01,2.3-0.24,3.75-0.76,4.35
				s-1.79,0.91-3.82,0.92c-1.82,0.01-3-0.28-3.54-0.86c-0.54-0.59-0.81-1.88-0.82-3.89c-0.02-2.39,0.24-3.89,0.76-4.51
				C242.71,256.97,243.99,256.66,246.04,256.65z M245.9,258.28c-1.28,0.01-2.02,0.18-2.24,0.51c-0.21,0.33-0.31,1.47-0.3,3.41
				c0.01,1.44,0.14,2.31,0.4,2.6c0.25,0.29,1,0.43,2.23,0.43c1.18-0.01,1.89-0.18,2.12-0.51c0.23-0.33,0.34-1.34,0.33-3.01
				c-0.01-1.68-0.13-2.67-0.35-2.98C247.86,258.42,247.13,258.27,245.9,258.28z"/>
			<path class="st41" d="M254.29,256.09l0.79,4.01l0.88-0.17l2.48-4.65l2.32-0.46l-3.03,5.56l5.38,4.2l-2.39,0.47l-4.44-3.55
				l-0.89,0.18l0.84,4.26l-1.87,0.37l-1.93-9.84L254.29,256.09z"/>
			<path class="st41" d="M271.32,259.43l-4.01,1.62l0.14,2.02l-1.87,0.75l-0.66-10.55l2.65-1.07l6.89,8.03l-1.83,0.74L271.32,259.43
				z M270.39,258.29l-3.56-4.19l0.37,5.48L270.39,258.29z"/>
		</g>
	</g>
	<g>
		<g>
			<path class="st41" d="M180.2,209l-0.17-1.89l6.64-0.61c1.39-0.13,2.33,0.06,2.83,0.55c0.5,0.49,0.82,1.56,0.97,3.21
				c0.16,1.74,0.05,2.9-0.32,3.48c-0.38,0.58-1.24,0.93-2.61,1.06l-6.75,0.62l-0.17-1.89l6.75-0.62c0.74-0.07,1.19-0.24,1.36-0.52
				c0.17-0.28,0.21-0.91,0.13-1.89c-0.09-1-0.25-1.62-0.47-1.86c-0.22-0.24-0.73-0.32-1.51-0.25L180.2,209z"/>
			<path class="st41" d="M180.83,194.61l9.98,0.92l-0.3,3.21l-5.74,2.35c-0.29,0.12-0.78,0.29-1.5,0.53l-0.75,0.26l-0.75,0.25
				l-0.01,0.07l0.66,0.03l0.65,0.04l1.31,0.11l5.73,0.53l-0.17,1.89l-9.98-0.92l0.29-3.21l5.3-2.13c0.47-0.19,1.04-0.4,1.7-0.65
				l0.85-0.31l0.85-0.31l0.01-0.07l-0.65-0.04l-0.65-0.04l-1.29-0.1l-5.75-0.53L180.83,194.61z"/>
			<path class="st41" d="M181.95,189.89l9.78,2.22l-0.42,1.86l-9.78-2.22L181.95,189.89z"/>
			<path class="st41" d="M184.74,180.99l0.67-1.9l8.38,6.39l-0.98,2.76l-10.52-0.32l0.66-1.86l5.98,0.12
				c0.57,0.02,1.52,0.07,2.84,0.17l0.02-0.05l-0.58-0.41c-0.72-0.51-1.3-0.92-1.72-1.25L184.74,180.99z"/>
			<path class="st41" d="M188.6,176.45l2.28,1.22l2.22-4.14l1.24,0.66l-2.22,4.14l2.5,1.34l2.37-4.41l1.41,0.76l-3.27,6.08
				l-8.83-4.74l3.25-6.04l1.41,0.76L188.6,176.45z"/>
			<path class="st41" d="M198.99,175.03l-7.99-6.05l2.98-3.94c0.74-0.98,1.42-1.53,2.04-1.64c0.62-0.11,1.38,0.17,2.27,0.84
				c0.81,0.61,1.29,1.12,1.45,1.53c0.16,0.41,0.07,0.94-0.25,1.6l0.05,0.04c0.73-0.84,1.58-0.9,2.56-0.15l1.76,1.34l-1.15,1.52
				l-1.46-1.1c-0.82-0.62-1.54-0.53-2.16,0.28l-1.65,2.18l2.69,2.04L198.99,175.03z M196.17,170.51l1.65-2.18
				c0.39-0.52,0.56-0.93,0.5-1.24c-0.06-0.31-0.36-0.68-0.92-1.1c-0.57-0.43-0.99-0.64-1.27-0.62c-0.28,0.02-0.6,0.28-0.98,0.77
				l-1.73,2.28L196.17,170.51z"/>
			<path class="st41" d="M205.31,157.33l-1.35,1.28c-0.07-0.06-0.12-0.11-0.15-0.14c-0.42-0.38-0.75-0.55-1-0.51
				c-0.25,0.04-0.65,0.32-1.2,0.84c-0.65,0.62-1.02,1.09-1.11,1.4c-0.09,0.31,0.05,0.66,0.42,1.05c0.44,0.46,0.78,0.66,1.03,0.59
				s0.86-0.5,1.82-1.32c1.14-0.97,1.99-1.48,2.54-1.53c0.55-0.05,1.2,0.31,1.95,1.1c0.92,0.97,1.32,1.77,1.22,2.4
				c-0.1,0.64-0.79,1.56-2.06,2.77c-1.14,1.09-2.03,1.67-2.67,1.75c-0.64,0.08-1.36-0.3-2.16-1.15l-0.26-0.26l1.34-1.28l0.15,0.15
				c0.48,0.51,0.87,0.73,1.15,0.68s0.83-0.46,1.62-1.21c0.62-0.59,0.95-1.03,1-1.32c0.04-0.29-0.16-0.68-0.61-1.15
				c-0.33-0.35-0.62-0.52-0.86-0.52c-0.24,0.01-0.59,0.2-1.04,0.59l-0.81,0.68c-1.21,1.03-2.1,1.56-2.66,1.61
				c-0.56,0.05-1.23-0.34-2.02-1.17c-0.81-0.85-1.15-1.6-1.03-2.24c0.12-0.65,0.75-1.52,1.91-2.62c1.09-1.04,1.95-1.61,2.58-1.71
				c0.63-0.1,1.3,0.22,2.01,0.98L205.31,157.33z"/>
			<path class="st41" d="M206.95,152.46l6.04,8.01l-1.52,1.15l-6.04-8.01L206.95,152.46z"/>
			<path class="st41" d="M213.54,150.19l4.29,7.13l-1.63,0.98l-4.29-7.13l-2.48,1.49l-0.88-1.46l6.68-4.02l0.88,1.46L213.54,150.19z
				"/>
			<path class="st41" d="M224.92,143.03l-1.08,7.15l1.46,3.54l-1.76,0.72l-1.46-3.54l-5.7-4.36l2.04-0.84l2.41,1.87
				c0.13,0.1,0.37,0.3,0.7,0.59l0.35,0.29l0.34,0.3l0.05-0.02l0.04-0.46l0.04-0.45c0.03-0.4,0.06-0.71,0.09-0.92l0.41-3.03
				L224.92,143.03z"/>
			<path class="st41" d="M240.27,140c1.82-0.15,3.01,0.05,3.58,0.61c0.57,0.56,0.94,1.89,1.12,3.98c0.19,2.29,0.05,3.75-0.43,4.39
				c-0.47,0.64-1.72,1.04-3.74,1.21c-1.82,0.15-3.01-0.05-3.59-0.59c-0.58-0.54-0.95-1.82-1.12-3.82c-0.2-2.38-0.06-3.9,0.41-4.55
				C236.97,140.58,238.23,140.17,240.27,140z M240.26,141.64c-1.27,0.11-2,0.33-2.19,0.68c-0.19,0.34-0.2,1.49-0.04,3.42
				c0.12,1.44,0.32,2.29,0.59,2.56c0.28,0.27,1.03,0.36,2.26,0.25c1.18-0.1,1.87-0.32,2.07-0.67c0.21-0.35,0.24-1.36,0.1-3.03
				c-0.14-1.67-0.33-2.65-0.58-2.94C242.23,141.63,241.49,141.54,240.26,141.64z"/>
			<path class="st41" d="M248.95,141.56l-0.19,2.7l4.49,0.31l-0.11,1.6l-4.48-0.31l-0.29,4.11l-1.9-0.13l0.7-10l6.62,0.46l-0.11,1.6
				L248.95,141.56z"/>
			<path class="st41" d="M266.42,144.96l-0.93,2.54l4.22,1.55l-0.55,1.5l-4.22-1.55l-1.42,3.87l-1.79-0.65l3.45-9.42l6.24,2.28
				l-0.55,1.5L266.42,144.96z"/>
			<path class="st41" d="M275.11,146.92l-4.41,9.01l-1.71-0.84l4.41-9.01L275.11,146.92z"/>
			<path class="st41" d="M272.27,156.61l5.45-8.42l4.15,2.69c1.03,0.67,1.63,1.31,1.79,1.92c0.16,0.61-0.06,1.38-0.67,2.32
				c-0.55,0.85-1.02,1.37-1.42,1.56c-0.4,0.19-0.94,0.14-1.62-0.13l-0.04,0.06c0.9,0.66,1.01,1.51,0.34,2.54l-1.2,1.86l-1.6-1.03
				l0.99-1.54c0.56-0.87,0.42-1.58-0.44-2.13l-2.3-1.49l-1.84,2.84L272.27,156.61z M276.58,153.46l2.29,1.48
				c0.55,0.35,0.97,0.49,1.28,0.41c0.31-0.08,0.65-0.41,1.03-1c0.39-0.6,0.56-1.04,0.52-1.31c-0.04-0.27-0.32-0.58-0.85-0.92
				l-2.4-1.56L276.58,153.46z"/>
			<path class="st41" d="M290.38,161.59l-1.38-1.25c0.06-0.08,0.1-0.13,0.13-0.16c0.35-0.45,0.49-0.79,0.43-1.04
				s-0.36-0.62-0.93-1.14c-0.67-0.61-1.16-0.94-1.48-1c-0.32-0.06-0.65,0.1-1.01,0.5c-0.43,0.47-0.6,0.83-0.52,1.07
				c0.08,0.25,0.57,0.82,1.46,1.72c1.05,1.07,1.62,1.87,1.72,2.42c0.09,0.55-0.22,1.22-0.95,2.03c-0.9,0.99-1.66,1.45-2.31,1.39
				s-1.61-0.68-2.91-1.85c-1.17-1.06-1.82-1.9-1.94-2.53c-0.13-0.63,0.2-1.38,0.99-2.24l0.24-0.28l1.37,1.24l-0.14,0.16
				c-0.47,0.52-0.67,0.92-0.59,1.2c0.08,0.28,0.52,0.79,1.33,1.52c0.63,0.57,1.09,0.87,1.39,0.89c0.3,0.02,0.66-0.21,1.11-0.69
				c0.33-0.36,0.48-0.66,0.45-0.9c-0.03-0.24-0.25-0.57-0.66-0.99l-0.73-0.75c-1.11-1.14-1.71-1.98-1.81-2.53
				c-0.09-0.55,0.25-1.25,1.02-2.1c0.79-0.87,1.51-1.27,2.16-1.2c0.66,0.07,1.57,0.64,2.75,1.71c1.12,1.01,1.75,1.83,1.9,2.45
				c0.15,0.62-0.13,1.31-0.82,2.08L290.38,161.59z"/>
			<path class="st41" d="M295.49,165.71l-6.44,5.27l-1.2-1.47l6.44-5.27l-1.83-2.24l1.32-1.08l4.93,6.03l-1.32,1.08L295.49,165.71z"
				/>
			<path class="st41" d="M301,185.05l0.73,1.77l-0.32,0.13c-1.29,0.53-2.22,0.64-2.79,0.33c-0.57-0.31-1.19-1.28-1.86-2.89
				c-0.75-1.83-0.92-3.08-0.5-3.74c0.42-0.67,1.94-1.54,4.53-2.61c1.53-0.63,2.65-0.76,3.37-0.39c0.72,0.37,1.45,1.46,2.2,3.28
				c0.55,1.32,0.71,2.29,0.5,2.89c-0.21,0.61-0.91,1.15-2.09,1.64l-0.21,0.09l-0.73-1.77l0.24-0.1c0.61-0.25,0.95-0.52,1.02-0.82
				c0.08-0.3-0.05-0.86-0.39-1.67c-0.45-1.09-0.85-1.69-1.21-1.8c-0.36-0.11-1.19,0.11-2.51,0.65c-1.78,0.73-2.79,1.26-3.03,1.6
				c-0.24,0.33-0.14,1.04,0.3,2.11c0.36,0.87,0.68,1.4,0.97,1.59s0.74,0.15,1.36-0.1L301,185.05z"/>
			<path class="st41" d="M310.32,195.15l-9.79,2.18l-0.41-1.86l4.23-0.94l-1.02-4.59l-4.23,0.94l-0.41-1.86l9.79-2.18l0.41,1.86
				l-3.99,0.89l1.02,4.59l3.99-0.89L310.32,195.15z"/>
			<path class="st41" d="M311,202.47c0.08,1.82-0.16,3-0.74,3.56c-0.58,0.55-1.92,0.88-4.02,0.97c-2.3,0.11-3.75-0.09-4.37-0.59
				c-0.62-0.5-0.98-1.76-1.07-3.78c-0.08-1.82,0.16-3.01,0.72-3.57c0.57-0.56,1.85-0.89,3.86-0.98c2.39-0.11,3.9,0.08,4.53,0.58
				C310.54,199.15,310.9,200.42,311,202.47z M309.36,202.39c-0.06-1.28-0.26-2.02-0.59-2.22c-0.34-0.2-1.48-0.26-3.42-0.17
				c-1.44,0.07-2.3,0.23-2.58,0.5c-0.28,0.27-0.39,1.01-0.34,2.25c0.05,1.18,0.25,1.88,0.59,2.1c0.34,0.22,1.35,0.29,3.02,0.21
				c1.68-0.08,2.67-0.23,2.96-0.47C309.3,204.36,309.42,203.63,309.36,202.39z"/>
			<path class="st41" d="M310.73,211.07l-10-0.73l0.14-1.9l10,0.73L310.73,211.07z"/>
			<path class="st41" d="M303.02,218.82l-0.36,1.88l-0.34-0.06c-1.37-0.26-2.21-0.68-2.51-1.26c-0.31-0.58-0.29-1.72,0.03-3.43
				c0.37-1.94,0.92-3.08,1.64-3.4c0.72-0.33,2.46-0.22,5.22,0.31c1.62,0.31,2.64,0.82,3.03,1.52c0.4,0.7,0.41,2.02,0.04,3.95
				c-0.27,1.4-0.66,2.3-1.17,2.69c-0.51,0.39-1.39,0.47-2.64,0.23l-0.23-0.04l0.36-1.88l0.25,0.05c0.64,0.12,1.08,0.08,1.31-0.13
				c0.23-0.21,0.42-0.74,0.59-1.61c0.22-1.16,0.21-1.88-0.02-2.17c-0.24-0.29-1.06-0.57-2.46-0.83c-1.89-0.36-3.02-0.47-3.41-0.33
				c-0.39,0.14-0.69,0.79-0.91,1.93c-0.18,0.93-0.2,1.55-0.06,1.86c0.14,0.31,0.54,0.53,1.19,0.66L303.02,218.82z"/>
			<path class="st41" d="M306.16,225.39l-2.43-0.87l-1.59,4.43l-1.32-0.47l1.58-4.43l-2.67-0.96l-1.69,4.71l-1.51-0.54l2.33-6.5
				l9.44,3.38l-2.31,6.46l-1.51-0.54L306.16,225.39z"/>
		</g>
	</g>
	<path class="st8" d="M266.58,213.08c-0.17-0.03-0.31-0.11-0.42-0.24c-0.73-0.89-0.88-3.26,0.46-4.06c0.5-0.3,0.48-0.54,0.02-0.89
		c-0.13-0.09-0.28-0.17-0.43-0.22c-0.98-0.28-1.92-0.64-2.85-1.03c-0.27-0.11-0.39-0.25-0.41-0.56c-0.04-0.52-0.29-1-0.79-1.16
		c-0.37-0.12-0.42-0.31-0.42-0.62c0-1.76,0-3.52,0-5.28c0-0.15-0.09-0.38,0.11-0.44c0.43-0.14,0.8-0.45,1.22-0.55
		c0.72-0.17,1.39-0.46,2.08-0.68c0.28-0.09,0.53-0.2,0.54-0.53c0.01-0.36-0.29-0.47-0.55-0.56c-0.87-0.28-1.76-0.55-2.59-0.9
		c-1.19-0.51-2.44-0.85-3.63-1.37c-1.06-0.46-2.16-0.82-3.25-1.21c-0.51-0.18-1.06-0.27-1.54-0.51c-0.92-0.47-1.92-0.72-2.87-1.09
		c-0.79-0.31-1.64-0.56-2.43-0.87c-0.83-0.33-1.73-0.53-2.52-0.97c-0.28-0.16-0.64-0.22-0.96-0.11c-0.65,0.21-1.29,0.44-1.93,0.68
		c-1.17,0.44-2.31,0.98-3.5,1.34c-1.59,0.48-3.11,1.16-4.69,1.69c-1.39,0.47-2.76,1.01-4.14,1.52c-1.67,0.62-3.34,1.23-5.01,1.85
		c-0.25,0.09-0.48,0.18-0.49,0.51c0,0.35,0.23,0.45,0.51,0.55c0.83,0.29,1.66,0.6,2.48,0.91c1.56,0.58,3.12,1.16,4.69,1.73
		c0.32,0.12,0.45,0.28,0.44,0.63c-0.02,1.27-0.02,2.53,0,3.8c0,0.32-0.09,0.48-0.39,0.61c-1.12,0.49-2.28,0.86-3.42,1.29
		c-1.38,0.51-2.76,1.04-4.16,1.5c-0.66,0.22-1.13,0.66-1.37,1.34c-0.2,0.56-0.24,1.14-0.27,1.69c0.07,1.84,0.47,2.99,2.1,3.4
		c0.14,0.03,0.28,0.06,0.41,0.11c2.1,0.79,4.19,1.6,6.3,2.36c2.08,0.75,4.16,1.5,6.23,2.27c2.05,0.77,4.13,1.49,6.17,2.3
		c0.57,0.23,1.13,0.2,1.71-0.02c1.46-0.55,2.94-1.08,4.4-1.62c1.42-0.52,2.83-1.05,4.24-1.58c1.44-0.54,2.86-1.12,4.31-1.64
		c1.35-0.49,2.7-1,4.08-1.43c0.49-0.15,0.87-0.52,1.38-0.58c0.43-0.05,0.8-0.25,1.19-0.39c0.21-0.07,0.34-0.28,0.35-0.48
		C266.99,213.3,266.83,213.12,266.58,213.08z M262.85,207.47c0.66,0.23,1.32,0.5,1.98,0.74c0.27,0.09,0.1,0.27,0.03,0.29
		c-0.6,0.12-1.16,0.32-1.71,0.54c-0.13,0.01-0.17-0.06-0.2-0.16c-0.13-0.38-0.27-0.75-0.39-1.14
		C262.47,207.47,262.63,207.4,262.85,207.47z M262.48,210.51c-0.82,0-1.61,0-2.49,0c0.27-0.76,0.53-1.47,0.77-2.19
		c0.11-0.33,0.35-0.16,0.54-0.2c0.25-0.06,0.43,0.01,0.51,0.26C262.03,209.08,262.25,209.78,262.48,210.51z M257.48,204.4
		c-0.01-0.02-0.02-0.04-0.02-0.07C257.46,204.36,257.47,204.38,257.48,204.4z M257.57,204.48c0-1.43,0-2.86,0-4.28
		c0.04-0.06,0.08-0.16,0.13-0.17c1.04-0.23,1.98-0.72,3.07-1.03c0,0.76,0,1.48,0,2.21c0,0.79,0,1.57,0,2.36c0,1.07,0,1.07-0.82,1.66
		c-0.14,0.1-0.32,0.14-0.44,0.07C258.9,204.92,258.19,204.8,257.57,204.48z M262.04,206.45c0,0.35-0.41,0.69-0.82,0.69
		c-0.38,0-0.75-0.37-0.76-0.76c-0.01-0.38,0.35-0.77,0.72-0.78C261.68,205.59,262.05,205.96,262.04,206.45z M233.14,198.92
		c-1.15-0.39-2.26-0.87-3.44-1.2c-0.67-0.19-1.27-0.61-1.98-0.73c-0.08-0.01-0.15-0.05-0.13-0.13c0.02-0.06,0.08-0.13,0.13-0.16
		c0.31-0.12,0.63-0.22,0.94-0.35c1.2-0.49,2.43-0.92,3.64-1.38c0.81-0.31,1.66-0.59,2.48-0.89c0.86-0.31,1.72-0.67,2.58-0.97
		c0.83-0.29,1.67-0.57,2.48-0.9c1.24-0.49,2.54-0.85,3.76-1.41c0.56-0.26,1.19-0.47,1.82-0.61c0.24-0.06,0.46,0,0.69,0.09
		c3.67,1.36,7.34,2.71,11.02,4.06c2.1,0.77,4.19,1.55,6.29,2.32c0.1,0.04,0.22,0.04,0.27,0.18c-2.08,0.86-4.23,1.56-6.34,2.35
		c-1.21,0.45-2.42,0.89-3.63,1.33c-1.05,0.39-2.09,0.78-3.14,1.17c-1.37,0.5-2.74,0.98-4.1,1.52c-0.64,0.25-1.18,0.21-1.84-0.02
		c-0.82-0.28-1.62-0.61-2.45-0.88c-0.83-0.27-1.67-0.62-2.49-0.97c-1.08-0.45-2.19-0.83-3.3-1.23
		C235.35,199.71,234.25,199.3,233.14,198.92z M246.97,211.08c-0.91,0-1.82,0-2.72,0c-1.01-0.18-2.05-0.16-3.05-0.43
		c-0.86-0.23-1.73-0.39-2.56-0.71c-1.22-0.46-2.31-1.08-3.23-2.02c-0.39-0.39-0.53-0.89-0.74-1.36c0-2.01,0.01-4.02,0.01-6.03
		c1.67,0.61,3.34,1.21,5,1.82c1.73,0.63,3.47,1.26,5.19,1.92c0.83,0.32,1.55-0.04,2.29-0.28c0.86-0.29,1.71-0.62,2.56-0.93
		c1.51-0.56,3.02-1.12,4.54-1.67c0.79-0.29,1.59-0.57,2.38-0.85c0.01,1.94,0.01,3.88,0.02,5.81c-0.28,1.41-1.26,2.22-2.43,2.86
		c-2.02,1.11-4.22,1.59-6.5,1.78C247.48,211,247.23,211.05,246.97,211.08z M234.56,206.56c-0.01-0.01-0.01-0.03-0.01-0.05
		C234.54,206.52,234.55,206.54,234.56,206.56z M256.75,200.61c0.01,0.02,0.02,0.05,0.03,0.07
		C256.77,200.65,256.76,200.63,256.75,200.61z M230.47,207.09c0.96-0.37,1.93-0.71,2.9-1.07c0.15-0.06,0.36-0.23,0.36,0.14
		c0.04,1.93,1.3,2.99,2.79,3.84c1.91,1.1,4.02,1.61,6.19,1.87c0.33,0.04,0.65,0.06,0.98,0.09l0,0c1.28,0.07,2.56,0.07,3.84,0
		c2.8-0.22,5.5-0.78,7.89-2.36c0.97-0.64,1.74-1.47,2.07-2.64c0.1-0.35,0.08-0.69,0.07-1.03c-0.01-0.36,0.14-0.41,0.43-0.29
		c0.4,0.16,0.8,0.31,1.21,0.46c0.2,0.08,0.34,0.18,0.33,0.44c-0.01,0.14,0.02,0.32,0.1,0.42c0.52,0.64,0.19,1.27-0.03,1.87
		c-0.17,0.46-0.37,0.91-0.51,1.38c-0.11,0.37-0.38,0.54-0.67,0.64c-1.69,0.54-3.31,1.24-4.98,1.83c-1.71,0.6-3.4,1.25-5.12,1.84
		c-0.32,0.11-0.67,0.19-0.96,0.36c-1.04,0.58-1.99,0.24-2.98-0.18c-1.09-0.47-2.23-0.85-3.35-1.26c-1.05-0.38-2.1-0.76-3.14-1.14
		c-1.34-0.49-2.68-1-4.03-1.5c-1.68-0.62-3.36-1.24-5.04-1.86c-0.51-0.19-1.02-0.37-1.62-0.59
		C228.33,207.81,229.41,207.49,230.47,207.09z M244.74,216.29c-0.23,0.39-0.37,0.83-0.39,1.3c-0.05,0.55-0.06,1.09,0.02,1.64
		c0.04,0.21,0.08,0.42,0.14,0.72c-0.7-0.27-1.37-0.42-2.01-0.7c-0.55-0.25-1.12-0.45-1.72-0.61c-0.46-0.12-0.89-0.37-1.36-0.52
		c-0.53-0.17-1.04-0.41-1.58-0.56c-0.39-0.11-0.74-0.33-1.14-0.45c-0.84-0.25-1.62-0.66-2.46-0.93c-0.92-0.29-1.81-0.65-2.72-0.97
		c-0.49-0.17-1.01-0.34-1.48-0.58c-0.45-0.23-0.96-0.32-1.43-0.5c-0.96-0.36-1.94-0.69-2.85-1.14c-0.55-0.27-0.61-0.93-0.67-1.49
		c-0.06-0.58-0.05-1.17,0.09-1.75c0.21-0.83,0.53-1.02,1.31-0.7c2.05,0.83,4.14,1.52,6.21,2.3c2.18,0.83,4.38,1.61,6.56,2.45
		c1.74,0.67,3.5,1.3,5.25,1.93C244.84,215.85,244.94,215.95,244.74,216.29z M260.61,215.23c-1.74,0.68-3.5,1.28-5.24,1.96
		c-1.18,0.46-2.41,0.84-3.6,1.3c-1.58,0.6-3.19,1.11-4.74,1.81c-0.89,0.41-1.41,0.1-1.66-0.86c-0.23-0.88-0.17-1.75,0.12-2.59
		c0.09-0.26,0.3-0.57,0.55-0.61c0.62-0.09,1.16-0.38,1.74-0.57c0.55-0.18,1.12-0.33,1.65-0.55c1.15-0.48,2.32-0.89,3.48-1.32
		c1.36-0.51,2.79-0.9,4.11-1.5c1.68-0.76,3.4-0.83,5.17-0.77c0.29,0.01,0.59,0.01,0.88,0c0.5-0.02,0.66-0.26,0.54-0.75
		c-0.06-0.26-0.35-0.57-0.16-0.75c0.24-0.23,0.63-0.31,0.96-0.44c0.13-0.05,0.28-0.07,0.47-0.11c-0.34,1.42-0.3,2.74,0.51,4.01
		C263.77,214.06,262.18,214.62,260.61,215.23z"/>
	<g>
		<path class="st8" d="M282.69,247.73c2.36,1.21,3.34,2.19,4.55,4.55c1.21-2.36,2.19-3.34,4.55-4.55c-2.36-1.21-3.34-2.19-4.55-4.55
			C286.03,245.54,285.05,246.52,282.69,247.73z"/>
	</g>
	<g>
		<path class="st8" d="M200.69,247.73c2.36,1.21,3.34,2.19,4.55,4.55c1.21-2.36,2.19-3.34,4.55-4.55c-2.36-1.21-3.34-2.19-4.55-4.55
			C204.03,245.54,203.05,246.52,200.69,247.73z"/>
	</g>
	<g>
		<path class="st19" d="M241.56,243.12v0.48h-2.39v-0.64c0-0.33,0.06-0.56,0.18-0.67c0.12-0.11,0.4-0.21,0.85-0.29
			c0.37-0.07,0.59-0.13,0.66-0.18s0.1-0.2,0.1-0.43c0-0.22-0.03-0.36-0.1-0.42s-0.23-0.09-0.49-0.09c-0.27,0-0.43,0.03-0.5,0.09
			c-0.07,0.06-0.1,0.2-0.1,0.43v0.13h-0.59v-0.13c0-0.4,0.08-0.67,0.25-0.8c0.16-0.14,0.48-0.21,0.95-0.21
			c0.46,0,0.77,0.07,0.94,0.21c0.16,0.14,0.25,0.4,0.25,0.79c0,0.37-0.06,0.61-0.19,0.74c-0.13,0.13-0.41,0.23-0.87,0.31
			c-0.37,0.07-0.59,0.13-0.65,0.17c-0.06,0.05-0.09,0.18-0.09,0.4v0.09H241.56z"/>
		<path class="st19" d="M243.53,240.4c0.58,0,0.94,0.09,1.08,0.26c0.14,0.17,0.2,0.62,0.2,1.35c0,0.73-0.07,1.18-0.2,1.35
			c-0.14,0.17-0.49,0.26-1.08,0.26s-0.94-0.09-1.08-0.26c-0.14-0.17-0.2-0.62-0.2-1.35c0-0.73,0.07-1.18,0.2-1.35
			C242.59,240.49,242.95,240.4,243.53,240.4z M243.49,240.92c-0.28,0-0.45,0.04-0.53,0.12c-0.07,0.08-0.11,0.27-0.11,0.56l0,0.42
			l0,0.38c0,0.32,0.04,0.52,0.11,0.59c0.07,0.08,0.27,0.11,0.58,0.11c0.32,0,0.52-0.05,0.58-0.16s0.1-0.42,0.1-0.95
			c0-0.53-0.03-0.85-0.09-0.94C244.06,240.96,243.85,240.92,243.49,240.92z"/>
		<path class="st19" d="M247.86,243.12v0.48h-2.39v-0.64c0-0.33,0.06-0.56,0.18-0.67c0.12-0.11,0.4-0.21,0.85-0.29
			c0.37-0.07,0.59-0.13,0.66-0.18s0.1-0.2,0.1-0.43c0-0.22-0.03-0.36-0.1-0.42s-0.23-0.09-0.49-0.09c-0.27,0-0.43,0.03-0.5,0.09
			c-0.07,0.06-0.1,0.2-0.1,0.43v0.13h-0.59v-0.13c0-0.4,0.08-0.67,0.25-0.8c0.16-0.14,0.48-0.21,0.95-0.21
			c0.46,0,0.77,0.07,0.94,0.21c0.16,0.14,0.25,0.4,0.25,0.79c0,0.37-0.06,0.61-0.19,0.74c-0.13,0.13-0.41,0.23-0.87,0.31
			c-0.37,0.07-0.59,0.13-0.65,0.17c-0.06,0.05-0.09,0.18-0.09,0.4v0.09H247.86z"/>
		<path class="st19" d="M249.56,242.21v-0.47l0.1,0c0.34,0,0.54-0.02,0.62-0.06c0.07-0.04,0.11-0.15,0.11-0.34
			c0-0.21-0.03-0.34-0.1-0.39c-0.07-0.05-0.24-0.07-0.52-0.07c-0.26,0-0.42,0.03-0.48,0.08c-0.07,0.05-0.1,0.18-0.1,0.39v0.09h-0.58
			v-0.12c0-0.37,0.08-0.62,0.23-0.74c0.16-0.13,0.46-0.19,0.93-0.19c0.46,0,0.78,0.06,0.96,0.18c0.17,0.12,0.26,0.33,0.26,0.65
			c0,0.44-0.18,0.68-0.53,0.74v0.02c0.38,0.04,0.57,0.27,0.57,0.69c0,0.37-0.08,0.62-0.25,0.75c-0.17,0.13-0.5,0.19-0.99,0.19
			c-0.48,0-0.81-0.06-0.98-0.19s-0.26-0.37-0.26-0.73l0-0.18h0.59c0,0.07,0.01,0.11,0.01,0.13c0,0.22,0.04,0.35,0.11,0.41
			c0.07,0.05,0.26,0.08,0.55,0.08c0.27,0,0.44-0.03,0.51-0.09c0.07-0.06,0.11-0.2,0.11-0.42c0-0.17-0.03-0.28-0.1-0.34
			c-0.07-0.05-0.2-0.08-0.41-0.08h-0.26H249.56z"/>
	</g>
</g>
</svg>
