<?xml version="1.0" encoding="utf-8"?>
<!-- Generator: Adobe Illustrator 23.0.2, SVG Export Plug-In . SVG Version: 6.00 Build 0)  -->
<svg version="1.1" id="Layer_1" xmlns="http://www.w3.org/2000/svg" xmlns:xlink="http://www.w3.org/1999/xlink" x="0px" y="0px"
	 viewBox="0 0 488.45 488.45" style="enable-background:new 0 0 488.45 488.45;" xml:space="preserve">
<style type="text/css">
	.st0{fill:#C6C6C6;}
	.st1{fill:#070707;}
	.st2{fill:#090909;}
	.st3{fill:none;stroke:#000000;stroke-width:3;stroke-miterlimit:10;}
	.st4{fill:#F5E586;}
	.st5{fill:#2582AC;}
	.st6{fill:#6B3C39;}
	.st7{fill:#823F32;}
	.st8{fill:#562B25;}
	.st9{fill:none;stroke:#070707;stroke-miterlimit:10;}
	.st10{clip-path:url(#SVGID_2_);}
	.st11{fill:none;stroke:#F5E586;stroke-width:5;stroke-miterlimit:10;}
	.st12{clip-path:url(#SVGID_4_);}
	.st13{fill:#191413;}
	.st14{fill:#B88B74;}
	.st15{fill:#F1A562;}
	.st16{fill:#FDFDFD;}
	.st17{fill:#EF331A;}
	.st18{fill:#D6271A;}
	.st19{fill:#FFFFFF;}
	.st20{fill:#6B0E0A;}
	.st21{fill:#F9F9F8;}
	.st22{fill:#FEFEFF;}
	.st23{fill:#1D9533;stroke:#FFFFFF;stroke-width:5;stroke-miterlimit:10;}
	.st24{fill:#EF331A;stroke:#B23B32;stroke-width:2;stroke-miterlimit:10;}
	.st25{fill:#4A0F7B;}
	.st26{fill:#C6160E;}
	.st27{clip-path:url(#SVGID_6_);}
	.st28{fill:none;stroke:#562B25;stroke-width:1.2;stroke-miterlimit:10;}
	.st29{clip-path:url(#SVGID_8_);}
	.st30{fill:#1D9533;}
	.st31{fill:#0C5822;}
	.st32{fill:#0B3615;}
	.st33{fill:#1D9533;stroke:#115F24;stroke-width:1.5;stroke-miterlimit:10;}
	.st34{fill:#134A1D;}
	.st35{clip-path:url(#SVGID_10_);}
	.st36{fill:#EEF4F5;}
	.st37{fill:#155D84;}
	.st38{fill:#1879AE;}
	.st39{fill:#114156;}
	.st40{fill:#121111;}
	.st41{fill:#33110D;}
	.st42{clip-path:url(#SVGID_12_);}
	.st43{fill:#A0522D;}
	.st44{fill:#F42121;}
	.st45{fill:#FAB00B;}
	.st46{fill:#F5DDDB;}
	.st47{fill:#F66831;}
	.st48{opacity:0.49;fill:url(#);}
	.st49{opacity:0.53;}
	.st50{clip-path:url(#SVGID_14_);}
	.st51{fill:#DDDDDD;}
	.st52{fill:#B2B2B2;}
	.st53{fill:#757575;}
	.st54{fill:#3F3F3F;}
	.st55{fill:#070706;}
	.st56{fill:#F6C7DB;}
	.st57{fill:#040404;}
	.st58{fill:#F13C8B;}
	.st59{fill:#0A0A09;}
	.st60{fill:#239830;}
	.st61{fill:#1F6DAF;}
	.st62{clip-path:url(#SVGID_16_);}
	.st63{fill:#A6DAE9;}
	.st64{fill:#144863;}
	.st65{clip-path:url(#SVGID_18_);}
	.st66{clip-path:url(#SVGID_20_);}
	.st67{clip-path:url(#SVGID_22_);}
	.st68{clip-path:url(#SVGID_24_);}
	.st69{clip-path:url(#SVGID_26_);}
	.st70{fill:#10441D;}
	.st71{fill:#2B9B2E;}
</style>
<g>
	<g>
		<g>
			<path class="st36" d="M117.53,96.46c0,0,17.66,69.56,3.24,111c0,0-6.85,113.89-3.24,134.79c0,0,1.95,43.25,8.91,45.41l2.15,27.75
				h4.44l-2.16,37.84l-51.3-3.24l-1.68-39.16c0,0-9.85-86.5-3.6-135.99S94.46,131.9,117.53,96.46z"/>
			<g>
				<polygon class="st26" points="77.93,412.06 128.58,413.98 128.58,424.79 77.93,421.42 				"/>
				<polygon class="st26" points="78.53,425.99 132.24,429.12 131.75,437.77 78.89,434.4 				"/>
				<polygon class="st26" points="79.19,442.33 131.58,444.97 130.86,453.26 79.56,450.02 				"/>
			</g>
		</g>
		<g>
			<path class="st36" d="M370.92,96.46c0,0-17.66,69.56-3.24,111c0,0,6.85,113.89,3.24,134.79c0,0-1.95,43.25-8.91,45.41
				l-2.15,27.75h-4.44l2.16,37.84l51.3-3.24l1.68-39.16c0,0,9.85-86.5,3.6-135.99C407.92,225.37,393.99,131.9,370.92,96.46z"/>
			<g>
				<polygon class="st26" points="410.51,412.06 359.87,413.98 359.87,424.79 410.51,421.42 				"/>
				<polygon class="st26" points="409.92,425.99 356.21,429.12 356.7,437.77 409.56,434.4 				"/>
				<polygon class="st26" points="409.26,442.33 356.87,444.97 357.59,453.26 408.88,450.02 				"/>
			</g>
		</g>
		<g>
			<g>
				<path class="st17" d="M362.6,386.91c15.36-31.79,7.21-181.24,7.21-181.24c-17.3-26.67,0-110.28,0-110.28
					c-5.94-10.56-53.55-31.38-61.54-34.82v-0.5H181.68C134.83,78.8,117.1,96.58,117.1,96.58c20.24,73.94,2.35,111.96,2.35,111.96
					c-5.29,56.22,0,158.1,0,158.1c0.91,9.66,3.66,15.81,7.02,19.7h-0.77v28.83c0,0-3.36,13.7,13.22,12.97H345.3
					c0,0,19.22,1.87,17.3-13.96V386.91z"/>
				<g>
					<path class="st26" d="M126.15,386.35v28.83c0,0-3.36,13.7,13.21,12.97h206.39c0,0,19.22,1.87,17.3-13.96v-27.85H126.15z"/>
					<path class="st36" d="M126.15,393.79c0,0,7.69,5.77,13.94,5.53c6.25-0.24,206.63,0,206.63,0s12.49,0,16.34-5.53v6.86
						c0,0-6.49,6.78-15.86,6.63H140.69c0,0-11.77-2.65-14.54-6.63V393.79z"/>
					<path class="st36" d="M126.15,408.81c0,0,7.69,5.77,13.94,5.53c6.25-0.24,206.63,0,206.63,0s12.49,0,16.34-5.53v6.86
						c0,0-6.49,6.78-15.86,6.63H140.69c0,0-11.77-2.65-14.54-6.63V408.81z"/>
				</g>
			</g>
			<g>
				<path class="st26" d="M204.5,35.19c0,0-2.94,13.43-24.43,25.32c0,0,30.7,19.95,66,16.88c0,0,39.14,0,62.93-16.5
					c0,0-14.58-7.67-24.94-24.17C284.05,36.72,229.31,42.48,204.5,35.19z"/>
				<path class="st36" d="M201.85,41.07l-6.02,7.7c0,0,36.81,8.93,96.12-1.72l-5.85-5.98C286.1,41.07,230.41,52.59,201.85,41.07z"/>
				<path class="st36" d="M190.36,53.71c0,0,25.65,9.87,63,7.82c0,0,33.45-0.81,45.5-7.82l5.21,4.05c0,0-13.62,11.45-64.53,10.93
					c0,0-48.98-4.23-56.08-10.17L190.36,53.71z"/>
			</g>
		</g>
	</g>
</g>
<g>
	<g>
		<path class="st19" d="M243.95,242.02h-77.51v-22.31c0-10.96,2.08-18.2,6.36-22.12c4.05-3.71,12.88-6.74,27.01-9.27
			c14.73-2.63,17.76-4.33,18.33-4.79c0.32-0.25,1.9-1.94,1.9-10.25c0-7.77-1.52-9.68-1.99-10.07c-0.52-0.44-2.95-1.88-12.59-1.88
			c-9.96,0-12.45,1.47-12.97,1.91c-0.47,0.4-2.02,2.37-2.02,10.59v7.11h-23.76v-7.04c0-12.92,2.76-21.52,8.43-26.28
			c5.51-4.63,15.45-6.88,30.39-6.88c14.62,0,24.41,2.27,29.95,6.95c5.69,4.81,8.46,13.32,8.46,26c0,11.93-2.13,19.85-6.51,24.21
			c-4.22,4.2-13.18,7.52-27.39,10.14c-15.09,2.76-17.64,4.27-18,4.54c-0.01,0.01-1.43,1.3-1.5,9.06h53.4V242.02z M172.65,235.81
			h65.08v-7.95h-53.4v-5.66c0-7.93,1.2-12.4,3.89-14.5c1.63-1.28,5.37-2.96,20.7-5.76c15.89-2.94,21.89-6.21,24.14-8.44
			c2.13-2.12,4.68-7.28,4.68-19.8c0-10.6-2.1-17.75-6.26-21.25c-4.31-3.64-13.03-5.48-25.94-5.48c-16.48,0-23.45,2.95-26.4,5.42
			c-4.12,3.46-6.21,10.7-6.21,21.52v0.83h11.33v-0.9c0-8,1.33-12.86,4.2-15.31c2.72-2.32,8.12-3.41,17.01-3.41
			c8.65,0,13.93,1.07,16.63,3.37c2.84,2.43,4.16,7.13,4.16,14.8c0,8-1.35,12.8-4.24,15.11c-1.72,1.37-5.67,3.3-21.12,6.05
			c-15.88,2.84-21.77,5.77-23.9,7.73c-1.98,1.82-4.35,6.33-4.35,17.54V235.81z"/>
		<path class="st19" d="M285.36,241.61c-15.1,0-25.24-2.08-30.97-6.35c-5.94-4.42-8.95-12.56-8.95-24.18l0.11-8.36h23.45l0.19,2.9
			c0.19,2.85,0.21,3.6,0.21,3.94c0,7.78,1.68,9.41,2.02,9.66c0.58,0.43,3.34,1.81,14.63,1.81c10.19,0,12.78-1.47,13.34-1.92
			c0.49-0.4,2.07-2.3,2.07-10.17c0-5.53-1.26-7.17-1.81-7.62c-0.62-0.51-2.87-1.71-10.22-1.71h-14.02v-20.17l6.18,0.14
			c13.21,0,16.21-1.08,16.82-1.41c0.17-0.09,1.67-1.1,1.67-7.43c0-7.54-1.51-8.88-1.68-9.01c-0.35-0.26-2.67-1.57-13.66-1.57
			c-9.56,0-11.93,1.3-12.43,1.7c-0.3,0.24-1.81,1.83-1.81,9.22v5.87h-23.49v-6.63c0-12.12,2.67-20.13,8.15-24.5
			c5.27-4.2,14.92-6.24,29.5-6.24c14.59,0,24.47,1.89,30.21,5.79c6.04,4.1,9.1,11.49,9.1,21.98c0,12-4.25,18.46-9.53,21.85
			c7.18,3.62,10.91,10.8,10.91,21.19c0,12.07-2.95,20.43-8.75,24.86C310.98,239.52,300.76,241.61,285.36,241.61z M251.68,208.93
			l-0.03,2.18c0,9.51,2.17,15.97,6.45,19.16c4.56,3.4,13.74,5.12,27.26,5.12c17.18,0,24.42-2.77,27.48-5.1
			c4.18-3.19,6.31-9.89,6.31-19.91c0-10.87-4.54-16.43-14.3-17.5l-2.77-0.3v-5.93l2.63-0.41c5.6-0.86,13.05-3.76,13.05-18.9
			c0-8.3-2.14-13.97-6.38-16.84c-4.61-3.13-13.6-4.71-26.72-4.71c-16.12,0-22.83,2.66-25.63,4.88c-3.85,3.07-5.81,9.68-5.81,19.64
			v0.42h11.06c0.04-7.13,1.36-11.49,4.13-13.72c2.64-2.12,7.67-3.07,16.31-3.07c12.05,0,15.61,1.49,17.36,2.79
			c2.86,2.12,4.19,6.57,4.19,14c0,6.86-1.6,11.08-4.9,12.88c-1.85,1.01-5.77,2.17-19.77,2.18l0,7.6h7.81
			c7.08,0,11.58,0.99,14.17,3.13c2.74,2.26,4.07,6.32,4.07,12.42c0,7.79-1.38,12.55-4.35,14.98c-2.78,2.27-8.26,3.33-17.27,3.33
			c-12.6,0-16.41-1.62-18.32-3.02c-3.1-2.28-4.54-6.94-4.54-14.66c0-0.07,0-0.23-0.02-0.62H251.68z"/>
		<path class="st4" d="M240.84,224.75v14.16h-71.3v-19.21c0-9.95,1.78-16.56,5.35-19.83c3.57-3.27,12.06-6.1,25.46-8.5
			c11.1-1.98,17.67-3.79,19.72-5.42c2.05-1.63,3.07-5.86,3.07-12.68c0-6.54-1.03-10.69-3.07-12.44c-2.05-1.75-6.92-2.63-14.61-2.63
			c-7.92,0-12.92,0.89-14.99,2.66c-2.07,1.77-3.11,6.09-3.11,12.95v4.01h-17.55v-3.94c0-11.84,2.44-19.8,7.32-23.9
			c4.88-4.1,14.35-6.15,28.39-6.15c13.72,0,23.04,2.07,27.95,6.22c4.91,4.15,7.36,12.02,7.36,23.63c0,10.96-1.87,18.3-5.6,22
			c-3.73,3.71-12.32,6.8-25.77,9.29c-11.1,2.03-17.55,3.74-19.34,5.15c-1.8,1.41-2.69,5.42-2.69,12.05v2.56H240.84z"/>
		<path class="st4" d="M278.52,196.5v-13.89l3.04,0.07c10.04,0,16.15-0.6,18.34-1.8c2.19-1.2,3.28-4.58,3.28-10.16
			c0-6.22-0.98-10.05-2.94-11.5c-1.96-1.45-7.13-2.18-15.51-2.18c-7.6,0-12.39,0.79-14.37,2.38c-1.98,1.59-2.97,5.47-2.97,11.64
			v2.76h-17.27v-3.52c0-11.01,2.33-18.36,6.98-22.07c4.65-3.71,13.84-5.56,27.57-5.56c13.82,0,23.3,1.75,28.46,5.25
			c5.16,3.5,7.74,9.97,7.74,19.41c0,13.03-5.23,20.36-15.68,21.97v0.48c11.38,1.24,17.06,8.11,17.06,20.59
			c0,11.1-2.51,18.56-7.53,22.38c-5.02,3.82-14.81,5.73-29.36,5.73c-14.28,0-23.98-1.91-29.12-5.73c-5.14-3.82-7.7-11.05-7.7-21.69
			l0.07-5.25h17.48c0.14,2.07,0.21,3.32,0.21,3.73c0,6.49,1.09,10.55,3.28,12.16c2.19,1.61,7.68,2.42,16.48,2.42
			c8.06,0,13.16-0.87,15.3-2.63c2.14-1.75,3.21-5.94,3.21-12.57c0-5.07-0.98-8.4-2.94-10.02c-1.96-1.61-6.02-2.42-12.19-2.42h-7.81
			H278.52z"/>
	</g>
	<g>
		<path class="st57" d="M188.08,181.14l-11.25,5.96c-0.12,0.02-0.23,0.03-0.35,0.05c-7.94,1.09-4.48,0.76-8.67,1.99
			c-4.18,1.23-19.45,1.92-19.45,1.92l1.76,10.18l-0.4,0.21l-0.05,8.86l2.41,2.32l41.65-7.08l-3.34-21.81L188.08,181.14z"/>
		<g>
			<path class="st60" d="M145.94,188.76c0,0,15.63-0.64,19.91-1.92c4.28-1.28,0.74-0.95,8.87-2.06c6.71-0.91,12.04-2.72,13.71-3.32
				c0.28-0.1,0.59,0.13,0.65,0.5l3.43,22.35l-41.79,7.1c-0.47,0.08-0.93-0.32-1.02-0.89L145.94,188.76z"/>
			<path class="st57" d="M192.97,204.72l-42.16,7.17c-0.68,0.12-1.35-0.47-1.49-1.29l-3.85-22.29l0.44-0.02
				c0.16-0.01,15.64-0.65,19.83-1.9c1.4-0.42,1.95-0.66,2.35-0.84c0.86-0.38,1.09-0.48,6.57-1.23c6.74-0.92,12.14-2.76,13.64-3.3
				c0.25-0.09,0.51-0.04,0.74,0.13c0.23,0.17,0.38,0.45,0.43,0.76L192.97,204.72z M146.42,189.22l3.67,21.24
				c0.05,0.31,0.3,0.53,0.56,0.49l41.41-7.04l-3.36-21.89c-0.01-0.04-0.03-0.07-0.05-0.08c-0.02-0.01-0.04-0.03-0.08-0.01
				c-1.51,0.55-6.96,2.41-13.77,3.34c-5.38,0.73-5.6,0.83-6.39,1.18c-0.42,0.18-0.99,0.44-2.43,0.87
				C162.05,188.47,149.03,189.1,146.42,189.22z"/>
		</g>
	</g>
	<g>
		<g>
			<path class="st57" d="M204.94,235.8l-12.09,3.26c-0.12,0-0.24,0-0.36-0.01c-8.01-0.21-4.55,0-8.88,0.42
				c-4.33,0.42-19.49-1.12-19.49-1.12l0.03,8.45l-0.43,0.12l-1.53,7.14l1.99,2.2h42.25l0.36-18.04L204.94,235.8z"/>
			<g>
				<path class="st58" d="M162.12,236.17c0,0,15.52,1.63,19.95,1.18c4.43-0.44,0.89-0.67,9.09-0.44c6.77,0.18,12.33-0.54,14.07-0.8
					c0.3-0.04,0.56,0.19,0.55,0.49l-0.36,18.49h-42.38c-0.47,0-0.86-0.38-0.86-0.86L162.12,236.17z"/>
				<path class="st57" d="M205.81,255.48h-42.77c-0.69,0-1.25-0.56-1.25-1.25l-0.06-18.5l0.43,0.05c0.16,0.02,15.53,1.62,19.87,1.18
					c1.45-0.15,2.04-0.27,2.46-0.35c0.91-0.19,1.16-0.24,6.68-0.09c6.8,0.18,12.44-0.56,14-0.79c0.26-0.04,0.51,0.04,0.71,0.21
					c0.19,0.17,0.3,0.42,0.3,0.68L205.81,255.48z M162.52,236.61l0.05,17.63c0,0.26,0.21,0.47,0.47,0.47h42l0.35-18.11
					c0-0.04-0.02-0.06-0.03-0.07c-0.01-0.01-0.04-0.03-0.07-0.02c-1.58,0.24-7.27,0.99-14.14,0.8c-5.43-0.15-5.66-0.1-6.5,0.07
					c-0.44,0.09-1.05,0.22-2.54,0.37C178.06,238.15,165.11,236.87,162.52,236.61z"/>
			</g>
		</g>
		<g>
			<path class="st56" d="M171.44,240.65c-0.06-0.04-0.12-0.06-0.17-0.06c-0.11,0-0.19,0.06-0.24,0.18c-0.27,0.66-0.5,1.37-0.68,2.14
				c-0.19,0.76-0.34,1.54-0.46,2.31c-0.12,0.78-0.21,1.53-0.26,2.27c-0.05,0.74-0.08,1.42-0.08,2.04c-0.23-0.58-0.44-1.22-0.62-1.93
				c-0.19-0.71-0.35-1.42-0.49-2.14c-0.14-0.72-0.25-1.43-0.32-2.13c-0.08-0.7-0.11-1.34-0.11-1.94c0-0.05,0-0.09,0-0.14
				c0-0.04-0.01-0.08-0.02-0.14c-0.01-0.08-0.04-0.14-0.09-0.18c-0.05-0.04-0.1-0.06-0.15-0.06c-0.1,0-0.18,0.06-0.24,0.18
				c-0.74,1.46-1.26,2.97-1.55,4.52c-0.3,1.55-0.44,3.09-0.44,4.61c0,0.12,0,0.23,0.01,0.34c0,0.1,0.01,0.2,0.02,0.28
				c0.02,0.17,0.1,0.26,0.26,0.26c0.15,0,0.23-0.09,0.23-0.26c0-0.13,0-0.25-0.01-0.36c-0.01-0.11-0.01-0.22-0.01-0.33
				c0-1.37,0.12-2.73,0.38-4.07c0.25-1.34,0.62-2.63,1.13-3.85c0,0.62,0.05,1.32,0.15,2.09c0.1,0.77,0.24,1.55,0.43,2.34
				c0.18,0.79,0.4,1.55,0.65,2.29c0.25,0.74,0.53,1.37,0.83,1.91c0.04,0.08,0.1,0.12,0.2,0.12c0.14,0,0.22-0.06,0.25-0.19
				c0.02-0.12,0.04-0.24,0.04-0.34c0-0.55,0.03-1.24,0.08-2.06c0.05-0.83,0.14-1.69,0.26-2.59s0.27-1.79,0.46-2.66
				c0.18-0.87,0.41-1.63,0.67-2.27C171.53,240.75,171.5,240.69,171.44,240.65z"/>
			<path class="st56" d="M174.93,248.26c-0.05,0-0.1,0.02-0.14,0.07c-0.04,0.05-0.08,0.13-0.11,0.26c-0.09,0.25-0.18,0.49-0.28,0.73
				c-0.1,0.24-0.2,0.45-0.31,0.63c-0.11,0.19-0.23,0.33-0.35,0.44c-0.12,0.11-0.24,0.17-0.36,0.17c-0.08,0-0.15-0.03-0.22-0.08
				c-0.07-0.05-0.12-0.12-0.16-0.21c-0.04-0.08-0.09-0.17-0.12-0.26c-0.04-0.09-0.06-0.17-0.08-0.24c0.17-0.17,0.34-0.38,0.5-0.62
				c0.16-0.24,0.31-0.5,0.44-0.78c0.12-0.28,0.23-0.56,0.31-0.86c0.08-0.29,0.12-0.57,0.12-0.86c0-0.08-0.01-0.2-0.03-0.35
				c-0.02-0.15-0.06-0.31-0.11-0.47c-0.06-0.15-0.13-0.29-0.23-0.41c-0.1-0.11-0.23-0.17-0.39-0.17c-0.21,0-0.39,0.11-0.55,0.33
				c-0.16,0.22-0.29,0.5-0.39,0.83c-0.11,0.33-0.18,0.69-0.23,1.07c-0.05,0.39-0.08,0.74-0.08,1.06c0,0.19,0.02,0.43,0.06,0.71
				c0.04,0.28,0.11,0.55,0.21,0.82c0.1,0.27,0.23,0.49,0.38,0.68c0.15,0.18,0.35,0.28,0.58,0.28c0.19,0,0.37-0.07,0.54-0.21
				c0.17-0.14,0.33-0.32,0.48-0.55c0.15-0.22,0.29-0.49,0.41-0.78c0.12-0.29,0.24-0.6,0.34-0.91c0-0.12-0.02-0.2-0.07-0.25
				C175.04,248.28,174.99,248.26,174.93,248.26z M172.62,248.93c-0.01-0.11-0.02-0.24-0.02-0.37c0-0.25,0.02-0.54,0.07-0.87
				c0.04-0.33,0.1-0.64,0.18-0.93c0.08-0.29,0.16-0.54,0.26-0.74c0.09-0.2,0.19-0.31,0.29-0.31c0.06,0,0.11,0.04,0.15,0.11
				c0.04,0.08,0.07,0.17,0.1,0.27c0.02,0.1,0.04,0.21,0.05,0.32c0.01,0.11,0.01,0.21,0.01,0.29c0,0.21-0.03,0.43-0.08,0.66
				c-0.06,0.23-0.13,0.46-0.23,0.68c-0.1,0.23-0.21,0.44-0.34,0.65c-0.13,0.21-0.26,0.4-0.4,0.56
				C172.65,249.15,172.63,249.04,172.62,248.93z"/>
			<path class="st56" d="M179.04,245.78c-0.03-0.22-0.06-0.42-0.1-0.58c-0.04-0.16-0.11-0.24-0.2-0.24c-0.06,0-0.11,0.02-0.16,0.07
				c-0.04,0.04-0.07,0.09-0.07,0.14c0,0.07,0.01,0.18,0.02,0.32c0.01,0.15,0.03,0.31,0.04,0.49c0.02,0.18,0.03,0.37,0.04,0.57
				c0.01,0.2,0.01,0.39,0.01,0.56c0,0.11-0.01,0.32-0.02,0.64c-0.01,0.31-0.05,0.65-0.1,0.99c-0.05,0.35-0.13,0.65-0.23,0.92
				c-0.1,0.27-0.24,0.4-0.41,0.4c-0.11,0-0.2-0.07-0.26-0.22c-0.07-0.14-0.11-0.32-0.14-0.53c-0.03-0.2-0.05-0.42-0.05-0.64
				c-0.01-0.23-0.01-0.42-0.01-0.58c0-0.35,0-0.64,0.01-0.87c0.01-0.23,0.02-0.42,0.02-0.58c0-0.15,0.01-0.28,0.02-0.38
				c0.01-0.09,0.02-0.19,0.02-0.28c0-0.06-0.02-0.11-0.07-0.16c-0.04-0.04-0.1-0.07-0.16-0.07c-0.12,0-0.19,0.05-0.21,0.14
				c-0.02,0.1-0.03,0.19-0.03,0.29c0,0.3-0.01,0.63-0.05,0.99c-0.03,0.36-0.08,0.73-0.14,1.1c-0.07,0.37-0.16,0.73-0.27,1.07
				c-0.12,0.34-0.25,0.64-0.41,0.89c-0.16-0.26-0.27-0.55-0.33-0.87c-0.06-0.32-0.09-0.65-0.09-0.98c0-0.5,0.05-0.97,0.14-1.4
				c0.09-0.43,0.18-0.86,0.27-1.27c0-0.08-0.01-0.14-0.03-0.2c-0.02-0.05-0.09-0.07-0.2-0.07c-0.12,0-0.22,0.13-0.3,0.39
				c-0.08,0.26-0.15,0.56-0.2,0.89c-0.05,0.34-0.09,0.66-0.11,0.98c-0.02,0.32-0.03,0.54-0.03,0.66c0,0.41,0.05,0.84,0.14,1.29
				c0.09,0.45,0.28,0.82,0.55,1.11c0.04,0.04,0.09,0.06,0.15,0.06c0.1,0,0.2-0.06,0.3-0.19c0.1-0.12,0.19-0.27,0.28-0.44
				c0.08-0.17,0.15-0.34,0.21-0.52c0.05-0.17,0.1-0.32,0.13-0.43c0.01,0.11,0.03,0.24,0.06,0.38c0.03,0.14,0.08,0.28,0.14,0.4
				c0.06,0.12,0.14,0.23,0.24,0.32c0.1,0.09,0.23,0.13,0.38,0.13c0.29,0,0.52-0.14,0.68-0.41c0.17-0.27,0.29-0.6,0.38-0.97
				c0.08-0.37,0.14-0.76,0.16-1.14c0.02-0.39,0.03-0.7,0.03-0.93c0-0.15,0-0.34-0.01-0.58C179.07,246.23,179.06,246,179.04,245.78z"
				/>
			<path class="st56" d="M190.13,245.05c-0.2,0-0.4,0.01-0.59,0.04c-0.2,0.03-0.37,0.06-0.53,0.1c0.04-0.25,0.09-0.53,0.16-0.85
				c0.06-0.31,0.14-0.64,0.23-0.97c0.08-0.33,0.18-0.65,0.28-0.98c0.1-0.32,0.2-0.61,0.32-0.87c0.03-0.06,0.06-0.13,0.1-0.21
				c0.03-0.08,0.05-0.14,0.05-0.2c0-0.07-0.03-0.13-0.07-0.17c-0.05-0.04-0.11-0.07-0.18-0.07c-0.11,0-0.19,0.06-0.24,0.18
				c-0.28,0.62-0.51,1.31-0.7,2.06c-0.19,0.76-0.33,1.47-0.44,2.15c-0.56,0.1-1.11,0.23-1.65,0.4c-0.54,0.17-1.07,0.36-1.59,0.58
				c0.11-0.91,0.26-1.81,0.44-2.7c0.18-0.89,0.41-1.78,0.67-2.66c0.01-0.03,0.01-0.07,0.01-0.12c0-0.09-0.03-0.16-0.07-0.2
				c-0.05-0.04-0.11-0.07-0.17-0.07c-0.13,0-0.21,0.07-0.24,0.2c-0.32,0.98-0.57,1.95-0.74,2.91c-0.18,0.96-0.32,1.92-0.43,2.88
				c-0.15,0.06-0.31,0.13-0.48,0.21c-0.17,0.08-0.32,0.17-0.47,0.27c-0.08,0.05-0.12,0.12-0.12,0.21c0,0.07,0.02,0.13,0.07,0.18
				c0.04,0.05,0.11,0.08,0.19,0.08c0.05,0,0.09-0.01,0.12-0.03c0.11-0.06,0.21-0.12,0.32-0.18c0.1-0.06,0.2-0.11,0.32-0.17
				c-0.03,0.45-0.05,0.9-0.05,1.35s0.02,0.89,0.05,1.32c0.03,0.43,0.1,0.86,0.2,1.28c0.04,0.15,0.08,0.25,0.11,0.29
				c0.03,0.05,0.07,0.07,0.13,0.07c0.06,0,0.11-0.02,0.17-0.07c0.05-0.04,0.08-0.11,0.08-0.19v-0.06c-0.11-0.46-0.18-0.9-0.2-1.31
				c-0.03-0.41-0.04-0.83-0.04-1.25c0-0.28,0.01-0.56,0.02-0.83c0.02-0.28,0.03-0.55,0.05-0.83c1.03-0.46,2.11-0.8,3.23-1.04
				c-0.12,0.83-0.18,1.67-0.18,2.51c0,0.45,0.01,0.89,0.04,1.32c0.03,0.43,0.1,0.84,0.23,1.22c0.02,0.06,0.05,0.1,0.1,0.14
				c0.04,0.03,0.09,0.04,0.14,0.04c0.06,0,0.11-0.02,0.17-0.07c0.05-0.04,0.08-0.11,0.08-0.19v-0.06c-0.09-0.42-0.16-0.83-0.2-1.22
				c-0.04-0.39-0.07-0.8-0.07-1.22c0-0.44,0.02-0.87,0.06-1.3c0.04-0.42,0.09-0.85,0.15-1.27c0.2-0.05,0.4-0.08,0.6-0.1
				c0.2-0.02,0.4-0.04,0.6-0.05c0.08,0,0.14-0.03,0.18-0.09c0.04-0.06,0.06-0.11,0.06-0.17c0-0.06-0.02-0.11-0.06-0.17
				C190.27,245.08,190.21,245.05,190.13,245.05z"/>
			<path class="st56" d="M201.12,248.37c-0.07,0-0.14,0.11-0.22,0.32c-0.08,0.22-0.16,0.45-0.26,0.71c-0.1,0.26-0.21,0.5-0.33,0.71
				c-0.13,0.22-0.28,0.32-0.46,0.32c-0.23,0-0.42-0.08-0.56-0.26c-0.14-0.17-0.25-0.38-0.32-0.62c-0.07-0.24-0.13-0.49-0.15-0.76
				c-0.03-0.26-0.04-0.5-0.05-0.7c0.26-0.4,0.52-0.86,0.79-1.39c0.26-0.53,0.51-1.07,0.73-1.64c0.22-0.56,0.4-1.13,0.53-1.69
				c0.14-0.56,0.2-1.07,0.2-1.55c0-0.28-0.05-0.51-0.14-0.69c-0.09-0.18-0.25-0.27-0.47-0.27c-0.27,0-0.51,0.15-0.72,0.44
				c-0.21,0.29-0.39,0.66-0.55,1.1c-0.16,0.45-0.29,0.94-0.39,1.47c-0.11,0.54-0.19,1.05-0.26,1.55c-0.07,0.5-0.11,0.95-0.14,1.35
				c-0.03,0.4-0.04,0.69-0.04,0.86v0.32c-0.08,0.09-0.15,0.18-0.23,0.27c-0.04,0.05-0.07,0.1-0.08,0.15
				c-0.04-0.02-0.08-0.03-0.14-0.03c-0.07,0-0.14,0.11-0.22,0.32c-0.08,0.22-0.16,0.45-0.26,0.71c-0.1,0.26-0.21,0.5-0.33,0.71
				c-0.13,0.22-0.28,0.32-0.46,0.32c-0.23,0-0.42-0.08-0.56-0.26c-0.14-0.17-0.25-0.38-0.32-0.62c-0.07-0.24-0.13-0.49-0.15-0.76
				c-0.03-0.26-0.04-0.5-0.05-0.7c0.26-0.4,0.52-0.86,0.79-1.39c0.26-0.53,0.51-1.07,0.73-1.64c0.22-0.56,0.4-1.13,0.53-1.69
				c0.14-0.56,0.2-1.07,0.2-1.55c0-0.28-0.05-0.51-0.14-0.69c-0.09-0.18-0.25-0.27-0.47-0.27c-0.27,0-0.51,0.15-0.72,0.44
				c-0.21,0.29-0.39,0.66-0.55,1.1c-0.16,0.45-0.29,0.94-0.39,1.47c-0.11,0.54-0.19,1.05-0.26,1.55c-0.07,0.5-0.11,0.95-0.14,1.35
				c-0.03,0.4-0.04,0.69-0.04,0.86v0.32c-0.08,0.09-0.15,0.18-0.23,0.27c-0.01,0.01-0.02,0.02-0.02,0.03c-0.01,0-0.02,0-0.04,0
				c-0.13,0-0.21,0.06-0.23,0.17c-0.01,0.07-0.03,0.23-0.07,0.47c-0.04,0.25-0.09,0.5-0.15,0.76c-0.07,0.27-0.15,0.5-0.24,0.71
				c-0.1,0.21-0.21,0.32-0.35,0.32c-0.14,0-0.25-0.12-0.32-0.35c-0.08-0.23-0.13-0.5-0.17-0.81c-0.04-0.3-0.06-0.61-0.06-0.9
				c-0.01-0.29-0.01-0.5-0.01-0.62c-0.01-0.24-0.04-0.52-0.08-0.83c-0.04-0.31-0.1-0.61-0.19-0.89c-0.09-0.28-0.2-0.52-0.35-0.71
				c-0.15-0.19-0.32-0.29-0.53-0.29c-0.2,0-0.39,0.12-0.56,0.35c-0.18,0.23-0.33,0.52-0.46,0.87c-0.13,0.35-0.23,0.74-0.32,1.18
				c-0.08,0.44-0.12,0.85-0.12,1.25c0,0.3,0.03,0.58,0.08,0.85c0.06,0.27,0.14,0.5,0.25,0.7c0.11,0.2,0.25,0.36,0.41,0.48
				c0.16,0.12,0.36,0.18,0.59,0.18c0.27,0,0.48-0.08,0.64-0.24c0.15-0.16,0.28-0.35,0.37-0.57c0.06,0.2,0.15,0.39,0.27,0.55
				c0.12,0.17,0.29,0.26,0.53,0.26c0.22,0,0.41-0.09,0.56-0.27c0.15-0.18,0.28-0.4,0.38-0.67c0.09-0.26,0.17-0.54,0.22-0.84
				c0.04-0.23,0.07-0.44,0.09-0.64c0,0,0,0,0,0c0.05,0,0.09-0.02,0.14-0.06c0.02,0.23,0.05,0.47,0.1,0.73
				c0.05,0.26,0.13,0.5,0.23,0.72c0.1,0.23,0.24,0.41,0.42,0.56c0.17,0.15,0.4,0.22,0.67,0.22c0.24,0,0.44-0.08,0.62-0.23
				c0.17-0.15,0.32-0.35,0.44-0.58c0.12-0.23,0.22-0.47,0.29-0.74c0.07-0.25,0.13-0.48,0.18-0.67c0.05,0.04,0.1,0.06,0.15,0.06
				c0.05,0,0.09-0.02,0.14-0.06c0.02,0.23,0.05,0.47,0.1,0.73c0.05,0.26,0.13,0.5,0.23,0.72c0.1,0.23,0.24,0.41,0.42,0.56
				c0.17,0.15,0.4,0.22,0.67,0.22c0.24,0,0.44-0.08,0.62-0.23c0.17-0.15,0.32-0.35,0.44-0.58c0.12-0.23,0.22-0.47,0.29-0.74
				c0.08-0.26,0.14-0.49,0.19-0.69l0.02-0.12C201.35,248.42,201.27,248.37,201.12,248.37z M198.85,246.28
				c0.05-0.39,0.11-0.8,0.19-1.25c0.08-0.44,0.17-0.88,0.29-1.32c0.11-0.44,0.23-0.83,0.35-1.19c0.12-0.35,0.25-0.63,0.38-0.86
				c0.14-0.22,0.26-0.33,0.38-0.33c0.07,0,0.11,0.06,0.13,0.17c0.02,0.12,0.02,0.22,0.02,0.32c0,0.37-0.05,0.79-0.16,1.25
				c-0.1,0.46-0.24,0.94-0.41,1.43c-0.17,0.49-0.36,0.97-0.58,1.45c-0.22,0.48-0.43,0.91-0.65,1.3
				C198.78,247,198.81,246.67,198.85,246.28z M195.61,246.28c0.05-0.39,0.11-0.8,0.19-1.25c0.08-0.44,0.17-0.88,0.29-1.32
				c0.11-0.44,0.22-0.83,0.35-1.19c0.12-0.35,0.25-0.63,0.38-0.86c0.14-0.22,0.26-0.33,0.38-0.33c0.07,0,0.11,0.06,0.13,0.17
				c0.02,0.12,0.02,0.22,0.02,0.32c0,0.37-0.05,0.79-0.16,1.25c-0.1,0.46-0.24,0.94-0.41,1.43c-0.17,0.49-0.36,0.97-0.58,1.45
				c-0.22,0.48-0.43,0.91-0.65,1.3C195.54,247,195.57,246.67,195.61,246.28z M192.75,249.24c-0.02,0.23-0.06,0.45-0.12,0.66
				c-0.06,0.21-0.15,0.39-0.26,0.55c-0.12,0.16-0.27,0.24-0.47,0.25c-0.17-0.01-0.31-0.07-0.41-0.19c-0.1-0.11-0.19-0.26-0.25-0.44
				c-0.06-0.17-0.1-0.36-0.13-0.57c-0.03-0.2-0.04-0.4-0.04-0.59c0-0.47,0.06-0.96,0.17-1.48c0.11-0.51,0.3-0.98,0.56-1.4
				c0.03-0.05,0.06-0.09,0.1-0.14c0.03-0.04,0.06-0.07,0.09-0.1c0.03-0.03,0.06-0.05,0.09-0.05c0.12,0,0.22,0.11,0.31,0.34
				c0.08,0.23,0.16,0.49,0.22,0.8c0.06,0.31,0.1,0.63,0.13,0.97c0.02,0.34,0.04,0.61,0.04,0.82
				C192.78,248.82,192.77,249.01,192.75,249.24z"/>
		</g>
	</g>
	<g>
		<g>
			<path class="st59" d="M325.97,132.29l-47.71-3.7c-2.9-0.23-5.4,1.45-5.58,3.75l-0.68,8.78c-0.18,2.29,2.03,4.34,4.94,4.56
				l47.71,3.7c2.9,0.23,5.4-1.45,5.58-3.75l0.68-8.78C331.09,134.56,328.88,132.52,325.97,132.29z"/>
			<g>
				<path class="st19" d="M325.34,130.93l-49.28-3.83c-2.49-0.19-4.66,1.67-4.86,4.16l-0.59,7.64c-0.21,2.73,1.83,5.12,4.57,5.34
					l48.83,3.79c2.46,0.19,4.6-1.65,4.79-4.1l0.64-8.2C329.63,133.27,327.79,131.12,325.34,130.93z"/>
				<path class="st57" d="M323.17,148.37l-47.71-3.7c-3.19-0.25-5.62-2.5-5.43-5.02l0.68-8.78c0.2-2.52,2.95-4.37,6.14-4.12
					l47.71,3.7c3.19,0.25,5.62,2.5,5.43,5.02l-0.68,8.78C329.11,146.77,326.35,148.62,323.17,148.37z M276.78,127.57
					c-2.61-0.2-4.87,1.31-5.03,3.37l-0.68,8.78c-0.16,2.06,1.83,3.91,4.45,4.11l47.71,3.7c2.61,0.2,4.87-1.31,5.03-3.37l0.68-8.78
					c0.16-2.06-1.83-3.91-4.45-4.11L276.78,127.57z"/>
			</g>
		</g>
		<g>
			<g>
				<path class="st56" d="M280.74,133.99l-1.9-0.13c-0.12-0.01-0.24,0.02-0.36,0.1c-0.12,0.07-0.19,0.17-0.19,0.31l-0.01,0.18
					c-0.02,0.3-0.08,0.57-0.17,0.81c-0.09,0.24-0.21,0.47-0.36,0.67c-0.15,0.21-0.33,0.4-0.53,0.59c-0.21,0.19-0.43,0.38-0.68,0.57
					l-0.08-0.01c-0.08-0.01-0.13-0.06-0.15-0.13c-0.02-0.07-0.03-0.15-0.02-0.24l0.01-0.14c0.02-0.26,0.07-0.54,0.14-0.81
					c0.08-0.28,0.18-0.55,0.31-0.81c0.13-0.26,0.28-0.51,0.44-0.74c0.17-0.23,0.35-0.44,0.54-0.62c0.1-0.09,0.21-0.17,0.34-0.24
					c0.13-0.07,0.26-0.14,0.4-0.21c0.22-0.1,0.43-0.22,0.61-0.34c0.18-0.12,0.28-0.27,0.29-0.44c0.02-0.26-0.05-0.45-0.21-0.55
					c-0.16-0.11-0.35-0.17-0.58-0.18c-0.31-0.02-0.62,0.05-0.91,0.21c-0.29,0.16-0.57,0.38-0.84,0.66c-0.26,0.28-0.51,0.6-0.73,0.96
					c-0.22,0.36-0.41,0.73-0.58,1.1c-0.17,0.37-0.3,0.73-0.39,1.08c-0.1,0.35-0.15,0.65-0.17,0.91c-0.01,0.2-0.01,0.42,0.02,0.66
					c0.03,0.24,0.08,0.46,0.17,0.66c0.08,0.2,0.21,0.37,0.37,0.51c0.17,0.14,0.38,0.22,0.63,0.24c0.19,0.01,0.36-0.01,0.53-0.07
					c0.17-0.06,0.32-0.14,0.47-0.24c0.15-0.1,0.29-0.21,0.42-0.33c0.13-0.12,0.25-0.25,0.37-0.36c0.14-0.14,0.27-0.25,0.38-0.35
					c0.11-0.1,0.21-0.14,0.28-0.14c0.03,0,0.05,0.01,0.08,0.02c0.02,0.01,0.04,0.02,0.04,0.04l-0.01,0.07
					c-0.01,0.08-0.01,0.22-0.02,0.4c-0.01,0.19-0.01,0.38-0.02,0.58c-0.01,0.2-0.01,0.38-0.02,0.55c0,0.17-0.01,0.29-0.01,0.36
					l-0.01,0.11c0,0.08,0,0.18,0,0.27c0,0.1,0.01,0.19,0.04,0.28c0.03,0.09,0.07,0.16,0.13,0.22c0.06,0.06,0.15,0.09,0.26,0.1
					c0.03,0,0.1,0,0.19-0.01c0.09-0.01,0.19-0.02,0.29-0.04c0.1-0.02,0.19-0.05,0.26-0.09c0.08-0.04,0.12-0.08,0.12-0.14l0.29-4.26
					c0.01-0.1,0.05-0.17,0.14-0.21c0.08-0.04,0.17-0.08,0.26-0.11c0.09-0.03,0.16-0.06,0.23-0.09c0.07-0.03,0.1-0.08,0.11-0.16
					l0.05-0.72c0.01-0.08-0.02-0.15-0.07-0.21C280.88,134.03,280.81,134,280.74,133.99z"/>
				<path class="st57" d="M279.08,140.33c-0.02,0-0.03,0-0.04,0c-0.16-0.01-0.29-0.06-0.38-0.16c-0.09-0.08-0.15-0.19-0.18-0.3
					c-0.03-0.1-0.05-0.22-0.05-0.33l0-0.27l0.01-0.13c0-0.07,0.01-0.19,0.01-0.35l0.04-1.13c0-0.12,0.01-0.22,0.01-0.3
					c-0.02,0.01-0.04,0.03-0.07,0.05c-0.11,0.1-0.23,0.21-0.37,0.35c-0.11,0.11-0.23,0.24-0.37,0.36c-0.14,0.13-0.29,0.25-0.45,0.36
					c-0.16,0.11-0.33,0.19-0.51,0.26c-0.19,0.07-0.4,0.1-0.61,0.09c-0.3-0.02-0.55-0.12-0.75-0.28c-0.19-0.16-0.33-0.36-0.43-0.59
					c-0.09-0.22-0.15-0.46-0.18-0.71c-0.03-0.25-0.03-0.48-0.02-0.69c0.02-0.27,0.08-0.59,0.18-0.95c0.1-0.36,0.23-0.73,0.4-1.11
					c0.17-0.38,0.37-0.75,0.59-1.12c0.23-0.37,0.48-0.71,0.75-1c0.28-0.29,0.57-0.53,0.89-0.7c0.33-0.18,0.67-0.26,1.02-0.23
					c0.26,0.02,0.49,0.09,0.68,0.21c0.15,0.1,0.32,0.31,0.3,0.73c-0.02,0.24-0.14,0.44-0.37,0.59c-0.19,0.13-0.4,0.24-0.63,0.35
					c-0.13,0.06-0.26,0.13-0.38,0.2c-0.11,0.06-0.21,0.14-0.3,0.22c-0.18,0.17-0.36,0.37-0.52,0.6c-0.16,0.22-0.3,0.46-0.43,0.71
					c-0.12,0.25-0.22,0.51-0.3,0.77c-0.07,0.26-0.12,0.52-0.14,0.77l-0.01,0.14c0,0.05,0,0.11,0.01,0.15
					c0.22-0.17,0.42-0.34,0.6-0.51c0.19-0.18,0.37-0.37,0.51-0.56c0.14-0.19,0.25-0.4,0.34-0.63c0.08-0.22,0.13-0.48,0.15-0.76
					l0.01-0.18c0.01-0.2,0.11-0.36,0.29-0.46c0.16-0.09,0.32-0.13,0.47-0.12l1.9,0.13c0.13,0.01,0.24,0.07,0.33,0.17
					c0.08,0.1,0.12,0.22,0.11,0.35l-0.05,0.72c-0.01,0.15-0.09,0.26-0.22,0.32c-0.07,0.03-0.15,0.07-0.25,0.1
					c-0.09,0.03-0.16,0.06-0.24,0.1c-0.02,0.01-0.03,0.02-0.03,0.05l-0.29,4.26c0,0.07-0.04,0.21-0.23,0.3
					c-0.09,0.04-0.19,0.08-0.31,0.1c-0.11,0.02-0.21,0.04-0.32,0.05C279.19,140.32,279.13,140.33,279.08,140.33z M278.57,136.92
					c0.01,0,0.02,0,0.02,0c0.05,0,0.09,0.01,0.13,0.03c0.09,0.03,0.15,0.1,0.17,0.18l0.01,0.03l-0.01,0.1
					c-0.01,0.08-0.01,0.21-0.02,0.4l-0.04,1.12c0,0.19-0.01,0.31-0.01,0.38l-0.01,0.11l0,0.26c0,0.08,0.01,0.15,0.03,0.22
					c0.02,0.05,0.04,0.1,0.08,0.13c0.03,0.03,0.07,0.04,0.14,0.05c0.03,0,0.09,0,0.17-0.01c0.09-0.01,0.17-0.02,0.27-0.04
					c0.08-0.02,0.16-0.04,0.22-0.07c0.01,0,0.01,0,0.01,0l0.29-4.23c0.01-0.16,0.1-0.3,0.24-0.37c0.09-0.05,0.19-0.09,0.3-0.12
					c0.07-0.02,0.14-0.05,0.2-0.08l0.04-0.72c0-0.02,0-0.04-0.03-0.07c-0.02-0.03-0.04-0.03-0.05-0.03h0l-1.9-0.13
					c-0.08-0.01-0.16,0.02-0.24,0.07c-0.06,0.04-0.09,0.08-0.1,0.15l-0.01,0.18c-0.02,0.32-0.08,0.61-0.18,0.87
					c-0.1,0.26-0.23,0.5-0.39,0.72c-0.16,0.22-0.35,0.43-0.56,0.62c-0.21,0.19-0.44,0.39-0.7,0.58l-0.06,0.05l-0.16-0.01
					c-0.18-0.03-0.29-0.13-0.33-0.28c-0.02-0.09-0.03-0.2-0.03-0.3l0.01-0.14c0.02-0.28,0.07-0.56,0.15-0.85
					c0.08-0.29,0.19-0.57,0.33-0.84c0.13-0.27,0.29-0.53,0.46-0.77c0.17-0.24,0.36-0.46,0.57-0.65c0.11-0.1,0.23-0.19,0.37-0.27
					c0.13-0.07,0.27-0.14,0.41-0.21c0.22-0.1,0.41-0.21,0.58-0.32c0.17-0.11,0.2-0.22,0.2-0.29c0.02-0.28-0.09-0.36-0.12-0.38
					c-0.13-0.09-0.29-0.14-0.49-0.15c-0.28-0.02-0.54,0.04-0.8,0.19c-0.28,0.15-0.54,0.36-0.79,0.62c-0.25,0.27-0.49,0.58-0.7,0.93
					c-0.22,0.35-0.41,0.72-0.57,1.08c-0.16,0.36-0.29,0.71-0.38,1.05c-0.09,0.34-0.15,0.63-0.17,0.87c-0.01,0.19-0.01,0.4,0.02,0.62
					c0.02,0.22,0.07,0.42,0.15,0.6c0.07,0.17,0.18,0.32,0.32,0.44c0.13,0.11,0.3,0.18,0.52,0.19c0.16,0.01,0.31-0.01,0.45-0.06
					c0.15-0.06,0.3-0.13,0.43-0.22c0.14-0.09,0.27-0.2,0.39-0.31c0.13-0.12,0.25-0.24,0.36-0.36c0.15-0.15,0.28-0.26,0.39-0.36
					C278.32,136.98,278.45,136.92,278.57,136.92z"/>
			</g>
			<g>
				<path class="st56" d="M287.11,138.31c-0.13-0.09-0.27-0.17-0.43-0.25c-0.16-0.08-0.32-0.16-0.48-0.23
					c-0.14-0.07-0.27-0.13-0.39-0.19c-0.13-0.06-0.24-0.13-0.33-0.19c-0.1-0.06-0.18-0.13-0.23-0.19c-0.06-0.06-0.09-0.13-0.08-0.19
					c0-0.06,0.06-0.14,0.16-0.23c0.1-0.09,0.23-0.2,0.37-0.32c0.15-0.12,0.31-0.26,0.47-0.4c0.17-0.15,0.33-0.31,0.47-0.49
					c0.15-0.18,0.28-0.37,0.38-0.58c0.11-0.21,0.17-0.44,0.18-0.69c0.03-0.38-0.05-0.68-0.22-0.92c-0.17-0.24-0.39-0.43-0.66-0.57
					c-0.27-0.14-0.57-0.24-0.89-0.3c-0.32-0.06-0.62-0.1-0.91-0.12l-0.85-0.05c-0.14,0.01-0.27,0.15-0.38,0.4
					c-0.12,0.26-0.22,0.58-0.31,0.98c-0.09,0.39-0.17,0.83-0.24,1.3c-0.07,0.47-0.13,0.94-0.17,1.39c-0.05,0.45-0.09,0.86-0.12,1.24
					c-0.03,0.38-0.05,0.66-0.06,0.86c0,0.03-0.01,0.1-0.01,0.18c-0.01,0.09-0.01,0.18-0.01,0.28c0,0.1-0.01,0.2-0.02,0.3
					c-0.01,0.1-0.01,0.19-0.02,0.26c0,0.06,0.02,0.13,0.06,0.2c0.04,0.07,0.1,0.11,0.18,0.11l0.65,0.04
					c0.08,0.01,0.15-0.02,0.2-0.08l0.06-0.04c0.01-0.01,0.02-0.02,0.02-0.02c0.01,0,0.01-0.01,0.02-0.01l0.03-0.05
					c0.05-0.05,0.07-0.11,0.08-0.18l0.09-1.27c0-0.06,0.04-0.09,0.1-0.11c0.06-0.02,0.12-0.03,0.17-0.04l0.11,0.02
					c0.05,0.03,0.15,0.09,0.29,0.18c0.14,0.09,0.3,0.19,0.48,0.31c0.18,0.11,0.37,0.23,0.58,0.35c0.2,0.12,0.4,0.24,0.57,0.34
					c0.18,0.1,0.33,0.19,0.47,0.26c0.13,0.07,0.21,0.11,0.25,0.12l0.09,0.02c0.09,0,0.18-0.03,0.25-0.08
					c0.08-0.05,0.14-0.12,0.2-0.2c0.06-0.08,0.1-0.17,0.14-0.26c0.03-0.09,0.05-0.18,0.06-0.25c0.01-0.11-0.03-0.22-0.1-0.32
					C287.33,138.5,287.23,138.4,287.11,138.31z"/>
				<path class="st57" d="M283.25,140.13c-0.01,0-0.02,0-0.04,0l-0.65-0.04c-0.14-0.01-0.26-0.08-0.33-0.2
					c-0.07-0.1-0.1-0.21-0.09-0.32l0.02-0.26c0.01-0.1,0.01-0.2,0.01-0.3c0-0.1,0.01-0.2,0.01-0.29l0.01-0.18
					c0.01-0.2,0.03-0.48,0.06-0.86c0.03-0.38,0.07-0.79,0.12-1.25c0.05-0.45,0.11-0.92,0.17-1.4c0.07-0.48,0.15-0.92,0.24-1.32
					c0.09-0.4,0.2-0.74,0.32-1.01c0.15-0.33,0.33-0.5,0.55-0.52l0.87,0.05c0.29,0.02,0.61,0.06,0.94,0.12
					c0.34,0.06,0.65,0.17,0.94,0.32c0.3,0.16,0.54,0.37,0.73,0.63c0.2,0.28,0.28,0.63,0.25,1.05c-0.02,0.27-0.09,0.53-0.2,0.76
					c-0.11,0.22-0.25,0.43-0.41,0.62c-0.16,0.19-0.32,0.36-0.5,0.51c-0.17,0.15-0.33,0.28-0.48,0.41c-0.15,0.12-0.27,0.23-0.37,0.32
					c-0.07,0.06-0.09,0.09-0.09,0.11c0,0,0.01,0.01,0.03,0.04c0.05,0.05,0.11,0.1,0.2,0.16c0.09,0.06,0.2,0.12,0.32,0.18
					c0.12,0.06,0.25,0.13,0.39,0.19c0.16,0.07,0.32,0.15,0.49,0.23c0.17,0.09,0.32,0.18,0.45,0.27l0,0c0.14,0.1,0.26,0.21,0.35,0.33
					c0.1,0.14,0.15,0.29,0.14,0.45c-0.01,0.09-0.03,0.2-0.07,0.31c-0.04,0.11-0.1,0.21-0.16,0.3c-0.07,0.1-0.16,0.18-0.25,0.25
					c-0.11,0.08-0.23,0.12-0.36,0.12l-0.13-0.02c-0.06-0.01-0.12-0.04-0.3-0.14c-0.13-0.07-0.29-0.16-0.47-0.26
					c-0.18-0.1-0.37-0.22-0.58-0.34c-0.21-0.12-0.4-0.24-0.58-0.36c-0.18-0.11-0.34-0.22-0.48-0.31c-0.11-0.07-0.2-0.13-0.25-0.16
					l-0.05-0.01c-0.02,0-0.05,0.01-0.08,0.02l-0.08,1.22c-0.01,0.11-0.05,0.21-0.12,0.3l-0.16,0.15
					C283.48,140.09,283.37,140.13,283.25,140.13z M283.6,139.96l-0.02,0.01C283.59,139.97,283.59,139.97,283.6,139.96z
					 M283.67,132.58c-0.02,0-0.1,0.08-0.2,0.29c-0.11,0.25-0.21,0.56-0.3,0.94c-0.09,0.39-0.17,0.82-0.23,1.28
					c-0.07,0.47-0.13,0.93-0.17,1.38c-0.05,0.45-0.09,0.86-0.12,1.24c-0.03,0.38-0.05,0.66-0.06,0.85l-0.01,0.18
					c-0.01,0.08-0.01,0.18-0.01,0.27c0,0.1-0.01,0.21-0.02,0.31l-0.02,0.26c0,0.02,0.01,0.05,0.03,0.08l0.68,0.07
					c0.03,0,0.04,0,0.05-0.02l0.12-0.11c0.03-0.04,0.04-0.06,0.04-0.09l0.09-1.27c0.01-0.14,0.1-0.24,0.24-0.29
					c0.08-0.02,0.15-0.04,0.21-0.04l0.02,0l0.21,0.05c0.05,0.03,0.15,0.09,0.3,0.19c0.14,0.09,0.3,0.19,0.48,0.31
					c0.18,0.11,0.37,0.23,0.58,0.35c0.2,0.12,0.39,0.23,0.57,0.34c0.18,0.1,0.33,0.19,0.46,0.25c0.11,0.06,0.18,0.09,0.21,0.1
					l0.08,0.01c0.01,0,0.06-0.02,0.1-0.05c0.06-0.04,0.11-0.09,0.16-0.16c0.05-0.07,0.09-0.14,0.11-0.21
					c0.03-0.07,0.04-0.14,0.05-0.2c0-0.06-0.02-0.12-0.06-0.19c-0.06-0.08-0.15-0.16-0.26-0.24c-0.12-0.08-0.25-0.16-0.4-0.24
					c-0.16-0.08-0.31-0.16-0.47-0.23c-0.14-0.07-0.27-0.13-0.4-0.2c-0.13-0.07-0.25-0.13-0.35-0.2c-0.11-0.07-0.2-0.14-0.27-0.22
					c-0.12-0.13-0.14-0.26-0.13-0.34c0.01-0.12,0.08-0.23,0.22-0.36c0.1-0.09,0.23-0.2,0.38-0.33c0.15-0.12,0.3-0.26,0.47-0.4
					c0.16-0.14,0.31-0.29,0.45-0.46c0.14-0.17,0.26-0.35,0.36-0.55c0.09-0.19,0.15-0.39,0.16-0.62c0.02-0.33-0.04-0.6-0.18-0.8
					c-0.15-0.21-0.35-0.38-0.59-0.51c-0.25-0.13-0.53-0.23-0.83-0.28c-0.31-0.06-0.61-0.1-0.89-0.12L283.67,132.58z M283.43,139.61
					c-0.01,0-0.02,0.01-0.03,0.02L283.43,139.61z"/>
			</g>
			<g>
				<path class="st56" d="M294.05,139.3c-0.01-0.06-0.03-0.2-0.07-0.42c-0.03-0.23-0.07-0.47-0.11-0.74
					c-0.11-0.74-0.21-1.47-0.31-2.2c-0.1-0.73-0.19-1.47-0.28-2.21c-0.01-0.08-0.04-0.14-0.09-0.2c-0.05-0.06-0.12-0.09-0.19-0.09
					l-1.36-0.09c-0.08-0.01-0.14,0.04-0.2,0.12c-0.03,0.05-0.07,0.11-0.11,0.19c-0.04,0.08-0.07,0.13-0.09,0.16
					c-0.23,0.46-0.47,0.92-0.7,1.38c-0.23,0.46-0.46,0.93-0.66,1.41c-0.06,0.13-0.12,0.29-0.2,0.47c-0.08,0.19-0.16,0.38-0.24,0.58
					c-0.09,0.2-0.17,0.4-0.26,0.6c-0.08,0.2-0.16,0.38-0.22,0.54c-0.06,0.16-0.12,0.29-0.16,0.39c-0.04,0.1-0.06,0.16-0.06,0.16
					l-0.03,0.47c-0.01,0.12,0.05,0.2,0.18,0.24c0.13,0.04,0.26,0.07,0.39,0.07l0.03,0l0.07-0.01l0.03,0l0.07,0
					c0.1,0.01,0.18-0.01,0.26-0.06c0.08-0.05,0.15-0.11,0.21-0.19c0.06-0.08,0.13-0.17,0.18-0.28c0.06-0.11,0.11-0.22,0.17-0.35
					c0.07-0.14,0.14-0.28,0.21-0.41c0.08-0.13,0.16-0.24,0.26-0.33c0.1-0.09,0.21-0.16,0.33-0.21c0.13-0.05,0.28-0.07,0.45-0.06
					c0.16,0.01,0.3,0.05,0.41,0.12c0.11,0.07,0.2,0.15,0.28,0.26c0.08,0.11,0.14,0.23,0.2,0.36c0.05,0.14,0.1,0.28,0.14,0.43
					c0.07,0.24,0.14,0.44,0.22,0.62c0.08,0.18,0.2,0.28,0.36,0.29c0.08,0.01,0.17,0,0.27,0c0.1-0.01,0.2-0.03,0.29-0.06
					c0.09-0.03,0.17-0.08,0.24-0.14c0.07-0.06,0.1-0.14,0.11-0.23c0.01-0.12,0.01-0.21,0.01-0.28
					C294.09,139.56,294.07,139.45,294.05,139.3z"/>
				<path class="st57" d="M293.27,140.54c-0.04,0-0.08,0-0.12,0c-0.16-0.01-0.39-0.09-0.52-0.4c-0.08-0.19-0.16-0.41-0.23-0.65
					c-0.04-0.15-0.08-0.28-0.13-0.41c-0.05-0.12-0.11-0.23-0.17-0.32c-0.06-0.09-0.13-0.15-0.22-0.21
					c-0.08-0.05-0.19-0.08-0.32-0.09c-0.14-0.01-0.27,0.01-0.36,0.04c-0.1,0.04-0.19,0.1-0.27,0.17c-0.08,0.08-0.16,0.17-0.22,0.29
					c-0.07,0.13-0.14,0.26-0.2,0.39c-0.06,0.13-0.12,0.24-0.17,0.35c-0.06,0.12-0.13,0.22-0.2,0.31c-0.08,0.1-0.17,0.17-0.26,0.23
					c-0.11,0.07-0.24,0.1-0.38,0.09l-0.07,0l-0.09,0l-0.05,0c-0.15-0.01-0.29-0.04-0.44-0.08c-0.22-0.07-0.33-0.23-0.32-0.44
					l0.03-0.47c0-0.04,0.01-0.05,0.08-0.22c0.04-0.1,0.09-0.23,0.16-0.39c0.06-0.16,0.14-0.34,0.22-0.54c0.08-0.2,0.17-0.4,0.26-0.6
					c0.09-0.2,0.17-0.39,0.24-0.58c0.08-0.19,0.14-0.35,0.2-0.48c0.21-0.47,0.43-0.95,0.67-1.42c0.23-0.46,0.47-0.93,0.7-1.39
					c0.02-0.04,0.05-0.09,0.09-0.17c0.05-0.09,0.09-0.16,0.12-0.21c0.12-0.2,0.29-0.21,0.37-0.21l1.36,0.09
					c0.13,0.01,0.24,0.06,0.32,0.15c0.08,0.09,0.13,0.19,0.14,0.31c0.09,0.74,0.18,1.47,0.28,2.2c0.1,0.73,0.2,1.46,0.31,2.2
					c0.04,0.27,0.07,0.52,0.11,0.74c0.03,0.22,0.05,0.36,0.06,0.42l0,0c0.03,0.16,0.04,0.28,0.04,0.35c0,0.08,0,0.18-0.01,0.3
					c-0.01,0.15-0.07,0.28-0.18,0.37c-0.09,0.08-0.19,0.13-0.31,0.17c-0.11,0.04-0.22,0.06-0.34,0.07
					C293.39,140.54,293.33,140.54,293.27,140.54z M291.47,138.06c0.04,0,0.07,0,0.11,0c0.19,0.01,0.36,0.06,0.49,0.14
					c0.13,0.08,0.25,0.19,0.34,0.31c0.09,0.12,0.16,0.26,0.22,0.41c0.06,0.14,0.11,0.3,0.15,0.45c0.06,0.22,0.13,0.42,0.21,0.59
					c0.06,0.14,0.13,0.17,0.19,0.17c0.07,0,0.15,0,0.24,0c0.08-0.01,0.17-0.02,0.24-0.05c0.07-0.02,0.13-0.06,0.18-0.1
					c0.02-0.02,0.04-0.04,0.04-0.1c0.01-0.11,0.01-0.2,0.01-0.26c0-0.06-0.01-0.16-0.04-0.3c-0.01-0.06-0.03-0.2-0.07-0.43
					c-0.03-0.23-0.07-0.47-0.11-0.74c-0.11-0.73-0.21-1.47-0.31-2.2c-0.1-0.73-0.19-1.47-0.28-2.21c0-0.04-0.02-0.07-0.04-0.09
					c-0.02-0.02-0.04-0.03-0.06-0.03l-1.35-0.09c0,0-0.01,0.01-0.02,0.03c-0.03,0.05-0.07,0.11-0.11,0.18
					c-0.05,0.08-0.08,0.14-0.09,0.17c-0.23,0.45-0.46,0.91-0.7,1.37c-0.23,0.46-0.45,0.93-0.66,1.4c-0.06,0.13-0.12,0.28-0.2,0.47
					c-0.08,0.19-0.16,0.38-0.25,0.59c-0.09,0.2-0.17,0.4-0.25,0.6c-0.08,0.2-0.16,0.38-0.22,0.54c-0.06,0.16-0.12,0.29-0.16,0.4
					c-0.02,0.06-0.04,0.1-0.05,0.13l-0.03,0.45c0,0.02,0.01,0.03,0.05,0.04c0.11,0.04,0.23,0.06,0.35,0.07l0.09,0l0.12,0.01
					c0.05,0,0.1-0.01,0.14-0.03c0.06-0.04,0.11-0.09,0.16-0.15c0.06-0.07,0.11-0.15,0.16-0.25c0.06-0.11,0.11-0.22,0.17-0.34
					c0.07-0.15,0.14-0.29,0.22-0.43c0.08-0.15,0.18-0.27,0.29-0.38c0.11-0.11,0.25-0.19,0.4-0.25
					C291.17,138.08,291.31,138.06,291.47,138.06z"/>
			</g>
			<g>
				<path class="st56" d="M300.55,135.55c-0.14-0.31-0.3-0.61-0.5-0.9c-0.2-0.29-0.42-0.54-0.68-0.75
					c-0.25-0.22-0.53-0.39-0.83-0.53c-0.3-0.14-0.62-0.22-0.95-0.24c-0.16-0.01-0.31,0.01-0.45,0.07c-0.14,0.06-0.26,0.14-0.36,0.24
					c-0.1,0.1-0.18,0.22-0.24,0.36c-0.06,0.14-0.1,0.28-0.11,0.43c-0.01,0.11-0.01,0.34-0.02,0.68c-0.01,0.34-0.01,0.74-0.01,1.21
					c0,0.46,0,0.95,0,1.47c0.01,0.52,0.02,1.01,0.05,1.47c0.02,0.46,0.05,0.87,0.09,1.22c0.04,0.35,0.08,0.59,0.15,0.7
					c0.01,0.04,0.04,0.06,0.07,0.07c0.04,0.01,0.07,0.02,0.11,0.02l0.31,0.03c0.5,0.03,0.97-0.05,1.41-0.24
					c0.44-0.19,0.83-0.46,1.16-0.8c0.33-0.34,0.6-0.73,0.8-1.18c0.21-0.45,0.32-0.91,0.36-1.39c0.02-0.31,0-0.64-0.06-0.97
					C300.79,136.19,300.69,135.86,300.55,135.55z"/>
				<path class="st57" d="M297.4,141.3c-0.08,0-0.16,0-0.23-0.01l-0.32-0.03c-0.05,0-0.1-0.01-0.15-0.03
					c-0.09-0.03-0.16-0.1-0.19-0.2c-0.06-0.11-0.12-0.36-0.15-0.74c-0.04-0.35-0.07-0.77-0.09-1.23c-0.02-0.46-0.04-0.96-0.05-1.48
					c-0.01-0.52-0.01-1.01,0-1.47c0-0.46,0.01-0.86,0.01-1.21c0.01-0.35,0.01-0.58,0.02-0.69c0.01-0.18,0.05-0.34,0.13-0.5
					c0.07-0.16,0.17-0.3,0.28-0.41c0.12-0.12,0.26-0.21,0.42-0.28c0.17-0.07,0.35-0.1,0.53-0.08c0.36,0.02,0.7,0.11,1.02,0.26
					c0.32,0.15,0.61,0.34,0.88,0.56c0.27,0.23,0.51,0.49,0.71,0.79c0.2,0.3,0.38,0.61,0.52,0.93c0.14,0.33,0.24,0.67,0.31,1.01
					c0.06,0.35,0.09,0.69,0.06,1.02c-0.03,0.5-0.16,0.99-0.38,1.46c-0.21,0.47-0.5,0.88-0.84,1.23c-0.35,0.35-0.76,0.64-1.22,0.84
					C298.27,141.21,297.84,141.3,297.4,141.3z M296.85,140.86c0.01,0,0.02,0,0.03,0l0.32,0.03c0.46,0.03,0.9-0.04,1.31-0.22
					c0.41-0.18,0.78-0.44,1.09-0.76c0.31-0.32,0.57-0.7,0.77-1.12c0.19-0.42,0.31-0.87,0.34-1.32c0.02-0.3,0-0.61-0.06-0.92
					c-0.06-0.32-0.15-0.63-0.28-0.93c-0.13-0.3-0.29-0.59-0.48-0.87c-0.19-0.27-0.4-0.51-0.64-0.72c-0.24-0.2-0.5-0.37-0.79-0.51
					c-0.28-0.13-0.58-0.21-0.89-0.23c-0.13-0.01-0.25,0.01-0.36,0.05c-0.11,0.05-0.21,0.11-0.29,0.2c-0.08,0.08-0.15,0.18-0.21,0.3
					c-0.05,0.11-0.08,0.24-0.09,0.36c-0.01,0.11-0.01,0.33-0.02,0.67c-0.01,0.34-0.01,0.74-0.01,1.2c0,0.46,0,0.95,0,1.47
					c0.01,0.52,0.02,1.01,0.05,1.46c0.02,0.46,0.05,0.87,0.09,1.21C296.77,140.64,296.82,140.8,296.85,140.86z M296.82,140.86
					C296.82,140.86,296.82,140.86,296.82,140.86C296.82,140.86,296.82,140.86,296.82,140.86z"/>
			</g>
			<g>
				<path class="st56" d="M306.75,135.56c0-0.21,0.01-0.46,0.01-0.74c-0.01-0.11-0.02-0.2-0.05-0.26c-0.03-0.06-0.06-0.11-0.11-0.14
					c-0.05-0.03-0.11-0.06-0.18-0.07c-0.07-0.01-0.16-0.02-0.26-0.03l-0.13-0.01c-0.06,0-0.12,0-0.19,0c-0.07,0-0.13,0.01-0.19,0.03
					c-0.06,0.02-0.11,0.05-0.15,0.09c-0.04,0.04-0.07,0.1-0.08,0.18c-0.02,0.12-0.04,0.28-0.07,0.5c-0.03,0.22-0.07,0.43-0.13,0.64
					c-0.06,0.21-0.14,0.39-0.24,0.54c-0.1,0.15-0.23,0.22-0.38,0.21c-0.15-0.01-0.26-0.09-0.33-0.23c-0.07-0.14-0.13-0.32-0.15-0.51
					c-0.03-0.2-0.04-0.4-0.04-0.61c0-0.21,0.01-0.38,0.02-0.51c0-0.04-0.01-0.07-0.01-0.12c0-0.04,0-0.08,0-0.12
					c-0.02-0.06-0.06-0.11-0.11-0.13c-0.05-0.02-0.1-0.04-0.15-0.04l-0.09-0.01c-0.23-0.02-0.42,0.01-0.57,0.08
					c-0.15,0.07-0.26,0.16-0.35,0.29c-0.09,0.13-0.15,0.28-0.19,0.45c-0.04,0.17-0.07,0.35-0.08,0.54c-0.02,0.24-0.02,0.47-0.02,0.7
					c0,0.11,0,0.22,0,0.31c0,0.1,0,0.2-0.01,0.29c-0.02,0.23-0.03,0.48-0.03,0.76c0,0.28,0.01,0.55,0.04,0.83
					c0.03,0.27,0.08,0.54,0.16,0.8s0.19,0.49,0.34,0.69c0.15,0.21,0.33,0.37,0.55,0.5c0.22,0.13,0.5,0.21,0.82,0.23
					c0.31,0.02,0.57-0.01,0.8-0.11c0.23-0.09,0.42-0.22,0.58-0.39c0.16-0.17,0.29-0.36,0.4-0.59c0.11-0.22,0.19-0.46,0.25-0.71
					c0.06-0.25,0.11-0.5,0.14-0.76c0.03-0.25,0.05-0.49,0.07-0.71c0.02-0.24,0.03-0.46,0.05-0.66c0.01-0.2,0.02-0.4,0.03-0.59
					C306.74,135.98,306.75,135.78,306.75,135.56z"/>
				<path class="st57" d="M304.59,140.9c-0.06,0-0.12,0-0.18-0.01c-0.36-0.02-0.66-0.11-0.91-0.26c-0.24-0.14-0.45-0.33-0.61-0.56
					c-0.16-0.22-0.28-0.47-0.36-0.75c-0.08-0.27-0.14-0.55-0.17-0.83c-0.03-0.28-0.04-0.57-0.04-0.85c0-0.28,0.02-0.54,0.03-0.77
					c0.01-0.09,0.01-0.19,0.01-0.28l0-0.32c-0.01-0.23,0-0.47,0.02-0.71c0.01-0.2,0.04-0.39,0.08-0.57
					c0.05-0.19,0.12-0.37,0.22-0.51c0.11-0.16,0.25-0.28,0.43-0.36c0.18-0.08,0.4-0.11,0.66-0.09l0.09,0.01
					c0.08,0.01,0.16,0.03,0.23,0.06c0.06,0.03,0.15,0.1,0.2,0.24l0.01,0.04l0,0.04c0,0.03,0,0.06,0,0.1c0,0.03,0,0.06,0.01,0.09
					l0,0.02l0,0.02c-0.01,0.13-0.02,0.3-0.02,0.5c0,0.2,0.01,0.39,0.04,0.58c0.03,0.18,0.07,0.33,0.13,0.45
					c0.05,0.1,0.12,0.12,0.17,0.13c0.06,0,0.13-0.01,0.21-0.12c0.09-0.13,0.16-0.3,0.22-0.48c0.06-0.2,0.1-0.4,0.13-0.61l0.07-0.5
					c0.01-0.12,0.05-0.22,0.14-0.3c0.06-0.06,0.14-0.11,0.22-0.14c0.08-0.03,0.16-0.04,0.25-0.05c0.08,0,0.15,0,0.21,0l0.13,0.01
					c0.1,0.01,0.19,0.02,0.27,0.03c0.1,0.02,0.19,0.05,0.26,0.11c0.07,0.05,0.13,0.13,0.17,0.22c0.04,0.08,0.06,0.19,0.07,0.33
					l-0.01,0.75c0,0.21-0.01,0.42-0.02,0.62c-0.01,0.2-0.02,0.4-0.03,0.6l-0.05,0.66c-0.02,0.23-0.04,0.47-0.07,0.72
					c-0.03,0.26-0.08,0.53-0.15,0.78c-0.07,0.26-0.16,0.51-0.27,0.75c-0.12,0.24-0.26,0.46-0.43,0.64
					c-0.18,0.19-0.39,0.33-0.65,0.44C305.09,140.86,304.85,140.9,304.59,140.9z M303.63,134.41c-0.15,0-0.27,0.02-0.36,0.06
					c-0.12,0.05-0.2,0.12-0.27,0.22c-0.07,0.11-0.13,0.24-0.16,0.38c-0.04,0.16-0.06,0.33-0.07,0.51c-0.02,0.23-0.02,0.46-0.02,0.68
					l0,0.32c0,0.1,0,0.21-0.01,0.31c-0.02,0.23-0.03,0.48-0.03,0.75c0,0.27,0.01,0.54,0.04,0.8c0.03,0.26,0.08,0.52,0.15,0.76
					c0.07,0.24,0.17,0.45,0.31,0.64c0.13,0.18,0.3,0.33,0.49,0.45c0.19,0.11,0.44,0.18,0.74,0.2c0.27,0.02,0.51-0.01,0.71-0.09
					c0.2-0.08,0.37-0.2,0.51-0.34c0.14-0.15,0.27-0.33,0.36-0.54c0.1-0.21,0.18-0.44,0.24-0.68c0.06-0.24,0.11-0.49,0.14-0.73
					c0.03-0.25,0.05-0.48,0.07-0.7l0.05-0.66c0.01-0.2,0.02-0.39,0.03-0.58c0.01-0.19,0.01-0.4,0.02-0.61l0.01-0.74
					c-0.01-0.1-0.02-0.16-0.03-0.18c-0.01-0.03-0.03-0.05-0.05-0.07c-0.02-0.02-0.05-0.03-0.09-0.03c-0.07-0.01-0.15-0.02-0.24-0.03
					l-0.13-0.01c-0.05,0-0.11,0-0.17,0c-0.05,0-0.09,0.01-0.13,0.02c-0.03,0.01-0.06,0.03-0.08,0.05c-0.01,0.01-0.01,0.03-0.01,0.05
					l-0.07,0.51c-0.03,0.22-0.08,0.45-0.14,0.66c-0.07,0.23-0.16,0.43-0.27,0.6c-0.18,0.26-0.4,0.31-0.56,0.3
					c-0.22-0.01-0.38-0.13-0.49-0.34c-0.08-0.16-0.14-0.36-0.17-0.58c-0.03-0.21-0.04-0.42-0.04-0.64c0-0.2,0.01-0.37,0.02-0.5
					c0-0.04-0.01-0.08-0.01-0.12c0-0.02,0-0.04,0-0.07c-0.03-0.03-0.05-0.03-0.08-0.03l-0.09-0.01
					C303.7,134.41,303.66,134.41,303.63,134.41z"/>
			</g>
			<g>
				<path class="st56" d="M313.2,140.61c-0.01-0.06-0.03-0.2-0.07-0.42c-0.03-0.23-0.07-0.47-0.11-0.74
					c-0.11-0.74-0.21-1.47-0.31-2.2c-0.1-0.73-0.19-1.47-0.28-2.21c-0.01-0.08-0.04-0.14-0.09-0.2c-0.05-0.06-0.12-0.09-0.19-0.09
					l-1.36-0.09c-0.08-0.01-0.14,0.04-0.2,0.12c-0.03,0.05-0.07,0.11-0.11,0.19c-0.04,0.08-0.07,0.13-0.09,0.16
					c-0.23,0.46-0.47,0.92-0.7,1.38c-0.23,0.46-0.46,0.93-0.66,1.41c-0.06,0.13-0.12,0.29-0.2,0.47c-0.08,0.19-0.16,0.38-0.24,0.58
					c-0.09,0.2-0.17,0.4-0.26,0.6c-0.08,0.2-0.16,0.38-0.22,0.54c-0.06,0.16-0.12,0.29-0.16,0.39c-0.04,0.1-0.06,0.16-0.06,0.16
					l-0.03,0.47c-0.01,0.12,0.05,0.2,0.18,0.24c0.13,0.04,0.26,0.07,0.39,0.07l0.03,0l0.07-0.01l0.03,0l0.07,0
					c0.1,0.01,0.18-0.01,0.26-0.06c0.08-0.05,0.15-0.11,0.21-0.19c0.06-0.08,0.13-0.17,0.18-0.28c0.06-0.11,0.11-0.22,0.17-0.35
					c0.07-0.14,0.14-0.28,0.21-0.41c0.08-0.13,0.16-0.24,0.26-0.33c0.1-0.09,0.21-0.16,0.33-0.21c0.13-0.05,0.28-0.07,0.45-0.06
					c0.16,0.01,0.3,0.05,0.41,0.12c0.11,0.07,0.2,0.15,0.28,0.26c0.08,0.11,0.14,0.23,0.2,0.36c0.05,0.14,0.1,0.28,0.14,0.43
					c0.07,0.24,0.14,0.44,0.22,0.62c0.08,0.18,0.2,0.28,0.36,0.29c0.08,0.01,0.17,0,0.27,0c0.1-0.01,0.2-0.03,0.29-0.06
					c0.09-0.03,0.17-0.08,0.24-0.14s0.1-0.14,0.11-0.23c0.01-0.12,0.01-0.21,0.01-0.28C313.24,140.86,313.23,140.75,313.2,140.61z"
					/>
				<path class="st57" d="M312.43,141.85c-0.04,0-0.08,0-0.12,0c-0.16-0.01-0.39-0.09-0.52-0.4c-0.08-0.19-0.16-0.4-0.23-0.65
					c-0.04-0.15-0.08-0.29-0.13-0.41c-0.05-0.12-0.11-0.23-0.17-0.32c-0.06-0.09-0.13-0.15-0.22-0.21
					c-0.08-0.05-0.19-0.08-0.32-0.09c-0.14-0.01-0.27,0-0.36,0.04c-0.1,0.04-0.19,0.1-0.27,0.17c-0.08,0.08-0.16,0.17-0.22,0.29
					c-0.07,0.13-0.14,0.26-0.2,0.4c-0.06,0.13-0.12,0.24-0.17,0.35c-0.06,0.12-0.13,0.22-0.2,0.31c-0.08,0.1-0.17,0.17-0.26,0.23
					c-0.11,0.07-0.23,0.1-0.38,0.09l-0.07-0.01l-0.09,0l-0.04,0c-0.15-0.01-0.3-0.04-0.44-0.08c-0.22-0.07-0.33-0.23-0.32-0.44
					l0.03-0.47c0-0.03,0-0.05,0.08-0.22c0.04-0.1,0.09-0.23,0.16-0.39c0.06-0.16,0.14-0.34,0.22-0.54c0.08-0.2,0.17-0.4,0.26-0.6
					c0.09-0.2,0.17-0.39,0.24-0.58c0.08-0.19,0.14-0.35,0.2-0.48c0.21-0.47,0.43-0.95,0.67-1.42c0.23-0.46,0.47-0.93,0.7-1.39
					c0.02-0.04,0.05-0.09,0.09-0.17c0.05-0.09,0.09-0.16,0.12-0.21c0.12-0.2,0.28-0.21,0.37-0.21l1.36,0.09
					c0.12,0.01,0.24,0.06,0.32,0.15c0.08,0.09,0.13,0.19,0.14,0.31c0.09,0.74,0.18,1.47,0.28,2.2c0.1,0.73,0.2,1.46,0.31,2.2
					c0.04,0.27,0.07,0.52,0.11,0.74c0.03,0.22,0.05,0.36,0.06,0.42l0,0c0.03,0.16,0.04,0.28,0.04,0.35c0,0.07,0,0.18-0.01,0.3
					c-0.01,0.15-0.07,0.28-0.18,0.37c-0.09,0.08-0.19,0.13-0.31,0.17c-0.11,0.04-0.22,0.06-0.34,0.07
					C312.54,141.84,312.48,141.85,312.43,141.85z M310.63,139.37c0.04,0,0.07,0,0.11,0c0.19,0.01,0.36,0.06,0.49,0.14
					c0.13,0.08,0.25,0.19,0.34,0.31c0.09,0.12,0.16,0.26,0.22,0.41c0.05,0.14,0.1,0.29,0.15,0.45c0.06,0.22,0.14,0.42,0.21,0.59
					c0.07,0.16,0.16,0.17,0.19,0.17c0.07,0,0.15,0,0.24,0c0.08-0.01,0.17-0.02,0.24-0.05c0.07-0.02,0.13-0.06,0.18-0.1
					c0.02-0.02,0.04-0.04,0.04-0.1c0.01-0.11,0.01-0.2,0.01-0.26c0-0.06-0.01-0.16-0.04-0.3c-0.01-0.06-0.03-0.2-0.07-0.43
					c-0.03-0.23-0.07-0.47-0.11-0.74c-0.11-0.73-0.21-1.47-0.31-2.2c-0.1-0.73-0.19-1.47-0.28-2.21c0-0.04-0.02-0.07-0.04-0.09
					c-0.02-0.02-0.04-0.03-0.06-0.03l-1.36-0.09c0,0-0.01,0.01-0.02,0.03c-0.03,0.05-0.07,0.11-0.11,0.18
					c-0.05,0.08-0.08,0.14-0.09,0.17c-0.23,0.45-0.46,0.91-0.7,1.37c-0.23,0.46-0.45,0.93-0.66,1.4c-0.06,0.13-0.12,0.29-0.2,0.47
					c-0.08,0.19-0.16,0.38-0.25,0.59c-0.09,0.2-0.17,0.4-0.26,0.6c-0.08,0.2-0.16,0.38-0.22,0.54c-0.06,0.16-0.12,0.29-0.16,0.4
					c-0.02,0.06-0.04,0.1-0.05,0.13l-0.03,0.45c0,0.02,0.01,0.03,0.05,0.04c0.12,0.04,0.23,0.06,0.35,0.07l0.09,0l0.12,0.01
					c0.06,0.01,0.1-0.01,0.14-0.03c0.06-0.04,0.11-0.09,0.16-0.15c0.06-0.07,0.11-0.15,0.16-0.25c0.05-0.11,0.11-0.22,0.17-0.34
					c0.07-0.15,0.14-0.29,0.22-0.42c0.08-0.15,0.18-0.27,0.29-0.38c0.11-0.11,0.25-0.19,0.4-0.25
					C310.33,139.39,310.47,139.37,310.63,139.37z"/>
			</g>
			<g>
				<path class="st56" d="M319.96,135.6c-0.03-0.08-0.07-0.14-0.13-0.19c-0.06-0.05-0.14-0.08-0.25-0.09l-0.08-0.01
					c-0.1,0-0.26,0-0.47-0.01c-0.21,0-0.45-0.01-0.71-0.01c-0.27,0-0.55-0.01-0.84-0.02c-0.29-0.01-0.57-0.01-0.84-0.02
					c-0.27,0-0.5-0.01-0.71-0.01c-0.21,0-0.36-0.01-0.46-0.01c-0.04,0-0.09,0-0.16,0.02c-0.06,0.01-0.12,0.03-0.18,0.06
					c-0.06,0.03-0.11,0.06-0.15,0.11c-0.04,0.05-0.06,0.1-0.07,0.16l-0.05,0.71c0,0.04,0.01,0.08,0.04,0.11
					c0.03,0.03,0.06,0.06,0.09,0.07l0.02,0.01c0.05,0.03,0.1,0.05,0.16,0.05l1.15,0.08c0.01,0,0.04,0.01,0.07,0.02
					c0.03,0.01,0.07,0.03,0.1,0.04c0.03,0.02,0.07,0.04,0.1,0.06c0.03,0.02,0.04,0.04,0.04,0.06l-0.32,4.64
					c0,0.06,0.01,0.11,0.04,0.15c0.03,0.04,0.07,0.07,0.13,0.09c0.05,0.02,0.11,0.04,0.16,0.05c0.06,0.01,0.11,0.02,0.16,0.02
					c0.05,0,0.08,0,0.09,0l0.06,0c0.03,0,0.09,0,0.17,0.01c0.08,0,0.15,0,0.23-0.02c0.07-0.01,0.14-0.03,0.2-0.07
					c0.06-0.03,0.09-0.08,0.09-0.14l0.31-4.5c0.01-0.1,0.03-0.18,0.07-0.24c0.04-0.06,0.1-0.1,0.16-0.13
					c0.06-0.03,0.14-0.04,0.23-0.05c0.09,0,0.18,0,0.28,0c0.04,0,0.09,0.01,0.13,0.01c0.05,0,0.09,0.01,0.14,0.02l0.27,0.02
					c0.06,0,0.13,0.01,0.21,0c0.08,0,0.16-0.01,0.23-0.03c0.07-0.02,0.13-0.05,0.18-0.09c0.05-0.05,0.08-0.11,0.09-0.19l0.03-0.29
					c0-0.07,0.01-0.15,0.01-0.24C320,135.75,319.99,135.67,319.96,135.6z"/>
				<path class="st57" d="M317.17,141.96c-0.01,0-0.02,0-0.04,0c-0.08,0-0.14,0-0.18-0.01l-0.04,0c-0.03,0-0.07,0-0.12,0
					c-0.06,0-0.12-0.01-0.18-0.02c-0.07-0.01-0.14-0.03-0.2-0.06c-0.08-0.03-0.15-0.08-0.2-0.14c-0.05-0.05-0.1-0.15-0.09-0.29
					l0.31-4.55c-0.01,0-0.02-0.01-0.02-0.01c-0.03-0.01-0.06-0.03-0.09-0.04l-1.16-0.09c-0.1-0.01-0.19-0.04-0.26-0.09
					c-0.05-0.02-0.11-0.07-0.15-0.12c-0.06-0.07-0.09-0.16-0.09-0.25l0.05-0.71c0.01-0.11,0.05-0.2,0.12-0.28
					c0.06-0.07,0.13-0.12,0.21-0.16c0.07-0.03,0.15-0.06,0.23-0.08c0.08-0.02,0.15-0.02,0.21-0.02c0.09,0,0.24,0,0.45,0l1.55,0.03
					c0.29,0.01,0.57,0.01,0.84,0.02l0.71,0.01c0.21,0,0.36,0.01,0.47,0.01l0.1,0.01c0.15,0.01,0.27,0.06,0.36,0.14
					c0.08,0.07,0.15,0.17,0.18,0.27c0.03,0.09,0.05,0.2,0.05,0.31c0,0.09,0,0.18-0.01,0.25l-0.03,0.3
					c-0.01,0.16-0.09,0.27-0.15,0.32c-0.08,0.07-0.17,0.11-0.27,0.14c-0.09,0.02-0.18,0.03-0.27,0.03c-0.09,0-0.16,0-0.23,0
					l-0.27-0.02c-0.07-0.01-0.1-0.02-0.14-0.02l-0.13-0.01c-0.09-0.01-0.18-0.01-0.25,0c-0.07,0-0.12,0.01-0.16,0.03
					c-0.03,0.01-0.06,0.03-0.08,0.06c-0.02,0.03-0.03,0.08-0.04,0.14l-0.31,4.5c-0.01,0.13-0.08,0.24-0.2,0.3
					c-0.08,0.04-0.16,0.07-0.26,0.09C317.33,141.95,317.25,141.96,317.17,141.96z M316.91,141.55l0.01,0.01l0.06,0
					c0.03,0,0.09,0,0.16,0.01c0.07,0,0.13,0,0.19-0.01c0.05-0.01,0.1-0.02,0.14-0.04l0.3-4.48c0.01-0.13,0.05-0.25,0.11-0.34
					c0.06-0.09,0.15-0.16,0.25-0.2c0.08-0.04,0.18-0.06,0.29-0.06c0.1-0.01,0.2,0,0.3,0l0.13,0.01c0.05,0,0.11,0.01,0.17,0.02
					l0.24,0.01c0.06,0,0.12,0,0.2,0c0.07,0,0.13-0.01,0.19-0.02c0.04-0.01,0.07-0.02,0.1-0.05c0.01-0.01,0.02-0.03,0.02-0.06
					l0.03-0.3c0-0.06,0.01-0.13,0-0.21c0-0.07-0.01-0.13-0.03-0.18c-0.02-0.04-0.04-0.08-0.07-0.11c-0.03-0.02-0.07-0.04-0.13-0.04
					l-0.08-0.01c-0.09,0-0.25,0-0.46-0.01l-0.71-0.01c-0.27,0-0.55-0.01-0.84-0.02l-1.55-0.03c-0.21,0-0.36,0-0.46-0.01
					c-0.03,0-0.06,0-0.12,0.01c-0.05,0.01-0.09,0.03-0.14,0.05c-0.03,0.02-0.06,0.04-0.09,0.06c-0.01,0.01-0.02,0.03-0.02,0.05
					l-0.05,0.71c0.01-0.01,0.02,0,0.02,0l0.04,0.02c0.03,0.02,0.05,0.03,0.08,0.03l1.15,0.08c0.04,0,0.07,0.01,0.13,0.03
					c0.04,0.02,0.08,0.03,0.12,0.05c0.05,0.02,0.09,0.05,0.13,0.08c0.09,0.07,0.13,0.14,0.12,0.23l-0.32,4.63
					c0.01,0.02,0.02,0.03,0.05,0.04c0.04,0.02,0.08,0.03,0.13,0.04c0.05,0.01,0.1,0.02,0.14,0.02c0.02,0,0.03,0,0.04,0
					L316.91,141.55z M316.45,136.8C316.45,136.8,316.45,136.8,316.45,136.8L316.45,136.8z"/>
			</g>
			<g>
				<path class="st56" d="M326.13,140.74c-0.04-0.12-0.14-0.19-0.29-0.2l-0.2-0.01c-0.26-0.02-0.51-0.01-0.77,0.03
					c-0.25,0.04-0.51,0.07-0.76,0.11c-0.25,0.05-0.51,0.08-0.76,0.12c-0.25,0.03-0.5,0.04-0.75,0.02c-0.03,0-0.05-0.03-0.05-0.09
					c0.01-0.09,0.06-0.19,0.17-0.3c0.11-0.11,0.24-0.22,0.41-0.34c0.17-0.12,0.35-0.24,0.55-0.36c0.2-0.12,0.41-0.24,0.61-0.36
					c0.18-0.11,0.35-0.21,0.51-0.31c0.17-0.1,0.32-0.19,0.44-0.28c0.13-0.09,0.23-0.17,0.31-0.25c0.08-0.08,0.12-0.15,0.13-0.22
					c0.01-0.13-0.01-0.22-0.06-0.29c-0.05-0.07-0.14-0.1-0.28-0.11c-0.22-0.02-0.45-0.02-0.67-0.02c-0.22,0-0.45,0.01-0.67,0.02
					c-0.21,0.01-0.42,0.01-0.63,0.01c-0.21,0-0.42,0-0.64-0.02c0.02-0.08,0.08-0.17,0.2-0.26c0.11-0.09,0.25-0.18,0.41-0.27
					c0.16-0.09,0.35-0.18,0.55-0.27c0.2-0.09,0.4-0.18,0.61-0.27c0.19-0.08,0.39-0.17,0.57-0.25c0.19-0.09,0.35-0.17,0.49-0.25
					c0.14-0.08,0.26-0.16,0.35-0.24c0.09-0.08,0.14-0.16,0.14-0.24c0.01-0.1-0.01-0.18-0.05-0.26c-0.04-0.08-0.11-0.12-0.22-0.13
					l-0.27-0.03c-0.06,0-0.19-0.01-0.37,0c-0.19,0-0.4,0.01-0.65,0.01c-0.25,0.01-0.51,0.02-0.8,0.05c-0.28,0.02-0.56,0.05-0.81,0.1
					c-0.26,0.04-0.49,0.09-0.71,0.15c-0.21,0.06-0.37,0.13-0.48,0.21c-0.06,0.05-0.09,0.12-0.1,0.21l-0.32,4.7
					c-0.01,0.13-0.01,0.27-0.01,0.43c0,0.16,0.02,0.32,0.05,0.46c0.03,0.15,0.08,0.28,0.16,0.38c0.07,0.1,0.18,0.16,0.31,0.17
					c0.08,0.01,0.22,0,0.43-0.01c0.21-0.01,0.45-0.03,0.73-0.05c0.28-0.02,0.58-0.05,0.89-0.09c0.32-0.03,0.62-0.07,0.91-0.12
					c0.29-0.05,0.55-0.1,0.78-0.16c0.23-0.06,0.4-0.12,0.51-0.19c0.04-0.03,0.06-0.06,0.08-0.1c0.02-0.04,0.03-0.08,0.04-0.12
					l0.02-0.34C326.19,140.98,326.17,140.86,326.13,140.74z"/>
				<path class="st57" d="M321.89,142.49c-0.05,0-0.09,0-0.12,0c-0.19-0.01-0.35-0.1-0.45-0.25c-0.09-0.12-0.15-0.28-0.19-0.45
					c-0.03-0.16-0.05-0.33-0.05-0.51c0-0.17,0.01-0.31,0.01-0.44l0.32-4.7c0.01-0.14,0.07-0.26,0.17-0.35
					c0.13-0.11,0.31-0.19,0.55-0.25c0.22-0.06,0.47-0.11,0.73-0.15c0.26-0.04,0.54-0.08,0.83-0.1c0.29-0.02,0.56-0.04,0.8-0.05
					c0.25-0.01,0.46-0.01,0.65-0.01c0.19,0,0.32,0,0.39,0l0.28,0.03c0.24,0.02,0.34,0.15,0.38,0.23c0.05,0.11,0.07,0.23,0.06,0.36
					c-0.01,0.13-0.08,0.25-0.21,0.37c-0.1,0.09-0.23,0.18-0.38,0.27c-0.15,0.08-0.32,0.17-0.51,0.26c-0.19,0.09-0.38,0.17-0.58,0.26
					l-0.6,0.27c-0.2,0.09-0.38,0.18-0.54,0.26c-0.11,0.06-0.2,0.12-0.29,0.17c0.08,0,0.15,0,0.22,0c0.21,0,0.42-0.01,0.63-0.01
					c0.22-0.01,0.45-0.02,0.68-0.02c0.24,0,0.46,0,0.69,0.02c0.2,0.01,0.34,0.08,0.43,0.19c0.08,0.1,0.11,0.24,0.1,0.42
					c-0.01,0.12-0.07,0.23-0.18,0.35c-0.09,0.09-0.2,0.18-0.34,0.27c-0.13,0.09-0.29,0.19-0.46,0.29c-0.17,0.1-0.34,0.2-0.51,0.3
					l-0.62,0.36c-0.19,0.11-0.38,0.23-0.54,0.35c-0.16,0.11-0.28,0.22-0.38,0.32c-0.02,0.02-0.04,0.04-0.05,0.06
					c0.18,0,0.35-0.01,0.52-0.03c0.25-0.03,0.5-0.07,0.75-0.11c0.26-0.04,0.52-0.08,0.77-0.11c0.27-0.04,0.54-0.05,0.81-0.03
					l0.2,0.01c0.31,0.04,0.42,0.22,0.46,0.33l0,0c0.05,0.14,0.07,0.29,0.06,0.45l-0.02,0.34c-0.02,0.08-0.03,0.13-0.05,0.18
					c-0.03,0.08-0.08,0.14-0.15,0.19c-0.13,0.09-0.32,0.16-0.57,0.22c-0.24,0.06-0.5,0.11-0.79,0.16c-0.29,0.05-0.59,0.09-0.92,0.12
					c-0.32,0.03-0.62,0.06-0.9,0.09c-0.28,0.02-0.53,0.04-0.74,0.05C322.09,142.49,321.98,142.49,321.89,142.49z M325.29,135.62
					c-0.04,0-0.09,0-0.14,0c-0.18,0-0.4,0.01-0.64,0.01c-0.24,0.01-0.5,0.02-0.79,0.04c-0.28,0.02-0.55,0.05-0.8,0.09
					c-0.25,0.04-0.48,0.09-0.69,0.14c-0.23,0.06-0.35,0.13-0.4,0.17c0,0-0.02,0.02-0.03,0.07l-0.32,4.7
					c-0.01,0.12-0.01,0.26-0.01,0.42c0,0.15,0.01,0.29,0.04,0.42c0.03,0.12,0.07,0.22,0.13,0.31c0.04,0.05,0.09,0.08,0.16,0.09
					c0.07,0.01,0.21,0,0.41-0.01c0.21-0.01,0.45-0.03,0.73-0.05c0.28-0.02,0.57-0.05,0.89-0.09c0.31-0.03,0.61-0.07,0.89-0.12
					c0.28-0.05,0.54-0.1,0.76-0.15c0.26-0.07,0.39-0.13,0.45-0.17c0.02-0.04,0.03-0.07,0.04-0.1l0.02-0.31
					c0.01-0.1-0.01-0.21-0.04-0.3c-0.01-0.02-0.02-0.06-0.13-0.07l-0.19-0.01c-0.24-0.02-0.49-0.01-0.73,0.02
					c-0.25,0.04-0.51,0.07-0.76,0.11c-0.25,0.05-0.51,0.08-0.76,0.12c-0.26,0.03-0.53,0.04-0.79,0.02c-0.12-0.01-0.24-0.11-0.23-0.3
					c0.01-0.14,0.08-0.28,0.22-0.42c0.11-0.11,0.26-0.24,0.43-0.36c0.17-0.12,0.36-0.25,0.57-0.37l0.61-0.36
					c0.17-0.11,0.35-0.21,0.51-0.31c0.16-0.09,0.31-0.18,0.43-0.27c0.12-0.08,0.21-0.16,0.28-0.23c0.05-0.05,0.07-0.09,0.07-0.1
					c0.01-0.11-0.01-0.15-0.02-0.16l0,0c0,0-0.03-0.03-0.14-0.03c-0.22-0.02-0.44-0.02-0.66-0.02c-0.22,0-0.44,0.01-0.66,0.02
					c-0.22,0.01-0.43,0.01-0.64,0.02c-0.21,0-0.44,0-0.65-0.02l-0.23-0.02l0.05-0.22c0.03-0.13,0.12-0.25,0.26-0.37
					c0.12-0.1,0.26-0.19,0.44-0.29c0.17-0.09,0.35-0.18,0.56-0.27l0.61-0.27c0.2-0.09,0.39-0.17,0.57-0.25
					c0.18-0.08,0.34-0.16,0.48-0.24c0.13-0.07,0.23-0.15,0.31-0.22c0.06-0.05,0.08-0.09,0.08-0.11c0-0.06,0-0.12-0.03-0.16
					c0,0-0.01-0.01-0.06-0.02l-0.28-0.03C325.46,135.63,325.39,135.62,325.29,135.62z"/>
			</g>
		</g>
	</g>
	<g>
		<g>
			<path class="st19" d="M156.27,197.64c-0.09,0.01-0.17,0.01-0.26-0.01c-0.09-0.02-0.15-0.07-0.18-0.17
				c-0.09-0.25-0.17-0.5-0.23-0.75c-0.06-0.25-0.11-0.51-0.16-0.77c-0.05-0.31-0.1-0.62-0.13-0.93c-0.02-0.16-0.04-0.31-0.07-0.46
				c-0.02-0.15-0.05-0.3-0.07-0.45l-0.14-0.83c0-0.02,0-0.05,0-0.08c0-0.03,0.01-0.07,0.02-0.11c0.01-0.04,0.03-0.07,0.05-0.09
				c0.02-0.03,0.04-0.04,0.07-0.05l0.61-0.1c0.04-0.01,0.06,0,0.09,0.02l0.05,0.04l0.03,0.03c0.04,0.03,0.06,0.07,0.07,0.13
				l0.54,3.21c0.01,0.07,0.04,0.1,0.1,0.11c0.06,0.01,0.11,0.01,0.17,0.01l0.09-0.02l1.13-0.44c0-0.01,0.02-0.01,0.04-0.02
				l0.03-0.01c0.08-0.01,0.15,0,0.2,0.03c0.05,0.03,0.09,0.08,0.13,0.13c0.03,0.05,0.06,0.11,0.07,0.18
				c0.02,0.07,0.03,0.13,0.04,0.18l0.02,0.13c0.01,0.06,0,0.11-0.03,0.14c-0.02,0.03-0.06,0.06-0.1,0.09l-0.03,0.01
				c-0.06,0.03-0.12,0.05-0.19,0.08c-0.07,0.03-0.15,0.06-0.23,0.1c-0.13,0.06-0.28,0.12-0.43,0.19c-0.15,0.07-0.3,0.13-0.46,0.19
				c-0.15,0.06-0.3,0.11-0.45,0.16C156.52,197.58,156.39,197.62,156.27,197.64z"/>
			<path class="st19" d="M161.18,191.81c0.06-0.01,0.11,0,0.15,0.03c0.05,0.03,0.08,0.07,0.1,0.13c0.19,0.51,0.38,1.02,0.58,1.52
				c0.19,0.5,0.39,1.01,0.6,1.51c0.07,0.18,0.14,0.35,0.2,0.51c0.06,0.15,0.1,0.25,0.12,0.29c0.04,0.1,0.07,0.18,0.08,0.23
				c0.01,0.05,0.03,0.12,0.04,0.2c0.01,0.07,0,0.13-0.04,0.19c-0.04,0.05-0.09,0.1-0.15,0.14c-0.06,0.04-0.13,0.07-0.2,0.09
				c-0.07,0.02-0.13,0.04-0.19,0.05c-0.12,0.02-0.22-0.03-0.3-0.14c-0.09-0.11-0.17-0.25-0.26-0.41c-0.05-0.1-0.11-0.19-0.17-0.28
				c-0.06-0.09-0.13-0.16-0.2-0.23c-0.07-0.06-0.15-0.11-0.24-0.14c-0.09-0.03-0.19-0.03-0.31-0.01c-0.13,0.02-0.23,0.06-0.31,0.12
				c-0.08,0.06-0.15,0.13-0.2,0.21c-0.05,0.08-0.1,0.18-0.13,0.28c-0.03,0.11-0.06,0.22-0.08,0.33c-0.02,0.1-0.04,0.19-0.06,0.27
				c-0.02,0.09-0.05,0.16-0.08,0.23c-0.03,0.07-0.07,0.12-0.12,0.17c-0.05,0.05-0.1,0.08-0.18,0.09l-0.05,0.01l-0.02,0l-0.05,0.02
				l-0.02,0c-0.1,0.02-0.19,0.02-0.29,0.01c-0.1-0.01-0.16-0.05-0.17-0.14l-0.06-0.34c0-0.01,0-0.05,0.02-0.13
				c0.01-0.08,0.03-0.18,0.05-0.31c0.02-0.12,0.04-0.27,0.06-0.42c0.03-0.16,0.05-0.31,0.08-0.47c0.03-0.16,0.05-0.31,0.07-0.45
				c0.02-0.15,0.04-0.27,0.06-0.37c0.07-0.37,0.14-0.74,0.23-1.11c0.09-0.37,0.18-0.74,0.26-1.1c0.01-0.02,0.02-0.07,0.04-0.13
				c0.02-0.07,0.03-0.12,0.05-0.16c0.02-0.07,0.06-0.11,0.12-0.12L161.18,191.81z"/>
			<path class="st19" d="M167,195.35c-0.08,0.01-0.16,0.05-0.24,0.1c-0.08,0.05-0.16,0.11-0.24,0.17c-0.1,0.07-0.2,0.14-0.3,0.21
				c-0.1,0.06-0.21,0.11-0.34,0.13c-0.29,0.05-0.55,0.03-0.78-0.07c-0.23-0.09-0.44-0.23-0.61-0.41c-0.17-0.18-0.32-0.39-0.43-0.63
				c-0.11-0.24-0.19-0.49-0.23-0.74c-0.06-0.38-0.07-0.76,0-1.15c0.06-0.39,0.18-0.75,0.36-1.07c0.18-0.33,0.42-0.61,0.72-0.84
				c0.3-0.23,0.65-0.39,1.06-0.45c0.07-0.01,0.13,0,0.2,0.04c0.07,0.04,0.11,0.1,0.12,0.17c0.02,0.09,0.03,0.19,0.03,0.3
				c0.01,0.11,0,0.21-0.03,0.3c-0.01,0.03-0.03,0.06-0.06,0.08c-0.03,0.02-0.07,0.05-0.11,0.07s-0.08,0.04-0.13,0.05
				s-0.08,0.02-0.12,0.04c-0.23,0.06-0.41,0.18-0.56,0.34c-0.15,0.16-0.26,0.36-0.35,0.57c-0.08,0.22-0.13,0.44-0.15,0.68
				c-0.02,0.24-0.01,0.46,0.02,0.66c0.02,0.11,0.05,0.23,0.09,0.37c0.04,0.14,0.1,0.27,0.17,0.38c0.07,0.12,0.16,0.21,0.27,0.28
				c0.1,0.07,0.23,0.09,0.38,0.07c0.05-0.01,0.08-0.02,0.12-0.03c0.03-0.01,0.07-0.03,0.1-0.06c0.05-0.06,0.1-0.13,0.17-0.22
				c0.07-0.09,0.12-0.18,0.18-0.29c0.05-0.1,0.1-0.21,0.13-0.31c0.03-0.1,0.05-0.2,0.04-0.29c-0.01-0.01-0.02-0.03-0.02-0.05
				c-0.01-0.02-0.01-0.03-0.01-0.03l-0.54,0.09c-0.04,0.01-0.09-0.01-0.14-0.05c-0.05-0.04-0.11-0.09-0.15-0.16
				c-0.05-0.06-0.09-0.12-0.13-0.18c-0.04-0.06-0.06-0.1-0.06-0.13c-0.01-0.09,0.02-0.17,0.11-0.25c0.09-0.08,0.2-0.16,0.34-0.24
				c0.14-0.08,0.3-0.15,0.48-0.21s0.35-0.12,0.52-0.17c0.17-0.05,0.32-0.09,0.46-0.12c0.13-0.03,0.23-0.05,0.29-0.06
				c0.08-0.01,0.15,0,0.19,0.03c0.05,0.03,0.09,0.08,0.12,0.13c0.03,0.06,0.06,0.12,0.07,0.19c0.02,0.07,0.03,0.13,0.04,0.18
				l0.01,0.13c0,0.03,0,0.05,0,0.08c0,0.03-0.01,0.05-0.03,0.07c-0.02,0.03-0.04,0.05-0.07,0.07c-0.02,0.02-0.05,0.04-0.08,0.06
				c-0.03,0.03-0.06,0.05-0.09,0.07c-0.03,0.02-0.05,0.05-0.07,0.09l0.09,0.55c0.02,0.15,0.06,0.29,0.09,0.43
				c0.04,0.14,0.07,0.28,0.11,0.43c0.04,0.14,0.08,0.29,0.11,0.43c0.03,0.14,0.06,0.29,0.09,0.43c0.02,0.09,0.01,0.17-0.02,0.23
				c-0.03,0.06-0.07,0.11-0.13,0.15c-0.06,0.04-0.12,0.06-0.2,0.08c-0.07,0.02-0.15,0.04-0.22,0.05c-0.08,0.01-0.14,0.01-0.18-0.02
				c-0.05-0.02-0.09-0.06-0.12-0.1c-0.03-0.04-0.06-0.09-0.08-0.15c-0.02-0.06-0.04-0.12-0.05-0.18c-0.03-0.09-0.05-0.17-0.08-0.23
				C167.12,195.37,167.07,195.34,167,195.35z"/>
			<path class="st19" d="M169,193.16c-0.02-0.14-0.04-0.29-0.04-0.47c0-0.18,0.01-0.36,0.03-0.55c0.02-0.19,0.06-0.38,0.12-0.57
				c0.06-0.19,0.13-0.36,0.22-0.52c0.09-0.16,0.2-0.29,0.33-0.4s0.28-0.18,0.45-0.2c0.27-0.05,0.53-0.04,0.78,0.03
				c0.26,0.06,0.49,0.17,0.69,0.31c0.21,0.15,0.38,0.33,0.52,0.54c0.14,0.22,0.24,0.46,0.28,0.72c0.05,0.27,0.05,0.56,0.01,0.86
				c-0.04,0.3-0.12,0.58-0.25,0.83c-0.13,0.26-0.3,0.48-0.51,0.66c-0.21,0.19-0.47,0.31-0.78,0.36c-0.25,0.04-0.48,0.02-0.69-0.05
				c-0.21-0.08-0.4-0.19-0.56-0.35c-0.16-0.16-0.29-0.34-0.4-0.55C169.11,193.6,169.04,193.38,169,193.16z"/>
			<path class="st19" d="M173.36,192.42c-0.02-0.14-0.04-0.29-0.04-0.47c0-0.18,0.01-0.36,0.03-0.55c0.02-0.19,0.06-0.38,0.12-0.57
				c0.06-0.19,0.13-0.36,0.22-0.52c0.09-0.16,0.2-0.29,0.33-0.4c0.13-0.11,0.28-0.18,0.45-0.2c0.27-0.05,0.53-0.04,0.78,0.03
				c0.26,0.06,0.49,0.17,0.69,0.31c0.21,0.15,0.38,0.33,0.52,0.54c0.14,0.22,0.24,0.46,0.28,0.72c0.05,0.27,0.05,0.56,0.01,0.86
				c-0.04,0.3-0.12,0.58-0.25,0.83c-0.13,0.26-0.3,0.48-0.51,0.66c-0.21,0.19-0.47,0.31-0.78,0.36c-0.25,0.04-0.48,0.02-0.69-0.05
				c-0.21-0.08-0.4-0.19-0.56-0.35c-0.16-0.16-0.29-0.34-0.4-0.55C173.47,192.86,173.4,192.64,173.36,192.42z"/>
			<path class="st19" d="M181.83,193.66c-0.07,0.01-0.14,0-0.21-0.03c-0.07-0.03-0.13-0.08-0.18-0.13c-0.06-0.07-0.15-0.17-0.26-0.3
				c-0.12-0.14-0.25-0.29-0.39-0.45c-0.14-0.17-0.3-0.34-0.45-0.53c-0.16-0.19-0.31-0.36-0.45-0.53c-0.14-0.17-0.27-0.32-0.39-0.45
				c-0.11-0.13-0.2-0.23-0.25-0.29c-0.01-0.01-0.02-0.03-0.03-0.04c-0.01-0.01-0.02-0.03-0.04-0.05c-0.04-0.07-0.09-0.13-0.15-0.2
				c-0.06-0.07-0.13-0.1-0.2-0.09c-0.07,0.01-0.09,0.04-0.08,0.1l0.01,0.02c0.01,0.02,0.01,0.04,0.02,0.06
				c0,0.02,0.01,0.03,0.01,0.04c0.03,0.18,0.06,0.38,0.09,0.6c0.03,0.22,0.06,0.45,0.1,0.68c0.03,0.23,0.06,0.46,0.09,0.69
				c0.03,0.23,0.05,0.44,0.07,0.64c0.01,0.07-0.01,0.12-0.03,0.16s-0.07,0.07-0.12,0.1c-0.05,0.03-0.1,0.05-0.16,0.06
				c-0.06,0.01-0.11,0.03-0.16,0.03l-0.17,0.03c-0.07,0.01-0.12,0.01-0.17-0.01c-0.05-0.02-0.08-0.06-0.09-0.14l-0.23-1.38
				c-0.04-0.24-0.08-0.47-0.11-0.67c-0.03-0.21-0.07-0.41-0.09-0.62c-0.03-0.2-0.05-0.42-0.08-0.63c-0.02-0.22-0.05-0.46-0.07-0.73
				c0-0.02,0-0.04,0-0.06c0.01-0.07,0.04-0.13,0.09-0.18c0.05-0.05,0.1-0.09,0.17-0.12c0.06-0.03,0.13-0.06,0.21-0.08
				c0.08-0.02,0.15-0.04,0.23-0.05c0.04-0.01,0.08-0.01,0.11-0.01c0.03,0,0.07-0.01,0.1-0.01l0.14-0.02
				c0.14-0.02,0.24-0.01,0.3,0.03c0.06,0.04,0.13,0.11,0.21,0.21l0.04,0.05c0.02,0.02,0.06,0.07,0.12,0.15
				c0.06,0.08,0.13,0.16,0.21,0.26c0.26,0.32,0.52,0.64,0.78,0.96c0.26,0.32,0.53,0.63,0.8,0.95l0.03,0.03
				c0.03,0.03,0.05,0.06,0.09,0.09c0.03,0.03,0.07,0.04,0.11,0.03c0.04-0.01,0.06-0.05,0.06-0.12c0.01-0.08,0-0.18-0.01-0.3
				c-0.01-0.12-0.03-0.27-0.05-0.43s-0.05-0.33-0.08-0.51c-0.05-0.27-0.09-0.54-0.13-0.81c-0.04-0.27-0.06-0.52-0.06-0.75
				c0-0.23,0.02-0.42,0.07-0.57c0.05-0.15,0.13-0.24,0.26-0.26c0.06-0.01,0.12-0.02,0.19-0.03c0.07-0.01,0.14-0.01,0.21,0
				c0.07,0.01,0.12,0.03,0.17,0.07c0.05,0.04,0.08,0.1,0.1,0.18l0.01,0.06c0,0.03,0.01,0.08,0.01,0.16
				c0.01,0.08,0.01,0.17,0.02,0.27c0.02,0.24,0.04,0.48,0.06,0.71c0.02,0.24,0.05,0.48,0.08,0.72c0.01,0.11,0.02,0.21,0.03,0.32
				c0.01,0.1,0.02,0.2,0.03,0.29c0.01,0.09,0.02,0.17,0.02,0.23c0.01,0.06,0.01,0.11,0.01,0.13c0.01,0.06,0.01,0.13,0.02,0.2
				c0.01,0.07,0.02,0.14,0.03,0.21l0.04,0.23c0.03,0.2,0.06,0.4,0.08,0.6c0.02,0.21,0.02,0.4-0.02,0.57
				c-0.03,0.18-0.11,0.33-0.21,0.45C182.22,193.54,182.05,193.62,181.83,193.66z"/>
			<path class="st19" d="M162.09,203.28c-0.02,0-0.05-0.01-0.08-0.05c-0.03-0.04-0.05-0.07-0.05-0.1c-0.05-0.15-0.08-0.31-0.12-0.46
				c-0.03-0.16-0.06-0.31-0.09-0.47l-0.08-0.47c-0.04-0.21-0.07-0.4-0.1-0.57c-0.03-0.17-0.06-0.34-0.08-0.51
				c-0.03-0.17-0.05-0.34-0.07-0.51c-0.02-0.18-0.05-0.37-0.08-0.59c-0.01-0.08,0.02-0.15,0.09-0.2c0.07-0.05,0.15-0.1,0.25-0.14
				c0.1-0.04,0.2-0.07,0.3-0.09c0.1-0.02,0.18-0.04,0.23-0.05c0.37-0.06,0.74-0.11,1.11-0.15c0.08-0.01,0.15,0.02,0.19,0.08
				c0.04,0.06,0.07,0.12,0.08,0.19c0.02,0.13,0.01,0.25-0.04,0.36c-0.05,0.11-0.12,0.22-0.2,0.32c-0.09,0.1-0.19,0.19-0.3,0.28
				c-0.11,0.09-0.22,0.17-0.32,0.24c-0.05,0.04-0.09,0.07-0.14,0.1c-0.04,0.03-0.09,0.07-0.12,0.1l-0.01,0
				c-0.02,0.01-0.03,0.02-0.03,0.03c0,0.01,0,0.02,0,0.04l0,0.02c0.01,0.01,0.01,0.02,0.02,0.04c0.01,0.01,0.01,0.02,0.02,0.02
				l0.04-0.01c0.11-0.03,0.22-0.07,0.33-0.1c0.11-0.03,0.22-0.05,0.33-0.07c0.09-0.01,0.17-0.02,0.26-0.03
				c0.08,0,0.16,0.01,0.23,0.03c0.07,0.02,0.13,0.05,0.17,0.1c0.05,0.05,0.08,0.11,0.09,0.2c0,0.03,0.01,0.06,0.01,0.1
				c0,0.04,0,0.08,0,0.12c-0.01,0.04-0.02,0.08-0.04,0.11c-0.02,0.03-0.05,0.05-0.1,0.07l-1.24,0.29c-0.02,0-0.04,0.02-0.06,0.04
				c-0.02,0.02-0.04,0.05-0.03,0.07l0.23,1.34c0.01,0.05,0,0.1-0.04,0.14c-0.03,0.04-0.08,0.06-0.12,0.07L162.09,203.28z"/>
			<path class="st19" d="M165.18,202.88c-0.04,0.01-0.08-0.01-0.12-0.04c-0.03-0.03-0.05-0.07-0.06-0.1
				c-0.01-0.04-0.01-0.09-0.02-0.15c-0.01-0.06-0.02-0.12-0.03-0.17c-0.01-0.06-0.02-0.11-0.03-0.16c-0.01-0.05-0.01-0.08-0.02-0.1
				c-0.02-0.11-0.05-0.27-0.08-0.49c-0.03-0.22-0.07-0.45-0.1-0.71c-0.03-0.26-0.06-0.53-0.09-0.8c-0.03-0.28-0.04-0.53-0.04-0.76
				c0-0.23,0.01-0.43,0.04-0.59c0.03-0.16,0.08-0.25,0.16-0.28l0.48-0.09c0.16-0.03,0.34-0.05,0.53-0.06
				c0.19-0.01,0.37,0.01,0.54,0.05c0.17,0.04,0.32,0.12,0.45,0.23c0.13,0.11,0.21,0.27,0.25,0.49c0.02,0.14,0.02,0.28-0.01,0.41
				c-0.03,0.13-0.08,0.26-0.14,0.38c-0.06,0.12-0.13,0.23-0.2,0.34c-0.07,0.1-0.15,0.2-0.21,0.29c-0.07,0.09-0.12,0.17-0.17,0.23
				c-0.04,0.06-0.06,0.12-0.06,0.15c0.01,0.04,0.03,0.07,0.07,0.1c0.04,0.03,0.09,0.05,0.16,0.07c0.06,0.02,0.13,0.04,0.21,0.06
				c0.08,0.02,0.16,0.04,0.25,0.06c0.1,0.02,0.2,0.04,0.3,0.07c0.1,0.02,0.19,0.05,0.28,0.09s0.15,0.07,0.21,0.12
				c0.05,0.05,0.09,0.1,0.1,0.16c0.01,0.04,0.01,0.09,0,0.15c-0.01,0.06-0.02,0.11-0.04,0.16c-0.02,0.05-0.05,0.1-0.09,0.14
				c-0.04,0.04-0.08,0.07-0.13,0.08l-0.05,0c-0.02,0-0.07-0.01-0.16-0.03c-0.08-0.02-0.18-0.05-0.3-0.08
				c-0.11-0.03-0.24-0.07-0.37-0.11c-0.13-0.04-0.26-0.08-0.37-0.12c-0.12-0.04-0.22-0.08-0.31-0.11c-0.09-0.03-0.15-0.05-0.19-0.06
				l-0.07,0.01c-0.03,0.01-0.06,0.02-0.09,0.04c-0.03,0.02-0.05,0.05-0.04,0.08l0.12,0.73c0.01,0.04,0,0.08-0.02,0.11l-0.01,0.03
				c0,0-0.01,0.01-0.01,0.01c0,0-0.01,0.01-0.01,0.02l-0.03,0.03c-0.02,0.04-0.06,0.06-0.1,0.07L165.18,202.88z"/>
			<path class="st19" d="M168.13,200.31c-0.02-0.11-0.03-0.23-0.03-0.37c0-0.14,0.01-0.29,0.03-0.44c0.02-0.15,0.05-0.3,0.1-0.45
				c0.04-0.15,0.1-0.29,0.17-0.41c0.07-0.12,0.16-0.23,0.26-0.31c0.1-0.08,0.22-0.14,0.36-0.16c0.21-0.04,0.42-0.03,0.62,0.02
				c0.2,0.05,0.39,0.13,0.55,0.25c0.16,0.12,0.3,0.26,0.41,0.43c0.11,0.17,0.19,0.36,0.22,0.57c0.04,0.21,0.04,0.44,0.01,0.68
				c-0.03,0.24-0.1,0.46-0.2,0.66c-0.1,0.2-0.24,0.38-0.41,0.53c-0.17,0.15-0.38,0.24-0.62,0.28c-0.2,0.03-0.38,0.02-0.54-0.04
				c-0.17-0.06-0.32-0.15-0.44-0.28c-0.13-0.12-0.23-0.27-0.32-0.43C168.21,200.66,168.16,200.49,168.13,200.31z"/>
			<path class="st19" d="M174.83,201.29c-0.06,0.01-0.11,0-0.17-0.03c-0.06-0.03-0.1-0.06-0.14-0.1c-0.05-0.05-0.11-0.13-0.21-0.24
				c-0.09-0.11-0.2-0.23-0.31-0.36c-0.11-0.13-0.23-0.27-0.36-0.42c-0.13-0.15-0.25-0.29-0.36-0.42c-0.11-0.13-0.22-0.25-0.31-0.35
				c-0.09-0.1-0.15-0.18-0.2-0.23c-0.01-0.01-0.02-0.02-0.03-0.03c-0.01-0.01-0.02-0.02-0.03-0.04c-0.03-0.05-0.07-0.11-0.12-0.16
				c-0.05-0.06-0.1-0.08-0.16-0.07c-0.05,0.01-0.07,0.04-0.07,0.08l0.01,0.02c0.01,0.02,0.01,0.03,0.01,0.04
				c0,0.01,0,0.02,0.01,0.03c0.02,0.14,0.05,0.3,0.07,0.48c0.03,0.17,0.05,0.35,0.08,0.54c0.03,0.18,0.05,0.37,0.07,0.55
				c0.02,0.18,0.04,0.35,0.06,0.51c0,0.05,0,0.1-0.03,0.13c-0.02,0.03-0.05,0.06-0.09,0.08c-0.04,0.02-0.08,0.04-0.13,0.05
				c-0.05,0.01-0.09,0.02-0.13,0.03l-0.14,0.02c-0.05,0.01-0.1,0.01-0.13-0.01c-0.04-0.01-0.06-0.05-0.07-0.11l-0.19-1.09
				c-0.03-0.19-0.06-0.37-0.09-0.53c-0.03-0.16-0.05-0.33-0.07-0.49c-0.02-0.16-0.04-0.33-0.06-0.5c-0.02-0.17-0.04-0.37-0.05-0.58
				c0-0.02,0-0.03,0-0.05c0.01-0.06,0.03-0.1,0.07-0.14c0.04-0.04,0.08-0.07,0.13-0.1c0.05-0.03,0.11-0.05,0.17-0.07
				c0.06-0.02,0.12-0.03,0.18-0.04c0.03-0.01,0.06-0.01,0.09-0.01c0.03,0,0.05-0.01,0.08-0.01l0.11-0.02
				c0.11-0.02,0.19-0.01,0.24,0.02c0.05,0.03,0.1,0.09,0.16,0.17l0.03,0.04c0.02,0.02,0.05,0.06,0.1,0.12
				c0.05,0.06,0.1,0.13,0.17,0.21c0.2,0.26,0.41,0.51,0.62,0.76c0.21,0.25,0.42,0.5,0.63,0.75l0.02,0.02
				c0.02,0.03,0.04,0.05,0.07,0.07c0.02,0.02,0.05,0.03,0.09,0.02c0.03,0,0.04-0.04,0.05-0.1c0-0.06,0-0.14-0.01-0.24
				c-0.01-0.1-0.02-0.21-0.04-0.34c-0.02-0.13-0.04-0.26-0.06-0.41c-0.04-0.21-0.07-0.42-0.1-0.64c-0.03-0.22-0.05-0.41-0.05-0.6
				c0-0.18,0.02-0.33,0.05-0.45c0.04-0.12,0.1-0.19,0.2-0.21c0.04-0.01,0.09-0.01,0.15-0.02c0.06-0.01,0.11-0.01,0.16,0
				c0.05,0.01,0.1,0.03,0.14,0.06c0.04,0.03,0.07,0.08,0.08,0.14l0.01,0.05c0,0.02,0.01,0.06,0.01,0.12c0,0.06,0.01,0.13,0.02,0.22
				c0.02,0.19,0.03,0.38,0.05,0.57c0.02,0.19,0.04,0.38,0.06,0.57c0.01,0.08,0.02,0.17,0.03,0.25c0.01,0.08,0.02,0.16,0.02,0.23
				c0.01,0.07,0.01,0.13,0.02,0.18c0,0.05,0.01,0.09,0.01,0.11c0,0.05,0.01,0.1,0.02,0.16c0.01,0.06,0.02,0.11,0.03,0.17l0.03,0.19
				c0.03,0.16,0.05,0.31,0.07,0.48c0.02,0.16,0.01,0.31-0.02,0.45c-0.03,0.14-0.08,0.26-0.17,0.36
				C175.14,201.19,175.01,201.26,174.83,201.29z"/>
			<path class="st19" d="M175.94,197.03c0.06-0.01,0.14-0.03,0.26-0.06c0.12-0.03,0.25-0.06,0.4-0.09c0.15-0.03,0.31-0.07,0.47-0.1
				c0.17-0.04,0.32-0.07,0.47-0.1c0.15-0.03,0.28-0.06,0.4-0.09c0.12-0.03,0.21-0.05,0.27-0.06l0.05-0.01
				c0.06-0.01,0.11,0,0.15,0.02c0.04,0.02,0.07,0.05,0.1,0.09c0.02,0.04,0.04,0.08,0.06,0.13c0.01,0.05,0.02,0.09,0.03,0.13
				l0.02,0.17c0.01,0.05,0,0.09-0.02,0.12c-0.02,0.03-0.05,0.06-0.09,0.08c-0.04,0.02-0.08,0.03-0.12,0.05
				c-0.05,0.01-0.09,0.02-0.12,0.03l-0.16,0.03c-0.03,0-0.06,0-0.08,0.01c-0.03,0-0.05,0.01-0.07,0.01
				c-0.06,0.01-0.11,0.02-0.16,0.04c-0.05,0.01-0.09,0.03-0.12,0.06c-0.03,0.02-0.06,0.06-0.07,0.1c-0.02,0.04-0.02,0.09-0.01,0.14
				l0.44,2.57c0.01,0.04-0.01,0.07-0.03,0.09c-0.03,0.03-0.06,0.05-0.1,0.06c-0.04,0.02-0.08,0.03-0.13,0.04
				c-0.04,0.01-0.08,0.02-0.1,0.02l-0.04,0.01c-0.01,0.01-0.02,0.01-0.05,0.02c-0.03,0-0.06,0.01-0.09,0.01c-0.03,0-0.07,0-0.1,0
				c-0.03,0-0.06-0.02-0.08-0.03c-0.02-0.02-0.04-0.04-0.04-0.08l-0.45-2.65c0-0.01-0.01-0.02-0.03-0.03
				c-0.02-0.01-0.04-0.02-0.06-0.02c-0.02,0-0.04-0.01-0.06-0.01c-0.02,0-0.04,0-0.04,0l-0.66,0.11c-0.04,0.01-0.07,0-0.1-0.01
				l-0.01,0c-0.02,0-0.04-0.01-0.06-0.03c-0.02-0.01-0.03-0.03-0.04-0.06l-0.07-0.41c-0.01-0.04,0-0.07,0.02-0.1
				c0.02-0.03,0.04-0.06,0.07-0.08c0.03-0.02,0.06-0.04,0.09-0.06C175.88,197.04,175.91,197.03,175.94,197.03z"/>
		</g>
		<path class="st19" d="M157.33,200.82l-2.11,0.36c-0.2,0.03-0.33,0.22-0.3,0.42c0.03,0.2,0.22,0.33,0.42,0.3l2.11-0.36
			c0.2-0.03,0.33-0.22,0.3-0.42C157.71,200.92,157.53,200.79,157.33,200.82z"/>
		<path class="st19" d="M184.51,195.74l-2.11,0.36c-0.2,0.03-0.33,0.22-0.3,0.42c0.03,0.2,0.22,0.33,0.42,0.3l2.11-0.36
			c0.2-0.03,0.33-0.22,0.3-0.42C184.9,195.84,184.71,195.71,184.51,195.74z"/>
	</g>
</g>
</svg>
