<?xml version="1.0" encoding="utf-8"?>
<!-- Generator: Adobe Illustrator 23.0.2, SVG Export Plug-In . SVG Version: 6.00 Build 0)  -->
<svg version="1.1" id="Layer_1" xmlns="http://www.w3.org/2000/svg" xmlns:xlink="http://www.w3.org/1999/xlink" x="0px" y="0px"
	 viewBox="0 0 488.45 488.45" style="enable-background:new 0 0 488.45 488.45;" xml:space="preserve">
<style type="text/css">
	.st0{fill:#C6C6C6;}
	.st1{fill:#070707;}
	.st2{fill:#090909;}
	.st3{fill:none;stroke:#000000;stroke-width:3;stroke-miterlimit:10;}
	.st4{fill:#F5E586;}
	.st5{fill:#2582AC;}
	.st6{fill:#6B3C39;}
	.st7{fill:#823F32;}
	.st8{fill:#562B25;}
	.st9{fill:none;stroke:#070707;stroke-miterlimit:10;}
	.st10{clip-path:url(#SVGID_2_);}
	.st11{fill:none;stroke:#F5E586;stroke-width:5;stroke-miterlimit:10;}
	.st12{clip-path:url(#SVGID_4_);}
	.st13{fill:#191413;}
	.st14{fill:#B88B74;}
	.st15{fill:#F1A562;}
	.st16{fill:#FDFDFD;}
	.st17{fill:#EF331A;}
	.st18{fill:#D6271A;}
	.st19{fill:#FFFFFF;}
	.st20{fill:#6B0E0A;}
	.st21{fill:#F9F9F8;}
	.st22{fill:#FEFEFF;}
	.st23{fill:#1D9533;stroke:#FFFFFF;stroke-width:5;stroke-miterlimit:10;}
	.st24{fill:#EF331A;stroke:#B23B32;stroke-width:2;stroke-miterlimit:10;}
	.st25{fill:#4A0F7B;}
	.st26{fill:#C6160E;}
	.st27{clip-path:url(#SVGID_6_);}
	.st28{fill:none;stroke:#562B25;stroke-width:1.2;stroke-miterlimit:10;}
	.st29{clip-path:url(#SVGID_8_);}
	.st30{fill:#1D9533;}
	.st31{fill:#0C5822;}
	.st32{fill:#0B3615;}
	.st33{fill:#1D9533;stroke:#115F24;stroke-width:1.5;stroke-miterlimit:10;}
	.st34{fill:#134A1D;}
	.st35{clip-path:url(#SVGID_10_);}
	.st36{fill:#EEF4F5;}
	.st37{fill:#155D84;}
	.st38{fill:#1879AE;}
	.st39{fill:#114156;}
	.st40{fill:#121111;}
	.st41{fill:#33110D;}
	.st42{clip-path:url(#SVGID_12_);}
	.st43{fill:#A0522D;}
	.st44{fill:#F42121;}
	.st45{fill:#FAB00B;}
	.st46{fill:#F5DDDB;}
	.st47{fill:#F66831;}
	.st48{opacity:0.49;fill:url(#);}
	.st49{opacity:0.53;}
	.st50{clip-path:url(#SVGID_14_);}
	.st51{fill:#DDDDDD;}
	.st52{fill:#B2B2B2;}
	.st53{fill:#757575;}
	.st54{fill:#3F3F3F;}
	.st55{fill:#070706;}
	.st56{fill:#F6C7DB;}
	.st57{fill:#040404;}
	.st58{fill:#F13C8B;}
	.st59{fill:#0A0A09;}
	.st60{fill:#239830;}
	.st61{fill:#1F6DAF;}
	.st62{clip-path:url(#SVGID_16_);}
	.st63{fill:#A6DAE9;}
	.st64{fill:#144863;}
	.st65{clip-path:url(#SVGID_18_);}
	.st66{clip-path:url(#SVGID_20_);}
	.st67{clip-path:url(#SVGID_22_);}
	.st68{clip-path:url(#SVGID_24_);}
	.st69{clip-path:url(#SVGID_26_);}
	.st70{fill:#10441D;}
	.st71{fill:#2B9B2E;}
</style>
<g>
	<g>
		<g>
			<path class="st31" d="M126.19,386.14v28.83c0,0-3.36,13.7,13.21,12.97H345.8c0,0,19.22,1.87,17.3-13.96v-27.85H126.19z"/>
			<path class="st19" d="M126.19,393.59c0,0,7.69,5.77,13.94,5.53c6.25-0.24,206.63,0,206.63,0s12.49,0,16.34-5.53v6.86
				c0,0-6.49,6.78-15.86,6.63H140.73c0,0-11.77-2.65-14.54-6.63V393.59z"/>
			<path class="st19" d="M126.19,408.61c0,0,7.69,5.77,13.94,5.53c6.25-0.24,206.63,0,206.63,0s12.49,0,16.34-5.53v6.86
				c0,0-6.49,6.78-15.86,6.63H140.73c0,0-11.77-2.65-14.54-6.63V408.61z"/>
		</g>
		<g>
			<path class="st19" d="M118.03,96.26c0,0,17.66,69.56,3.24,111c0,0-6.85,113.89-3.24,134.79c0,0,1.95,43.25,8.91,45.41l2.15,27.75
				h4.44l-2.16,37.84l-51.3-3.24l-1.68-39.16c0,0-9.85-86.5-3.6-135.99S94.96,131.7,118.03,96.26z"/>
			<g>
				<polygon class="st31" points="78.43,411.86 129.08,413.77 129.08,424.58 78.43,421.22 				"/>
				<polygon class="st31" points="79.03,425.79 132.74,428.91 132.25,437.56 79.39,434.19 				"/>
				<polygon class="st31" points="79.69,442.12 132.08,444.77 131.36,453.06 80.06,449.81 				"/>
			</g>
		</g>
		<g>
			<path class="st19" d="M370.18,95.36c0,0-17.75,69.93-3.26,111.6c0,0,6.88,114.49,3.26,135.51c0,0-1.96,43.48-8.95,45.65
				l-2.16,27.9h-4.47l2.17,38.04l51.57-3.26l1.69-39.37c0,0,9.9-86.96,3.62-136.72C407.38,224.95,393.37,130.99,370.18,95.36z"/>
			<g>
				<polygon class="st31" points="409.98,412.64 359.07,414.56 359.07,425.43 409.98,422.05 				"/>
				<polygon class="st31" points="409.38,426.64 355.39,429.78 355.88,438.48 409.02,435.09 				"/>
				<polygon class="st31" points="408.72,443.07 356.05,445.72 356.77,454.06 408.35,450.8 				"/>
			</g>
		</g>
		<g>
			<polygon class="st32" points="200.73,56.27 287.76,56.27 258.18,116.55 231.91,116.55 			"/>
			<path class="st30" d="M182.18,59.86c0,0,10.81,44.69,62.71,49.01c0,0,38.92,2.16,62.71-49.01c0,0,56.22,23.79,62.71,35.32
				c0,0-17.3,83.61,0,110.28c0,0,8.65,158.58-8.65,183.8c0,0-2.16,6.13-27.39,5.05h-74.6v33.52h-37.84v-35.44h-77.37
				c0,0-21.62,4.81-24.51-25.95c0,0-5.29-101.87,0-158.1c0,0,17.89-38.02-2.35-111.96C117.6,96.38,135.32,78.6,182.18,59.86z"/>
		</g>
		<g>
			<polygon class="st19" points="150.42,277.54 161.95,277.54 146.1,374.13 134.08,374.13 			"/>
			<polygon class="st19" points="339.75,277.54 328.22,277.54 344.08,374.13 356.09,374.13 			"/>
			<polygon class="st70" points="236.23,108.42 220.38,106.09 220.38,427.95 238.64,427.95 238.64,426.21 222.9,426.57 
				223.02,108.89 			"/>
			<g>
				<circle class="st19" cx="236.06" cy="400.45" r="3.69"/>
				<circle class="st19" cx="236.06" cy="344.46" r="3.69"/>
				<circle class="st19" cx="236.06" cy="288.98" r="3.69"/>
				<circle class="st19" cx="236.06" cy="232.56" r="3.69"/>
				<circle class="st19" cx="236.06" cy="176.15" r="3.69"/>
				<circle class="st19" cx="236.06" cy="120.24" r="3.69"/>
				<circle class="st19" cx="236.06" cy="417.68" r="3.69"/>
			</g>
		</g>
		<g>
			<g>
				<path class="st31" d="M209.33,67.55c0,0,41.81,10.57,67.76-2.4l4.81-30.75c0,0-34.6,9.13-72.56,0V67.55z"/>
				<path class="st19" d="M212.86,43.9c0,0,47.41,3.26,63.99,0l-2.88,7.31c0,0-37.77,1.17-58.26,0L212.86,43.9z"/>
				<path class="st22" d="M218.26,57.54c0,0,37.92,2.49,53.3,0l-2.88,6.4c0,0-36.33,2.4-48.12-0.93L218.26,57.54z"/>
			</g>
			<g>
				<path class="st31" d="M280.77,34.39c0,0,10.57,15.38,27.15,25.47c0,0-17.06,49.98-62.71,49.01
					C245.21,108.87,260.58,90.13,280.77,34.39z"/>
				<path class="st19" d="M292.89,48.18c0,0-23.66,56.05-32.05,57.91h-2.65c0,0,28.12-55.45,30.46-62.2L292.89,48.18z"/>
				<path class="st19" d="M298.34,53c0,0-16.13,42.8-21.78,46.58c0,0,12.47-9.55,13.01-10.14S302.17,56,302.17,56L298.34,53z"/>
			</g>
			<g>
				<path class="st31" d="M209.33,34.39c0,0-10.57,15.38-27.15,25.47c0,0,17.06,49.98,62.71,49.01
					C244.89,108.87,229.51,90.13,209.33,34.39z"/>
				<path class="st19" d="M197.21,48.18c0,0,23.66,56.05,32.05,57.91h2.65c0,0-28.12-55.45-30.46-62.2L197.21,48.18z"/>
				<path class="st19" d="M191.76,53c0,0,16.13,42.8,21.78,46.58c0,0-12.47-9.55-13.01-10.14S187.92,56,187.92,56L191.76,53z"/>
			</g>
		</g>
	</g>
</g>
<g>
	<g>
		<path class="st57" d="M184.52,214.44l-10.1,5.35c-0.11,0.02-0.21,0.03-0.32,0.05c-7.13,0.98-4.02,0.68-7.78,1.79
			c-3.75,1.11-17.45,1.72-17.45,1.72l1.58,9.14l-0.36,0.19l-0.04,7.95l2.17,2.08l37.37-6.35l-2.99-19.57L184.52,214.44z"/>
		<g>
			<path class="st71" d="M146.71,221.28c0,0,14.03-0.57,17.87-1.72c3.84-1.15,0.66-0.85,7.96-1.85c6.02-0.82,10.81-2.44,12.3-2.98
				c0.25-0.09,0.53,0.12,0.58,0.45l3.08,20.05L151,241.61c-0.42,0.07-0.83-0.29-0.92-0.8L146.71,221.28z"/>
			<path class="st57" d="M188.91,235.6l-37.83,6.43c-0.61,0.1-1.21-0.42-1.34-1.16l-3.45-20l0.39-0.02
				c0.14-0.01,14.04-0.58,17.8-1.71c1.26-0.38,1.75-0.59,2.11-0.75c0.77-0.34,0.98-0.43,5.89-1.1c6.05-0.83,10.9-2.48,12.24-2.96
				c0.22-0.08,0.46-0.04,0.66,0.12c0.2,0.16,0.34,0.41,0.39,0.69L188.91,235.6z M147.14,221.69l3.29,19.06
				c0.05,0.28,0.27,0.47,0.5,0.44l37.15-6.31l-3.01-19.64c-0.01-0.04-0.03-0.06-0.04-0.07c-0.01-0.01-0.04-0.02-0.07-0.01
				c-1.35,0.49-6.25,2.16-12.36,2.99c-4.83,0.66-5.02,0.74-5.74,1.06c-0.37,0.17-0.89,0.39-2.18,0.78
				C161.17,221.03,149.48,221.59,147.14,221.69z"/>
		</g>
	</g>
	<g>
		<g>
			<path class="st19" d="M155.98,229.25c-0.08,0.01-0.15,0.01-0.23-0.01c-0.08-0.02-0.13-0.07-0.16-0.15
				c-0.08-0.22-0.15-0.45-0.21-0.67c-0.05-0.23-0.1-0.46-0.14-0.69c-0.05-0.28-0.09-0.56-0.12-0.84c-0.02-0.14-0.04-0.28-0.06-0.41
				c-0.02-0.14-0.04-0.27-0.07-0.41l-0.13-0.74c0-0.02,0-0.04,0-0.07c0-0.03,0.01-0.06,0.02-0.09c0.01-0.03,0.02-0.06,0.04-0.08
				c0.02-0.02,0.04-0.04,0.06-0.04l0.55-0.09c0.03-0.01,0.06,0,0.08,0.01l0.05,0.03l0.03,0.03c0.03,0.03,0.05,0.07,0.06,0.11
				l0.49,2.88c0.01,0.06,0.04,0.09,0.09,0.1c0.05,0.01,0.1,0.01,0.15,0.01l0.08-0.02l1.01-0.39c0-0.01,0.02-0.01,0.04-0.01l0.03,0
				c0.07-0.01,0.13,0,0.18,0.03c0.05,0.03,0.08,0.07,0.11,0.12c0.03,0.05,0.05,0.1,0.07,0.16c0.01,0.06,0.03,0.12,0.03,0.16
				l0.02,0.12c0,0.05,0,0.1-0.02,0.13c-0.02,0.03-0.05,0.06-0.09,0.08l-0.03,0.01c-0.05,0.02-0.11,0.05-0.17,0.07
				c-0.06,0.03-0.13,0.06-0.2,0.09c-0.12,0.05-0.25,0.11-0.39,0.17c-0.14,0.06-0.27,0.12-0.41,0.17c-0.14,0.05-0.27,0.1-0.4,0.14
				C156.21,229.2,156.09,229.23,155.98,229.25z"/>
			<path class="st19" d="M160.38,224.02c0.05-0.01,0.1,0,0.14,0.03c0.04,0.03,0.07,0.07,0.09,0.11c0.17,0.46,0.34,0.91,0.52,1.36
				c0.17,0.45,0.35,0.9,0.54,1.35c0.07,0.17,0.13,0.32,0.18,0.46c0.06,0.14,0.09,0.23,0.11,0.26c0.04,0.09,0.06,0.16,0.08,0.2
				c0.01,0.04,0.02,0.1,0.04,0.18c0.01,0.06,0,0.12-0.03,0.17c-0.03,0.05-0.08,0.09-0.13,0.12c-0.05,0.03-0.11,0.06-0.18,0.08
				c-0.06,0.02-0.12,0.03-0.17,0.04c-0.1,0.02-0.19-0.03-0.27-0.13c-0.08-0.1-0.16-0.22-0.24-0.36c-0.05-0.09-0.1-0.17-0.15-0.25
				c-0.06-0.08-0.12-0.15-0.18-0.2c-0.07-0.06-0.14-0.1-0.22-0.12c-0.08-0.03-0.17-0.03-0.28-0.01c-0.11,0.02-0.21,0.05-0.28,0.11
				c-0.07,0.05-0.13,0.11-0.18,0.19c-0.05,0.07-0.09,0.16-0.11,0.25c-0.03,0.1-0.05,0.19-0.07,0.29c-0.02,0.09-0.04,0.17-0.06,0.25
				c-0.02,0.08-0.04,0.15-0.07,0.21c-0.03,0.06-0.06,0.11-0.11,0.15c-0.04,0.04-0.09,0.07-0.16,0.08l-0.05,0.01l-0.02,0l-0.05,0.01
				l-0.02,0c-0.09,0.01-0.17,0.02-0.26,0.01c-0.09-0.01-0.14-0.05-0.15-0.12l-0.05-0.3c0,0,0-0.04,0.02-0.11
				c0.01-0.07,0.02-0.16,0.04-0.27c0.02-0.11,0.04-0.24,0.06-0.38c0.02-0.14,0.05-0.28,0.07-0.42c0.02-0.14,0.05-0.28,0.07-0.41
				c0.02-0.13,0.04-0.24,0.06-0.33c0.06-0.33,0.13-0.67,0.21-1c0.08-0.33,0.16-0.66,0.24-0.99c0.01-0.02,0.02-0.06,0.03-0.12
				c0.02-0.06,0.03-0.1,0.04-0.14c0.02-0.06,0.06-0.1,0.11-0.11L160.38,224.02z"/>
			<path class="st19" d="M165.61,227.2c-0.07,0.01-0.14,0.04-0.21,0.09c-0.07,0.05-0.14,0.1-0.21,0.15
				c-0.09,0.07-0.18,0.13-0.27,0.18c-0.09,0.06-0.19,0.1-0.3,0.11c-0.26,0.04-0.49,0.02-0.7-0.06c-0.21-0.08-0.39-0.21-0.55-0.37
				c-0.16-0.16-0.28-0.35-0.39-0.57c-0.1-0.22-0.17-0.44-0.21-0.66c-0.06-0.34-0.06-0.68,0-1.03c0.05-0.35,0.16-0.67,0.32-0.96
				c0.16-0.29,0.38-0.55,0.64-0.76c0.27-0.21,0.59-0.35,0.95-0.41c0.06-0.01,0.12,0,0.18,0.04s0.1,0.09,0.11,0.15
				c0.01,0.08,0.02,0.17,0.03,0.27c0.01,0.1,0,0.19-0.03,0.27c-0.01,0.03-0.03,0.05-0.06,0.08c-0.03,0.02-0.06,0.04-0.1,0.06
				c-0.04,0.02-0.07,0.03-0.11,0.04c-0.04,0.01-0.08,0.02-0.11,0.03c-0.2,0.06-0.37,0.16-0.5,0.31c-0.13,0.15-0.24,0.32-0.31,0.51
				c-0.07,0.19-0.12,0.4-0.14,0.61c-0.02,0.21-0.01,0.41,0.02,0.6c0.02,0.1,0.04,0.21,0.08,0.33c0.04,0.12,0.09,0.24,0.16,0.34
				c0.07,0.1,0.15,0.19,0.24,0.25c0.09,0.06,0.21,0.08,0.34,0.06c0.04-0.01,0.08-0.01,0.1-0.02c0.03-0.01,0.06-0.03,0.09-0.05
				c0.04-0.05,0.09-0.12,0.15-0.2c0.06-0.08,0.11-0.17,0.16-0.26c0.05-0.09,0.09-0.18,0.12-0.28c0.03-0.09,0.04-0.18,0.03-0.26
				c-0.01-0.01-0.01-0.03-0.02-0.05c-0.01-0.02-0.01-0.03,0-0.03l-0.49,0.08c-0.04,0.01-0.08-0.01-0.13-0.05
				c-0.05-0.04-0.09-0.08-0.14-0.14c-0.04-0.06-0.08-0.11-0.11-0.16c-0.03-0.05-0.05-0.09-0.05-0.11c-0.01-0.08,0.02-0.15,0.1-0.23
				c0.08-0.08,0.18-0.15,0.31-0.22c0.13-0.07,0.27-0.13,0.43-0.19c0.16-0.06,0.32-0.11,0.47-0.16c0.15-0.04,0.29-0.08,0.41-0.11
				c0.12-0.03,0.21-0.05,0.26-0.06c0.07-0.01,0.13,0,0.17,0.03c0.04,0.03,0.08,0.07,0.11,0.12c0.03,0.05,0.05,0.11,0.07,0.17
				c0.01,0.06,0.03,0.12,0.03,0.16l0.01,0.12c0,0.02,0,0.05,0,0.07c0,0.02-0.01,0.05-0.03,0.07c-0.02,0.03-0.04,0.05-0.06,0.06
				c-0.02,0.02-0.04,0.03-0.07,0.05c-0.03,0.02-0.06,0.05-0.08,0.07c-0.02,0.02-0.05,0.05-0.06,0.08l0.08,0.5
				c0.02,0.13,0.05,0.26,0.08,0.39c0.03,0.13,0.07,0.25,0.1,0.38c0.04,0.13,0.07,0.26,0.1,0.38c0.03,0.13,0.06,0.26,0.08,0.39
				c0.01,0.08,0.01,0.15-0.02,0.2c-0.03,0.06-0.06,0.1-0.11,0.13c-0.05,0.03-0.11,0.06-0.18,0.07c-0.07,0.02-0.13,0.03-0.2,0.04
				c-0.07,0.01-0.12,0.01-0.17-0.01s-0.08-0.05-0.11-0.09c-0.03-0.04-0.05-0.08-0.07-0.13s-0.03-0.11-0.05-0.16
				c-0.02-0.08-0.05-0.15-0.07-0.21C165.72,227.22,165.67,227.19,165.61,227.2z"/>
			<path class="st19" d="M167.41,225.23c-0.02-0.12-0.03-0.26-0.03-0.42c0-0.16,0.01-0.33,0.03-0.5c0.02-0.17,0.06-0.34,0.11-0.51
				c0.05-0.17,0.12-0.33,0.2-0.47c0.08-0.14,0.18-0.26,0.29-0.36c0.12-0.1,0.25-0.16,0.4-0.18c0.24-0.04,0.47-0.03,0.7,0.02
				c0.23,0.06,0.44,0.15,0.62,0.28c0.18,0.13,0.34,0.29,0.47,0.49c0.13,0.19,0.21,0.41,0.25,0.65c0.04,0.24,0.04,0.5,0.01,0.77
				c-0.04,0.27-0.11,0.52-0.22,0.75c-0.11,0.23-0.27,0.43-0.46,0.6c-0.19,0.17-0.43,0.27-0.7,0.32c-0.22,0.04-0.43,0.02-0.62-0.05
				c-0.19-0.07-0.36-0.17-0.5-0.32c-0.14-0.14-0.26-0.3-0.36-0.49C167.5,225.63,167.44,225.43,167.41,225.23z"/>
			<path class="st19" d="M171.32,224.57c-0.02-0.12-0.03-0.26-0.03-0.42c0-0.16,0.01-0.33,0.03-0.5c0.02-0.17,0.06-0.34,0.11-0.51
				c0.05-0.17,0.12-0.33,0.2-0.47c0.08-0.14,0.18-0.26,0.29-0.36c0.12-0.1,0.25-0.16,0.4-0.18c0.24-0.04,0.47-0.03,0.7,0.02
				c0.23,0.06,0.44,0.15,0.62,0.28c0.18,0.13,0.34,0.29,0.47,0.49c0.13,0.19,0.21,0.41,0.25,0.65c0.04,0.24,0.04,0.5,0.01,0.77
				c-0.04,0.27-0.11,0.52-0.22,0.75c-0.11,0.23-0.27,0.43-0.46,0.6c-0.19,0.17-0.43,0.27-0.7,0.32c-0.22,0.04-0.43,0.02-0.62-0.05
				c-0.19-0.07-0.36-0.17-0.5-0.32c-0.14-0.14-0.26-0.3-0.36-0.49C171.42,224.96,171.35,224.77,171.32,224.57z"/>
			<path class="st19" d="M178.91,225.68c-0.06,0.01-0.13,0-0.19-0.03c-0.06-0.03-0.12-0.07-0.16-0.12
				c-0.05-0.06-0.13-0.15-0.23-0.27c-0.1-0.12-0.22-0.26-0.35-0.41c-0.13-0.15-0.27-0.31-0.41-0.47c-0.14-0.17-0.28-0.32-0.41-0.47
				c-0.13-0.15-0.25-0.28-0.35-0.4c-0.1-0.12-0.18-0.2-0.22-0.26c-0.01-0.01-0.02-0.02-0.03-0.04c-0.01-0.01-0.02-0.03-0.03-0.04
				c-0.04-0.06-0.08-0.12-0.14-0.18c-0.05-0.06-0.11-0.09-0.18-0.08c-0.06,0.01-0.08,0.04-0.08,0.09l0.01,0.02
				c0.01,0.02,0.01,0.03,0.02,0.05c0,0.02,0,0.03,0.01,0.04c0.03,0.16,0.06,0.34,0.08,0.54c0.03,0.2,0.06,0.4,0.09,0.61
				c0.03,0.21,0.06,0.42,0.08,0.62c0.03,0.2,0.05,0.4,0.06,0.57c0.01,0.06-0.01,0.11-0.03,0.14s-0.06,0.07-0.11,0.09
				c-0.04,0.02-0.09,0.04-0.14,0.06c-0.05,0.01-0.1,0.02-0.14,0.03l-0.16,0.03c-0.06,0.01-0.11,0.01-0.15-0.01
				c-0.04-0.01-0.07-0.06-0.08-0.13l-0.21-1.24c-0.04-0.22-0.07-0.42-0.1-0.6c-0.03-0.18-0.06-0.37-0.08-0.55
				c-0.02-0.18-0.05-0.37-0.07-0.57c-0.02-0.2-0.04-0.42-0.06-0.66c0-0.02,0-0.04,0-0.06c0.01-0.06,0.04-0.12,0.08-0.16
				c0.04-0.04,0.09-0.08,0.15-0.11c0.06-0.03,0.12-0.06,0.19-0.07c0.07-0.02,0.14-0.03,0.2-0.05c0.04-0.01,0.07-0.01,0.1-0.01
				c0.03,0,0.06-0.01,0.09-0.01l0.13-0.02c0.13-0.02,0.22-0.01,0.27,0.02c0.05,0.04,0.11,0.1,0.19,0.19l0.04,0.04
				c0.02,0.02,0.05,0.07,0.11,0.13c0.06,0.07,0.12,0.15,0.19,0.23c0.23,0.29,0.46,0.58,0.7,0.86c0.24,0.28,0.48,0.57,0.72,0.85
				l0.02,0.02c0.02,0.03,0.05,0.06,0.08,0.08c0.03,0.03,0.06,0.03,0.1,0.03c0.03-0.01,0.05-0.04,0.05-0.11c0-0.07,0-0.16-0.01-0.27
				c-0.01-0.11-0.02-0.24-0.04-0.39c-0.02-0.15-0.04-0.3-0.07-0.46c-0.04-0.24-0.08-0.48-0.11-0.73c-0.03-0.24-0.05-0.47-0.06-0.68
				c0-0.21,0.02-0.38,0.06-0.51c0.04-0.14,0.12-0.22,0.23-0.23c0.05-0.01,0.11-0.02,0.17-0.03c0.06-0.01,0.13-0.01,0.18,0
				c0.06,0.01,0.11,0.03,0.16,0.06c0.05,0.03,0.07,0.09,0.09,0.16l0.01,0.05c0,0.02,0.01,0.07,0.01,0.14
				c0.01,0.07,0.01,0.15,0.02,0.24c0.02,0.22,0.04,0.43,0.06,0.64c0.02,0.21,0.04,0.43,0.07,0.65c0.01,0.1,0.02,0.19,0.03,0.28
				c0.01,0.09,0.02,0.18,0.03,0.26c0.01,0.08,0.02,0.15,0.02,0.21c0,0.06,0.01,0.1,0.01,0.12c0,0.05,0.01,0.11,0.02,0.18
				c0.01,0.06,0.02,0.13,0.03,0.19l0.04,0.21c0.03,0.18,0.05,0.36,0.07,0.54c0.02,0.18,0.01,0.36-0.02,0.51
				c-0.03,0.16-0.1,0.29-0.19,0.41C179.27,225.57,179.12,225.65,178.91,225.68z"/>
			<path class="st19" d="M161.21,234.32c-0.02,0-0.05-0.01-0.07-0.05c-0.03-0.04-0.04-0.06-0.05-0.09c-0.04-0.14-0.08-0.27-0.1-0.42
				c-0.03-0.14-0.05-0.28-0.08-0.43l-0.07-0.42c-0.03-0.19-0.06-0.36-0.09-0.51c-0.03-0.15-0.05-0.3-0.07-0.45
				c-0.02-0.15-0.05-0.3-0.07-0.46c-0.02-0.16-0.04-0.33-0.07-0.53c-0.01-0.07,0.02-0.13,0.08-0.18c0.06-0.05,0.14-0.09,0.23-0.13
				c0.09-0.04,0.18-0.06,0.27-0.08c0.09-0.02,0.16-0.03,0.21-0.04c0.34-0.06,0.67-0.1,1-0.14c0.08-0.01,0.13,0.02,0.17,0.07
				c0.04,0.05,0.06,0.11,0.07,0.17c0.02,0.11,0.01,0.22-0.04,0.33c-0.04,0.1-0.1,0.2-0.18,0.29c-0.08,0.09-0.17,0.17-0.27,0.25
				c-0.1,0.08-0.2,0.15-0.29,0.22c-0.04,0.03-0.08,0.06-0.12,0.09c-0.04,0.03-0.08,0.06-0.11,0.09l-0.01,0
				c-0.02,0.01-0.03,0.02-0.03,0.03c0,0.01,0,0.02,0,0.04l0,0.02c0.01,0.01,0.01,0.02,0.02,0.03c0.01,0.01,0.01,0.02,0.02,0.02
				l0.03-0.01c0.1-0.03,0.2-0.06,0.29-0.09c0.1-0.03,0.2-0.05,0.3-0.06c0.08-0.01,0.16-0.02,0.23-0.02c0.07,0,0.14,0.01,0.21,0.02
				c0.06,0.02,0.11,0.05,0.16,0.09c0.04,0.04,0.07,0.1,0.08,0.18c0,0.03,0.01,0.06,0.01,0.09c0,0.04,0,0.07,0,0.11
				c0,0.04-0.02,0.07-0.03,0.1c-0.02,0.03-0.05,0.05-0.09,0.06l-1.11,0.26c-0.01,0-0.03,0.01-0.05,0.04
				c-0.02,0.02-0.03,0.04-0.03,0.06l0.2,1.2c0.01,0.05,0,0.09-0.03,0.12c-0.03,0.03-0.07,0.06-0.11,0.06L161.21,234.32z"/>
			<path class="st19" d="M163.98,233.96c-0.04,0.01-0.07,0-0.11-0.03c-0.03-0.03-0.05-0.06-0.05-0.09
				c-0.01-0.04-0.01-0.08-0.02-0.13c-0.01-0.05-0.02-0.1-0.03-0.15c-0.01-0.05-0.02-0.1-0.03-0.14c-0.01-0.04-0.01-0.08-0.02-0.09
				c-0.02-0.1-0.04-0.25-0.07-0.44c-0.03-0.19-0.06-0.41-0.09-0.64c-0.03-0.23-0.06-0.47-0.08-0.72c-0.02-0.25-0.04-0.48-0.04-0.69
				c0-0.21,0.01-0.39,0.04-0.53c0.03-0.14,0.08-0.23,0.15-0.25l0.43-0.08c0.15-0.02,0.3-0.04,0.47-0.05
				c0.17-0.01,0.33,0.01,0.48,0.04c0.15,0.04,0.29,0.11,0.4,0.21c0.11,0.1,0.19,0.25,0.22,0.44c0.02,0.13,0.02,0.25-0.01,0.37
				c-0.03,0.12-0.07,0.23-0.12,0.34c-0.05,0.11-0.11,0.21-0.18,0.3c-0.07,0.09-0.13,0.18-0.19,0.26c-0.06,0.08-0.11,0.15-0.15,0.21
				c-0.04,0.06-0.06,0.1-0.05,0.14c0.01,0.03,0.03,0.06,0.06,0.09c0.04,0.02,0.08,0.05,0.14,0.07c0.06,0.02,0.12,0.04,0.19,0.06
				c0.07,0.02,0.14,0.03,0.22,0.05c0.09,0.02,0.18,0.04,0.27,0.06c0.09,0.02,0.17,0.05,0.25,0.08c0.07,0.03,0.14,0.06,0.19,0.11
				c0.05,0.04,0.08,0.09,0.09,0.15c0.01,0.04,0.01,0.08,0,0.13c-0.01,0.05-0.02,0.1-0.04,0.15s-0.05,0.09-0.08,0.13
				c-0.03,0.04-0.07,0.06-0.12,0.07l-0.05,0c-0.02,0-0.07-0.01-0.14-0.03c-0.07-0.02-0.16-0.04-0.27-0.07
				c-0.1-0.03-0.21-0.06-0.33-0.1c-0.12-0.04-0.23-0.07-0.34-0.11c-0.11-0.04-0.2-0.07-0.28-0.1c-0.08-0.03-0.14-0.05-0.17-0.06
				l-0.06,0c-0.02,0.01-0.05,0.02-0.08,0.04c-0.03,0.02-0.04,0.04-0.04,0.07l0.11,0.65c0.01,0.04,0,0.07-0.02,0.1l-0.01,0.03
				c0,0-0.01,0.01-0.01,0.01c0,0-0.01,0.01-0.01,0.02l-0.02,0.03c-0.02,0.04-0.05,0.06-0.09,0.07L163.98,233.96z"/>
			<path class="st19" d="M166.62,231.65c-0.02-0.1-0.03-0.21-0.03-0.33c0-0.13,0.01-0.26,0.02-0.39c0.02-0.14,0.05-0.27,0.09-0.41
				c0.04-0.14,0.09-0.26,0.15-0.37c0.06-0.11,0.14-0.21,0.23-0.28s0.2-0.12,0.32-0.15c0.19-0.03,0.38-0.03,0.56,0.02
				c0.18,0.04,0.35,0.12,0.49,0.22c0.15,0.1,0.27,0.23,0.37,0.39c0.1,0.15,0.17,0.33,0.2,0.51c0.03,0.19,0.03,0.4,0.01,0.61
				c-0.03,0.21-0.09,0.41-0.18,0.59c-0.09,0.18-0.21,0.34-0.36,0.47c-0.15,0.13-0.34,0.22-0.56,0.25c-0.18,0.03-0.34,0.02-0.49-0.04
				c-0.15-0.06-0.28-0.14-0.4-0.25c-0.11-0.11-0.21-0.24-0.28-0.39C166.7,231.96,166.65,231.81,166.62,231.65z"/>
			<path class="st19" d="M172.63,232.53c-0.05,0.01-0.1,0-0.15-0.02c-0.05-0.02-0.09-0.06-0.13-0.09c-0.04-0.05-0.1-0.12-0.19-0.22
				c-0.08-0.1-0.17-0.2-0.28-0.32c-0.1-0.12-0.21-0.24-0.32-0.38c-0.11-0.13-0.22-0.26-0.32-0.38c-0.1-0.12-0.19-0.22-0.27-0.32
				c-0.08-0.09-0.14-0.16-0.18-0.21c-0.01-0.01-0.02-0.02-0.02-0.03c-0.01-0.01-0.02-0.02-0.03-0.03c-0.03-0.05-0.07-0.09-0.11-0.14
				c-0.04-0.05-0.09-0.07-0.14-0.06c-0.05,0.01-0.07,0.03-0.06,0.07l0.01,0.02c0.01,0.01,0.01,0.03,0.01,0.04c0,0.01,0,0.02,0,0.03
				c0.02,0.13,0.04,0.27,0.07,0.43s0.05,0.32,0.07,0.48c0.02,0.17,0.04,0.33,0.06,0.49c0.02,0.16,0.04,0.31,0.05,0.45
				c0,0.05,0,0.09-0.02,0.11c-0.02,0.03-0.05,0.05-0.08,0.07c-0.04,0.02-0.07,0.03-0.11,0.04c-0.04,0.01-0.08,0.02-0.11,0.02
				l-0.12,0.02c-0.05,0.01-0.09,0.01-0.12,0c-0.03-0.01-0.05-0.04-0.06-0.1l-0.17-0.98c-0.03-0.17-0.06-0.33-0.08-0.48
				c-0.02-0.15-0.05-0.29-0.07-0.44c-0.02-0.15-0.04-0.3-0.05-0.45c-0.02-0.15-0.03-0.33-0.05-0.52c0-0.01,0-0.03,0-0.04
				c0.01-0.05,0.03-0.09,0.06-0.13c0.03-0.03,0.07-0.06,0.12-0.09c0.05-0.02,0.1-0.04,0.15-0.06c0.05-0.01,0.11-0.03,0.16-0.04
				c0.03,0,0.05-0.01,0.08-0.01c0.02,0,0.05-0.01,0.07-0.01l0.1-0.02c0.1-0.02,0.17-0.01,0.21,0.02c0.04,0.03,0.09,0.08,0.15,0.15
				l0.03,0.03c0.01,0.02,0.04,0.05,0.09,0.11c0.04,0.06,0.09,0.12,0.15,0.18c0.18,0.23,0.37,0.46,0.55,0.68
				c0.19,0.22,0.38,0.45,0.57,0.67l0.02,0.02c0.02,0.02,0.04,0.04,0.06,0.06c0.02,0.02,0.05,0.03,0.08,0.02
				c0.02,0,0.04-0.03,0.04-0.09c0-0.05,0-0.13-0.01-0.21c-0.01-0.09-0.02-0.19-0.04-0.31c-0.02-0.11-0.03-0.24-0.06-0.37
				c-0.03-0.19-0.06-0.38-0.09-0.57c-0.03-0.19-0.04-0.37-0.04-0.54c0-0.16,0.01-0.3,0.05-0.41c0.03-0.11,0.09-0.17,0.18-0.19
				c0.04-0.01,0.08-0.01,0.13-0.02c0.05-0.01,0.1-0.01,0.15,0c0.05,0.01,0.09,0.02,0.12,0.05c0.04,0.03,0.06,0.07,0.07,0.13
				l0.01,0.04c0,0.02,0.01,0.05,0.01,0.11c0,0.06,0.01,0.12,0.01,0.19c0.01,0.17,0.03,0.34,0.04,0.51c0.02,0.17,0.03,0.34,0.06,0.51
				c0.01,0.08,0.02,0.15,0.02,0.22c0.01,0.07,0.01,0.14,0.02,0.21c0.01,0.06,0.01,0.12,0.02,0.17c0,0.05,0.01,0.08,0.01,0.09
				c0,0.04,0.01,0.09,0.02,0.14c0.01,0.05,0.01,0.1,0.02,0.15l0.03,0.17c0.02,0.14,0.04,0.28,0.06,0.43
				c0.02,0.15,0.01,0.28-0.01,0.41c-0.02,0.13-0.08,0.23-0.15,0.32S172.79,232.5,172.63,232.53z"/>
			<path class="st19" d="M173.63,228.7c0.05-0.01,0.13-0.03,0.23-0.05c0.11-0.02,0.23-0.05,0.36-0.08c0.13-0.03,0.28-0.06,0.42-0.09
				c0.15-0.03,0.29-0.06,0.42-0.09c0.13-0.03,0.25-0.06,0.36-0.08c0.11-0.02,0.19-0.04,0.24-0.05l0.04-0.01
				c0.05-0.01,0.1,0,0.13,0.02c0.04,0.02,0.07,0.05,0.09,0.08c0.02,0.03,0.04,0.07,0.05,0.12c0.01,0.04,0.02,0.08,0.03,0.12
				l0.02,0.15c0.01,0.04,0,0.08-0.02,0.11c-0.02,0.03-0.05,0.05-0.08,0.07c-0.03,0.02-0.07,0.03-0.11,0.04
				c-0.04,0.01-0.08,0.02-0.11,0.02l-0.14,0.02c-0.03,0-0.05,0-0.07,0.01c-0.02,0-0.05,0.01-0.07,0.01
				c-0.05,0.01-0.1,0.02-0.14,0.03c-0.04,0.01-0.08,0.03-0.11,0.05c-0.03,0.02-0.05,0.05-0.07,0.09c-0.01,0.04-0.02,0.08-0.01,0.13
				l0.39,2.31c0.01,0.03,0,0.06-0.03,0.08c-0.03,0.02-0.06,0.04-0.09,0.06c-0.04,0.02-0.07,0.03-0.11,0.04
				c-0.04,0.01-0.07,0.01-0.09,0.02l-0.03,0.01c-0.01,0-0.02,0.01-0.05,0.01c-0.02,0-0.05,0.01-0.08,0.01c-0.03,0-0.06,0-0.09,0
				c-0.03,0-0.05-0.01-0.07-0.03c-0.02-0.01-0.03-0.04-0.04-0.07l-0.4-2.38c0-0.01-0.01-0.01-0.03-0.02
				c-0.02-0.01-0.04-0.01-0.06-0.02c-0.02,0-0.04-0.01-0.06-0.01c-0.02,0-0.03,0-0.04,0l-0.59,0.1c-0.03,0.01-0.06,0-0.09-0.01
				l-0.01,0c-0.02,0-0.04-0.01-0.06-0.03c-0.02-0.01-0.03-0.03-0.03-0.05l-0.06-0.36c-0.01-0.03,0-0.06,0.01-0.09
				c0.02-0.03,0.04-0.05,0.06-0.07c0.03-0.02,0.05-0.04,0.08-0.05S173.61,228.71,173.63,228.7z"/>
		</g>
		<path class="st19" d="M156.93,232.11l-1.9,0.32c-0.18,0.03-0.3,0.2-0.27,0.38c0.03,0.18,0.2,0.3,0.38,0.27l1.9-0.32
			c0.18-0.03,0.3-0.2,0.27-0.38C157.28,232.2,157.11,232.08,156.93,232.11z"/>
		<path class="st19" d="M181.32,227.55l-1.9,0.32c-0.18,0.03-0.3,0.2-0.27,0.38c0.03,0.18,0.2,0.3,0.38,0.27l1.9-0.32
			c0.18-0.03,0.3-0.2,0.27-0.38C181.67,227.64,181.5,227.52,181.32,227.55z"/>
	</g>
</g>
<g>
	<g>
		<g>
			<path class="st19" d="M295.96,192.95l-1.57-0.61l-0.5,0.61l-0.73-0.29l2.64-3.17l1.04,0.41l-0.19,4.13l-0.72-0.28L295.96,192.95z
				 M296,192.38l0.11-2.14l-1.36,1.66L296,192.38z"/>
			<path class="st19" d="M299.42,190.66l-0.29,1.57l0.34,0.06l1.57-1.33l0.91,0.17l-1.9,1.58l1.35,2.3l-0.94-0.17l-1.1-1.93
				l-0.35-0.06l-0.31,1.67l-0.73-0.14l0.71-3.85L299.42,190.66z"/>
			<path class="st19" d="M304.36,191.13c0.71,0,1.17,0.11,1.38,0.35c0.21,0.23,0.31,0.76,0.32,1.58c0.01,0.9-0.09,1.46-0.3,1.7
				c-0.2,0.23-0.7,0.35-1.49,0.36c-0.71,0-1.17-0.11-1.38-0.34c-0.21-0.23-0.32-0.74-0.32-1.52c-0.01-0.93,0.09-1.52,0.3-1.76
				C303.06,191.26,303.56,191.14,304.36,191.13z M304.31,191.77c-0.5,0-0.79,0.07-0.87,0.2c-0.08,0.13-0.12,0.57-0.12,1.33
				c0,0.56,0.05,0.9,0.15,1.01c0.1,0.11,0.39,0.17,0.87,0.17c0.46,0,0.74-0.07,0.83-0.2c0.09-0.13,0.13-0.52,0.13-1.17
				c0-0.66-0.05-1.04-0.14-1.16C305.08,191.82,304.79,191.77,304.31,191.77z"/>
			<path class="st19" d="M307.58,190.91l0.31,1.56l0.34-0.07l0.97-1.82l0.91-0.18l-1.18,2.17l2.1,1.64l-0.93,0.18l-1.73-1.39
				l-0.35,0.07l0.33,1.66l-0.73,0.14l-0.75-3.84L307.58,190.91z"/>
			<path class="st19" d="M314.23,192.22l-1.57,0.63l0.06,0.79l-0.73,0.29l-0.26-4.12l1.03-0.42l2.69,3.14l-0.72,0.29L314.23,192.22z
				 M313.87,191.78l-1.39-1.64l0.15,2.14L313.87,191.78z"/>
		</g>
	</g>
	<g>
		<g>
			<path class="st19" d="M282.8,184.5l-0.57-0.75l2.62-2.01c0.55-0.42,0.99-0.59,1.33-0.52s0.76,0.44,1.26,1.09
				c0.53,0.69,0.79,1.2,0.79,1.55c0,0.34-0.27,0.72-0.81,1.13l-2.67,2.05l-0.57-0.75l2.67-2.05c0.29-0.22,0.44-0.42,0.43-0.58
				c0-0.16-0.15-0.44-0.45-0.82c-0.3-0.39-0.53-0.61-0.69-0.65c-0.16-0.04-0.39,0.06-0.7,0.29L282.8,184.5z"/>
			<path class="st19" d="M279.43,178.06l4.54-2.03l0.65,1.46l-1.91,2.41c-0.1,0.12-0.27,0.32-0.52,0.59l-0.26,0.29l-0.26,0.29
				l0.01,0.03l0.29-0.15l0.29-0.14l0.59-0.27l2.6-1.16l0.38,0.86l-4.54,2.03l-0.65-1.46l1.77-2.21c0.16-0.2,0.35-0.43,0.58-0.69
				l0.29-0.34l0.3-0.34l-0.01-0.03l-0.29,0.14l-0.29,0.14l-0.58,0.27l-2.61,1.17L279.43,178.06z"/>
			<path class="st19" d="M278.83,175.63l4.81-1.24l0.24,0.91l-4.81,1.24L278.83,175.63z"/>
			<path class="st19" d="M278.12,171l-0.11-0.99l5.11,1.07l0.15,1.44l-4.78,2.1l-0.1-0.97l2.7-1.22c0.26-0.12,0.69-0.29,1.31-0.53
				l0-0.03l-0.35-0.06c-0.43-0.07-0.78-0.13-1.04-0.19L278.12,171z"/>
			<path class="st19" d="M278.94,168.08l1.28,0.11l0.2-2.32l0.69,0.06l-0.2,2.32l1.4,0.12l0.21-2.47l0.79,0.07l-0.29,3.41
				l-4.95-0.43l0.29-3.39l0.79,0.07L278.94,168.08z"/>
			<path class="st19" d="M283.38,165.49l-4.77-1.4l0.69-2.35c0.17-0.58,0.39-0.96,0.66-1.12c0.27-0.16,0.67-0.16,1.2-0.01
				c0.48,0.14,0.8,0.29,0.94,0.46c0.14,0.16,0.2,0.43,0.17,0.79l0.03,0.01c0.19-0.52,0.57-0.69,1.16-0.52l1.05,0.31l-0.27,0.91
				l-0.87-0.26c-0.49-0.14-0.81,0.03-0.95,0.51l-0.38,1.3l1.61,0.47L283.38,165.49z M281.27,163.89l0.38-1.3
				c0.09-0.31,0.1-0.53,0.02-0.67c-0.08-0.13-0.29-0.25-0.62-0.35c-0.34-0.1-0.57-0.12-0.7-0.06c-0.12,0.06-0.23,0.24-0.32,0.53
				l-0.4,1.36L281.27,163.89z"/>
			<path class="st19" d="M283.39,156.22l-0.44,0.81c-0.04-0.02-0.07-0.03-0.09-0.04c-0.26-0.11-0.44-0.14-0.55-0.09
				c-0.11,0.06-0.26,0.25-0.44,0.58c-0.21,0.39-0.31,0.67-0.31,0.83c0.01,0.16,0.13,0.3,0.36,0.43c0.28,0.15,0.47,0.19,0.58,0.12
				c0.11-0.07,0.33-0.37,0.65-0.91c0.39-0.63,0.71-1,0.96-1.11c0.25-0.11,0.62-0.04,1.09,0.22c0.58,0.31,0.9,0.63,0.95,0.94
				c0.05,0.32-0.13,0.86-0.54,1.62c-0.37,0.69-0.7,1.1-0.99,1.24c-0.29,0.14-0.69,0.07-1.2-0.21l-0.16-0.08l0.44-0.81l0.09,0.05
				c0.31,0.16,0.52,0.21,0.65,0.14c0.13-0.07,0.32-0.34,0.57-0.82c0.2-0.37,0.29-0.63,0.26-0.78c-0.02-0.15-0.18-0.29-0.47-0.45
				c-0.21-0.11-0.37-0.15-0.48-0.11c-0.11,0.04-0.24,0.19-0.4,0.44l-0.28,0.44c-0.41,0.67-0.75,1.06-1,1.17
				c-0.26,0.11-0.63,0.03-1.13-0.24c-0.51-0.28-0.79-0.57-0.83-0.9c-0.05-0.32,0.12-0.83,0.49-1.53c0.35-0.66,0.67-1.06,0.95-1.2
				c0.28-0.14,0.65-0.09,1.1,0.15L283.39,156.22z"/>
			<path class="st19" d="M283.51,153.65l3.99,2.96l-0.56,0.76l-3.99-2.96L283.51,153.65z"/>
			<path class="st19" d="M286.4,151.65l2.96,2.88l-0.66,0.68l-2.96-2.88l-1,1.03l-0.61-0.59l2.69-2.77l0.61,0.59L286.4,151.65z"/>
			<path class="st19" d="M291.14,146.85l0.25,3.58l1.09,1.56l-0.77,0.54l-1.09-1.56l-3.23-1.49l0.9-0.63l1.37,0.65
				c0.08,0.04,0.21,0.11,0.4,0.21l0.2,0.1l0.2,0.11l0.02-0.01l-0.03-0.22l-0.03-0.22c-0.03-0.2-0.05-0.35-0.06-0.45l-0.13-1.51
				L291.14,146.85z"/>
			<path class="st19" d="M298.6,144.04c0.88-0.19,1.48-0.17,1.8,0.06c0.32,0.24,0.59,0.86,0.81,1.88c0.25,1.11,0.27,1.84,0.08,2.19
				c-0.19,0.35-0.78,0.63-1.76,0.84c-0.88,0.19-1.48,0.18-1.81-0.05c-0.32-0.23-0.59-0.83-0.8-1.8c-0.26-1.16-0.29-1.91-0.1-2.26
				C297.02,144.54,297.61,144.26,298.6,144.04z M298.7,144.84c-0.62,0.14-0.96,0.3-1.03,0.48c-0.07,0.18,0,0.74,0.21,1.68
				c0.15,0.7,0.31,1.1,0.46,1.22c0.15,0.12,0.53,0.11,1.13-0.02c0.57-0.13,0.9-0.28,0.97-0.47c0.08-0.19,0.03-0.68-0.15-1.49
				c-0.18-0.81-0.34-1.28-0.48-1.41C299.67,144.71,299.3,144.71,298.7,144.84z"/>
			<path class="st19" d="M303.04,144.3l0.03,1.34l2.23-0.05l0.02,0.79l-2.23,0.05l0.05,2.04l-0.94,0.02l-0.12-4.97l3.29-0.08
				l0.02,0.79L303.04,144.3z"/>
			<path class="st19" d="M311.9,145.47l-0.44,1.27l2.11,0.73l-0.26,0.75l-2.11-0.73l-0.67,1.93l-0.89-0.31l1.62-4.7l3.11,1.08
				l-0.26,0.75L311.9,145.47z"/>
			<path class="st19" d="M316.26,146.45l-2.23,4.44l-0.84-0.42l2.23-4.44L316.26,146.45z"/>
			<path class="st19" d="M314.75,151.19l2.87-4.06l2,1.42c0.5,0.35,0.78,0.68,0.85,0.99c0.07,0.31-0.06,0.68-0.38,1.14
				c-0.29,0.41-0.54,0.66-0.74,0.74c-0.2,0.08-0.47,0.05-0.8-0.1l-0.02,0.03c0.43,0.35,0.47,0.77,0.12,1.27l-0.63,0.89l-0.77-0.55
				l0.52-0.74c0.3-0.42,0.24-0.77-0.17-1.06l-1.11-0.79l-0.97,1.37L314.75,151.19z M316.95,149.72l1.11,0.78
				c0.26,0.19,0.47,0.26,0.62,0.23c0.15-0.03,0.33-0.19,0.53-0.47c0.2-0.29,0.3-0.5,0.29-0.64c-0.01-0.14-0.15-0.29-0.4-0.47
				l-1.16-0.82L316.95,149.72z"/>
			<path class="st19" d="M323.52,154.21l-0.63-0.68c0.03-0.03,0.05-0.06,0.07-0.07c0.19-0.21,0.28-0.37,0.26-0.49
				s-0.15-0.32-0.41-0.6c-0.3-0.33-0.53-0.51-0.69-0.56c-0.15-0.04-0.33,0.02-0.52,0.2c-0.23,0.21-0.33,0.38-0.3,0.51
				c0.03,0.12,0.25,0.43,0.65,0.91c0.47,0.57,0.72,0.99,0.74,1.27c0.02,0.27-0.16,0.59-0.56,0.96c-0.48,0.45-0.88,0.65-1.2,0.59
				c-0.32-0.06-0.77-0.4-1.36-1.04c-0.53-0.57-0.82-1.02-0.85-1.33c-0.04-0.32,0.16-0.67,0.58-1.06l0.13-0.13l0.62,0.67l-0.07,0.07
				c-0.25,0.24-0.37,0.43-0.34,0.57c0.03,0.14,0.22,0.41,0.59,0.81c0.29,0.31,0.5,0.48,0.65,0.5c0.15,0.02,0.34-0.07,0.58-0.3
				c0.18-0.16,0.26-0.3,0.26-0.42c0-0.12-0.1-0.29-0.28-0.52l-0.33-0.4c-0.5-0.61-0.76-1.05-0.78-1.33c-0.02-0.28,0.18-0.61,0.59-1
				c0.43-0.39,0.8-0.56,1.12-0.5c0.32,0.06,0.75,0.38,1.29,0.96c0.51,0.55,0.79,0.98,0.83,1.29c0.05,0.31-0.12,0.64-0.5,0.99
				L323.52,154.21z"/>
			<path class="st19" d="M325.81,156.57l-3.5,2.19l-0.5-0.8l3.5-2.19l-0.76-1.22l0.72-0.45l2.05,3.28l-0.72,0.45L325.81,156.57z"/>
			<path class="st19" d="M326.87,166.52l0.17,0.93l-0.17,0.03c-0.68,0.13-1.14,0.08-1.39-0.13c-0.25-0.21-0.45-0.74-0.61-1.59
				c-0.18-0.96-0.13-1.59,0.14-1.87c0.27-0.28,1.1-0.55,2.47-0.8c0.81-0.15,1.37-0.1,1.68,0.16c0.31,0.25,0.55,0.86,0.73,1.82
				c0.13,0.7,0.11,1.18-0.05,1.45c-0.17,0.27-0.56,0.47-1.18,0.58l-0.11,0.02l-0.17-0.93l0.13-0.02c0.32-0.06,0.51-0.16,0.58-0.29
				c0.07-0.14,0.06-0.42-0.02-0.85c-0.11-0.58-0.24-0.91-0.4-1c-0.16-0.09-0.59-0.07-1.29,0.06c-0.94,0.17-1.48,0.33-1.63,0.46
				c-0.15,0.14-0.18,0.49-0.07,1.06c0.09,0.46,0.19,0.75,0.31,0.87c0.12,0.12,0.34,0.15,0.67,0.09L326.87,166.52z"/>
			<path class="st19" d="M330.16,172.48l-4.97-0.15l0.03-0.94l2.15,0.07l0.07-2.33l-2.15-0.07l0.03-0.94l4.97,0.15l-0.03,0.94
				l-2.03-0.06l-0.07,2.33l2.03,0.06L330.16,172.48z"/>
			<path class="st19" d="M329.43,176.17c-0.23,0.87-0.52,1.4-0.87,1.58c-0.36,0.18-1.04,0.13-2.05-0.13
				c-1.1-0.29-1.76-0.59-1.99-0.92c-0.22-0.33-0.21-0.98,0.04-1.95c0.23-0.87,0.51-1.4,0.86-1.59c0.35-0.18,1.01-0.15,1.97,0.1
				c1.15,0.3,1.83,0.61,2.06,0.94C329.7,174.53,329.68,175.19,329.43,176.17z M328.67,175.9c0.16-0.61,0.17-0.99,0.04-1.14
				c-0.13-0.14-0.66-0.34-1.6-0.58c-0.69-0.18-1.12-0.23-1.3-0.14c-0.17,0.08-0.34,0.42-0.49,1.02c-0.15,0.57-0.16,0.93-0.03,1.08
				c0.13,0.15,0.6,0.33,1.4,0.54c0.81,0.21,1.3,0.28,1.47,0.21C328.35,176.82,328.51,176.49,328.67,175.9z"/>
			<path class="st19" d="M327.94,180.26l-4.57-1.97l0.37-0.87l4.57,1.97L327.94,180.26z"/>
			<path class="st19" d="M323,182.58l-0.5,0.81l-0.15-0.09c-0.59-0.36-0.9-0.71-0.94-1.03c-0.04-0.32,0.17-0.85,0.62-1.58
				c0.52-0.83,0.97-1.26,1.36-1.29c0.39-0.02,1.18,0.33,2.36,1.06c0.7,0.43,1.08,0.85,1.14,1.24c0.06,0.4-0.17,1.01-0.68,1.84
				c-0.37,0.6-0.71,0.95-1.02,1.04c-0.31,0.09-0.73-0.03-1.26-0.36l-0.1-0.06l0.5-0.81l0.11,0.07c0.28,0.17,0.49,0.23,0.63,0.17
				c0.14-0.06,0.33-0.27,0.56-0.64c0.31-0.5,0.43-0.83,0.37-1.01c-0.06-0.18-0.39-0.45-0.99-0.82c-0.81-0.5-1.32-0.75-1.52-0.75
				c-0.2,0-0.46,0.24-0.76,0.73c-0.25,0.4-0.37,0.68-0.36,0.85c0.01,0.17,0.15,0.34,0.43,0.52L323,182.58z"/>
			<path class="st19" d="M323.2,186.19l-0.94-0.87l-1.58,1.71l-0.51-0.47l1.58-1.71l-1.03-0.96l-1.69,1.82l-0.58-0.54l2.33-2.51
				l3.65,3.38l-2.31,2.5l-0.58-0.54L323.2,186.19z"/>
		</g>
	</g>
	<g>
		<path class="st31" d="M303.49,185.21h-22.74v-6.55c0-3.22,0.61-5.34,1.87-6.49c1.19-1.09,3.78-1.98,7.93-2.72
			c4.32-0.77,5.21-1.27,5.38-1.41c0.09-0.07,0.56-0.57,0.56-3.01c0-2.28-0.45-2.84-0.58-2.96c-0.15-0.13-0.87-0.55-3.7-0.55
			c-2.92,0-3.65,0.43-3.81,0.56c-0.14,0.12-0.59,0.69-0.59,3.11v2.09h-6.97v-2.07c0-3.79,0.81-6.31,2.47-7.71
			c1.62-1.36,4.53-2.02,8.92-2.02c4.29,0,7.16,0.67,8.79,2.04c1.67,1.41,2.48,3.91,2.48,7.63c0,3.5-0.63,5.83-1.91,7.1
			c-1.24,1.23-3.87,2.21-8.04,2.98c-4.43,0.81-5.18,1.25-5.28,1.33c0,0-0.42,0.38-0.44,2.66h15.67V185.21z M282.57,183.39h19.1
			v-2.33h-15.67v-1.66c0-2.33,0.35-3.64,1.14-4.26c0.48-0.37,1.57-0.87,6.07-1.69c4.66-0.86,6.42-1.82,7.08-2.48
			c0.63-0.62,1.37-2.14,1.37-5.81c0-3.11-0.62-5.21-1.84-6.24c-1.26-1.07-3.82-1.61-7.61-1.61c-4.84,0-6.88,0.87-7.75,1.59
			c-1.21,1.02-1.82,3.14-1.82,6.32v0.24h3.33v-0.26c0-2.35,0.39-3.77,1.23-4.49c0.8-0.68,2.38-1,4.99-1c2.54,0,4.09,0.31,4.88,0.99
			c0.83,0.71,1.22,2.09,1.22,4.34c0,2.35-0.4,3.75-1.25,4.43c-0.5,0.4-1.66,0.97-6.2,1.78c-4.66,0.83-6.39,1.69-7.01,2.27
			c-0.58,0.53-1.28,1.86-1.28,5.15V183.39z"/>
		<path class="st31" d="M315.64,185.09c-4.43,0-7.41-0.61-9.09-1.86c-1.74-1.3-2.63-3.69-2.63-7.1l0.03-2.45h6.88l0.06,0.85
			c0.06,0.84,0.06,1.06,0.06,1.16c0,2.28,0.49,2.76,0.59,2.83c0.17,0.13,0.98,0.53,4.29,0.53c2.99,0,3.75-0.43,3.91-0.56
			c0.14-0.12,0.61-0.68,0.61-2.98c0-1.62-0.37-2.1-0.53-2.24c-0.18-0.15-0.84-0.5-3-0.5h-4.11v-5.92l1.81,0.04
			c3.88,0,4.76-0.32,4.93-0.41c0.05-0.03,0.49-0.32,0.49-2.18c0-2.21-0.44-2.61-0.49-2.64c-0.1-0.08-0.78-0.46-4.01-0.46
			c-2.81,0-3.5,0.38-3.65,0.5c-0.09,0.07-0.53,0.54-0.53,2.71v1.72h-6.89v-1.95c0-3.56,0.78-5.91,2.39-7.19
			c1.55-1.23,4.38-1.83,8.66-1.83c4.28,0,7.18,0.56,8.86,1.7c1.77,1.2,2.67,3.37,2.67,6.45c0,3.52-1.25,5.42-2.8,6.41
			c2.11,1.06,3.2,3.17,3.2,6.22c0,3.54-0.86,6-2.57,7.29C323.16,184.48,320.16,185.09,315.64,185.09z M305.75,175.5l-0.01,0.64
			c0,2.79,0.64,4.69,1.89,5.62c1.34,1,4.03,1.5,8,1.5c5.04,0,7.17-0.81,8.06-1.5c1.23-0.94,1.85-2.9,1.85-5.84
			c0-3.19-1.33-4.82-4.19-5.13l-0.81-0.09v-1.74l0.77-0.12c1.64-0.25,3.83-1.1,3.83-5.55c0-2.44-0.63-4.1-1.87-4.94
			c-1.35-0.92-3.99-1.38-7.84-1.38c-4.73,0-6.7,0.78-7.52,1.43c-1.13,0.9-1.7,2.84-1.7,5.76v0.12h3.25c0.01-2.09,0.4-3.37,1.21-4.03
			c0.78-0.62,2.25-0.9,4.79-0.9c3.54,0,4.58,0.44,5.09,0.82c0.84,0.62,1.23,1.93,1.23,4.11c0,2.01-0.47,3.25-1.44,3.78
			c-0.54,0.3-1.69,0.64-5.8,0.64l0,2.23h2.29c2.08,0,3.4,0.29,4.16,0.92c0.8,0.66,1.19,1.85,1.19,3.64c0,2.29-0.41,3.68-1.28,4.4
			c-0.81,0.67-2.42,0.98-5.07,0.98c-3.7,0-4.82-0.47-5.38-0.89c-0.91-0.67-1.33-2.04-1.33-4.3c0-0.02,0-0.07-0.01-0.18H305.75z"/>
		<path class="st19" d="M302.57,180.14v4.16h-20.92v-5.64c0-2.92,0.52-4.86,1.57-5.82c1.05-0.96,3.54-1.79,7.47-2.49
			c3.26-0.58,5.19-1.11,5.79-1.59c0.6-0.48,0.9-1.72,0.9-3.72c0-1.92-0.3-3.14-0.9-3.65c-0.6-0.51-2.03-0.77-4.29-0.77
			c-2.32,0-3.79,0.26-4.4,0.78c-0.61,0.52-0.91,1.79-0.91,3.8v1.18h-5.15v-1.16c0-3.47,0.72-5.81,2.15-7.01
			c1.43-1.2,4.21-1.8,8.33-1.8c4.03,0,6.76,0.61,8.2,1.82c1.44,1.22,2.16,3.53,2.16,6.93c0,3.22-0.55,5.37-1.64,6.46
			c-1.09,1.09-3.62,2-7.56,2.73c-3.26,0.59-5.15,1.1-5.68,1.51c-0.53,0.41-0.79,1.59-0.79,3.54v0.75H302.57z"/>
		<path class="st19" d="M313.63,171.85v-4.07l0.89,0.02c2.95,0,4.74-0.18,5.38-0.53c0.64-0.35,0.96-1.34,0.96-2.98
			c0-1.82-0.29-2.95-0.86-3.38c-0.57-0.43-2.09-0.64-4.55-0.64c-2.23,0-3.64,0.23-4.22,0.7c-0.58,0.47-0.87,1.61-0.87,3.42v0.81
			h-5.07v-1.03c0-3.23,0.68-5.39,2.05-6.48c1.36-1.09,4.06-1.63,8.09-1.63c4.05,0,6.84,0.51,8.35,1.54c1.51,1.03,2.27,2.93,2.27,5.7
			c0,3.82-1.53,5.97-4.6,6.45v0.14c3.34,0.36,5.01,2.38,5.01,6.04c0,3.26-0.74,5.45-2.21,6.57c-1.47,1.12-4.35,1.68-8.62,1.68
			c-4.19,0-7.04-0.56-8.54-1.68c-1.51-1.12-2.26-3.24-2.26-6.37l0.02-1.54h5.13c0.04,0.61,0.06,0.97,0.06,1.09
			c0,1.91,0.32,3.09,0.96,3.57c0.64,0.47,2.25,0.71,4.83,0.71c2.36,0,3.86-0.26,4.49-0.77c0.63-0.51,0.94-1.74,0.94-3.69
			c0-1.49-0.29-2.47-0.86-2.94c-0.57-0.47-1.77-0.71-3.58-0.71h-2.29H313.63z"/>
	</g>
</g>
<g>
	<g>
		<path class="st19" d="M148.8,158.55c0-0.04,0.01-0.1,0.04-0.16c0.03-0.06,0.06-0.13,0.1-0.19c0.04-0.06,0.08-0.12,0.13-0.16
			c0.05-0.04,0.09-0.06,0.13-0.06h1.25c0.04,0,0.08,0.02,0.13,0.06c0.04,0.04,0.08,0.1,0.13,0.16c0.04,0.06,0.08,0.13,0.1,0.19
			c0.03,0.06,0.04,0.12,0.04,0.16c0,0.16,0.01,0.39,0.02,0.71c0.01,0.31,0.02,0.64,0.03,0.97c0.01,0.34,0.02,0.66,0.03,0.95
			c0.01,0.3,0.02,0.51,0.02,0.63c0.01,0.21,0.03,0.47,0.06,0.78c0.03,0.31,0.08,0.64,0.15,0.99c0.07,0.35,0.16,0.7,0.26,1.05
			c0.11,0.35,0.24,0.67,0.4,0.95c0.16,0.28,0.36,0.51,0.59,0.68c0.23,0.17,0.49,0.26,0.78,0.26c0.26,0,0.47-0.12,0.62-0.35
			c0.15-0.23,0.26-0.51,0.34-0.82c0.08-0.32,0.13-0.63,0.15-0.95c0.02-0.32,0.03-0.56,0.03-0.73v-5.83c0-0.08,0.04-0.17,0.13-0.26
			c0.09-0.09,0.18-0.13,0.26-0.13h1.14c0.11,0,0.19,0.04,0.26,0.13c0.07,0.08,0.11,0.17,0.13,0.25c0.05,0.54,0.08,1.05,0.1,1.54
			c0.01,0.49,0.02,0.99,0.02,1.5v1.14v0.46l-0.02,1.38v0.46c-0.03,0.49-0.11,0.98-0.22,1.49c-0.12,0.51-0.3,0.97-0.54,1.38
			c-0.24,0.41-0.56,0.75-0.94,1.01c-0.39,0.26-0.87,0.39-1.45,0.39c-0.72,0-1.33-0.17-1.83-0.51c-0.5-0.34-0.91-0.79-1.24-1.34
			c-0.32-0.55-0.57-1.17-0.75-1.86c-0.18-0.69-0.31-1.39-0.4-2.1c-0.09-0.71-0.14-1.39-0.16-2.04c-0.02-0.65-0.02-1.21-0.02-1.67
			V158.55z"/>
		<path class="st19" d="M166.29,168.77c-0.15,0-0.29-0.05-0.42-0.14c-0.13-0.1-0.24-0.21-0.32-0.33c-0.1-0.16-0.24-0.4-0.43-0.71
			c-0.19-0.32-0.4-0.67-0.64-1.06c-0.24-0.39-0.49-0.8-0.74-1.24c-0.26-0.43-0.51-0.84-0.74-1.24c-0.24-0.39-0.45-0.74-0.63-1.05
			c-0.18-0.31-0.32-0.53-0.4-0.68c-0.02-0.03-0.04-0.06-0.06-0.1c-0.02-0.03-0.03-0.07-0.06-0.11c-0.06-0.15-0.15-0.3-0.25-0.47
			c-0.1-0.16-0.22-0.25-0.37-0.25c-0.14,0-0.21,0.06-0.21,0.17l0.02,0.05c0.01,0.04,0.02,0.08,0.02,0.12c0,0.04,0,0.07,0,0.09
			c0,0.38-0.01,0.8-0.02,1.26c-0.01,0.46-0.02,0.93-0.04,1.42c-0.02,0.49-0.03,0.97-0.06,1.44c-0.02,0.48-0.05,0.92-0.08,1.33
			c-0.01,0.14-0.05,0.24-0.13,0.32c-0.07,0.07-0.17,0.13-0.28,0.17c-0.11,0.04-0.23,0.06-0.35,0.07c-0.12,0.01-0.24,0.02-0.34,0.02
			h-0.36c-0.14,0-0.25-0.02-0.34-0.07c-0.09-0.05-0.13-0.16-0.13-0.32v-2.9c0-0.51,0-0.98,0-1.41c0-0.43,0.01-0.86,0.02-1.29
			c0.02-0.43,0.04-0.87,0.06-1.32c0.03-0.45,0.07-0.96,0.12-1.52c0-0.04,0.01-0.08,0.03-0.13c0.05-0.14,0.13-0.25,0.25-0.33
			c0.11-0.08,0.24-0.15,0.38-0.2c0.14-0.05,0.3-0.08,0.46-0.1c0.16-0.02,0.32-0.02,0.48-0.02c0.08,0,0.16,0,0.23,0.01
			c0.07,0.01,0.14,0.01,0.21,0.01h0.3c0.3,0,0.5,0.05,0.6,0.16c0.11,0.11,0.22,0.27,0.35,0.51l0.06,0.11
			c0.03,0.05,0.1,0.17,0.2,0.35c0.1,0.18,0.21,0.38,0.34,0.6c0.41,0.75,0.83,1.49,1.26,2.23c0.43,0.73,0.86,1.47,1.31,2.21
			l0.05,0.06c0.04,0.07,0.09,0.15,0.14,0.21c0.05,0.07,0.13,0.1,0.22,0.1c0.07,0,0.13-0.08,0.17-0.23c0.04-0.15,0.07-0.36,0.09-0.62
			c0.02-0.26,0.04-0.56,0.05-0.9c0.01-0.34,0.02-0.7,0.02-1.08c0-0.56,0.01-1.12,0.02-1.7c0.02-0.57,0.06-1.09,0.13-1.56
			c0.07-0.47,0.18-0.85,0.33-1.15c0.15-0.3,0.35-0.44,0.62-0.44c0.12,0,0.25,0,0.4,0.01c0.15,0.01,0.29,0.03,0.42,0.07
			c0.13,0.04,0.24,0.11,0.33,0.21c0.09,0.1,0.13,0.23,0.13,0.4v0.13c0,0.05-0.01,0.16-0.02,0.32c-0.02,0.16-0.03,0.35-0.06,0.56
			c-0.04,0.5-0.08,0.99-0.12,1.48c-0.04,0.49-0.07,0.99-0.09,1.5c-0.01,0.22-0.02,0.44-0.04,0.66c-0.02,0.22-0.03,0.42-0.04,0.61
			c-0.01,0.19-0.02,0.35-0.03,0.48c-0.01,0.13-0.02,0.22-0.02,0.28c-0.01,0.13-0.02,0.26-0.02,0.41c-0.01,0.15-0.01,0.3-0.01,0.44
			v0.49c0,0.41-0.01,0.83-0.04,1.26c-0.03,0.43-0.11,0.82-0.24,1.16c-0.13,0.35-0.33,0.63-0.59,0.85
			C167.13,168.66,166.76,168.77,166.29,168.77z"/>
		<path class="st19" d="M171.45,168.15c-0.06,0-0.13-0.06-0.19-0.17c-0.06-0.12-0.1-0.21-0.1-0.27c-0.15-1.32-0.24-2.65-0.27-4
			c-0.03-1.35-0.05-2.68-0.05-4v-0.33c0-0.13,0-0.27,0.01-0.43c0.01-0.16,0.01-0.31,0.02-0.46c0.01-0.15,0.02-0.28,0.03-0.4
			c0.02-0.12,0.04-0.19,0.07-0.22l0.11-0.1c0.08-0.08,0.18-0.13,0.3-0.13h1.09c0.14,0,0.25,0.06,0.33,0.18
			c0.08,0.12,0.15,0.28,0.2,0.48c0.05,0.2,0.08,0.42,0.1,0.67c0.02,0.25,0.02,0.5,0.02,0.75c0,0.2,0,0.4-0.01,0.59
			c-0.01,0.19-0.01,0.37-0.02,0.54c-0.01,0.12-0.02,0.22-0.02,0.31c0,0.09,0,0.17,0,0.25v0.05c0,0.12,0,0.34,0.01,0.68
			c0.01,0.34,0.01,0.73,0.02,1.17c0.01,0.44,0.02,0.91,0.02,1.39c0.01,0.48,0.01,0.93,0.02,1.34c0.01,0.36,0.02,0.67,0.02,0.93
			c0,0.26,0.01,0.44,0.02,0.53c0,0.05-0.01,0.12-0.03,0.19c-0.02,0.07-0.06,0.15-0.1,0.22c-0.05,0.07-0.1,0.13-0.16,0.18
			c-0.06,0.05-0.13,0.07-0.21,0.07H171.45z"/>
		<path class="st19" d="M176.38,167.74c-0.2,0-0.39-0.06-0.57-0.18c-0.18-0.12-0.27-0.29-0.27-0.5c0-0.15,0-0.37,0-0.66
			s0-0.59-0.01-0.9c-0.01-0.31-0.01-0.61-0.01-0.89c0-0.28,0-0.47,0-0.58v-1.63c0-0.6,0.01-1.2,0.02-1.81
			c0.01-0.6,0.04-1.21,0.1-1.82c0.01-0.13,0.05-0.23,0.13-0.3c0.07-0.07,0.16-0.13,0.27-0.16c0.11-0.03,0.22-0.05,0.33-0.06
			c0.12-0.01,0.22-0.01,0.32-0.01h0.13l0.41,0.02c0.11,0,0.21,0.04,0.3,0.11c0.1,0.07,0.14,0.16,0.14,0.27v6.7l0.06,0.06l0.3,0.1
			c0.22,0,0.44-0.02,0.67-0.05c0.22-0.03,0.44-0.07,0.67-0.11c0.22-0.04,0.44-0.08,0.67-0.11c0.22-0.03,0.45-0.05,0.68-0.05
			c0.29,0,0.45,0.07,0.51,0.22c0.05,0.15,0.08,0.33,0.08,0.55v0.14c0,0.35-0.09,0.62-0.28,0.82c-0.18,0.2-0.42,0.34-0.71,0.44
			c-0.29,0.1-0.6,0.15-0.94,0.17c-0.34,0.02-0.67,0.04-0.99,0.05c-0.35,0.01-0.71,0.04-1.08,0.1c-0.18,0.02-0.33,0.04-0.45,0.05
			C176.73,167.73,176.57,167.74,176.38,167.74z"/>
		<path class="st19" d="M198.85,167.1c-0.17,0-0.34,0.04-0.52,0.12c-0.18,0.08-0.36,0.17-0.54,0.26c-0.22,0.12-0.45,0.22-0.68,0.32
			c-0.23,0.1-0.48,0.14-0.73,0.14c-0.6,0-1.12-0.13-1.57-0.4c-0.44-0.27-0.81-0.62-1.1-1.05c-0.29-0.43-0.51-0.91-0.66-1.44
			c-0.15-0.53-0.22-1.06-0.22-1.59c0-0.79,0.13-1.57,0.39-2.34c0.26-0.77,0.63-1.46,1.11-2.07c0.48-0.61,1.07-1.1,1.76-1.47
			c0.69-0.37,1.47-0.56,2.32-0.56c0.14,0,0.27,0.05,0.4,0.16c0.13,0.11,0.19,0.23,0.19,0.38c0,0.19-0.01,0.4-0.04,0.63
			c-0.03,0.23-0.08,0.43-0.17,0.61c-0.03,0.06-0.08,0.11-0.16,0.15c-0.07,0.04-0.16,0.07-0.25,0.1c-0.09,0.03-0.18,0.05-0.28,0.06
			c-0.1,0.01-0.18,0.02-0.25,0.03c-0.49,0.05-0.91,0.22-1.27,0.51c-0.36,0.29-0.66,0.63-0.9,1.05c-0.24,0.41-0.43,0.86-0.55,1.33
			c-0.12,0.48-0.18,0.93-0.18,1.36c0,0.23,0.02,0.5,0.06,0.79c0.04,0.3,0.11,0.58,0.22,0.84c0.11,0.26,0.26,0.49,0.45,0.67
			c0.19,0.18,0.44,0.27,0.74,0.27c0.1,0,0.18-0.01,0.25-0.02c0.07-0.01,0.15-0.04,0.23-0.08c0.12-0.11,0.26-0.24,0.42-0.4
			c0.16-0.16,0.32-0.33,0.46-0.52c0.14-0.19,0.27-0.39,0.37-0.59c0.11-0.2,0.16-0.39,0.17-0.57c-0.01-0.03-0.02-0.07-0.03-0.11
			c-0.01-0.04-0.01-0.06,0-0.06h-1.14c-0.08,0-0.17-0.05-0.27-0.16s-0.18-0.23-0.26-0.37c-0.08-0.14-0.15-0.28-0.2-0.41
			c-0.05-0.13-0.08-0.22-0.08-0.28c0-0.18,0.1-0.34,0.31-0.48c0.21-0.14,0.47-0.27,0.78-0.37c0.32-0.11,0.67-0.2,1.05-0.27
			c0.39-0.07,0.76-0.13,1.12-0.17c0.36-0.04,0.69-0.07,0.97-0.1c0.29-0.02,0.49-0.03,0.62-0.03c0.17,0,0.3,0.04,0.39,0.13
			c0.09,0.08,0.16,0.19,0.21,0.32c0.05,0.13,0.08,0.26,0.09,0.4c0.01,0.14,0.02,0.27,0.02,0.39l-0.02,0.27
			c0,0.05-0.01,0.11-0.02,0.16c-0.02,0.05-0.05,0.1-0.09,0.14c-0.05,0.05-0.11,0.09-0.16,0.12c-0.05,0.03-0.11,0.06-0.17,0.09
			c-0.07,0.04-0.14,0.08-0.21,0.12c-0.06,0.04-0.12,0.09-0.17,0.17l-0.02,1.16c0,0.31,0.01,0.61,0.04,0.91
			c0.03,0.3,0.05,0.6,0.07,0.91c0.03,0.31,0.06,0.61,0.08,0.91c0.02,0.3,0.03,0.6,0.03,0.91c0,0.19-0.04,0.34-0.12,0.46
			c-0.08,0.12-0.18,0.2-0.31,0.25c-0.13,0.05-0.27,0.09-0.43,0.1c-0.16,0.02-0.32,0.02-0.48,0.02c-0.16,0-0.28-0.03-0.37-0.1
			c-0.09-0.06-0.16-0.14-0.21-0.24c-0.05-0.1-0.08-0.21-0.1-0.33c-0.02-0.13-0.04-0.25-0.05-0.38c-0.02-0.19-0.05-0.36-0.09-0.51
			C199.09,167.18,198.99,167.1,198.85,167.1z"/>
		<path class="st19" d="M186.89,160.26c0.12-0.3,0.23-0.56,0.41-0.8c0.39-0.53,0.86-0.96,1.5-1.12c1.27-0.33,2.93,0.32,3.18,2.12
			c0.16,1.2-0.19,2.25-0.89,3.21c-0.61,0.84-1.29,1.62-1.96,2.4c-0.75,0.87-1.45,1.77-2.05,2.75c-0.08,0.13-0.16,0.09-0.25,0.03
			c-0.46-0.29-0.9-0.6-1.33-0.93c-1.06-0.82-2.04-1.72-2.86-2.79c-0.71-0.92-1.27-1.92-1.53-3.06c-0.15-0.66-0.23-1.33-0.01-1.98
			c0.31-0.95,0.93-1.64,1.95-1.83c0.76-0.14,1.48,0.07,2.14,0.44c0.67,0.37,1.24,0.85,1.66,1.5
			C186.86,160.21,186.87,160.22,186.89,160.26z"/>
		<path class="st17" d="M186.96,162.27c0.05-0.13,0.1-0.25,0.18-0.35c0.17-0.23,0.38-0.42,0.66-0.49c0.56-0.15,1.28,0.14,1.39,0.93
			c0.07,0.52-0.08,0.98-0.39,1.4c-0.27,0.37-0.56,0.71-0.86,1.05c-0.33,0.38-0.63,0.78-0.9,1.2c-0.04,0.06-0.07,0.04-0.11,0.01
			c-0.2-0.13-0.39-0.26-0.58-0.41c-0.47-0.36-0.89-0.75-1.25-1.22c-0.31-0.4-0.55-0.84-0.67-1.34c-0.06-0.29-0.1-0.58-0.01-0.87
			c0.14-0.42,0.41-0.72,0.85-0.8c0.33-0.06,0.65,0.03,0.94,0.19c0.29,0.16,0.54,0.37,0.72,0.66
			C186.94,162.25,186.95,162.26,186.96,162.27z"/>
	</g>
	<g>
		<g>
			<path class="st59" d="M195.67,173.63l-38.84,0.11c-2.36,0.01-4.28,1.53-4.27,3.39l0.02,7.15c0.01,1.87,1.93,3.38,4.29,3.37
				l38.84-0.11c2.36-0.01,4.28-1.53,4.27-3.39l-0.02-7.15C199.96,175.13,198.04,173.62,195.67,173.63z"/>
			<g>
				<path class="st19" d="M195.07,172.57l-40.11,0.11c-2.03,0.01-3.66,1.65-3.66,3.68l0.02,6.22c0.01,2.23,1.82,4.03,4.04,4.02
					l39.75-0.11c2-0.01,3.62-1.63,3.61-3.63l-0.02-6.67C198.69,174.18,197.07,172.56,195.07,172.57z"/>
				<path class="st57" d="M194.45,186.82l-38.84,0.11c-2.59,0.01-4.71-1.65-4.72-3.7l-0.02-7.15c-0.01-2.05,2.1-3.72,4.7-3.73
					l38.84-0.11c2.59-0.01,4.71,1.65,4.72,3.7l0.02,7.15C199.15,185.14,197.04,186.81,194.45,186.82z M155.57,173.01
					c-2.13,0.01-3.85,1.38-3.85,3.06l0.02,7.15c0,1.68,1.74,3.04,3.87,3.04l38.84-0.11c2.13-0.01,3.85-1.38,3.85-3.06l-0.02-7.15
					c0-1.68-1.74-3.04-3.87-3.04L155.57,173.01z"/>
			</g>
		</g>
		<g>
			<g>
				<path class="st56" d="M159.19,177.95l-1.55,0.02c-0.1,0-0.19,0.03-0.28,0.1c-0.09,0.07-0.14,0.15-0.14,0.26l0,0.14
					c0,0.24-0.02,0.47-0.08,0.67c-0.06,0.2-0.14,0.39-0.25,0.57c-0.11,0.18-0.24,0.35-0.39,0.51c-0.15,0.17-0.33,0.34-0.52,0.51
					l-0.07,0c-0.07,0-0.11-0.04-0.13-0.1c-0.02-0.06-0.03-0.12-0.03-0.19l0-0.11c0-0.22,0.02-0.44,0.06-0.67
					c0.05-0.23,0.11-0.45,0.2-0.67c0.09-0.22,0.19-0.43,0.31-0.63c0.12-0.2,0.25-0.38,0.4-0.54c0.07-0.08,0.16-0.15,0.26-0.22
					c0.1-0.07,0.2-0.13,0.31-0.19c0.17-0.1,0.33-0.2,0.47-0.31c0.14-0.11,0.21-0.23,0.2-0.38c0-0.22-0.07-0.36-0.2-0.44
					c-0.13-0.07-0.29-0.11-0.48-0.11c-0.25,0-0.5,0.08-0.72,0.23c-0.23,0.15-0.44,0.35-0.63,0.59c-0.2,0.24-0.37,0.52-0.53,0.83
					c-0.15,0.31-0.29,0.62-0.4,0.93c-0.11,0.31-0.19,0.61-0.25,0.9c-0.06,0.29-0.08,0.54-0.08,0.75c0,0.16,0.02,0.34,0.06,0.53
					c0.04,0.19,0.09,0.36,0.18,0.52c0.08,0.16,0.19,0.29,0.34,0.39c0.14,0.1,0.32,0.15,0.53,0.15c0.15,0,0.29-0.03,0.42-0.09
					c0.13-0.06,0.25-0.14,0.37-0.23c0.11-0.09,0.22-0.19,0.32-0.3c0.1-0.11,0.19-0.21,0.27-0.32c0.11-0.12,0.2-0.22,0.29-0.31
					c0.08-0.09,0.16-0.13,0.22-0.13c0.02,0,0.04,0,0.06,0.01c0.02,0.01,0.03,0.02,0.04,0.03l0,0.06c0,0.07,0,0.18,0.01,0.33
					c0.01,0.15,0.01,0.31,0.02,0.47c0.01,0.16,0.02,0.31,0.02,0.45c0.01,0.14,0.01,0.24,0.01,0.29l0,0.09
					c0.01,0.07,0.01,0.14,0.02,0.22c0.01,0.08,0.02,0.15,0.05,0.22c0.03,0.07,0.07,0.12,0.12,0.17c0.05,0.04,0.13,0.07,0.22,0.07
					c0.03,0,0.08-0.01,0.16-0.02c0.08-0.01,0.15-0.03,0.23-0.05c0.08-0.02,0.15-0.05,0.21-0.09c0.06-0.03,0.09-0.07,0.09-0.12
					l-0.04-3.47c0-0.08,0.03-0.14,0.1-0.18c0.06-0.04,0.13-0.08,0.21-0.1c0.07-0.03,0.13-0.06,0.18-0.09
					c0.05-0.03,0.08-0.07,0.07-0.14l-0.01-0.59c0-0.06-0.02-0.12-0.07-0.16C159.31,177.97,159.25,177.95,159.19,177.95z"/>
				<path class="st57" d="M158.27,183.18c-0.01,0-0.02,0-0.03,0c-0.13,0-0.24-0.03-0.32-0.1c-0.08-0.06-0.13-0.14-0.17-0.23
					c-0.03-0.08-0.05-0.17-0.06-0.26l-0.02-0.22l0-0.11c0-0.06,0-0.15-0.01-0.29l-0.04-0.92c-0.01-0.1-0.01-0.18-0.01-0.24
					c-0.01,0.01-0.03,0.03-0.05,0.05c-0.08,0.08-0.18,0.19-0.28,0.3c-0.08,0.1-0.17,0.21-0.27,0.32c-0.1,0.12-0.22,0.22-0.34,0.32
					c-0.12,0.1-0.26,0.18-0.4,0.24c-0.15,0.07-0.32,0.11-0.49,0.11c-0.24,0-0.45-0.06-0.62-0.18c-0.16-0.12-0.29-0.27-0.38-0.45
					c-0.09-0.17-0.15-0.36-0.19-0.56c-0.04-0.2-0.06-0.39-0.06-0.56c0-0.22,0.03-0.48,0.08-0.78c0.06-0.29,0.14-0.61,0.25-0.92
					c0.11-0.32,0.25-0.63,0.4-0.95c0.16-0.31,0.34-0.6,0.54-0.85c0.2-0.25,0.43-0.46,0.67-0.62c0.25-0.17,0.52-0.25,0.81-0.26
					c0.21,0,0.4,0.04,0.56,0.13c0.13,0.07,0.28,0.23,0.29,0.57c0,0.19-0.09,0.36-0.26,0.5c-0.14,0.11-0.31,0.22-0.49,0.33
					c-0.1,0.06-0.2,0.12-0.3,0.19c-0.09,0.06-0.16,0.12-0.23,0.19c-0.14,0.15-0.27,0.33-0.38,0.51c-0.11,0.19-0.22,0.4-0.3,0.61
					c-0.08,0.21-0.15,0.43-0.19,0.65c-0.04,0.22-0.06,0.43-0.06,0.63l0,0.11c0,0.04,0.01,0.09,0.02,0.12
					c0.17-0.15,0.32-0.3,0.46-0.45c0.15-0.16,0.27-0.32,0.37-0.49c0.1-0.16,0.18-0.34,0.23-0.53c0.05-0.19,0.08-0.39,0.08-0.62
					l0-0.14c0-0.16,0.07-0.29,0.2-0.39c0.12-0.09,0.25-0.13,0.37-0.13l1.55-0.02c0.11,0,0.2,0.04,0.28,0.12
					c0.07,0.08,0.11,0.17,0.12,0.27l0.01,0.59c0,0.12-0.05,0.22-0.15,0.28c-0.06,0.03-0.12,0.06-0.19,0.1
					c-0.07,0.03-0.13,0.06-0.19,0.09c-0.02,0.01-0.02,0.02-0.02,0.04l0.04,3.47c0,0.06-0.02,0.17-0.17,0.26
					c-0.07,0.04-0.15,0.08-0.24,0.1c-0.09,0.03-0.17,0.05-0.25,0.06C158.35,183.17,158.3,183.18,158.27,183.18z M157.63,180.46
					c0.01,0,0.01,0,0.02,0c0.04,0,0.07,0,0.11,0.01c0.07,0.02,0.12,0.07,0.15,0.14l0.01,0.02l0,0.08c0,0.07,0,0.17,0.01,0.32
					l0.04,0.91c0.01,0.15,0.01,0.25,0.01,0.31l0,0.09l0.02,0.21c0.01,0.06,0.02,0.12,0.04,0.18c0.02,0.04,0.04,0.08,0.07,0.1
					c0.02,0.02,0.06,0.03,0.11,0.03c0.02,0,0.07-0.01,0.13-0.02c0.07-0.01,0.14-0.03,0.21-0.05c0.07-0.02,0.12-0.04,0.17-0.07
					c0,0,0.01,0,0.01,0l-0.04-3.44c0-0.13,0.06-0.25,0.17-0.32c0.07-0.05,0.15-0.08,0.23-0.12c0.06-0.02,0.11-0.05,0.16-0.08
					l-0.01-0.58c0-0.02,0-0.03-0.03-0.06c-0.02-0.02-0.03-0.02-0.05-0.02l0,0l-1.55,0.02c-0.06,0-0.13,0.02-0.19,0.07
					c-0.05,0.04-0.07,0.07-0.07,0.13l0,0.14c0,0.26-0.03,0.5-0.09,0.71c-0.06,0.22-0.15,0.42-0.27,0.61
					c-0.11,0.18-0.25,0.37-0.41,0.54c-0.16,0.17-0.33,0.34-0.53,0.52l-0.04,0.04l-0.13,0c-0.14-0.01-0.24-0.08-0.28-0.2
					c-0.03-0.07-0.04-0.16-0.04-0.24l0-0.11c0-0.23,0.02-0.46,0.07-0.7c0.05-0.24,0.12-0.48,0.21-0.7c0.09-0.23,0.2-0.44,0.32-0.65
					c0.12-0.21,0.26-0.4,0.42-0.57c0.08-0.09,0.18-0.17,0.29-0.24c0.1-0.07,0.21-0.13,0.32-0.2c0.17-0.1,0.32-0.2,0.45-0.3
					c0.13-0.1,0.14-0.19,0.14-0.25c0-0.23-0.09-0.28-0.12-0.3c-0.11-0.06-0.24-0.09-0.4-0.09c-0.23,0-0.44,0.07-0.64,0.2
					c-0.21,0.14-0.41,0.33-0.6,0.56c-0.19,0.23-0.36,0.5-0.51,0.8c-0.15,0.3-0.28,0.61-0.39,0.91c-0.11,0.3-0.19,0.6-0.24,0.88
					c-0.05,0.28-0.08,0.52-0.08,0.72c0,0.15,0.02,0.32,0.05,0.5c0.03,0.17,0.09,0.33,0.16,0.48c0.07,0.13,0.17,0.25,0.29,0.34
					c0.12,0.08,0.26,0.12,0.43,0.12c0.13,0,0.25-0.03,0.36-0.08c0.12-0.06,0.23-0.13,0.34-0.21c0.11-0.08,0.21-0.18,0.3-0.28
					c0.1-0.11,0.18-0.21,0.27-0.31c0.11-0.13,0.21-0.23,0.29-0.32C157.43,180.52,157.53,180.47,157.63,180.46z"/>
			</g>
			<g>
				<path class="st56" d="M164.62,181.03c-0.11-0.06-0.23-0.12-0.36-0.18c-0.13-0.05-0.27-0.11-0.41-0.16
					c-0.11-0.04-0.22-0.09-0.33-0.13c-0.11-0.04-0.2-0.09-0.28-0.13c-0.08-0.04-0.15-0.09-0.2-0.14c-0.05-0.05-0.08-0.1-0.08-0.15
					c0-0.05,0.04-0.12,0.11-0.2c0.08-0.08,0.17-0.17,0.28-0.28c0.11-0.11,0.23-0.23,0.36-0.36c0.13-0.13,0.24-0.27,0.35-0.42
					c0.11-0.15,0.2-0.32,0.27-0.5c0.07-0.18,0.11-0.37,0.1-0.57c0-0.31-0.08-0.55-0.23-0.73c-0.15-0.18-0.34-0.32-0.57-0.42
					c-0.23-0.1-0.47-0.16-0.74-0.19c-0.26-0.03-0.51-0.04-0.74-0.04l-0.69,0.02c-0.11,0.02-0.21,0.14-0.28,0.35
					c-0.08,0.22-0.14,0.49-0.19,0.81c-0.05,0.32-0.08,0.68-0.11,1.07c-0.02,0.39-0.04,0.77-0.05,1.13
					c-0.01,0.37-0.01,0.71-0.01,1.01c0,0.31,0,0.54,0,0.7c0,0.03,0,0.08,0,0.15c0,0.07,0,0.15,0.01,0.23c0,0.08,0.01,0.16,0.01,0.25
					c0,0.08,0,0.15,0,0.21c0,0.05,0.02,0.1,0.06,0.16c0.04,0.05,0.09,0.08,0.15,0.08l0.53-0.01c0.07,0,0.12-0.03,0.16-0.08
					l0.04-0.03c0.01-0.01,0.01-0.02,0.02-0.02c0.01,0,0.01-0.01,0.02-0.01l0.02-0.04c0.03-0.05,0.05-0.1,0.05-0.15l-0.01-1.04
					c0-0.05,0.02-0.08,0.08-0.1c0.05-0.02,0.1-0.03,0.14-0.04l0.09,0.01c0.05,0.02,0.13,0.07,0.25,0.13
					c0.12,0.06,0.26,0.14,0.41,0.22c0.15,0.08,0.32,0.16,0.49,0.25c0.17,0.09,0.34,0.16,0.49,0.24c0.15,0.07,0.28,0.13,0.39,0.18
					c0.11,0.05,0.18,0.07,0.21,0.08l0.08,0.01c0.07-0.01,0.14-0.03,0.2-0.08c0.06-0.05,0.11-0.11,0.15-0.18
					c0.04-0.07,0.07-0.14,0.1-0.22c0.02-0.08,0.03-0.15,0.03-0.21c0-0.09-0.03-0.17-0.1-0.25
					C164.82,181.16,164.73,181.09,164.62,181.03z"/>
				<path class="st57" d="M161.62,182.75c-0.01,0-0.02,0-0.03,0l-0.53,0.01c-0.11,0-0.21-0.05-0.28-0.14
					c-0.06-0.08-0.09-0.16-0.09-0.25l0-0.21c0-0.08,0-0.16-0.01-0.24c0-0.08-0.01-0.16-0.01-0.23l0-0.15c0-0.16,0-0.39,0-0.7
					c0-0.31,0-0.65,0.01-1.02c0.01-0.37,0.03-0.75,0.05-1.14c0.02-0.39,0.06-0.75,0.11-1.08c0.05-0.33,0.11-0.61,0.19-0.84
					c0.1-0.28,0.23-0.43,0.41-0.46l0.71-0.02c0.24,0,0.49,0.01,0.76,0.04c0.28,0.03,0.54,0.1,0.78,0.2
					c0.25,0.11,0.46,0.26,0.63,0.46c0.18,0.21,0.27,0.49,0.27,0.83c0,0.22-0.04,0.44-0.11,0.63c-0.08,0.19-0.17,0.36-0.29,0.53
					c-0.11,0.16-0.24,0.31-0.37,0.44c-0.13,0.13-0.25,0.25-0.36,0.36c-0.11,0.11-0.2,0.2-0.28,0.28c-0.05,0.05-0.06,0.08-0.07,0.09
					c0,0,0.01,0.01,0.03,0.03c0.04,0.04,0.1,0.08,0.17,0.11c0.08,0.04,0.17,0.08,0.27,0.13c0.1,0.04,0.21,0.09,0.32,0.13
					c0.14,0.05,0.27,0.1,0.41,0.16c0.14,0.06,0.27,0.12,0.38,0.19l0,0c0.12,0.07,0.22,0.15,0.3,0.24c0.09,0.1,0.14,0.22,0.14,0.35
					c0,0.08-0.01,0.16-0.04,0.25c-0.03,0.09-0.06,0.18-0.11,0.26c-0.05,0.08-0.11,0.16-0.19,0.22c-0.08,0.07-0.18,0.11-0.29,0.12
					l-0.11-0.01c-0.05-0.01-0.1-0.03-0.25-0.09c-0.11-0.05-0.25-0.11-0.4-0.18c-0.15-0.07-0.32-0.15-0.49-0.24
					c-0.17-0.09-0.34-0.17-0.49-0.25c-0.15-0.08-0.29-0.15-0.41-0.22c-0.1-0.05-0.17-0.09-0.22-0.11l-0.04,0
					c-0.02,0-0.04,0.01-0.06,0.02l0.01,1c0,0.09-0.03,0.18-0.08,0.25l-0.12,0.13C161.8,182.7,161.72,182.74,161.62,182.75z
					 M161.9,182.59l-0.02,0.01C161.89,182.6,161.89,182.59,161.9,182.59z M161.47,176.62c-0.01,0-0.08,0.07-0.14,0.25
					c-0.07,0.21-0.13,0.47-0.18,0.78c-0.05,0.32-0.08,0.67-0.1,1.05c-0.02,0.39-0.04,0.76-0.05,1.13c-0.01,0.37-0.01,0.7-0.01,1.01
					c0,0.31,0,0.54,0,0.7l0,0.15c0,0.07,0,0.14,0.01,0.22c0,0.08,0.01,0.17,0.01,0.25l0,0.21c0,0.02,0.01,0.04,0.03,0.06l0.55,0.01
					c0.02,0,0.03-0.01,0.04-0.02l0.09-0.1c0.02-0.03,0.03-0.05,0.03-0.07l-0.01-1.04c0-0.11,0.06-0.2,0.18-0.25
					c0.06-0.02,0.12-0.04,0.17-0.05l0.02,0l0.17,0.02c0.05,0.02,0.13,0.07,0.25,0.13c0.12,0.06,0.26,0.14,0.41,0.22
					c0.15,0.08,0.32,0.16,0.49,0.25c0.17,0.09,0.33,0.16,0.48,0.24c0.15,0.07,0.28,0.13,0.39,0.18c0.09,0.04,0.15,0.06,0.18,0.07
					l0.06,0.01c0.01,0,0.05-0.02,0.08-0.05c0.04-0.04,0.08-0.08,0.12-0.14c0.03-0.06,0.06-0.12,0.08-0.18
					c0.02-0.06,0.03-0.12,0.03-0.16c0-0.05-0.02-0.1-0.06-0.15c-0.05-0.06-0.13-0.12-0.22-0.18c-0.1-0.06-0.22-0.12-0.34-0.17
					c-0.13-0.05-0.26-0.11-0.4-0.15c-0.12-0.05-0.23-0.09-0.34-0.13c-0.11-0.05-0.21-0.09-0.3-0.14c-0.09-0.05-0.17-0.1-0.23-0.16
					c-0.11-0.1-0.13-0.2-0.13-0.26c0-0.1,0.05-0.19,0.16-0.31c0.08-0.08,0.17-0.18,0.29-0.29c0.11-0.11,0.23-0.23,0.35-0.35
					c0.12-0.12,0.23-0.26,0.34-0.41c0.1-0.14,0.19-0.3,0.25-0.46c0.06-0.16,0.09-0.33,0.09-0.51c0-0.27-0.07-0.48-0.2-0.63
					c-0.13-0.16-0.31-0.29-0.51-0.37c-0.21-0.09-0.45-0.15-0.69-0.18c-0.26-0.03-0.5-0.04-0.73-0.04L161.47,176.62z M161.74,182.31
					c-0.01,0-0.02,0.01-0.02,0.02L161.74,182.31z"/>
			</g>
			<g>
				<path class="st56" d="M170.3,181.37c-0.01-0.05-0.04-0.16-0.08-0.34c-0.04-0.18-0.09-0.38-0.13-0.59
					c-0.14-0.59-0.27-1.17-0.4-1.76c-0.13-0.58-0.25-1.17-0.37-1.77c-0.01-0.06-0.04-0.11-0.09-0.16c-0.05-0.04-0.1-0.06-0.16-0.06
					l-1.1,0.01c-0.06,0-0.11,0.04-0.15,0.11c-0.02,0.04-0.05,0.09-0.08,0.16c-0.03,0.07-0.05,0.11-0.06,0.14
					c-0.16,0.39-0.32,0.78-0.48,1.17c-0.16,0.39-0.31,0.78-0.44,1.18c-0.04,0.11-0.08,0.24-0.13,0.4c-0.05,0.16-0.1,0.32-0.16,0.49
					c-0.06,0.17-0.11,0.34-0.17,0.5c-0.05,0.17-0.1,0.32-0.14,0.45c-0.04,0.13-0.08,0.24-0.1,0.33c-0.03,0.09-0.04,0.13-0.04,0.14
					l0,0.38c0,0.1,0.06,0.16,0.16,0.18c0.11,0.02,0.22,0.04,0.32,0.03l0.03,0l0.06-0.01l0.03,0l0.06,0c0.08,0,0.15-0.02,0.21-0.07
					c0.06-0.04,0.11-0.1,0.16-0.17c0.05-0.07,0.09-0.15,0.13-0.24c0.04-0.09,0.08-0.19,0.12-0.29c0.04-0.12,0.09-0.23,0.14-0.35
					c0.05-0.11,0.11-0.21,0.19-0.29c0.07-0.08,0.16-0.14,0.26-0.19c0.1-0.05,0.22-0.07,0.36-0.08c0.13,0,0.24,0.02,0.34,0.07
					c0.09,0.05,0.18,0.11,0.24,0.19c0.07,0.08,0.13,0.18,0.18,0.28c0.05,0.11,0.1,0.22,0.14,0.34c0.07,0.19,0.14,0.35,0.22,0.49
					c0.08,0.14,0.18,0.21,0.31,0.21c0.06,0,0.13-0.01,0.22-0.02c0.08-0.01,0.16-0.03,0.23-0.07c0.07-0.03,0.14-0.07,0.19-0.13
					c0.05-0.05,0.08-0.12,0.07-0.2c0-0.1-0.01-0.17-0.01-0.23C170.35,181.58,170.33,181.49,170.3,181.37z"/>
				<path class="st57" d="M169.76,182.43c-0.03,0-0.06,0-0.09,0c-0.13,0-0.32-0.05-0.45-0.29c-0.08-0.15-0.15-0.32-0.23-0.51
					c-0.04-0.12-0.08-0.22-0.13-0.32c-0.05-0.09-0.1-0.18-0.16-0.25c-0.06-0.07-0.12-0.12-0.19-0.15c-0.07-0.04-0.16-0.05-0.26-0.05
					c-0.12,0-0.21,0.02-0.29,0.06c-0.08,0.04-0.15,0.09-0.21,0.16c-0.06,0.07-0.12,0.15-0.16,0.25c-0.05,0.11-0.1,0.22-0.14,0.33
					c-0.04,0.11-0.08,0.2-0.12,0.3c-0.04,0.1-0.09,0.19-0.14,0.27c-0.06,0.08-0.12,0.15-0.2,0.21c-0.08,0.06-0.19,0.09-0.3,0.1
					l-0.06,0l-0.07,0.01l-0.04,0c-0.12,0-0.24-0.01-0.36-0.04c-0.18-0.04-0.29-0.16-0.29-0.33l0-0.38c0-0.03,0-0.04,0.05-0.19
					c0.03-0.08,0.06-0.19,0.1-0.33c0.04-0.13,0.09-0.29,0.14-0.45c0.05-0.17,0.11-0.34,0.17-0.51c0.06-0.17,0.11-0.33,0.16-0.48
					c0.05-0.16,0.09-0.29,0.13-0.4c0.14-0.4,0.29-0.8,0.45-1.19c0.16-0.39,0.32-0.78,0.48-1.17c0.01-0.03,0.03-0.07,0.06-0.14
					c0.03-0.07,0.06-0.13,0.08-0.17c0.09-0.17,0.22-0.19,0.29-0.19l1.1-0.01c0.1,0,0.2,0.03,0.27,0.1c0.07,0.07,0.12,0.15,0.14,0.24
					c0.12,0.59,0.24,1.18,0.37,1.76c0.13,0.58,0.26,1.17,0.39,1.76c0.05,0.22,0.09,0.41,0.13,0.59c0.04,0.18,0.07,0.29,0.08,0.33
					l0,0c0.03,0.13,0.05,0.22,0.06,0.28c0.01,0.06,0.01,0.14,0.01,0.25c0,0.12-0.04,0.23-0.12,0.31c-0.07,0.07-0.14,0.12-0.24,0.16
					c-0.09,0.04-0.18,0.06-0.27,0.08C169.85,182.42,169.8,182.42,169.76,182.43z M168.14,180.54c0.03,0,0.06,0,0.09,0
					c0.15,0,0.29,0.03,0.41,0.08c0.11,0.06,0.21,0.13,0.29,0.23c0.08,0.09,0.15,0.2,0.2,0.32c0.06,0.11,0.1,0.23,0.15,0.36
					c0.07,0.17,0.14,0.33,0.21,0.47c0.06,0.11,0.12,0.13,0.17,0.12c0.06,0,0.12-0.01,0.19-0.02c0.07-0.01,0.13-0.03,0.19-0.05
					c0.05-0.02,0.1-0.05,0.14-0.09c0.01-0.01,0.03-0.04,0.03-0.08c0-0.09,0-0.16-0.01-0.21c-0.01-0.05-0.02-0.13-0.05-0.24
					c-0.01-0.05-0.04-0.16-0.08-0.34c-0.04-0.18-0.09-0.38-0.13-0.59c-0.14-0.59-0.27-1.17-0.4-1.76c-0.13-0.59-0.25-1.17-0.37-1.77
					c-0.01-0.03-0.02-0.05-0.04-0.07c-0.02-0.01-0.03-0.02-0.05-0.02l-1.1,0.01c0,0-0.01,0.01-0.02,0.03
					c-0.02,0.04-0.05,0.09-0.07,0.15c-0.03,0.07-0.05,0.12-0.06,0.14c-0.16,0.38-0.32,0.77-0.47,1.16
					c-0.16,0.39-0.31,0.78-0.44,1.17c-0.04,0.11-0.08,0.24-0.13,0.39c-0.05,0.16-0.1,0.32-0.16,0.49c-0.06,0.17-0.11,0.33-0.17,0.5
					c-0.05,0.17-0.1,0.32-0.14,0.45c-0.04,0.13-0.08,0.24-0.1,0.33c-0.02,0.05-0.03,0.09-0.03,0.11l0,0.36
					c0,0.01,0.01,0.02,0.04,0.03c0.09,0.02,0.19,0.03,0.29,0.03l0.07-0.01l0.1,0c0.04,0,0.08-0.01,0.11-0.04
					c0.04-0.03,0.09-0.08,0.12-0.13c0.04-0.06,0.08-0.13,0.11-0.21c0.04-0.09,0.08-0.18,0.11-0.28c0.05-0.12,0.1-0.24,0.15-0.36
					c0.06-0.12,0.13-0.23,0.21-0.33c0.09-0.09,0.19-0.17,0.3-0.23C167.9,180.58,168.01,180.55,168.14,180.54z"/>
			</g>
			<g>
				<path class="st56" d="M175.32,177.92c-0.13-0.24-0.28-0.48-0.46-0.7c-0.18-0.22-0.38-0.41-0.6-0.57
					c-0.22-0.16-0.46-0.28-0.71-0.38c-0.25-0.09-0.52-0.14-0.79-0.13c-0.13,0-0.25,0.03-0.36,0.08c-0.11,0.06-0.2,0.13-0.27,0.22
					c-0.08,0.09-0.13,0.19-0.17,0.3c-0.04,0.11-0.06,0.23-0.06,0.36c0,0.09,0.01,0.27,0.03,0.55c0.02,0.28,0.04,0.6,0.07,0.98
					c0.03,0.37,0.06,0.77,0.1,1.19c0.04,0.42,0.08,0.81,0.13,1.19c0.05,0.37,0.1,0.7,0.15,0.98c0.05,0.28,0.11,0.47,0.16,0.56
					c0.01,0.03,0.03,0.05,0.06,0.05c0.03,0.01,0.06,0.01,0.09,0.01l0.25,0.01c0.41,0,0.78-0.1,1.13-0.29
					c0.34-0.19,0.64-0.43,0.88-0.72c0.25-0.29,0.44-0.63,0.57-1.01c0.14-0.38,0.2-0.76,0.2-1.15c0-0.25-0.04-0.51-0.11-0.78
					C175.55,178.42,175.45,178.16,175.32,177.92z"/>
				<path class="st57" d="M173.15,182.77c-0.06,0.01-0.13,0.01-0.19,0.01l-0.26-0.01c-0.04,0-0.08,0-0.13-0.02
					c-0.08-0.02-0.14-0.07-0.17-0.15c-0.06-0.08-0.12-0.28-0.17-0.59c-0.05-0.28-0.1-0.62-0.15-0.99c-0.05-0.37-0.09-0.77-0.13-1.19
					c-0.04-0.42-0.07-0.82-0.1-1.19c-0.03-0.37-0.05-0.7-0.07-0.98c-0.02-0.28-0.03-0.47-0.03-0.56c0-0.14,0.02-0.28,0.07-0.41
					c0.05-0.13,0.12-0.25,0.2-0.35c0.09-0.1,0.2-0.19,0.32-0.25c0.13-0.07,0.27-0.1,0.43-0.1c0.29,0,0.57,0.05,0.84,0.14
					c0.27,0.1,0.52,0.23,0.75,0.4c0.23,0.17,0.44,0.37,0.63,0.59c0.18,0.23,0.35,0.47,0.48,0.72c0.14,0.25,0.24,0.52,0.32,0.8
					c0.07,0.28,0.11,0.55,0.12,0.82c0,0.41-0.07,0.81-0.21,1.21c-0.14,0.39-0.34,0.75-0.6,1.05c-0.26,0.31-0.57,0.56-0.93,0.76
					C173.84,182.64,173.51,182.74,173.15,182.77z M172.67,182.46c0.01,0,0.02,0,0.02,0l0.26,0.01c0.37-0.01,0.73-0.09,1.05-0.27
					c0.32-0.17,0.6-0.4,0.84-0.68c0.23-0.28,0.42-0.6,0.55-0.96c0.13-0.36,0.19-0.72,0.19-1.09c0-0.24-0.04-0.49-0.11-0.74
					c-0.07-0.25-0.17-0.5-0.29-0.73c-0.12-0.23-0.27-0.46-0.45-0.67c-0.17-0.21-0.36-0.39-0.57-0.54c-0.21-0.15-0.43-0.27-0.67-0.36
					c-0.23-0.09-0.48-0.13-0.73-0.13c-0.11,0-0.2,0.02-0.29,0.07c-0.09,0.05-0.16,0.1-0.23,0.18c-0.06,0.07-0.11,0.16-0.15,0.26
					c-0.03,0.09-0.05,0.2-0.05,0.3c0,0.09,0.01,0.27,0.03,0.54c0.02,0.28,0.04,0.6,0.07,0.97c0.03,0.37,0.06,0.77,0.1,1.19
					c0.04,0.42,0.08,0.82,0.13,1.18c0.05,0.37,0.1,0.7,0.15,0.98C172.6,182.28,172.65,182.41,172.67,182.46z M172.65,182.45
					C172.65,182.45,172.65,182.45,172.65,182.45C172.65,182.45,172.65,182.45,172.65,182.45z"/>
			</g>
			<g>
				<path class="st56" d="M180.34,177.52c-0.01-0.17-0.02-0.37-0.04-0.6c-0.01-0.09-0.03-0.16-0.06-0.21
					c-0.03-0.05-0.06-0.08-0.1-0.11c-0.04-0.02-0.09-0.04-0.15-0.04c-0.06,0-0.13-0.01-0.21-0.01l-0.1,0c-0.05,0-0.1,0-0.15,0.01
					c-0.06,0.01-0.11,0.02-0.15,0.04c-0.05,0.02-0.08,0.05-0.12,0.09c-0.03,0.04-0.05,0.09-0.05,0.15c0,0.1-0.01,0.23-0.02,0.41
					c-0.01,0.18-0.03,0.35-0.07,0.52c-0.03,0.17-0.09,0.32-0.16,0.45c-0.07,0.13-0.17,0.19-0.3,0.19c-0.12,0-0.21-0.05-0.28-0.17
					c-0.07-0.11-0.12-0.25-0.16-0.41c-0.04-0.16-0.06-0.32-0.07-0.49c-0.01-0.17-0.02-0.31-0.02-0.42
					c-0.01-0.03-0.01-0.06-0.01-0.09c0-0.03-0.01-0.06-0.01-0.09c-0.02-0.05-0.05-0.08-0.09-0.1c-0.04-0.02-0.08-0.02-0.13-0.02
					l-0.08,0c-0.19,0-0.34,0.04-0.45,0.1c-0.12,0.06-0.2,0.15-0.26,0.26c-0.06,0.11-0.1,0.23-0.12,0.38
					c-0.02,0.14-0.03,0.29-0.03,0.44c0,0.19,0.01,0.38,0.03,0.57c0.01,0.09,0.01,0.18,0.02,0.25c0.01,0.08,0.01,0.16,0.01,0.24
					c0,0.19,0.01,0.39,0.02,0.62c0.01,0.22,0.04,0.45,0.08,0.67c0.04,0.22,0.1,0.43,0.18,0.64c0.08,0.2,0.18,0.38,0.32,0.54
					c0.13,0.16,0.29,0.28,0.48,0.37c0.19,0.09,0.42,0.14,0.68,0.13c0.25,0,0.46-0.05,0.64-0.14c0.18-0.09,0.32-0.21,0.44-0.35
					c0.12-0.15,0.21-0.31,0.28-0.5c0.07-0.19,0.12-0.39,0.16-0.59c0.03-0.21,0.06-0.41,0.06-0.62c0.01-0.21,0.01-0.4,0.01-0.58
					c0-0.2,0-0.38-0.01-0.54c0-0.16-0.01-0.32-0.01-0.48C180.36,177.86,180.35,177.7,180.34,177.52z"/>
				<path class="st57" d="M178.93,181.98c-0.05,0-0.09,0.01-0.14,0.01c-0.29,0-0.54-0.05-0.75-0.15c-0.21-0.1-0.39-0.24-0.53-0.41
					c-0.14-0.17-0.26-0.37-0.34-0.58c-0.08-0.21-0.15-0.43-0.19-0.66c-0.04-0.23-0.07-0.46-0.09-0.69
					c-0.01-0.23-0.02-0.43-0.03-0.62c0-0.08,0-0.15-0.01-0.23l-0.02-0.26c-0.02-0.19-0.03-0.38-0.03-0.58
					c0-0.16,0.01-0.32,0.03-0.47c0.02-0.16,0.07-0.31,0.14-0.43c0.07-0.13,0.18-0.24,0.33-0.32c0.14-0.08,0.32-0.12,0.53-0.12
					l0.08,0c0.07,0,0.13,0.01,0.19,0.04c0.05,0.02,0.13,0.07,0.18,0.18l0.01,0.03l0,0.03c0,0.02,0,0.05,0,0.08
					c0,0.03,0.01,0.05,0.01,0.07l0,0.02l0,0.02c0,0.11,0.01,0.24,0.02,0.41c0.01,0.16,0.03,0.32,0.07,0.47
					c0.03,0.14,0.08,0.26,0.14,0.36c0.05,0.08,0.1,0.09,0.15,0.09c0.05,0,0.1-0.01,0.16-0.11c0.06-0.11,0.11-0.25,0.14-0.41
					c0.03-0.17,0.05-0.33,0.06-0.5l0.02-0.41c0-0.09,0.03-0.18,0.09-0.25c0.05-0.05,0.1-0.09,0.17-0.12
					c0.06-0.03,0.13-0.05,0.2-0.05c0.06-0.01,0.12-0.01,0.17-0.01l0.1,0c0.08,0,0.16,0,0.22,0.01c0.08,0.01,0.16,0.03,0.22,0.07
					c0.06,0.04,0.12,0.1,0.15,0.17c0.04,0.06,0.06,0.15,0.08,0.26l0.04,0.61c0.01,0.17,0.02,0.34,0.03,0.5
					c0.01,0.16,0.01,0.32,0.01,0.49l0.01,0.54c0,0.18,0,0.38-0.01,0.59c-0.01,0.22-0.03,0.43-0.07,0.64
					c-0.04,0.22-0.09,0.43-0.17,0.62c-0.08,0.2-0.18,0.39-0.31,0.54c-0.13,0.16-0.3,0.3-0.49,0.4
					C179.34,181.91,179.15,181.96,178.93,181.98z M177.74,176.8c-0.12,0.01-0.21,0.03-0.29,0.08c-0.09,0.05-0.16,0.11-0.2,0.2
					c-0.05,0.09-0.09,0.2-0.1,0.32c-0.02,0.13-0.03,0.27-0.03,0.42c0,0.19,0.01,0.37,0.03,0.55l0.02,0.26
					c0.01,0.08,0.01,0.17,0.01,0.25c0,0.18,0.01,0.39,0.02,0.61c0.01,0.22,0.04,0.43,0.08,0.65c0.04,0.21,0.1,0.41,0.17,0.61
					c0.07,0.19,0.17,0.35,0.29,0.49c0.12,0.14,0.26,0.25,0.43,0.33c0.16,0.08,0.37,0.12,0.61,0.12c0.22,0,0.42-0.04,0.57-0.12
					c0.16-0.08,0.29-0.18,0.39-0.31c0.11-0.13,0.19-0.29,0.26-0.46c0.07-0.18,0.12-0.37,0.15-0.56c0.03-0.2,0.05-0.4,0.06-0.6
					c0.01-0.2,0.01-0.39,0.01-0.57l-0.01-0.54c0-0.16-0.01-0.32-0.01-0.47c-0.01-0.16-0.02-0.32-0.03-0.49l-0.04-0.6
					c-0.01-0.08-0.03-0.12-0.04-0.14c-0.01-0.02-0.03-0.04-0.04-0.05c-0.02-0.01-0.04-0.02-0.08-0.02c-0.06,0-0.12-0.01-0.19-0.01
					l-0.1,0c-0.04,0-0.09,0-0.14,0.01c-0.04,0-0.07,0.01-0.1,0.03c-0.03,0.01-0.05,0.03-0.07,0.05c-0.01,0.01-0.01,0.02-0.01,0.04
					l-0.02,0.42c-0.01,0.18-0.03,0.37-0.07,0.55c-0.04,0.19-0.1,0.36-0.18,0.5c-0.13,0.23-0.3,0.28-0.43,0.28
					c-0.17,0-0.32-0.08-0.42-0.24c-0.08-0.13-0.14-0.28-0.18-0.45c-0.04-0.16-0.06-0.34-0.07-0.52c-0.01-0.17-0.02-0.3-0.02-0.41
					c-0.01-0.03-0.01-0.06-0.01-0.1c0-0.02,0-0.04,0-0.05c-0.02-0.02-0.04-0.02-0.06-0.02l-0.08,0
					C177.8,176.79,177.77,176.79,177.74,176.8z"/>
			</g>
			<g>
				<path class="st56" d="M185.88,181.18c-0.01-0.05-0.04-0.16-0.08-0.34c-0.04-0.18-0.09-0.38-0.13-0.59
					c-0.14-0.59-0.27-1.17-0.4-1.76c-0.13-0.58-0.25-1.17-0.37-1.77c-0.01-0.06-0.04-0.11-0.09-0.16c-0.05-0.04-0.1-0.06-0.16-0.06
					l-1.1,0.01c-0.06,0-0.11,0.04-0.15,0.11c-0.02,0.04-0.05,0.09-0.08,0.16c-0.03,0.07-0.05,0.11-0.06,0.14
					c-0.16,0.39-0.32,0.78-0.48,1.17c-0.16,0.39-0.31,0.78-0.44,1.18c-0.04,0.11-0.08,0.24-0.13,0.4c-0.05,0.16-0.1,0.32-0.16,0.49
					c-0.06,0.17-0.11,0.34-0.17,0.5c-0.05,0.17-0.1,0.32-0.14,0.45c-0.04,0.13-0.08,0.24-0.1,0.33c-0.03,0.09-0.04,0.13-0.04,0.14
					l0,0.38c0,0.1,0.06,0.16,0.16,0.18c0.11,0.02,0.22,0.04,0.32,0.03l0.03,0l0.06-0.01l0.03,0l0.06,0c0.08,0,0.15-0.02,0.21-0.07
					c0.06-0.04,0.11-0.1,0.16-0.17c0.05-0.07,0.09-0.15,0.13-0.24c0.04-0.09,0.08-0.19,0.12-0.29c0.04-0.12,0.09-0.23,0.14-0.35
					c0.05-0.11,0.11-0.21,0.19-0.29c0.07-0.08,0.16-0.14,0.26-0.19c0.1-0.05,0.22-0.07,0.36-0.08c0.13,0,0.24,0.02,0.34,0.07
					c0.09,0.05,0.18,0.11,0.24,0.19c0.07,0.08,0.13,0.18,0.18,0.28c0.05,0.11,0.1,0.22,0.14,0.34c0.07,0.19,0.14,0.35,0.22,0.49
					c0.08,0.14,0.18,0.21,0.31,0.21c0.06,0,0.13-0.01,0.22-0.02c0.08-0.01,0.16-0.03,0.23-0.07c0.07-0.03,0.14-0.07,0.19-0.13
					c0.05-0.05,0.08-0.12,0.07-0.2c0-0.1,0-0.17-0.01-0.23C185.93,181.39,185.91,181.3,185.88,181.18z"/>
				<path class="st57" d="M185.34,182.24c-0.03,0-0.07,0-0.1,0c-0.13,0-0.32-0.05-0.45-0.29c-0.08-0.15-0.15-0.32-0.23-0.51
					c-0.04-0.12-0.09-0.23-0.13-0.32c-0.05-0.09-0.1-0.18-0.16-0.25c-0.05-0.06-0.12-0.11-0.19-0.15c-0.07-0.04-0.16-0.05-0.26-0.05
					c-0.12,0-0.21,0.02-0.29,0.06c-0.08,0.04-0.15,0.09-0.21,0.16c-0.06,0.07-0.12,0.15-0.16,0.25c-0.05,0.11-0.1,0.22-0.14,0.33
					c-0.04,0.11-0.08,0.2-0.12,0.3c-0.04,0.1-0.09,0.19-0.14,0.27c-0.06,0.08-0.12,0.15-0.2,0.21c-0.09,0.06-0.18,0.1-0.3,0.1
					l-0.06,0l-0.07,0.01l-0.04,0c-0.12,0-0.24-0.01-0.36-0.04c-0.18-0.04-0.29-0.16-0.29-0.33l0-0.38c0-0.03,0-0.04,0.05-0.19
					c0.03-0.08,0.06-0.19,0.1-0.33c0.04-0.13,0.09-0.29,0.14-0.46c0.05-0.17,0.11-0.34,0.17-0.51c0.06-0.17,0.11-0.33,0.16-0.48
					c0.05-0.16,0.09-0.29,0.13-0.4c0.14-0.39,0.29-0.79,0.45-1.19c0.16-0.39,0.32-0.78,0.48-1.17c0.01-0.03,0.03-0.07,0.06-0.14
					c0.03-0.07,0.06-0.13,0.08-0.17c0.09-0.17,0.22-0.19,0.29-0.19l1.1-0.01c0.1,0,0.19,0.03,0.27,0.1
					c0.07,0.07,0.12,0.15,0.14,0.24c0.12,0.59,0.24,1.18,0.37,1.76c0.13,0.58,0.26,1.17,0.39,1.76c0.05,0.22,0.09,0.41,0.13,0.59
					c0.04,0.18,0.07,0.29,0.08,0.33l0,0c0.03,0.13,0.05,0.22,0.06,0.28c0.01,0.06,0.01,0.14,0.01,0.25c0,0.12-0.04,0.23-0.12,0.31
					c-0.06,0.07-0.14,0.12-0.24,0.16c-0.08,0.04-0.18,0.06-0.27,0.08C185.43,182.23,185.38,182.23,185.34,182.24z M183.72,180.35
					c0.03,0,0.06,0,0.09,0c0.15,0,0.29,0.03,0.41,0.08c0.11,0.06,0.21,0.13,0.29,0.23c0.08,0.09,0.15,0.2,0.2,0.32
					c0.05,0.11,0.1,0.23,0.15,0.36c0.07,0.18,0.14,0.33,0.21,0.47c0.07,0.13,0.14,0.13,0.17,0.12c0.06,0,0.12-0.01,0.19-0.02
					c0.07-0.01,0.13-0.03,0.19-0.06c0.05-0.02,0.1-0.05,0.14-0.09c0.01-0.02,0.03-0.04,0.03-0.08c0-0.09,0-0.16-0.01-0.21
					c-0.01-0.05-0.02-0.13-0.05-0.24c-0.01-0.05-0.04-0.16-0.08-0.34c-0.04-0.18-0.09-0.38-0.13-0.59c-0.14-0.59-0.27-1.17-0.4-1.76
					c-0.13-0.59-0.25-1.18-0.37-1.77c-0.01-0.03-0.02-0.05-0.04-0.07c-0.02-0.01-0.03-0.02-0.05-0.02l-1.1,0.01
					c0,0-0.01,0.01-0.02,0.03c-0.02,0.04-0.05,0.09-0.07,0.15c-0.03,0.07-0.05,0.12-0.06,0.14c-0.16,0.38-0.32,0.77-0.48,1.16
					c-0.16,0.39-0.31,0.78-0.44,1.17c-0.04,0.11-0.08,0.24-0.13,0.39c-0.05,0.16-0.1,0.32-0.16,0.49c-0.06,0.17-0.11,0.33-0.17,0.5
					c-0.05,0.17-0.1,0.32-0.14,0.45c-0.04,0.13-0.08,0.24-0.1,0.33c-0.02,0.05-0.03,0.09-0.03,0.11l0,0.36
					c0,0.01,0.01,0.02,0.04,0.03c0.1,0.02,0.19,0.03,0.29,0.03l0.07-0.01l0.1,0c0.05,0,0.08-0.01,0.11-0.04
					c0.04-0.03,0.09-0.08,0.12-0.13c0.04-0.06,0.08-0.13,0.11-0.21c0.04-0.09,0.08-0.18,0.11-0.28c0.05-0.12,0.1-0.24,0.15-0.36
					c0.06-0.12,0.13-0.23,0.21-0.33c0.09-0.09,0.19-0.17,0.3-0.23C183.48,180.39,183.59,180.36,183.72,180.35z"/>
			</g>
			<g>
				<path class="st56" d="M191.03,176.69c-0.03-0.06-0.07-0.11-0.12-0.15c-0.05-0.04-0.12-0.06-0.2-0.06l-0.07,0
					c-0.08,0.01-0.21,0.02-0.38,0.03c-0.17,0.01-0.36,0.02-0.58,0.04c-0.22,0.01-0.44,0.03-0.68,0.04
					c-0.24,0.01-0.46,0.03-0.68,0.04c-0.22,0.01-0.41,0.03-0.58,0.04c-0.17,0.01-0.29,0.02-0.37,0.03c-0.03,0-0.08,0.01-0.13,0.02
					c-0.05,0.01-0.1,0.04-0.14,0.06c-0.05,0.03-0.08,0.06-0.11,0.1c-0.03,0.04-0.05,0.09-0.05,0.14l0.01,0.58
					c0,0.03,0.01,0.06,0.04,0.09c0.03,0.03,0.05,0.04,0.08,0.05l0.02,0.01c0.04,0.02,0.09,0.03,0.14,0.03l0.93-0.01
					c0.01,0,0.03,0,0.06,0.01c0.03,0.01,0.06,0.02,0.09,0.03c0.03,0.01,0.06,0.02,0.08,0.04c0.03,0.02,0.04,0.03,0.04,0.04
					l0.05,3.77c0,0.05,0.02,0.09,0.04,0.12c0.03,0.03,0.06,0.05,0.11,0.06c0.04,0.01,0.09,0.02,0.14,0.03
					c0.05,0.01,0.09,0.01,0.13,0.01c0.04,0,0.06,0,0.08-0.01l0.05,0c0.03,0,0.07,0,0.14-0.01c0.06,0,0.12-0.01,0.18-0.03
					c0.06-0.01,0.11-0.04,0.16-0.07c0.04-0.03,0.07-0.07,0.07-0.12l-0.04-3.66c0-0.08,0.01-0.14,0.04-0.2
					c0.03-0.05,0.07-0.09,0.12-0.12c0.05-0.03,0.11-0.04,0.18-0.05c0.07-0.01,0.15-0.01,0.23-0.02c0.03,0,0.07,0,0.11,0
					c0.04,0,0.08,0,0.11,0.01l0.22,0c0.05,0,0.11,0,0.17-0.01c0.06-0.01,0.13-0.02,0.18-0.04c0.06-0.02,0.1-0.05,0.14-0.09
					c0.04-0.04,0.06-0.09,0.06-0.16l0.01-0.24c0-0.06,0-0.12-0.01-0.19C191.07,176.81,191.05,176.75,191.03,176.69z"/>
				<path class="st57" d="M189.18,182.02c-0.01,0-0.02,0-0.03,0c-0.06,0-0.11,0.01-0.14,0.01l-0.03,0c-0.03,0.01-0.06,0.01-0.1,0.01
					c-0.05,0-0.1,0-0.15-0.01c-0.06-0.01-0.11-0.02-0.17-0.03c-0.07-0.02-0.12-0.05-0.17-0.1c-0.04-0.04-0.09-0.11-0.09-0.23
					l-0.04-3.7c-0.01,0-0.01-0.01-0.02-0.01c-0.02-0.01-0.05-0.02-0.07-0.02l-0.95,0.01c-0.08,0-0.15-0.02-0.22-0.05
					c-0.04-0.02-0.09-0.05-0.13-0.09c-0.06-0.05-0.09-0.12-0.09-0.2l-0.01-0.58c0-0.09,0.03-0.17,0.08-0.23
					c0.04-0.06,0.1-0.1,0.16-0.14c0.06-0.03,0.12-0.06,0.18-0.08c0.07-0.02,0.12-0.03,0.17-0.03c0.07,0,0.19-0.01,0.36-0.03
					l1.26-0.08c0.24-0.01,0.46-0.03,0.68-0.04l0.58-0.04c0.17-0.01,0.3-0.02,0.38-0.03l0.08,0c0.12,0,0.22,0.03,0.3,0.09
					c0.07,0.06,0.13,0.13,0.17,0.21c0.03,0.07,0.05,0.16,0.06,0.24c0.01,0.08,0.01,0.14,0.01,0.2l-0.01,0.24
					c0,0.13-0.06,0.22-0.1,0.27c-0.06,0.06-0.13,0.1-0.21,0.13c-0.07,0.02-0.14,0.04-0.21,0.04c-0.07,0.01-0.13,0.01-0.19,0.01
					l-0.22,0c-0.05-0.01-0.09-0.01-0.12-0.01l-0.11,0c-0.07,0-0.14,0.01-0.21,0.01c-0.05,0.01-0.1,0.02-0.13,0.04
					c-0.02,0.01-0.04,0.03-0.06,0.06c-0.02,0.03-0.02,0.06-0.02,0.11l0.04,3.66c0,0.11-0.05,0.2-0.14,0.26
					c-0.06,0.04-0.13,0.07-0.2,0.09C189.31,182,189.25,182.01,189.18,182.02z M188.95,181.7l0.01,0.01l0.05,0
					c0.03,0,0.07,0,0.13-0.01c0.05,0,0.1-0.01,0.15-0.02c0.04-0.01,0.08-0.03,0.11-0.05l-0.05-3.65c0-0.11,0.02-0.2,0.07-0.28
					c0.05-0.08,0.11-0.14,0.19-0.18c0.07-0.03,0.14-0.06,0.23-0.07c0.08-0.01,0.16-0.02,0.24-0.02l0.11,0c0.04,0,0.09,0,0.14,0.01
					l0.2,0c0.05,0,0.1,0,0.16-0.01c0.05,0,0.1-0.01,0.15-0.03c0.03-0.01,0.06-0.02,0.08-0.05c0.01-0.01,0.01-0.03,0.01-0.05
					l0.01-0.24c0-0.05,0-0.11-0.01-0.17c0-0.05-0.02-0.1-0.04-0.15c-0.02-0.03-0.04-0.06-0.07-0.09c-0.02-0.02-0.06-0.03-0.11-0.02
					l-0.07,0c-0.07,0.01-0.2,0.02-0.37,0.03l-0.58,0.04c-0.22,0.01-0.44,0.03-0.68,0.04l-1.26,0.08c-0.17,0.01-0.29,0.02-0.37,0.03
					c-0.02,0-0.05,0-0.1,0.02c-0.04,0.01-0.07,0.03-0.11,0.05c-0.03,0.02-0.05,0.03-0.07,0.06c-0.01,0.01-0.01,0.02-0.01,0.04
					l0.01,0.58c0.01-0.01,0.01-0.01,0.02,0l0.03,0.01c0.02,0.01,0.04,0.02,0.07,0.02l0.93-0.01c0.03,0,0.06,0.01,0.1,0.02
					c0.03,0.01,0.07,0.02,0.1,0.03c0.04,0.01,0.08,0.03,0.11,0.06c0.07,0.05,0.11,0.11,0.11,0.18l0.05,3.77
					c0.01,0.02,0.02,0.03,0.04,0.03c0.03,0.01,0.07,0.02,0.11,0.02c0.04,0,0.08,0.01,0.11,0.01c0.01,0,0.03,0,0.03,0L188.95,181.7z
					 M188.26,177.89C188.26,177.89,188.26,177.89,188.26,177.89L188.26,177.89z"/>
			</g>
			<g>
				<path class="st56" d="M196.35,180.45c-0.04-0.09-0.12-0.14-0.25-0.15l-0.16,0c-0.21,0-0.42,0.03-0.62,0.07
					c-0.2,0.04-0.41,0.09-0.61,0.14c-0.2,0.05-0.41,0.1-0.61,0.14c-0.2,0.04-0.4,0.06-0.61,0.07c-0.03,0-0.04-0.02-0.04-0.07
					c0-0.07,0.04-0.16,0.12-0.25c0.08-0.09,0.18-0.19,0.31-0.3c0.13-0.11,0.27-0.21,0.43-0.32c0.16-0.11,0.31-0.22,0.47-0.33
					c0.13-0.1,0.27-0.19,0.4-0.28c0.13-0.09,0.24-0.17,0.34-0.25c0.1-0.08,0.18-0.16,0.24-0.22c0.06-0.07,0.09-0.13,0.09-0.19
					c0-0.1-0.02-0.18-0.07-0.23c-0.04-0.05-0.12-0.07-0.23-0.07c-0.18,0-0.36,0.01-0.54,0.03c-0.18,0.02-0.36,0.04-0.54,0.06
					c-0.17,0.02-0.34,0.04-0.51,0.05c-0.17,0.02-0.34,0.03-0.52,0.03c0.01-0.07,0.06-0.14,0.14-0.22c0.08-0.08,0.19-0.16,0.32-0.24
					c0.13-0.08,0.27-0.16,0.43-0.25c0.16-0.09,0.32-0.17,0.47-0.26c0.15-0.08,0.3-0.16,0.45-0.24c0.15-0.08,0.27-0.16,0.38-0.23
					c0.11-0.07,0.2-0.15,0.27-0.22c0.07-0.07,0.1-0.14,0.1-0.2c0-0.08-0.02-0.15-0.05-0.21c-0.03-0.06-0.1-0.09-0.19-0.09
					l-0.22-0.01c-0.05,0-0.15,0.01-0.3,0.02c-0.15,0.01-0.32,0.03-0.52,0.05c-0.2,0.02-0.41,0.05-0.64,0.09
					c-0.23,0.04-0.45,0.08-0.65,0.13c-0.21,0.05-0.39,0.11-0.56,0.16c-0.17,0.06-0.29,0.13-0.37,0.2c-0.04,0.05-0.07,0.11-0.07,0.18
					l0.05,3.82c0,0.1,0.01,0.22,0.02,0.35c0.01,0.13,0.03,0.25,0.07,0.37c0.04,0.12,0.09,0.22,0.15,0.3
					c0.07,0.08,0.15,0.12,0.26,0.12c0.06,0,0.18-0.01,0.35-0.03c0.17-0.02,0.37-0.05,0.59-0.09c0.22-0.04,0.46-0.08,0.72-0.13
					c0.25-0.05,0.5-0.1,0.72-0.16c0.23-0.06,0.43-0.12,0.62-0.18c0.18-0.06,0.32-0.12,0.4-0.19c0.03-0.02,0.05-0.05,0.06-0.09
					c0.01-0.03,0.02-0.07,0.02-0.1l0-0.28C196.41,180.64,196.39,180.54,196.35,180.45z"/>
				<path class="st57" d="M193.04,182.14c-0.04,0-0.07,0-0.1,0.01c-0.15,0-0.29-0.06-0.38-0.17c-0.08-0.09-0.14-0.21-0.18-0.35
					c-0.04-0.13-0.06-0.27-0.07-0.41c-0.01-0.13-0.02-0.25-0.02-0.36l-0.05-3.82c0-0.12,0.04-0.22,0.11-0.29
					c0.1-0.1,0.24-0.17,0.43-0.24c0.18-0.06,0.37-0.12,0.58-0.17c0.21-0.05,0.43-0.1,0.67-0.13c0.23-0.04,0.45-0.07,0.65-0.09
					c0.2-0.02,0.38-0.04,0.53-0.05c0.16-0.01,0.26-0.02,0.31-0.02l0.23,0.01c0.19,0,0.28,0.1,0.32,0.17
					c0.05,0.08,0.07,0.18,0.08,0.29c0,0.1-0.05,0.21-0.14,0.31c-0.08,0.08-0.17,0.16-0.29,0.24c-0.11,0.08-0.25,0.16-0.4,0.24
					c-0.15,0.08-0.3,0.16-0.45,0.24l-0.47,0.26c-0.15,0.09-0.29,0.17-0.42,0.25c-0.08,0.05-0.16,0.11-0.22,0.16
					c0.06,0,0.12-0.01,0.18-0.01c0.17-0.02,0.34-0.03,0.51-0.05c0.18-0.02,0.36-0.05,0.55-0.06c0.19-0.02,0.38-0.03,0.56-0.03
					c0.16,0,0.28,0.04,0.36,0.13c0.07,0.08,0.1,0.19,0.1,0.33c0,0.1-0.04,0.19-0.13,0.29c-0.06,0.08-0.15,0.16-0.25,0.24
					c-0.1,0.08-0.22,0.17-0.35,0.26c-0.13,0.09-0.26,0.18-0.39,0.28l-0.47,0.33c-0.15,0.1-0.29,0.21-0.41,0.32
					c-0.12,0.1-0.22,0.19-0.29,0.28c-0.02,0.02-0.03,0.04-0.04,0.05c0.14-0.01,0.28-0.03,0.42-0.06c0.2-0.04,0.4-0.09,0.6-0.14
					c0.21-0.05,0.41-0.1,0.62-0.14c0.21-0.05,0.43-0.07,0.65-0.07l0.16,0c0.26,0.01,0.36,0.15,0.4,0.24l0,0
					c0.05,0.11,0.07,0.23,0.08,0.36l0,0.28c-0.01,0.07-0.02,0.11-0.03,0.15c-0.02,0.07-0.06,0.12-0.11,0.16
					c-0.1,0.08-0.25,0.15-0.45,0.22c-0.19,0.06-0.4,0.12-0.63,0.18c-0.23,0.06-0.48,0.11-0.73,0.16c-0.26,0.05-0.5,0.09-0.72,0.13
					c-0.23,0.04-0.42,0.07-0.6,0.09C193.19,182.13,193.1,182.14,193.04,182.14z M195.33,176.37c-0.03,0-0.07,0.01-0.11,0.01
					c-0.15,0.01-0.32,0.03-0.52,0.05c-0.2,0.02-0.41,0.05-0.63,0.09c-0.22,0.04-0.44,0.08-0.64,0.13c-0.2,0.05-0.38,0.1-0.55,0.16
					c-0.18,0.06-0.27,0.12-0.31,0.16c0,0-0.02,0.02-0.02,0.06l0.05,3.82c0,0.1,0.01,0.21,0.02,0.34c0.01,0.12,0.03,0.23,0.06,0.34
					c0.03,0.1,0.07,0.18,0.12,0.24c0.04,0.04,0.08,0.06,0.14,0.06c0.06,0,0.17-0.01,0.33-0.03c0.17-0.02,0.36-0.05,0.58-0.09
					c0.22-0.04,0.46-0.08,0.71-0.13c0.25-0.05,0.49-0.1,0.72-0.16c0.22-0.05,0.43-0.11,0.61-0.17c0.21-0.07,0.31-0.13,0.36-0.16
					c0.01-0.03,0.02-0.06,0.02-0.09l-0.01-0.25c0-0.09-0.02-0.17-0.05-0.24c-0.01-0.02-0.02-0.05-0.11-0.05l-0.15,0
					c-0.2,0-0.4,0.03-0.59,0.07c-0.2,0.04-0.41,0.09-0.61,0.14c-0.2,0.05-0.41,0.1-0.61,0.14c-0.21,0.04-0.42,0.07-0.64,0.07
					c-0.1,0-0.2-0.07-0.2-0.22c0-0.11,0.05-0.23,0.15-0.36c0.08-0.1,0.19-0.21,0.33-0.32c0.13-0.11,0.28-0.22,0.44-0.33l0.47-0.33
					c0.13-0.1,0.27-0.19,0.4-0.28c0.12-0.09,0.24-0.17,0.33-0.25c0.09-0.07,0.16-0.14,0.21-0.2c0.04-0.05,0.05-0.08,0.05-0.08
					c0-0.09-0.02-0.12-0.03-0.13l0,0c0,0-0.02-0.02-0.11-0.02c-0.18,0-0.35,0.01-0.53,0.03c-0.18,0.02-0.36,0.04-0.54,0.06
					c-0.17,0.02-0.34,0.04-0.52,0.05c-0.17,0.02-0.35,0.03-0.53,0.03l-0.19,0l0.03-0.18c0.02-0.1,0.08-0.21,0.19-0.31
					c0.09-0.09,0.2-0.17,0.34-0.26c0.13-0.08,0.27-0.17,0.43-0.26l0.47-0.26c0.15-0.08,0.3-0.16,0.45-0.24
					c0.14-0.08,0.26-0.15,0.37-0.23c0.1-0.07,0.18-0.13,0.24-0.2c0.04-0.05,0.06-0.08,0.06-0.09c0-0.05-0.01-0.09-0.03-0.13
					c0,0-0.01-0.01-0.05-0.01l-0.23-0.01C195.48,176.36,195.42,176.36,195.33,176.37z"/>
			</g>
		</g>
	</g>
</g>
<g>
	<path class="st21" d="M287.21,349.98c1.07-0.85,2.23-1.37,1.7-2.84c0.79,0.29,0.61,1.5,1.61,1.14c0.91-0.33,0.08-1.2,0.5-1.69
		c0.3,0.02,0.28,0.32,0.44,0.46c0.34,0.29,0.29,1.11,0.91,0.91c0.47-0.15,0.13-0.8,0.24-1.21c0.02-0.06,0.07-0.11,0.2-0.3
		c0.45,2,2.1,1.49,3.43,1.83c-0.76-1.42-2.34-2.56-3.97-2.66c-2.71-0.17-4.85,1.01-6.53,3.11c-2.1-3.23-6.87-3.33-9.76-0.26
		c7.16,0.31,7.76,0.45,8.27,1.85c-5.22-1.29-7.83,0.17-9.17,5.22c1.39-0.78,2.69-1.57,4.04-2.25c1.36-0.68,2.61-1.69,4.37-1.67
		c-2.37,1.46-3.04,3-2.35,5.28c0.36-0.59,0.67-1.17,1.05-1.72c0.42-0.61,0.93-1.17,1.57-1.57c0.23-0.15,0.5-0.28,0.74-0.16
		c0.32,0.16,0.09,0.47,0.04,0.7c-0.15,0.76-0.38,1.51-0.53,2.27c-0.68,3.44-1.24,6.88-0.83,10.43c0.2,1.76,0.63,3.46,0.96,5.24h3.38
		c-0.11-0.14-0.2-0.32-0.29-0.54c-2.24-5.82-1.69-11.71-0.56-17.62c0.09-0.49,0.39-0.54,0.7-0.22c0.44,0.45,0.87,0.93,1.23,1.45
		c0.61,0.89,1.16,1.83,1.77,2.81c0.6-2.47-0.26-4.37-2.19-6.09c1.17,0.01,2.24,0.22,2.17-1.34c0.28,0.46,0.48,0.82,0.62,1.19
		c0.16,0.43,0.53,0.56,0.88,0.54c0.37-0.01,0.33-0.43,0.4-0.7c0.08-0.31,0.18-0.61,0.34-1.12c0.2,0.76,0.36,1.33,0.5,1.9
		c0.06,0.25,0.2,0.38,0.45,0.41c0.32,0.03,0.32-0.26,0.41-0.44c0.16-0.32-0.01-0.77,0.45-1.04c0.18,1.12,0.25,2.33,1.81,2.34
		C295.96,350.27,292.81,348.92,287.21,349.98z"/>
	<path class="st21" d="M308.22,350.08c-0.93-0.74-1.94-1.19-1.48-2.47c-0.68,0.26-0.53,1.31-1.4,0.99
		c-0.79-0.29-0.07-1.05-0.44-1.47c-0.26,0.01-0.24,0.28-0.38,0.4c-0.29,0.25-0.25,0.96-0.79,0.79c-0.41-0.13-0.11-0.69-0.21-1.05
		c-0.01-0.05-0.06-0.09-0.18-0.26c-0.39,1.74-1.83,1.29-2.98,1.59c0.66-1.24,2.03-2.22,3.45-2.31c2.36-0.15,4.21,0.88,5.67,2.7
		c1.82-2.8,5.97-2.89,8.47-0.22c-6.22,0.27-6.74,0.39-7.18,1.6c4.53-1.12,6.8,0.15,7.97,4.54c-1.21-0.68-2.33-1.36-3.51-1.96
		c-1.18-0.59-2.27-1.47-3.8-1.45c2.06,1.27,2.64,2.61,2.04,4.58c-0.31-0.51-0.58-1.02-0.91-1.49c-0.37-0.53-0.81-1.01-1.36-1.37
		c-0.2-0.13-0.44-0.24-0.64-0.14c-0.28,0.14-0.08,0.41-0.04,0.6c0.13,0.66,0.33,1.31,0.46,1.98c0.59,2.99,1.07,5.98,0.72,9.06
		c-0.17,1.53-0.54,3.01-0.83,4.55h-2.93c0.09-0.12,0.18-0.28,0.25-0.47c1.94-5.05,1.47-10.17,0.49-15.3
		c-0.08-0.42-0.34-0.46-0.61-0.19c-0.38,0.39-0.76,0.81-1.06,1.26c-0.53,0.78-1,1.59-1.54,2.44c-0.52-2.15,0.23-3.79,1.9-5.29
		c-1.02,0.01-1.95,0.19-1.89-1.16c-0.24,0.4-0.41,0.71-0.54,1.03c-0.14,0.37-0.46,0.49-0.77,0.47c-0.32-0.01-0.28-0.37-0.35-0.61
		c-0.07-0.27-0.16-0.53-0.29-0.97c-0.17,0.66-0.31,1.16-0.43,1.65c-0.05,0.22-0.17,0.33-0.39,0.35c-0.28,0.02-0.28-0.22-0.36-0.38
		c-0.14-0.28,0.01-0.67-0.39-0.9c-0.15,0.97-0.22,2.03-1.57,2.03C300.62,350.33,303.36,349.16,308.22,350.08z"/>
</g>
</svg>
