<?xml version="1.0" encoding="utf-8"?>
<!-- Generator: Adobe Illustrator 23.0.2, SVG Export Plug-In . SVG Version: 6.00 Build 0)  -->
<svg version="1.1" id="Layer_1" xmlns="http://www.w3.org/2000/svg" xmlns:xlink="http://www.w3.org/1999/xlink" x="0px" y="0px"
	 viewBox="0 0 488.45 488.45" style="enable-background:new 0 0 488.45 488.45;" xml:space="preserve">
<style type="text/css">
	.st0{fill:#C6C6C6;}
	.st1{fill:#070707;}
	.st2{fill:#090909;}
	.st3{fill:none;stroke:#000000;stroke-width:3;stroke-miterlimit:10;}
	.st4{fill:#F5E586;}
	.st5{fill:#2582AC;}
	.st6{fill:#6B3C39;}
	.st7{fill:#823F32;}
	.st8{fill:#562B25;}
	.st9{fill:none;stroke:#070707;stroke-miterlimit:10;}
	.st10{clip-path:url(#SVGID_2_);}
	.st11{fill:none;stroke:#F5E586;stroke-width:5;stroke-miterlimit:10;}
	.st12{clip-path:url(#SVGID_4_);}
	.st13{fill:#191413;}
	.st14{fill:#B88B74;}
	.st15{fill:#F1A562;}
	.st16{fill:#FDFDFD;}
	.st17{fill:#EF331A;}
	.st18{fill:#D6271A;}
	.st19{fill:#FFFFFF;}
	.st20{fill:#6B0E0A;}
	.st21{fill:#F9F9F8;}
	.st22{fill:#FEFEFF;}
	.st23{fill:#1D9533;stroke:#FFFFFF;stroke-width:5;stroke-miterlimit:10;}
	.st24{fill:#EF331A;stroke:#B23B32;stroke-width:2;stroke-miterlimit:10;}
	.st25{fill:#4A0F7B;}
	.st26{fill:#C6160E;}
	.st27{clip-path:url(#SVGID_6_);}
	.st28{fill:none;stroke:#562B25;stroke-width:1.2;stroke-miterlimit:10;}
	.st29{clip-path:url(#SVGID_8_);}
	.st30{fill:#1D9533;}
	.st31{fill:#0C5822;}
	.st32{fill:#0B3615;}
	.st33{fill:#1D9533;stroke:#115F24;stroke-width:1.5;stroke-miterlimit:10;}
	.st34{fill:#134A1D;}
	.st35{clip-path:url(#SVGID_10_);}
	.st36{fill:#EEF4F5;}
	.st37{fill:#155D84;}
	.st38{fill:#1879AE;}
	.st39{fill:#114156;}
	.st40{fill:#121111;}
	.st41{fill:#33110D;}
	.st42{clip-path:url(#SVGID_12_);}
	.st43{fill:#A0522D;}
	.st44{fill:#F42121;}
	.st45{fill:#FAB00B;}
	.st46{fill:#F5DDDB;}
	.st47{fill:#F66831;}
	.st48{opacity:0.49;fill:url(#);}
	.st49{opacity:0.53;}
	.st50{clip-path:url(#SVGID_14_);}
	.st51{fill:#DDDDDD;}
	.st52{fill:#B2B2B2;}
	.st53{fill:#757575;}
	.st54{fill:#3F3F3F;}
	.st55{fill:#070706;}
	.st56{fill:#F6C7DB;}
	.st57{fill:#040404;}
	.st58{fill:#F13C8B;}
	.st59{fill:#0A0A09;}
	.st60{fill:#239830;}
	.st61{fill:#1F6DAF;}
	.st62{clip-path:url(#SVGID_16_);}
	.st63{fill:#A6DAE9;}
	.st64{fill:#144863;}
	.st65{clip-path:url(#SVGID_18_);}
	.st66{clip-path:url(#SVGID_20_);}
	.st67{clip-path:url(#SVGID_22_);}
	.st68{clip-path:url(#SVGID_24_);}
	.st69{clip-path:url(#SVGID_26_);}
	.st70{fill:#10441D;}
	.st71{fill:#2B9B2E;}
</style>
<g>
	<g>
		<path class="st17" d="M204.36,416.5l2.37,32.05c0,0,54.01,8.9,118.69,2.97l6.53-32.05c0,0,8.9-13.65,13.65-54.6
			c4.75-40.95,14.84-198.22,0-231.45c0,0-1.19-42.73-37.98-66.47c0,0-7.12-3.56-12.46-32.05c0,0-63.5,5.93-68.25,70.62
			c0,0-29.08,38.58-29.67,94.96c0,0-4.75,79.53-4.75,87.24S204.36,416.5,204.36,416.5z"/>
		<g>
			<path class="st26" d="M204.36,416.5l1.98,37.05l119.09-2.04l6.53-32.05C331.95,419.47,220.97,426.39,204.36,416.5z"/>
			<path class="st36" d="M204.93,427.17c0,0,52.84,3.57,81.33,2.38c28.49-1.19,43.47-1.04,43.47-1.04l-0.94,6.51
				c0,0-69.43-0.07-82.09,0s-41.46-2.24-41.46-2.24L204.93,427.17z"/>
			<path class="st36" d="M205.51,438.16c0,0,26.8,4.15,67.42,2.97c40.62-1.19,55.21-2.97,55.21-2.97l-1.28,6.28
				c0,0-39.42,0.94-86.01,0c0,0-17.8,0.46-35.16-2.93L205.51,438.16z"/>
		</g>
	</g>
	<g>
		<path class="st26" d="M226.91,105.52c0,0,22.78-34.01,84.19-36.19c0,0-8.03-1.96-11.99-18.2c0,0-1.22-16.62-3.95-16.23
			C292.42,35.28,224.53,42.02,226.91,105.52z"/>
		<path class="st36" d="M229.75,81.83c0,0,26.9-22.6,43.19-27.06s21.93-5.04,25.78-5.04l-0.47-6.29c0,0-29.79,6-36.91,10.74
			S240.31,66.16,229.75,81.83z"/>
		<path class="st36" d="M228.21,95.4c0,0,12.05-9.46,14.72-11.54c2.67-2.08,15.13-12.76,43.32-19.29c0,0,13.23-1.49,17.74-1.93
			l-3.08-5.66c0,0-41.08,5.81-60.07,23.02C240.85,80,228.02,89.13,228.21,95.4z"/>
	</g>
	<g>
		<g>
			<path class="st20" d="M135.12,427.17l6.42-4.84l32.55,12.69l10.58,8.43l-4.84,4.89C179.83,448.35,158.46,448.13,135.12,427.17z"
				/>
			<path class="st26" d="M147.13,396.32c0,0-3.12,4.75-3.71,6.33c-0.59,1.58-9.1,22.73-8.31,24.52c0.79,1.79,5.93-3.49,29.28,7.85
				s15.43,13.32,15.43,13.32s11.67-9.34,17.41-27.7l1.19-4.15l-31.68-18L147.13,396.32z"/>
			<path class="st36" d="M143.43,402.65c0,0,16.62,4.15,24.33,7.52c7.72,3.36,27.71,15.54,27.05,17l-2.32,4.81
				c0,0-15.66-12.46-23.36-14.67c0,0-23.73-10.55-27.59-9.84L143.43,402.65z"/>
			<path class="st36" d="M139.59,412.59c0,0,43.78,14.77,50.02,24.28l-2.83,3.99c0,0-11.3-9.85-22.18-14.13
				s-26.19-10.94-26.45-10.22L139.59,412.59z"/>
		</g>
		<path class="st36" d="M147.98,398.7c0,0,34.35,3.62,49.26,21.96c0,0,11.87-0.59,21.96-15.43c10.09-14.84,53.41-71.81,65.88-113.95
			s41.54-97.92,41.54-106.83c0-6.03,5.44-34.1-3.21-57.49c-8.26-22.35-34.46-30.93-55.2-19.19c-13.79,7.81-28.66,22.97-36.55,52.35
			c-17.21,64.1-23.15,95.51-24.93,99.98c-1.78,4.47-53.41,109.51-53.41,109.51S144.41,387.42,147.98,398.7z"/>
	</g>
</g>
</svg>
