<?xml version="1.0" encoding="utf-8"?>
<!-- Generator: Adobe Illustrator 23.0.2, SVG Export Plug-In . SVG Version: 6.00 Build 0)  -->
<svg version="1.1" id="Layer_1" xmlns="http://www.w3.org/2000/svg" xmlns:xlink="http://www.w3.org/1999/xlink" x="0px" y="0px"
	 viewBox="0 0 488.45 488.45" style="enable-background:new 0 0 488.45 488.45;" xml:space="preserve">
<style type="text/css">
	.st0{fill:#C6C6C6;}
	.st1{fill:#070707;}
	.st2{fill:#090909;}
	.st3{fill:none;stroke:#000000;stroke-width:3;stroke-miterlimit:10;}
	.st4{fill:#F5E586;}
	.st5{fill:#2582AC;}
	.st6{fill:#6B3C39;}
	.st7{fill:#823F32;}
	.st8{fill:#562B25;}
	.st9{fill:none;stroke:#070707;stroke-miterlimit:10;}
	.st10{clip-path:url(#SVGID_2_);}
	.st11{fill:none;stroke:#F5E586;stroke-width:5;stroke-miterlimit:10;}
	.st12{clip-path:url(#SVGID_4_);}
	.st13{fill:#191413;}
	.st14{fill:#B88B74;}
	.st15{fill:#F1A562;}
	.st16{fill:#FDFDFD;}
	.st17{fill:#EF331A;}
	.st18{fill:#D6271A;}
	.st19{fill:#FFFFFF;}
	.st20{fill:#6B0E0A;}
	.st21{fill:#F9F9F8;}
	.st22{fill:#FEFEFF;}
	.st23{fill:#1D9533;stroke:#FFFFFF;stroke-width:5;stroke-miterlimit:10;}
	.st24{fill:#EF331A;stroke:#B23B32;stroke-width:2;stroke-miterlimit:10;}
	.st25{fill:#4A0F7B;}
	.st26{fill:#C6160E;}
	.st27{clip-path:url(#SVGID_6_);}
	.st28{fill:none;stroke:#562B25;stroke-width:1.2;stroke-miterlimit:10;}
	.st29{clip-path:url(#SVGID_8_);}
	.st30{fill:#1D9533;}
	.st31{fill:#0C5822;}
	.st32{fill:#0B3615;}
	.st33{fill:#1D9533;stroke:#115F24;stroke-width:1.5;stroke-miterlimit:10;}
	.st34{fill:#134A1D;}
	.st35{clip-path:url(#SVGID_10_);}
	.st36{fill:#EEF4F5;}
	.st37{fill:#155D84;}
	.st38{fill:#1879AE;}
	.st39{fill:#114156;}
	.st40{fill:#121111;}
	.st41{fill:#33110D;}
	.st42{clip-path:url(#SVGID_12_);}
	.st43{fill:#A0522D;}
	.st44{fill:#F42121;}
	.st45{fill:#FAB00B;}
	.st46{fill:#F5DDDB;}
	.st47{fill:#F66831;}
	.st48{opacity:0.49;fill:url(#);}
	.st49{opacity:0.53;}
	.st50{clip-path:url(#SVGID_14_);}
	.st51{fill:#DDDDDD;}
	.st52{fill:#B2B2B2;}
	.st53{fill:#757575;}
	.st54{fill:#3F3F3F;}
	.st55{fill:#070706;}
	.st56{fill:#F6C7DB;}
	.st57{fill:#040404;}
	.st58{fill:#F13C8B;}
	.st59{fill:#0A0A09;}
	.st60{fill:#239830;}
	.st61{fill:#1F6DAF;}
	.st62{clip-path:url(#SVGID_16_);}
	.st63{fill:#A6DAE9;}
	.st64{fill:#144863;}
	.st65{clip-path:url(#SVGID_18_);}
	.st66{clip-path:url(#SVGID_20_);}
	.st67{clip-path:url(#SVGID_22_);}
	.st68{clip-path:url(#SVGID_24_);}
	.st69{clip-path:url(#SVGID_26_);}
	.st70{fill:#10441D;}
	.st71{fill:#2B9B2E;}
</style>
<g>
	<g>
		<g>
			<path class="st19" d="M117.16,97.74c0,0,17.66,69.56,3.24,111c0,0-6.85,113.89-3.24,134.79c0,0,1.95,43.25,8.91,45.41l2.15,27.75
				h4.44l-2.16,37.84l-51.3-3.24l-1.68-39.16c0,0-9.85-86.5-3.6-135.99C80.16,226.64,94.09,133.18,117.16,97.74z"/>
			<g>
				<polygon class="st26" points="77.57,413.34 128.21,415.25 128.21,426.06 77.57,422.7 				"/>
				<polygon class="st26" points="78.16,427.27 131.87,430.39 131.38,439.04 78.52,435.67 				"/>
				<polygon class="st26" points="78.82,443.6 131.21,446.24 130.49,454.53 79.2,451.29 				"/>
			</g>
		</g>
		<g>
			<path class="st19" d="M370.55,97.74c0,0-17.66,69.56-3.24,111c0,0,6.85,113.89,3.24,134.79c0,0-1.95,43.25-8.91,45.41
				l-2.15,27.75h-4.44l2.16,37.84l51.3-3.24l1.68-39.16c0,0,9.85-86.5,3.6-135.99C407.56,226.64,393.62,133.18,370.55,97.74z"/>
			<g>
				<polygon class="st26" points="410.15,413.34 359.5,415.25 359.5,426.06 410.15,422.7 				"/>
				<polygon class="st26" points="409.55,427.27 355.84,430.39 356.33,439.04 409.19,435.67 				"/>
				<polygon class="st26" points="408.89,443.6 356.5,446.24 357.22,454.53 408.52,451.29 				"/>
			</g>
		</g>
		<g>
			<g>
				<path class="st17" d="M362.23,388.18c15.36-31.79,7.21-181.24,7.21-181.24c-17.3-26.67,0-110.28,0-110.28
					c-5.94-10.56-53.55-31.38-61.54-34.82v-0.5H181.31c-46.85,18.74-64.58,36.52-64.58,36.52c20.24,73.94,2.35,111.96,2.35,111.96
					c-5.29,56.22,0,158.1,0,158.1c0.91,9.66,3.66,15.81,7.02,19.7h-0.77v28.83c0,0-3.36,13.7,13.22,12.97h206.39
					c0,0,19.22,1.87,17.3-13.96V388.18z"/>
				<g>
					<path class="st26" d="M125.78,387.62v28.83c0,0-3.36,13.7,13.21,12.97h206.39c0,0,19.22,1.87,17.3-13.96v-27.85H125.78z"/>
					<path class="st19" d="M125.78,395.07c0,0,7.69,5.77,13.94,5.53s206.63,0,206.63,0s12.49,0,16.34-5.53v6.86
						c0,0-6.49,6.78-15.86,6.63H140.32c0,0-11.77-2.65-14.54-6.63V395.07z"/>
					<path class="st19" d="M125.78,410.08c0,0,7.69,5.77,13.94,5.53s206.63,0,206.63,0s12.49,0,16.34-5.53v6.86
						c0,0-6.49,6.78-15.86,6.63H140.32c0,0-11.77-2.65-14.54-6.63V410.08z"/>
				</g>
			</g>
			<g>
				<path class="st26" d="M204.13,36.46c0,0-2.94,13.43-24.43,25.32c0,0,30.7,19.95,66,16.88c0,0,39.14,0,62.93-16.5
					c0,0-14.58-7.67-24.94-24.17C283.68,38,228.94,43.75,204.13,36.46z"/>
				<path class="st19" d="M201.48,42.35l-6.02,7.7c0,0,36.81,8.93,96.12-1.72l-5.85-5.98C285.73,42.35,230.04,53.86,201.48,42.35z"
					/>
				<path class="st19" d="M189.99,54.99c0,0,25.65,9.87,63,7.82c0,0,33.45-0.81,45.5-7.82l5.21,4.05c0,0-13.62,11.45-64.53,10.93
					c0,0-48.98-4.23-56.08-10.17L189.99,54.99z"/>
			</g>
		</g>
	</g>
</g>
<g>
	<g>
		<g>
			<path class="st19" d="M217.15,268.49l-4.81-1.88l-1.53,1.87l-2.24-0.87l8.06-9.7l3.18,1.24l-0.59,12.62l-2.2-0.86L217.15,268.49z
				 M217.27,266.74l0.34-6.56l-4.16,5.07L217.27,266.74z"/>
			<path class="st19" d="M227.76,261.49l-0.89,4.79l1.05,0.19l4.8-4.07l2.78,0.51l-5.81,4.84l4.13,7.02l-2.86-0.53l-3.37-5.89
				l-1.07-0.2l-0.94,5.09l-2.23-0.41l2.18-11.77L227.76,261.49z"/>
			<path class="st19" d="M242.86,262.93c2.17-0.01,3.58,0.34,4.21,1.06c0.63,0.72,0.95,2.33,0.97,4.84
				c0.02,2.74-0.29,4.47-0.91,5.19c-0.62,0.72-2.14,1.08-4.56,1.1c-2.17,0.01-3.58-0.33-4.22-1.03c-0.64-0.7-0.97-2.25-0.98-4.65
				c-0.02-2.85,0.28-4.65,0.9-5.38C238.89,263.32,240.42,262.95,242.86,262.93z M242.7,264.88c-1.53,0.01-2.42,0.21-2.67,0.6
				c-0.25,0.39-0.37,1.75-0.36,4.07c0.01,1.72,0.17,2.75,0.47,3.1c0.3,0.35,1.19,0.52,2.66,0.51c1.41-0.01,2.25-0.21,2.53-0.61
				c0.28-0.4,0.41-1.59,0.4-3.59c-0.01-2.01-0.15-3.19-0.42-3.55C245.04,265.05,244.17,264.87,242.7,264.88z"/>
			<path class="st19" d="M252.7,262.27l0.94,4.78l1.05-0.21l2.97-5.55l2.77-0.54l-3.62,6.64l6.43,5.01l-2.86,0.56l-5.3-4.24
				l-1.07,0.21l1,5.08l-2.23,0.44l-2.31-11.74L252.7,262.27z"/>
			<path class="st19" d="M273.04,266.26l-4.79,1.93l0.17,2.41l-2.23,0.9l-0.79-12.59l3.16-1.28l8.22,9.59l-2.19,0.88L273.04,266.26z
				 M271.93,264.9l-4.25-5.01l0.45,6.54L271.93,264.9z"/>
		</g>
	</g>
	<g>
		<g>
			<path class="st19" d="M176.91,242.66l-1.76-2.29l8.02-6.16c1.68-1.29,3.04-1.82,4.07-1.59c1.04,0.23,2.32,1.34,3.85,3.33
				c1.61,2.1,2.42,3.68,2.41,4.72c-0.01,1.05-0.84,2.2-2.49,3.47l-8.15,6.26l-1.76-2.29l8.16-6.26c0.89-0.68,1.33-1.27,1.33-1.78
				c-0.01-0.5-0.46-1.34-1.36-2.52c-0.93-1.21-1.63-1.87-2.11-2c-0.48-0.12-1.19,0.18-2.13,0.9L176.91,242.66z"/>
			<path class="st19" d="M166.62,222.98l13.88-6.2l1.99,4.46l-5.85,7.37c-0.29,0.37-0.82,0.97-1.58,1.82l-0.8,0.89l-0.8,0.88
				l0.05,0.1l0.9-0.45l0.89-0.43l1.81-0.83l7.96-3.56l1.18,2.63l-13.88,6.2l-1.99-4.47l5.43-6.75c0.48-0.6,1.07-1.3,1.77-2.12
				l0.89-1.03l0.9-1.04l-0.04-0.09l-0.88,0.43l-0.88,0.43l-1.78,0.82l-7.99,3.57L166.62,222.98z"/>
			<path class="st19" d="M164.77,215.54l14.72-3.8l0.72,2.79l-14.72,3.8L164.77,215.54z"/>
			<path class="st19" d="M162.61,201.37l-0.32-3.03l15.64,3.27l0.47,4.41l-14.6,6.44l-0.32-2.98l8.26-3.75
				c0.79-0.35,2.12-0.89,3.99-1.62l-0.01-0.08l-1.06-0.18c-1.32-0.22-2.38-0.41-3.18-0.58L162.61,201.37z"/>
			<path class="st19" d="M165.11,192.43l3.91,0.34l0.61-7.1l2.12,0.18l-0.61,7.1l4.28,0.37l0.65-7.56l2.42,0.21l-0.9,10.43
				l-15.15-1.3l0.89-10.36l2.42,0.21L165.11,192.43z"/>
			<path class="st19" d="M178.69,184.52l-14.59-4.28l2.11-7.19c0.53-1.79,1.2-2.93,2.02-3.42c0.82-0.5,2.04-0.5,3.66-0.03
				c1.47,0.43,2.43,0.9,2.87,1.4c0.44,0.5,0.61,1.3,0.51,2.41l0.1,0.03c0.57-1.59,1.76-2.12,3.54-1.59l3.22,0.94l-0.81,2.77
				l-2.66-0.78c-1.5-0.44-2.47,0.08-2.91,1.56l-1.17,3.99l4.92,1.44L178.69,184.52z M172.26,179.62l1.17-3.97
				c0.28-0.95,0.29-1.63,0.05-2.04c-0.25-0.41-0.88-0.76-1.9-1.06c-1.04-0.31-1.75-0.37-2.13-0.19c-0.38,0.18-0.7,0.72-0.97,1.62
				l-1.22,4.17L172.26,179.62z"/>
			<path class="st19" d="M178.73,156.18l-1.34,2.48c-0.13-0.05-0.23-0.1-0.29-0.13c-0.78-0.35-1.35-0.43-1.69-0.26
				c-0.34,0.17-0.79,0.77-1.34,1.79c-0.65,1.2-0.96,2.05-0.94,2.54c0.02,0.49,0.39,0.93,1.1,1.31c0.84,0.45,1.43,0.58,1.76,0.37
				c0.33-0.21,1-1.13,2-2.77c1.19-1.93,2.16-3.07,2.94-3.41c0.77-0.34,1.88-0.12,3.33,0.66c1.78,0.96,2.74,1.92,2.89,2.89
				c0.15,0.97-0.41,2.62-1.67,4.96c-1.13,2.11-2.14,3.36-3.02,3.78c-0.88,0.42-2.1,0.2-3.66-0.64l-0.5-0.25l1.33-2.47l0.29,0.14
				c0.93,0.5,1.59,0.65,1.98,0.43c0.39-0.21,0.97-1.05,1.76-2.51c0.61-1.14,0.88-1.93,0.81-2.37c-0.07-0.44-0.55-0.9-1.42-1.37
				c-0.65-0.35-1.14-0.46-1.48-0.34c-0.34,0.12-0.75,0.57-1.22,1.34l-0.84,1.35c-1.27,2.05-2.29,3.25-3.07,3.58
				c-0.78,0.34-1.94,0.09-3.47-0.73c-1.56-0.84-2.41-1.76-2.55-2.75c-0.14-0.99,0.37-2.55,1.51-4.67c1.08-2.01,2.05-3.24,2.91-3.68
				c0.85-0.44,1.97-0.29,3.36,0.46L178.73,156.18z"/>
			<path class="st19" d="M179.11,148.32l12.21,9.06l-1.72,2.32l-12.21-9.06L179.11,148.32z"/>
			<path class="st19" d="M187.94,142.2l9.05,8.79l-2.01,2.07l-9.05-8.79l-3.06,3.15l-1.85-1.8l8.23-8.48l1.85,1.8L187.94,142.2z"/>
			<path class="st19" d="M202.44,127.53l0.76,10.93l3.32,4.76l-2.36,1.65l-3.32-4.76l-9.87-4.57l2.74-1.91l4.18,1.97
				c0.23,0.11,0.64,0.33,1.24,0.64l0.62,0.32l0.61,0.32l0.06-0.04l-0.09-0.69l-0.09-0.69c-0.09-0.61-0.15-1.07-0.17-1.39l-0.4-4.61
				L202.44,127.53z"/>
			<path class="st19" d="M225.23,118.93c2.7-0.6,4.53-0.53,5.51,0.19c0.97,0.72,1.8,2.64,2.49,5.75c0.75,3.4,0.83,5.63,0.25,6.69
				s-2.37,1.92-5.37,2.58c-2.7,0.6-4.54,0.54-5.52-0.16c-0.98-0.7-1.8-2.53-2.46-5.51c-0.78-3.54-0.88-5.85-0.31-6.92
				C220.39,120.47,222.2,119.6,225.23,118.93z M225.54,121.39c-1.89,0.42-2.94,0.91-3.16,1.46c-0.21,0.56,0,2.27,0.64,5.15
				c0.47,2.13,0.94,3.37,1.41,3.73c0.47,0.35,1.62,0.33,3.44-0.08c1.75-0.39,2.74-0.86,2.98-1.43c0.24-0.57,0.09-2.09-0.46-4.57
				c-0.55-2.49-1.04-3.92-1.47-4.3C228.5,120.98,227.37,120.99,225.54,121.39z"/>
			<path class="st19" d="M238.81,119.72l0.1,4.1l6.81-0.16l0.06,2.43l-6.81,0.16l0.15,6.25l-2.88,0.07l-0.36-15.2l10.07-0.24
				l0.06,2.43L238.81,119.72z"/>
			<path class="st19" d="M265.9,123.32l-1.34,3.87l6.44,2.23l-0.79,2.29l-6.44-2.23l-2.04,5.91l-2.73-0.94l4.97-14.37l9.52,3.29
				l-0.79,2.29L265.9,123.32z"/>
			<path class="st19" d="M279.25,126.3l-6.82,13.59l-2.58-1.29l6.82-13.59L279.25,126.3z"/>
			<path class="st19" d="M274.63,140.8l8.79-12.4l6.12,4.33c1.52,1.08,2.38,2.08,2.58,3.02c0.2,0.94-0.19,2.09-1.17,3.47
				c-0.89,1.25-1.64,2.01-2.25,2.27c-0.61,0.26-1.43,0.16-2.44-0.3l-0.06,0.08c1.32,1.06,1.43,2.35,0.36,3.87l-1.94,2.74l-2.35-1.67
				l1.6-2.26c0.91-1.28,0.73-2.36-0.53-3.26l-3.39-2.4l-2.96,4.18L274.63,140.8z M281.35,136.31l3.38,2.4
				c0.81,0.57,1.44,0.81,1.91,0.7c0.47-0.1,1.01-0.58,1.62-1.45c0.63-0.88,0.92-1.54,0.87-1.95c-0.04-0.42-0.45-0.9-1.22-1.45
				l-3.54-2.51L281.35,136.31z"/>
			<path class="st19" d="M301.44,150.03l-1.92-2.07c0.09-0.11,0.16-0.18,0.21-0.23c0.58-0.63,0.85-1.13,0.79-1.51
				c-0.05-0.38-0.47-0.99-1.26-1.84c-0.93-1-1.63-1.57-2.1-1.71c-0.47-0.14-1,0.07-1.6,0.62c-0.7,0.65-1.01,1.17-0.92,1.55
				c0.09,0.38,0.75,1.31,1.98,2.79c1.45,1.75,2.21,3.04,2.28,3.88c0.07,0.84-0.5,1.82-1.7,2.93c-1.48,1.37-2.7,1.97-3.67,1.8
				c-0.96-0.17-2.35-1.23-4.16-3.18c-1.63-1.75-2.49-3.11-2.6-4.08c-0.11-0.97,0.49-2.05,1.78-3.25l0.4-0.39l1.91,2.06l-0.23,0.23
				c-0.78,0.72-1.13,1.3-1.05,1.73c0.08,0.43,0.68,1.26,1.81,2.47c0.88,0.95,1.54,1.46,1.98,1.53c0.44,0.07,1.03-0.23,1.76-0.9
				c0.54-0.5,0.8-0.93,0.8-1.29s-0.3-0.89-0.87-1.59l-1.01-1.24c-1.53-1.86-2.33-3.21-2.4-4.06c-0.07-0.85,0.54-1.86,1.81-3.04
				c1.3-1.21,2.44-1.72,3.42-1.53c0.98,0.19,2.29,1.17,3.93,2.94c1.55,1.68,2.4,2.99,2.55,3.94c0.14,0.95-0.36,1.96-1.52,3.03
				L301.44,150.03z"/>
			<path class="st19" d="M308.44,157.25l-10.7,6.69l-1.53-2.45l10.7-6.69l-2.33-3.72l2.19-1.37l6.26,10.02l-2.19,1.37L308.44,157.25
				z"/>
			<path class="st19" d="M311.68,187.67l0.53,2.85l-0.51,0.1c-2.08,0.39-3.5,0.26-4.25-0.39c-0.75-0.65-1.37-2.27-1.85-4.87
				c-0.55-2.95-0.4-4.85,0.43-5.71c0.84-0.86,3.35-1.68,7.54-2.45c2.47-0.46,4.18-0.3,5.12,0.48c0.95,0.78,1.69,2.63,2.24,5.55
				c0.4,2.13,0.34,3.61-0.16,4.45c-0.51,0.83-1.71,1.43-3.61,1.78l-0.34,0.07l-0.53-2.85l0.38-0.07c0.98-0.18,1.57-0.48,1.78-0.9
				c0.2-0.42,0.19-1.29-0.06-2.6c-0.33-1.76-0.74-2.78-1.24-3.05c-0.5-0.27-1.81-0.21-3.93,0.18c-2.86,0.53-4.53,1.01-4.99,1.42
				c-0.47,0.42-0.54,1.49-0.22,3.23c0.26,1.41,0.58,2.3,0.95,2.66c0.37,0.37,1.05,0.46,2.04,0.27L311.68,187.67z"/>
			<path class="st19" d="M321.74,205.9l-15.2-0.47l0.09-2.88l6.57,0.2l0.22-7.12l-6.57-0.2l0.09-2.88l15.2,0.47l-0.09,2.88
				l-6.2-0.19l-0.22,7.12l6.2,0.19L321.74,205.9z"/>
			<path class="st19" d="M319.51,217.18c-0.69,2.67-1.58,4.28-2.67,4.82c-1.09,0.54-3.17,0.41-6.26-0.39
				c-3.37-0.87-5.4-1.81-6.07-2.81c-0.68-1-0.63-2.98,0.14-5.95c0.69-2.67,1.57-4.29,2.64-4.85c1.07-0.56,3.08-0.46,6.02,0.3
				c3.51,0.91,5.61,1.86,6.31,2.86C320.33,212.18,320.29,214.18,319.51,217.18z M317.18,216.35c0.49-1.88,0.53-3.03,0.13-3.48
				c-0.4-0.44-2.03-1.03-4.88-1.77c-2.11-0.55-3.43-0.69-3.96-0.43c-0.53,0.26-1.03,1.29-1.49,3.11c-0.45,1.73-0.47,2.83-0.08,3.3
				c0.4,0.47,1.82,1.02,4.28,1.66c2.47,0.64,3.97,0.85,4.5,0.64C316.21,219.17,316.71,218.16,317.18,216.35z"/>
			<path class="st19" d="M314.95,229.7l-13.96-6.01l1.14-2.65l13.96,6.01L314.95,229.7z"/>
			<path class="st19" d="M299.84,236.79l-1.52,2.46l-0.45-0.28c-1.8-1.11-2.76-2.16-2.88-3.14c-0.12-0.98,0.51-2.6,1.9-4.85
				c1.58-2.55,2.97-3.86,4.16-3.93c1.2-0.07,3.61,1.01,7.23,3.26c2.13,1.32,3.29,2.59,3.47,3.8c0.18,1.21-0.51,3.08-2.08,5.62
				c-1.14,1.84-2.18,2.9-3.11,3.18c-0.94,0.28-2.22-0.09-3.87-1.11l-0.3-0.17l1.52-2.46l0.33,0.2c0.85,0.52,1.49,0.7,1.92,0.53
				c0.43-0.17,1-0.83,1.71-1.96c0.94-1.52,1.32-2.55,1.14-3.09c-0.18-0.54-1.19-1.37-3.03-2.51c-2.48-1.53-4.02-2.3-4.65-2.31
				c-0.62-0.01-1.4,0.74-2.33,2.24c-0.75,1.22-1.12,2.09-1.09,2.61c0.03,0.52,0.47,1.04,1.33,1.58L299.84,236.79z"/>
			<path class="st19" d="M300.46,247.81l-2.88-2.66l-4.85,5.23l-1.56-1.45l4.85-5.23l-3.15-2.92l-5.16,5.56l-1.78-1.65l7.12-7.68
				l11.15,10.33l-7.07,7.63l-1.78-1.65L300.46,247.81z"/>
		</g>
	</g>
	<g>
		<path class="st26" d="M240.18,244.83h-69.55V224.8c0-9.83,1.87-16.33,5.71-19.85c3.63-3.33,11.56-6.05,24.24-8.31
			c13.22-2.36,15.93-3.89,16.45-4.3c0.29-0.23,1.71-1.74,1.71-9.2c0-6.97-1.36-8.68-1.78-9.04c-0.46-0.39-2.65-1.69-11.3-1.69
			c-8.94,0-11.17,1.31-11.64,1.72c-0.43,0.36-1.81,2.13-1.81,9.5v6.38h-21.32v-6.32c0-11.59,2.47-19.31,7.57-23.58
			c4.94-4.15,13.86-6.17,27.27-6.17c13.12,0,21.91,2.04,26.87,6.24c5.11,4.32,7.59,11.95,7.59,23.33c0,10.71-1.91,17.81-5.84,21.72
			c-3.79,3.77-11.83,6.74-24.58,9.1c-13.54,2.47-15.83,3.83-16.15,4.07c-0.01,0.01-1.29,1.16-1.34,8.13h47.92V244.83z M176.2,239.25
			h58.4v-7.13h-47.92v-5.08c0-7.11,1.08-11.13,3.49-13.01c1.46-1.14,4.81-2.65,18.57-5.17c14.25-2.64,19.65-5.57,21.66-7.57
			c1.92-1.9,4.2-6.53,4.2-17.77c0-9.51-1.89-15.92-5.61-19.07c-3.86-3.26-11.7-4.92-23.28-4.92c-14.79,0-21.04,2.65-23.69,4.86
			c-3.7,3.11-5.58,9.6-5.58,19.31v0.75h10.17v-0.81c0-7.18,1.2-11.54,3.76-13.74c2.44-2.09,7.29-3.06,15.26-3.06
			c7.76,0,12.5,0.96,14.92,3.02c2.55,2.18,3.74,6.4,3.74,13.28c0,7.18-1.21,11.48-3.81,13.55c-1.54,1.23-5.09,2.96-18.95,5.43
			c-14.25,2.55-19.53,5.18-21.45,6.94c-1.78,1.63-3.9,5.68-3.9,15.74V239.25z"/>
		<path class="st26" d="M277.34,244.45c-13.55,0-22.64-1.86-27.79-5.7c-5.33-3.97-8.03-11.27-8.03-21.7l0.1-7.5h21.04l0.17,2.6
			c0.17,2.55,0.19,3.23,0.19,3.53c0,6.98,1.51,8.44,1.81,8.67c0.52,0.38,2.99,1.63,13.13,1.63c9.14,0,11.47-1.32,11.97-1.73
			c0.44-0.36,1.86-2.07,1.86-9.12c0-4.97-1.13-6.44-1.62-6.84c-0.56-0.46-2.57-1.53-9.17-1.53h-12.58v-18.1l5.55,0.13
			c11.85,0,14.55-0.97,15.09-1.27c0.15-0.08,1.5-0.98,1.5-6.67c0-6.77-1.35-7.97-1.51-8.08c-0.32-0.23-2.4-1.4-12.26-1.4
			c-8.58,0-10.7,1.17-11.15,1.52c-0.27,0.22-1.62,1.64-1.62,8.27v5.27h-21.07v-5.95c0-10.87,2.39-18.06,7.31-21.99
			c4.73-3.77,13.39-5.6,26.47-5.6c13.09,0,21.96,1.7,27.11,5.19c5.42,3.68,8.17,10.31,8.17,19.73c0,10.77-3.82,16.56-8.55,19.61
			c6.44,3.25,9.79,9.69,9.79,19.01c0,10.83-2.64,18.33-7.86,22.3C300.33,242.59,291.16,244.45,277.34,244.45z M247.11,215.13
			l-0.03,1.96c0,8.54,1.95,14.33,5.79,17.19c4.09,3.05,12.32,4.59,24.46,4.59c15.41,0,21.92-2.49,24.66-4.57
			c3.75-2.86,5.66-8.87,5.66-17.87c0-9.76-4.08-14.74-12.83-15.7l-2.48-0.27v-5.32l2.36-0.36c5.03-0.77,11.71-3.38,11.71-16.96
			c0-7.45-1.92-12.54-5.72-15.11c-4.14-2.81-12.2-4.23-23.97-4.23c-14.46,0-20.49,2.38-23,4.38c-3.46,2.76-5.21,8.69-5.21,17.63
			v0.37h9.92c0.04-6.4,1.22-10.31,3.71-12.31c2.37-1.9,6.89-2.75,14.64-2.75c10.81,0,14,1.34,15.58,2.5
			c2.57,1.9,3.76,5.9,3.76,12.56c0,6.16-1.44,9.94-4.39,11.56c-1.66,0.91-5.17,1.95-17.74,1.95l0,6.82h7
			c6.35,0,10.39,0.89,12.71,2.8c2.46,2.03,3.65,5.67,3.65,11.14c0,6.99-1.24,11.26-3.91,13.44c-2.49,2.04-7.41,2.98-15.49,2.98
			c-11.31,0-14.72-1.45-16.44-2.71c-2.78-2.05-4.08-6.23-4.08-13.15c0-0.06,0-0.21-0.02-0.56H247.11z"/>
		<path class="st19" d="M237.39,229.33v12.71h-63.97V224.8c0-8.93,1.6-14.86,4.8-17.79c3.2-2.93,10.82-5.48,22.84-7.62
			c9.96-1.78,15.86-3.4,17.7-4.87c1.84-1.47,2.76-5.26,2.76-11.38c0-5.87-0.92-9.59-2.76-11.16c-1.84-1.57-6.21-2.36-13.11-2.36
			c-7.11,0-11.59,0.8-13.45,2.39c-1.86,1.59-2.79,5.47-2.79,11.62v3.59h-15.75v-3.53c0-10.62,2.19-17.77,6.57-21.45
			c4.38-3.68,12.87-5.52,25.48-5.52c12.31,0,20.67,1.86,25.07,5.58c4.4,3.72,6.6,10.79,6.6,21.2c0,9.84-1.67,16.42-5.02,19.74
			c-3.35,3.33-11.06,6.11-23.12,8.34c-9.96,1.82-15.75,3.36-17.36,4.62c-1.61,1.26-2.42,4.87-2.42,10.82v2.29H237.39z"/>
		<path class="st19" d="M271.21,203.98v-12.46l2.73,0.06c9.01,0,14.49-0.54,16.46-1.61c1.96-1.07,2.94-4.11,2.94-9.11
			c0-5.58-0.88-9.02-2.63-10.32c-1.76-1.3-6.4-1.95-13.92-1.95c-6.82,0-11.12,0.71-12.89,2.14c-1.78,1.43-2.67,4.91-2.67,10.45v2.48
			h-15.5v-3.16c0-9.88,2.09-16.48,6.26-19.81c4.17-3.33,12.42-4.99,24.73-4.99c12.4,0,20.91,1.57,25.54,4.71
			c4.63,3.14,6.94,8.95,6.94,17.42c0,11.7-4.69,18.27-14.07,19.71v0.43c10.21,1.12,15.31,7.27,15.31,18.47
			c0,9.96-2.25,16.65-6.76,20.09c-4.5,3.43-13.29,5.14-26.35,5.14c-12.81,0-21.52-1.71-26.13-5.14c-4.61-3.43-6.91-9.92-6.91-19.47
			l0.06-4.71h15.68c0.12,1.86,0.19,2.98,0.19,3.35c0,5.83,0.98,9.46,2.94,10.91c1.96,1.45,6.89,2.17,14.78,2.17
			c7.23,0,11.81-0.78,13.73-2.36c1.92-1.57,2.88-5.33,2.88-11.28c0-4.55-0.88-7.54-2.63-8.99c-1.76-1.45-5.4-2.17-10.94-2.17h-7
			H271.21z"/>
	</g>
	<g>
		<path class="st57" d="M190.05,190.2l-10.1,5.35c-0.11,0.02-0.21,0.03-0.32,0.05c-7.13,0.98-4.02,0.68-7.78,1.79
			c-3.75,1.11-17.45,1.72-17.45,1.72l1.58,9.14l-0.36,0.19l-0.04,7.95l2.17,2.08l37.37-6.35l-2.99-19.57L190.05,190.2z"/>
		<g>
			<path class="st60" d="M152.24,197.04c0,0,14.03-0.57,17.87-1.72c3.84-1.15,0.66-0.85,7.96-1.85c6.02-0.82,10.81-2.44,12.3-2.98
				c0.25-0.09,0.53,0.12,0.58,0.45l3.08,20.05l-37.49,6.37c-0.42,0.07-0.83-0.29-0.92-0.8L152.24,197.04z"/>
			<path class="st57" d="M194.43,211.36l-37.83,6.43c-0.61,0.1-1.21-0.42-1.34-1.16l-3.45-20l0.39-0.02
				c0.14-0.01,14.04-0.58,17.8-1.71c1.26-0.38,1.75-0.59,2.11-0.75c0.77-0.34,0.98-0.43,5.89-1.1c6.05-0.83,10.9-2.48,12.24-2.96
				c0.22-0.08,0.46-0.04,0.66,0.12c0.2,0.16,0.34,0.41,0.39,0.69L194.43,211.36z M152.67,197.45l3.29,19.06
				c0.05,0.28,0.27,0.47,0.5,0.44l37.15-6.31l-3.01-19.64c-0.01-0.04-0.03-0.06-0.04-0.07c-0.01-0.01-0.04-0.02-0.07-0.01
				c-1.35,0.49-6.25,2.16-12.36,2.99c-4.83,0.66-5.02,0.74-5.74,1.06c-0.37,0.17-0.89,0.39-2.18,0.78
				C166.7,196.78,155.01,197.34,152.67,197.45z"/>
		</g>
	</g>
	<g>
		<g>
			<g>
				<path d="M236.13,241.01c1.07-0.85,2.23-1.37,1.7-2.84c0.79,0.29,0.61,1.5,1.61,1.14c0.91-0.33,0.08-1.2,0.5-1.69
					c0.3,0.02,0.28,0.32,0.44,0.46c0.34,0.29,0.29,1.11,0.91,0.91c0.47-0.15,0.13-0.8,0.24-1.21c0.02-0.06,0.07-0.11,0.2-0.3
					c0.45,2,2.1,1.49,3.43,1.83c-0.76-1.42-2.34-2.56-3.97-2.66c-2.71-0.17-4.85,1.01-6.53,3.11c-2.1-3.23-6.87-3.33-9.76-0.26
					c7.16,0.31,7.76,0.45,8.27,1.85c-5.22-1.29-7.83,0.17-9.17,5.22c1.39-0.78,2.69-1.57,4.04-2.25c1.36-0.68,2.61-1.69,4.37-1.67
					c-2.37,1.46-3.04,3-2.35,5.28c0.36-0.59,0.67-1.17,1.05-1.72c0.42-0.61,0.93-1.17,1.57-1.57c0.23-0.15,0.5-0.28,0.74-0.16
					c0.32,0.16,0.09,0.47,0.04,0.7c-0.15,0.76-0.38,1.51-0.53,2.27c-0.68,3.44-1.24,6.88-0.83,10.43c0.2,1.76,0.63,3.46,0.96,5.24
					h3.38c-0.11-0.14-0.2-0.32-0.29-0.54c-2.24-5.82-1.69-11.71-0.56-17.62c0.09-0.49,0.39-0.54,0.7-0.22
					c0.44,0.45,0.87,0.93,1.23,1.45c0.61,0.89,1.16,1.83,1.77,2.81c0.6-2.47-0.26-4.37-2.19-6.09c1.17,0.01,2.24,0.22,2.17-1.34
					c0.28,0.46,0.48,0.82,0.62,1.19c0.16,0.43,0.53,0.56,0.88,0.54c0.37-0.01,0.33-0.43,0.4-0.7c0.08-0.31,0.18-0.61,0.34-1.12
					c0.2,0.76,0.36,1.33,0.5,1.9c0.06,0.25,0.2,0.38,0.45,0.41c0.32,0.03,0.32-0.26,0.41-0.44c0.16-0.32-0.01-0.77,0.45-1.04
					c0.18,1.12,0.25,2.33,1.81,2.34C244.88,241.3,241.73,239.95,236.13,241.01z"/>
			</g>
			<g>
				<path d="M257.14,241.11c-0.93-0.74-1.94-1.19-1.48-2.47c-0.68,0.26-0.53,1.31-1.4,0.99c-0.79-0.29-0.07-1.05-0.44-1.47
					c-0.26,0.01-0.24,0.28-0.38,0.4c-0.29,0.25-0.25,0.96-0.79,0.79c-0.41-0.13-0.11-0.69-0.21-1.05c-0.01-0.05-0.06-0.09-0.18-0.26
					c-0.39,1.74-1.83,1.29-2.98,1.59c0.66-1.24,2.03-2.22,3.45-2.31c2.36-0.15,4.21,0.88,5.67,2.7c1.82-2.8,5.97-2.89,8.47-0.22
					c-6.22,0.27-6.74,0.39-7.18,1.6c4.53-1.12,6.8,0.15,7.97,4.54c-1.21-0.68-2.33-1.36-3.51-1.96c-1.18-0.59-2.27-1.47-3.8-1.45
					c2.06,1.27,2.64,2.61,2.04,4.58c-0.31-0.51-0.58-1.02-0.91-1.49c-0.37-0.53-0.81-1.01-1.36-1.37c-0.2-0.13-0.44-0.24-0.64-0.14
					c-0.28,0.14-0.08,0.41-0.04,0.6c0.13,0.66,0.33,1.31,0.46,1.98c0.59,2.99,1.07,5.98,0.72,9.06c-0.17,1.53-0.54,3.01-0.83,4.55
					h-2.93c0.09-0.12,0.18-0.28,0.25-0.47c1.94-5.05,1.47-10.17,0.49-15.3c-0.08-0.42-0.34-0.46-0.61-0.19
					c-0.38,0.39-0.76,0.81-1.06,1.26c-0.53,0.78-1,1.59-1.54,2.44c-0.52-2.15,0.23-3.79,1.9-5.29c-1.02,0.01-1.95,0.19-1.89-1.16
					c-0.24,0.4-0.41,0.71-0.54,1.03c-0.14,0.37-0.46,0.49-0.77,0.47c-0.32-0.01-0.28-0.37-0.35-0.61c-0.07-0.27-0.16-0.53-0.29-0.97
					c-0.17,0.66-0.31,1.16-0.43,1.65c-0.05,0.22-0.17,0.33-0.39,0.35c-0.28,0.02-0.28-0.22-0.36-0.38c-0.14-0.28,0.01-0.67-0.39-0.9
					c-0.15,0.97-0.22,2.03-1.57,2.03C249.54,241.36,252.28,240.19,257.14,241.11z"/>
			</g>
		</g>
	</g>
	<g>
		<g>
			<path class="st57" d="M205.18,239.25l-10.85,2.93c-0.11,0-0.21,0-0.32-0.01c-7.19-0.19-4.08,0-7.97,0.38
				c-3.89,0.38-17.49-1-17.49-1l0.02,7.58l-0.39,0.1l-1.37,6.4l1.79,1.97h37.91l0.33-16.19L205.18,239.25z"/>
			<g>
				<path class="st58" d="M166.76,239.58c0,0,13.93,1.46,17.9,1.06c3.98-0.4,0.8-0.6,8.16-0.4c6.07,0.16,11.06-0.48,12.62-0.72
					c0.27-0.04,0.5,0.17,0.5,0.44l-0.33,16.59h-38.03c-0.43,0-0.77-0.34-0.77-0.77L166.76,239.58z"/>
				<path class="st57" d="M205.96,256.91h-38.38c-0.62,0-1.12-0.5-1.12-1.12l-0.05-16.6l0.39,0.04c0.14,0.01,13.94,1.45,17.83,1.06
					c1.3-0.13,1.83-0.24,2.21-0.32c0.82-0.17,1.04-0.22,5.99-0.08c6.1,0.16,11.16-0.5,12.56-0.71c0.23-0.03,0.46,0.03,0.63,0.19
					c0.17,0.15,0.27,0.37,0.27,0.61L205.96,256.91z M167.11,239.97l0.05,15.82c0,0.23,0.19,0.42,0.42,0.42h37.69l0.32-16.25
					c0-0.03-0.02-0.05-0.03-0.07c-0.01-0.01-0.03-0.02-0.07-0.02c-1.42,0.21-6.52,0.89-12.68,0.72c-4.87-0.13-5.08-0.09-5.83,0.07
					c-0.4,0.08-0.94,0.19-2.28,0.33C181.06,241.35,169.44,240.21,167.11,239.97z"/>
			</g>
		</g>
		<g>
			<path class="st56" d="M175.12,243.6c-0.05-0.04-0.1-0.05-0.15-0.05c-0.1,0-0.17,0.05-0.22,0.16c-0.24,0.59-0.45,1.23-0.61,1.92
				c-0.17,0.69-0.3,1.38-0.41,2.07c-0.11,0.7-0.18,1.38-0.23,2.04c-0.05,0.66-0.07,1.27-0.07,1.83c-0.21-0.52-0.39-1.1-0.56-1.73
				c-0.17-0.63-0.31-1.27-0.44-1.92c-0.13-0.65-0.22-1.28-0.29-1.91c-0.07-0.63-0.1-1.21-0.1-1.74c0-0.04,0-0.09,0-0.12
				c0-0.04,0-0.08-0.01-0.12c-0.01-0.07-0.04-0.13-0.08-0.16c-0.04-0.04-0.09-0.05-0.13-0.05c-0.09,0-0.16,0.05-0.22,0.16
				c-0.66,1.31-1.13,2.66-1.39,4.05c-0.26,1.39-0.4,2.77-0.4,4.13c0,0.11,0,0.21,0.01,0.3c0,0.09,0.01,0.18,0.02,0.25
				c0.02,0.15,0.09,0.23,0.23,0.23c0.13,0,0.2-0.08,0.2-0.23c0-0.12,0-0.22-0.01-0.32c0-0.1-0.01-0.2-0.01-0.3
				c0-1.23,0.11-2.45,0.34-3.65c0.22-1.21,0.56-2.36,1.01-3.45c0,0.56,0.04,1.18,0.13,1.87c0.09,0.69,0.22,1.39,0.38,2.1
				c0.17,0.71,0.36,1.39,0.59,2.05c0.22,0.66,0.47,1.23,0.74,1.72c0.04,0.07,0.09,0.11,0.17,0.11c0.13,0,0.2-0.06,0.22-0.17
				c0.02-0.11,0.03-0.21,0.03-0.3c0-0.49,0.02-1.11,0.07-1.85c0.05-0.74,0.13-1.51,0.24-2.32c0.11-0.81,0.24-1.6,0.41-2.39
				c0.17-0.79,0.37-1.46,0.6-2.04C175.2,243.69,175.17,243.64,175.12,243.6z"/>
			<path class="st56" d="M178.25,250.43c-0.04,0-0.09,0.02-0.13,0.06c-0.04,0.04-0.07,0.12-0.1,0.24c-0.08,0.22-0.16,0.44-0.25,0.65
				c-0.09,0.21-0.18,0.4-0.28,0.57c-0.1,0.17-0.2,0.3-0.31,0.4c-0.11,0.1-0.22,0.15-0.32,0.15c-0.07,0-0.14-0.02-0.2-0.07
				c-0.06-0.05-0.11-0.11-0.15-0.19c-0.04-0.08-0.08-0.15-0.11-0.24c-0.03-0.08-0.06-0.15-0.07-0.22c0.15-0.15,0.3-0.34,0.45-0.55
				s0.28-0.45,0.39-0.7c0.11-0.25,0.2-0.51,0.28-0.77c0.07-0.26,0.11-0.52,0.11-0.77c0-0.07-0.01-0.18-0.03-0.32
				c-0.02-0.14-0.05-0.28-0.1-0.42c-0.05-0.14-0.12-0.26-0.21-0.36c-0.09-0.1-0.21-0.15-0.35-0.15c-0.19,0-0.35,0.1-0.49,0.3
				c-0.14,0.2-0.26,0.44-0.35,0.74c-0.09,0.3-0.16,0.62-0.21,0.96c-0.04,0.35-0.07,0.66-0.07,0.95c0,0.17,0.02,0.38,0.05,0.63
				c0.04,0.25,0.1,0.5,0.19,0.73c0.09,0.24,0.2,0.44,0.34,0.61c0.14,0.17,0.31,0.25,0.52,0.25c0.17,0,0.33-0.06,0.48-0.19
				c0.15-0.13,0.3-0.29,0.43-0.49c0.13-0.2,0.26-0.44,0.37-0.7c0.11-0.26,0.21-0.54,0.3-0.81c0-0.11-0.02-0.18-0.06-0.22
				C178.35,250.45,178.31,250.43,178.25,250.43z M176.18,251.02c-0.01-0.1-0.01-0.21-0.01-0.33c0-0.22,0.02-0.48,0.06-0.78
				c0.04-0.3,0.09-0.57,0.16-0.83c0.07-0.26,0.14-0.48,0.23-0.67c0.09-0.18,0.17-0.28,0.26-0.28c0.05,0,0.1,0.03,0.13,0.1
				c0.04,0.07,0.07,0.15,0.09,0.24c0.02,0.09,0.04,0.19,0.05,0.29c0.01,0.1,0.01,0.18,0.01,0.26c0,0.19-0.02,0.39-0.07,0.59
				c-0.05,0.21-0.12,0.41-0.21,0.61c-0.09,0.2-0.19,0.4-0.3,0.59c-0.11,0.19-0.23,0.35-0.36,0.5
				C176.2,251.22,176.19,251.13,176.18,251.02z"/>
			<path class="st56" d="M181.93,248.2c-0.02-0.2-0.05-0.37-0.09-0.52c-0.04-0.14-0.1-0.21-0.18-0.21c-0.05,0-0.1,0.02-0.14,0.06
				s-0.06,0.08-0.06,0.13c0,0.06,0.01,0.16,0.02,0.29c0.01,0.13,0.03,0.28,0.04,0.44c0.01,0.16,0.02,0.33,0.03,0.51
				c0.01,0.18,0.01,0.35,0.01,0.5c0,0.1-0.01,0.29-0.02,0.57c-0.01,0.28-0.04,0.58-0.09,0.89c-0.05,0.31-0.11,0.58-0.2,0.82
				c-0.09,0.24-0.21,0.36-0.36,0.36c-0.1,0-0.18-0.06-0.24-0.2c-0.06-0.13-0.1-0.29-0.13-0.47c-0.03-0.18-0.04-0.38-0.05-0.58
				c0-0.2-0.01-0.37-0.01-0.52c0-0.31,0-0.57,0.01-0.78c0.01-0.21,0.02-0.38,0.02-0.52c0-0.14,0.01-0.25,0.02-0.34
				c0.01-0.09,0.01-0.17,0.01-0.25c0-0.05-0.02-0.1-0.06-0.14c-0.04-0.04-0.09-0.06-0.14-0.06c-0.11,0-0.17,0.04-0.19,0.13
				c-0.02,0.09-0.03,0.17-0.03,0.26c0,0.27-0.01,0.57-0.04,0.89c-0.03,0.32-0.07,0.65-0.13,0.98c-0.06,0.33-0.14,0.65-0.24,0.96
				c-0.1,0.31-0.23,0.57-0.37,0.79c-0.14-0.23-0.24-0.49-0.3-0.78c-0.05-0.29-0.08-0.58-0.08-0.87c0-0.45,0.04-0.87,0.12-1.26
				c0.08-0.39,0.16-0.77,0.24-1.14c0-0.07-0.01-0.13-0.03-0.18c-0.02-0.04-0.08-0.07-0.17-0.07c-0.11,0-0.2,0.12-0.27,0.35
				c-0.07,0.23-0.13,0.5-0.17,0.8c-0.04,0.3-0.08,0.59-0.09,0.88c-0.02,0.29-0.03,0.48-0.03,0.59c0,0.37,0.04,0.75,0.13,1.16
				c0.09,0.4,0.25,0.74,0.49,1c0.04,0.04,0.08,0.05,0.13,0.05c0.09,0,0.18-0.06,0.27-0.17c0.09-0.11,0.17-0.24,0.25-0.4
				c0.08-0.15,0.14-0.31,0.19-0.46c0.05-0.16,0.09-0.28,0.11-0.38c0.01,0.1,0.03,0.21,0.05,0.34c0.03,0.13,0.07,0.25,0.12,0.36
				c0.05,0.11,0.13,0.21,0.22,0.29c0.09,0.08,0.2,0.12,0.34,0.12c0.26,0,0.46-0.12,0.61-0.37c0.15-0.25,0.26-0.54,0.34-0.87
				c0.08-0.34,0.12-0.68,0.14-1.03c0.02-0.35,0.03-0.63,0.03-0.83c0-0.13,0-0.31-0.01-0.52C181.97,248.6,181.96,248.4,181.93,248.2z
				"/>
			<path class="st56" d="M191.89,247.55c-0.18,0-0.36,0.01-0.53,0.03c-0.18,0.02-0.33,0.05-0.48,0.09c0.04-0.22,0.08-0.48,0.14-0.76
				c0.06-0.28,0.13-0.57,0.2-0.87c0.08-0.3,0.16-0.59,0.25-0.87c0.09-0.29,0.18-0.55,0.28-0.78c0.03-0.05,0.06-0.12,0.09-0.19
				c0.03-0.07,0.05-0.13,0.05-0.18c0-0.06-0.02-0.11-0.07-0.15c-0.05-0.04-0.1-0.06-0.16-0.06c-0.1,0-0.17,0.05-0.22,0.16
				c-0.25,0.56-0.46,1.17-0.63,1.85c-0.17,0.68-0.3,1.32-0.4,1.93c-0.5,0.09-1,0.21-1.48,0.36c-0.48,0.15-0.96,0.32-1.43,0.52
				c0.1-0.82,0.23-1.62,0.4-2.42c0.17-0.8,0.37-1.59,0.6-2.38c0.01-0.03,0.01-0.06,0.01-0.11c0-0.08-0.02-0.14-0.07-0.18
				c-0.05-0.04-0.09-0.06-0.15-0.06c-0.12,0-0.19,0.06-0.22,0.18c-0.29,0.88-0.51,1.75-0.67,2.61c-0.16,0.86-0.28,1.72-0.38,2.58
				c-0.13,0.05-0.28,0.12-0.43,0.19c-0.15,0.07-0.29,0.15-0.42,0.24c-0.07,0.04-0.11,0.11-0.11,0.19c0,0.06,0.02,0.12,0.06,0.16
				c0.04,0.05,0.1,0.07,0.17,0.07c0.04,0,0.08-0.01,0.11-0.03c0.1-0.05,0.19-0.11,0.28-0.16c0.09-0.05,0.18-0.1,0.28-0.15
				c-0.03,0.4-0.04,0.81-0.04,1.21s0.02,0.8,0.05,1.18c0.03,0.39,0.09,0.77,0.18,1.14c0.04,0.13,0.07,0.22,0.09,0.26
				c0.03,0.04,0.07,0.06,0.12,0.06c0.05,0,0.1-0.02,0.15-0.06c0.04-0.04,0.07-0.1,0.07-0.17v-0.05c-0.1-0.41-0.16-0.81-0.18-1.18
				c-0.02-0.37-0.03-0.75-0.03-1.12c0-0.25,0.01-0.5,0.02-0.75c0.01-0.25,0.03-0.5,0.05-0.75c0.92-0.41,1.89-0.72,2.89-0.93
				c-0.11,0.75-0.16,1.49-0.16,2.25c0,0.4,0.01,0.8,0.04,1.18c0.03,0.39,0.09,0.75,0.2,1.09c0.02,0.05,0.05,0.09,0.09,0.12
				c0.04,0.03,0.08,0.04,0.13,0.04c0.05,0,0.1-0.02,0.15-0.06c0.04-0.04,0.07-0.1,0.07-0.17v-0.05c-0.08-0.38-0.14-0.74-0.18-1.09
				c-0.04-0.35-0.06-0.71-0.06-1.09c0-0.39,0.02-0.78,0.05-1.16c0.04-0.38,0.08-0.76,0.13-1.14c0.18-0.04,0.36-0.08,0.54-0.09
				c0.18-0.02,0.36-0.03,0.54-0.04c0.07,0,0.13-0.03,0.16-0.08c0.04-0.05,0.05-0.1,0.05-0.15c0-0.05-0.02-0.1-0.05-0.15
				C192.01,247.57,191.96,247.55,191.89,247.55z"/>
			<path class="st56" d="M201.76,250.52c-0.06,0-0.13,0.1-0.2,0.29c-0.07,0.19-0.14,0.41-0.23,0.64c-0.09,0.23-0.18,0.45-0.3,0.64
				c-0.11,0.19-0.25,0.29-0.41,0.29c-0.21,0-0.37-0.08-0.5-0.23c-0.13-0.15-0.22-0.34-0.29-0.55c-0.07-0.22-0.11-0.44-0.13-0.68
				c-0.02-0.24-0.04-0.45-0.05-0.63c0.23-0.36,0.47-0.77,0.71-1.25c0.24-0.47,0.46-0.96,0.65-1.47c0.2-0.51,0.36-1.01,0.48-1.51
				c0.12-0.5,0.18-0.96,0.18-1.39c0-0.25-0.04-0.46-0.12-0.62c-0.08-0.16-0.22-0.24-0.42-0.24c-0.24,0-0.46,0.13-0.65,0.39
				c-0.19,0.26-0.35,0.59-0.49,0.99c-0.14,0.4-0.26,0.84-0.35,1.32c-0.09,0.48-0.17,0.94-0.23,1.39c-0.06,0.45-0.1,0.85-0.13,1.21
				c-0.03,0.36-0.04,0.61-0.04,0.77v0.28c-0.07,0.08-0.14,0.16-0.2,0.24c-0.03,0.04-0.06,0.09-0.08,0.13
				c-0.03-0.02-0.07-0.02-0.13-0.02c-0.06,0-0.13,0.1-0.2,0.29c-0.07,0.19-0.14,0.41-0.23,0.64c-0.09,0.23-0.18,0.45-0.3,0.64
				c-0.11,0.19-0.25,0.29-0.41,0.29c-0.21,0-0.37-0.08-0.5-0.23c-0.13-0.15-0.22-0.34-0.29-0.55c-0.07-0.22-0.11-0.44-0.13-0.68
				c-0.02-0.24-0.04-0.45-0.05-0.63c0.23-0.36,0.47-0.77,0.71-1.25c0.24-0.47,0.46-0.96,0.65-1.47c0.2-0.51,0.36-1.01,0.48-1.51
				c0.12-0.5,0.18-0.96,0.18-1.39c0-0.25-0.04-0.46-0.12-0.62c-0.08-0.16-0.22-0.24-0.42-0.24c-0.24,0-0.46,0.13-0.65,0.39
				c-0.19,0.26-0.35,0.59-0.49,0.99c-0.14,0.4-0.26,0.84-0.35,1.32c-0.09,0.48-0.17,0.94-0.23,1.39c-0.06,0.45-0.1,0.85-0.13,1.21
				c-0.03,0.36-0.04,0.61-0.04,0.77v0.28c-0.07,0.08-0.14,0.16-0.2,0.24c-0.01,0.01-0.01,0.02-0.02,0.03c-0.01,0-0.02,0-0.03,0
				c-0.12,0-0.18,0.05-0.2,0.15c-0.01,0.06-0.03,0.2-0.06,0.42c-0.03,0.22-0.08,0.45-0.13,0.69c-0.06,0.24-0.13,0.45-0.22,0.64
				c-0.09,0.19-0.19,0.28-0.32,0.28c-0.13,0-0.22-0.11-0.29-0.32c-0.07-0.21-0.12-0.45-0.15-0.73c-0.03-0.27-0.05-0.54-0.05-0.81
				c0-0.26-0.01-0.45-0.01-0.56c-0.01-0.22-0.03-0.46-0.07-0.75c-0.04-0.28-0.09-0.55-0.17-0.8c-0.08-0.25-0.18-0.46-0.31-0.64
				c-0.13-0.17-0.29-0.26-0.48-0.26c-0.18,0-0.35,0.1-0.5,0.31c-0.16,0.21-0.29,0.47-0.41,0.78c-0.12,0.31-0.21,0.67-0.28,1.06
				c-0.07,0.39-0.11,0.77-0.11,1.12c0,0.27,0.02,0.52,0.07,0.76c0.05,0.24,0.12,0.45,0.22,0.63c0.1,0.18,0.22,0.32,0.37,0.43
				s0.33,0.16,0.53,0.16c0.24,0,0.43-0.07,0.57-0.22c0.14-0.14,0.25-0.31,0.33-0.51c0.05,0.18,0.13,0.35,0.24,0.5
				s0.26,0.23,0.47,0.23c0.2,0,0.37-0.08,0.5-0.24c0.14-0.16,0.25-0.36,0.34-0.6c0.09-0.24,0.15-0.49,0.2-0.75
				c0.03-0.21,0.06-0.4,0.08-0.57c0,0,0,0,0,0c0.05,0,0.09-0.02,0.12-0.05c0.02,0.21,0.05,0.42,0.09,0.65
				c0.04,0.23,0.11,0.44,0.21,0.65c0.09,0.2,0.22,0.37,0.38,0.5c0.16,0.13,0.36,0.2,0.6,0.2c0.22,0,0.4-0.07,0.55-0.21
				c0.15-0.14,0.28-0.31,0.39-0.52c0.11-0.21,0.2-0.43,0.26-0.66c0.07-0.23,0.12-0.43,0.16-0.6c0.04,0.03,0.09,0.05,0.14,0.05
				c0.05,0,0.09-0.02,0.12-0.05c0.02,0.21,0.05,0.42,0.09,0.65c0.04,0.23,0.11,0.44,0.21,0.65c0.09,0.2,0.22,0.37,0.38,0.5
				c0.16,0.13,0.36,0.2,0.6,0.2c0.22,0,0.4-0.07,0.55-0.21c0.15-0.14,0.28-0.31,0.39-0.52c0.11-0.21,0.2-0.43,0.26-0.66
				c0.07-0.23,0.12-0.44,0.17-0.62l0.01-0.11C201.96,250.57,201.89,250.52,201.76,250.52z M199.72,248.65
				c0.04-0.35,0.1-0.72,0.17-1.12c0.07-0.39,0.16-0.79,0.26-1.18c0.1-0.39,0.2-0.75,0.31-1.06c0.11-0.31,0.22-0.57,0.34-0.77
				c0.12-0.2,0.24-0.3,0.34-0.3c0.06,0,0.1,0.05,0.11,0.15c0.01,0.1,0.02,0.2,0.02,0.29c0,0.33-0.05,0.7-0.14,1.12
				c-0.09,0.41-0.22,0.84-0.37,1.28c-0.15,0.44-0.33,0.87-0.52,1.3c-0.19,0.43-0.39,0.81-0.59,1.16
				C199.66,249.29,199.68,249,199.72,248.65z M196.81,248.65c0.04-0.35,0.1-0.72,0.17-1.12c0.07-0.39,0.16-0.79,0.26-1.18
				c0.1-0.39,0.2-0.75,0.31-1.06c0.11-0.31,0.22-0.57,0.34-0.77c0.12-0.2,0.24-0.3,0.34-0.3c0.06,0,0.1,0.05,0.11,0.15
				c0.01,0.1,0.02,0.2,0.02,0.29c0,0.33-0.05,0.7-0.14,1.12c-0.09,0.41-0.22,0.84-0.37,1.28c-0.15,0.44-0.33,0.87-0.52,1.3
				c-0.19,0.43-0.39,0.81-0.59,1.16C196.75,249.29,196.77,249,196.81,248.65z M194.24,251.3c-0.02,0.21-0.05,0.4-0.11,0.59
				c-0.05,0.19-0.13,0.35-0.24,0.49c-0.1,0.14-0.24,0.21-0.42,0.22c-0.15-0.01-0.28-0.07-0.37-0.17c-0.09-0.1-0.17-0.23-0.22-0.39
				c-0.05-0.16-0.09-0.33-0.11-0.51c-0.02-0.18-0.03-0.36-0.03-0.53c0-0.42,0.05-0.86,0.15-1.33c0.1-0.46,0.27-0.88,0.5-1.26
				c0.03-0.04,0.06-0.09,0.09-0.12c0.03-0.04,0.05-0.07,0.08-0.09c0.03-0.03,0.05-0.04,0.08-0.04c0.11,0,0.2,0.1,0.28,0.3
				c0.08,0.2,0.14,0.44,0.2,0.72c0.05,0.28,0.09,0.57,0.11,0.87c0.02,0.3,0.03,0.55,0.03,0.73
				C194.27,250.92,194.26,251.09,194.24,251.3z"/>
		</g>
	</g>
	<g>
		<g>
			<path class="st59" d="M313.78,146.37l-42.81-3.32c-2.61-0.2-4.85,1.3-5.01,3.36l-0.61,7.88c-0.16,2.06,1.82,3.89,4.43,4.09
				l42.81,3.32c2.61,0.2,4.85-1.3,5.01-3.36l0.61-7.88C318.37,148.4,316.39,146.57,313.78,146.37z"/>
			<g>
				<path class="st19" d="M313.21,145.15l-44.22-3.43c-2.23-0.17-4.18,1.5-4.36,3.73l-0.53,6.85c-0.19,2.45,1.64,4.6,4.1,4.79
					l43.82,3.4c2.2,0.17,4.13-1.48,4.3-3.68l0.57-7.36C317.06,147.24,315.41,145.32,313.21,145.15z"/>
				<path class="st57" d="M311.26,160.8l-42.81-3.32c-2.86-0.22-5.05-2.24-4.87-4.5l0.61-7.88c0.18-2.26,2.65-3.92,5.51-3.7
					l42.81,3.32c2.86,0.22,5.05,2.24,4.87,4.5l-0.61,7.88C316.59,159.36,314.12,161.02,311.26,160.8z M269.64,142.14
					c-2.34-0.18-4.37,1.18-4.51,3.03l-0.61,7.88c-0.14,1.85,1.65,3.51,3.99,3.69l42.81,3.32c2.34,0.18,4.37-1.18,4.51-3.03
					l0.61-7.88c0.14-1.85-1.65-3.51-3.99-3.69L269.64,142.14z"/>
			</g>
		</g>
		<g>
			<g>
				<path class="st56" d="M273.19,147.89l-1.71-0.12c-0.11-0.01-0.21,0.02-0.32,0.09c-0.11,0.06-0.17,0.16-0.17,0.28l-0.01,0.16
					c-0.02,0.27-0.07,0.51-0.15,0.73c-0.08,0.22-0.19,0.42-0.32,0.6c-0.14,0.19-0.29,0.36-0.48,0.53c-0.18,0.17-0.39,0.34-0.61,0.51
					l-0.07-0.01c-0.07-0.01-0.12-0.05-0.14-0.12c-0.02-0.07-0.02-0.14-0.02-0.21l0.01-0.12c0.02-0.24,0.06-0.48,0.13-0.73
					c0.07-0.25,0.16-0.49,0.28-0.72c0.12-0.23,0.25-0.46,0.4-0.66c0.15-0.21,0.31-0.4,0.49-0.56c0.09-0.08,0.19-0.16,0.3-0.22
					c0.11-0.06,0.23-0.13,0.36-0.19c0.2-0.09,0.38-0.19,0.54-0.3c0.16-0.11,0.25-0.24,0.26-0.4c0.02-0.24-0.05-0.4-0.19-0.5
					c-0.14-0.09-0.31-0.15-0.52-0.16c-0.28-0.02-0.55,0.04-0.82,0.19c-0.26,0.15-0.51,0.34-0.75,0.59
					c-0.24,0.25-0.45,0.54-0.65,0.86c-0.2,0.33-0.37,0.65-0.52,0.99c-0.15,0.33-0.27,0.66-0.35,0.97s-0.14,0.59-0.15,0.82
					c-0.01,0.18-0.01,0.38,0.02,0.59c0.02,0.21,0.07,0.41,0.15,0.59c0.08,0.18,0.19,0.33,0.34,0.46c0.15,0.13,0.34,0.2,0.57,0.21
					c0.17,0.01,0.33-0.01,0.48-0.07c0.15-0.06,0.29-0.13,0.42-0.22c0.13-0.09,0.26-0.19,0.38-0.3c0.12-0.11,0.23-0.22,0.33-0.33
					c0.13-0.12,0.24-0.23,0.34-0.32c0.1-0.09,0.18-0.13,0.25-0.12c0.02,0,0.05,0.01,0.07,0.01c0.02,0.01,0.03,0.02,0.04,0.04l0,0.07
					c-0.01,0.08-0.01,0.2-0.02,0.36c-0.01,0.17-0.01,0.34-0.02,0.52c-0.01,0.18-0.01,0.34-0.02,0.5c0,0.15-0.01,0.26-0.01,0.32
					l-0.01,0.1c0,0.08,0,0.16,0,0.24c0,0.09,0.01,0.17,0.03,0.25c0.02,0.08,0.06,0.14,0.12,0.2c0.06,0.05,0.13,0.08,0.23,0.09
					c0.03,0,0.09,0,0.17-0.01c0.09-0.01,0.17-0.02,0.26-0.04c0.09-0.02,0.17-0.05,0.24-0.08c0.07-0.03,0.1-0.07,0.11-0.12l0.26-3.82
					c0.01-0.09,0.05-0.15,0.12-0.19c0.07-0.04,0.15-0.07,0.24-0.1c0.08-0.03,0.14-0.05,0.2-0.08c0.06-0.03,0.09-0.08,0.09-0.14
					l0.04-0.65c0-0.07-0.02-0.13-0.06-0.19C273.32,147.93,273.26,147.9,273.19,147.89z"/>
				<path class="st57" d="M271.71,153.58c-0.01,0-0.03,0-0.03,0c-0.14-0.01-0.26-0.06-0.34-0.14c-0.08-0.08-0.13-0.17-0.16-0.27
					c-0.03-0.09-0.04-0.19-0.04-0.3l0-0.24l0.01-0.12c0-0.06,0.01-0.17,0.01-0.32l0.03-1.02c0-0.11,0.01-0.2,0.01-0.27
					c-0.02,0.01-0.04,0.03-0.06,0.05c-0.1,0.09-0.21,0.19-0.34,0.31c-0.1,0.1-0.21,0.21-0.33,0.33c-0.12,0.12-0.26,0.23-0.4,0.32
					c-0.14,0.09-0.3,0.17-0.46,0.23c-0.17,0.06-0.36,0.09-0.55,0.08c-0.27-0.02-0.49-0.1-0.67-0.25c-0.17-0.14-0.3-0.32-0.38-0.53
					c-0.08-0.19-0.14-0.41-0.16-0.64c-0.02-0.22-0.03-0.43-0.02-0.62c0.02-0.24,0.07-0.53,0.16-0.85c0.09-0.32,0.21-0.65,0.36-0.99
					c0.15-0.34,0.33-0.68,0.53-1.01c0.2-0.33,0.43-0.63,0.67-0.89c0.25-0.26,0.52-0.47,0.79-0.63c0.29-0.16,0.6-0.23,0.91-0.21
					c0.24,0.02,0.44,0.08,0.61,0.19c0.14,0.09,0.29,0.28,0.26,0.66c-0.01,0.21-0.13,0.39-0.33,0.53c-0.17,0.11-0.36,0.22-0.57,0.32
					c-0.12,0.06-0.23,0.12-0.34,0.18c-0.1,0.06-0.19,0.12-0.27,0.19c-0.17,0.16-0.32,0.34-0.46,0.53c-0.14,0.2-0.27,0.42-0.38,0.64
					c-0.11,0.22-0.2,0.46-0.27,0.69c-0.07,0.24-0.11,0.47-0.12,0.69l-0.01,0.12c0,0.05,0,0.1,0.01,0.14
					c0.2-0.15,0.38-0.31,0.54-0.46c0.17-0.16,0.33-0.33,0.46-0.51c0.12-0.17,0.23-0.36,0.3-0.56c0.07-0.2,0.12-0.43,0.14-0.68
					l0.01-0.16c0.01-0.18,0.1-0.32,0.26-0.41c0.14-0.08,0.28-0.12,0.42-0.11l1.7,0.12c0.12,0.01,0.22,0.06,0.3,0.15
					c0.08,0.09,0.11,0.2,0.1,0.31l-0.04,0.65c-0.01,0.13-0.08,0.24-0.2,0.29c-0.06,0.03-0.14,0.06-0.22,0.09
					c-0.08,0.02-0.15,0.05-0.21,0.09c-0.02,0.01-0.02,0.02-0.03,0.05l-0.26,3.82c0,0.07-0.04,0.19-0.21,0.27
					c-0.08,0.04-0.17,0.07-0.28,0.09c-0.1,0.02-0.19,0.03-0.28,0.04C271.8,153.57,271.75,153.58,271.71,153.58z M271.25,150.52
					c0.01,0,0.01,0,0.02,0c0.04,0,0.08,0.01,0.12,0.02c0.08,0.03,0.13,0.09,0.15,0.16l0.01,0.03l-0.01,0.09
					c-0.01,0.07-0.01,0.19-0.01,0.35l-0.03,1c0,0.17-0.01,0.28-0.01,0.34l-0.01,0.1l0,0.23c0,0.07,0.01,0.14,0.03,0.2
					c0.01,0.05,0.04,0.09,0.07,0.12c0.03,0.02,0.07,0.04,0.12,0.04c0.03,0,0.08,0,0.15-0.01c0.08-0.01,0.16-0.02,0.24-0.04
					c0.07-0.02,0.14-0.04,0.2-0.06c0.01,0,0.01,0,0.01,0l0.26-3.8c0.01-0.15,0.09-0.27,0.22-0.33c0.08-0.04,0.17-0.08,0.27-0.11
					c0.07-0.02,0.13-0.05,0.18-0.07l0.04-0.64c0-0.02,0-0.04-0.02-0.07c-0.02-0.02-0.03-0.03-0.05-0.03h0l-1.71-0.12
					c-0.07-0.01-0.14,0.02-0.22,0.06c-0.06,0.04-0.08,0.08-0.09,0.14l-0.01,0.16c-0.02,0.29-0.07,0.55-0.16,0.78
					c-0.09,0.23-0.2,0.45-0.35,0.65c-0.14,0.19-0.31,0.38-0.5,0.56c-0.19,0.17-0.4,0.35-0.63,0.52l-0.05,0.04l-0.14-0.01
					c-0.16-0.02-0.26-0.11-0.3-0.25c-0.02-0.08-0.03-0.18-0.02-0.27l0.01-0.12c0.02-0.25,0.06-0.51,0.14-0.77
					c0.07-0.26,0.17-0.51,0.29-0.75c0.12-0.24,0.26-0.47,0.41-0.69c0.15-0.22,0.33-0.41,0.51-0.59c0.1-0.09,0.21-0.17,0.34-0.24
					c0.12-0.07,0.24-0.13,0.37-0.19c0.19-0.09,0.37-0.19,0.52-0.29c0.15-0.1,0.18-0.2,0.18-0.26c0.02-0.25-0.08-0.32-0.11-0.34
					c-0.11-0.08-0.26-0.12-0.44-0.13c-0.25-0.02-0.49,0.04-0.72,0.17c-0.25,0.14-0.49,0.32-0.71,0.56
					c-0.23,0.24-0.44,0.52-0.63,0.83c-0.19,0.32-0.36,0.64-0.51,0.97c-0.14,0.32-0.26,0.64-0.34,0.94c-0.08,0.3-0.13,0.56-0.15,0.78
					c-0.01,0.17-0.01,0.36,0.02,0.56c0.02,0.2,0.07,0.38,0.14,0.54c0.06,0.15,0.16,0.29,0.29,0.39c0.12,0.1,0.27,0.16,0.47,0.17
					c0.14,0.01,0.28-0.01,0.4-0.06c0.14-0.05,0.27-0.12,0.39-0.2c0.13-0.08,0.24-0.18,0.35-0.28c0.11-0.11,0.22-0.22,0.32-0.32
					c0.14-0.13,0.25-0.24,0.35-0.33C271.02,150.58,271.14,150.52,271.25,150.52z"/>
			</g>
			<g>
				<path class="st56" d="M278.91,151.77c-0.11-0.08-0.24-0.16-0.38-0.23c-0.14-0.07-0.29-0.14-0.43-0.21
					c-0.12-0.06-0.24-0.12-0.35-0.17c-0.11-0.06-0.21-0.11-0.3-0.17c-0.09-0.06-0.16-0.11-0.21-0.17c-0.05-0.06-0.08-0.11-0.07-0.17
					c0-0.06,0.05-0.13,0.14-0.21c0.09-0.08,0.2-0.18,0.34-0.29c0.13-0.11,0.27-0.23,0.42-0.36c0.15-0.13,0.29-0.28,0.43-0.44
					c0.13-0.16,0.25-0.33,0.34-0.52c0.09-0.19,0.15-0.39,0.16-0.62c0.02-0.34-0.04-0.61-0.19-0.83c-0.15-0.21-0.35-0.38-0.59-0.51
					c-0.24-0.13-0.51-0.22-0.8-0.27c-0.29-0.05-0.56-0.09-0.82-0.11l-0.76-0.04c-0.13,0.01-0.24,0.13-0.34,0.36
					c-0.1,0.23-0.2,0.52-0.28,0.88c-0.08,0.35-0.15,0.74-0.21,1.17c-0.06,0.43-0.11,0.84-0.16,1.25c-0.04,0.41-0.08,0.78-0.1,1.11
					c-0.03,0.34-0.05,0.59-0.06,0.77c0,0.03-0.01,0.09-0.01,0.16c-0.01,0.08-0.01,0.16-0.01,0.25c0,0.09-0.01,0.18-0.01,0.27
					c-0.01,0.09-0.01,0.17-0.02,0.23c0,0.06,0.01,0.12,0.05,0.18c0.04,0.06,0.09,0.1,0.16,0.1l0.58,0.04
					c0.08,0.01,0.14-0.02,0.18-0.07l0.05-0.03c0.01-0.01,0.01-0.02,0.02-0.02c0.01,0,0.01-0.01,0.02-0.01l0.03-0.04
					c0.04-0.05,0.06-0.1,0.07-0.16l0.08-1.14c0-0.05,0.03-0.08,0.09-0.1c0.06-0.02,0.11-0.03,0.15-0.03l0.1,0.02
					c0.05,0.03,0.14,0.08,0.26,0.16c0.13,0.08,0.27,0.17,0.43,0.27c0.16,0.1,0.34,0.21,0.52,0.32c0.18,0.11,0.36,0.21,0.52,0.3
					c0.16,0.09,0.3,0.17,0.42,0.23c0.12,0.06,0.19,0.1,0.22,0.1l0.08,0.02c0.08,0,0.16-0.03,0.23-0.07
					c0.07-0.05,0.13-0.11,0.18-0.18c0.05-0.07,0.09-0.15,0.12-0.23c0.03-0.08,0.05-0.16,0.05-0.23c0.01-0.1-0.02-0.19-0.09-0.28
					C279.11,151.94,279.02,151.85,278.91,151.77z"/>
				<path class="st57" d="M275.45,153.4c-0.01,0-0.02,0-0.03,0l-0.58-0.04c-0.12-0.01-0.23-0.07-0.3-0.18
					c-0.06-0.09-0.09-0.19-0.08-0.28l0.02-0.23c0.01-0.09,0.01-0.18,0.01-0.27c0-0.09,0.01-0.18,0.01-0.26l0.01-0.16
					c0.01-0.18,0.03-0.43,0.06-0.77c0.03-0.34,0.06-0.71,0.1-1.12c0.04-0.41,0.1-0.82,0.16-1.25c0.06-0.43,0.13-0.83,0.21-1.18
					c0.08-0.36,0.18-0.67,0.29-0.91c0.13-0.3,0.29-0.45,0.49-0.47l0.78,0.04c0.26,0.02,0.54,0.05,0.84,0.11
					c0.3,0.06,0.59,0.15,0.84,0.29c0.27,0.14,0.49,0.33,0.65,0.57c0.18,0.25,0.25,0.56,0.22,0.94c-0.02,0.25-0.08,0.48-0.18,0.69
					c-0.1,0.2-0.22,0.39-0.36,0.56c-0.14,0.17-0.29,0.32-0.44,0.46c-0.15,0.13-0.29,0.25-0.43,0.36c-0.13,0.11-0.24,0.2-0.33,0.28
					c-0.06,0.05-0.08,0.08-0.08,0.09c0,0,0.01,0.01,0.03,0.03c0.04,0.05,0.1,0.09,0.18,0.14c0.08,0.05,0.18,0.11,0.28,0.16
					c0.11,0.06,0.23,0.11,0.35,0.17c0.14,0.07,0.29,0.14,0.44,0.21c0.15,0.08,0.29,0.16,0.41,0.24l0,0
					c0.13,0.09,0.23,0.19,0.31,0.29c0.09,0.12,0.13,0.26,0.12,0.4c-0.01,0.08-0.03,0.18-0.06,0.28c-0.04,0.1-0.09,0.19-0.15,0.27
					c-0.06,0.09-0.14,0.16-0.22,0.22c-0.1,0.07-0.21,0.1-0.33,0.11l-0.12-0.02c-0.05-0.01-0.11-0.04-0.27-0.12
					c-0.12-0.06-0.26-0.14-0.42-0.23c-0.16-0.09-0.33-0.19-0.52-0.3c-0.19-0.11-0.36-0.22-0.52-0.32c-0.16-0.1-0.31-0.19-0.43-0.28
					c-0.1-0.07-0.18-0.11-0.23-0.14l-0.05-0.01c-0.02,0-0.04,0.01-0.07,0.01l-0.07,1.1c-0.01,0.1-0.04,0.19-0.11,0.27l-0.14,0.13
					C275.65,153.36,275.55,153.4,275.45,153.4z M275.76,153.25l-0.02,0.01C275.75,153.26,275.75,153.25,275.76,153.25z
					 M275.82,146.63c-0.02,0-0.09,0.07-0.18,0.26c-0.1,0.22-0.19,0.5-0.27,0.84c-0.08,0.35-0.15,0.73-0.21,1.15
					c-0.06,0.42-0.11,0.84-0.16,1.24c-0.04,0.4-0.08,0.77-0.1,1.11c-0.03,0.34-0.04,0.59-0.06,0.77l-0.01,0.16
					c-0.01,0.08-0.01,0.16-0.01,0.25c0,0.09-0.01,0.19-0.01,0.28l-0.02,0.23c0,0.02,0.01,0.04,0.03,0.07l0.61,0.06
					c0.03,0,0.03,0,0.04-0.01l0.11-0.1c0.03-0.03,0.03-0.05,0.04-0.08l0.08-1.14c0.01-0.12,0.09-0.22,0.22-0.26
					c0.07-0.02,0.13-0.03,0.19-0.04l0.02,0l0.18,0.04c0.05,0.03,0.14,0.08,0.27,0.17c0.13,0.08,0.27,0.17,0.43,0.27
					c0.16,0.1,0.33,0.21,0.52,0.32c0.18,0.11,0.35,0.21,0.51,0.3c0.16,0.09,0.29,0.17,0.41,0.23c0.1,0.05,0.16,0.08,0.19,0.09
					l0.07,0.01c0.01,0,0.05-0.02,0.09-0.04c0.05-0.04,0.1-0.08,0.14-0.14c0.04-0.06,0.08-0.12,0.1-0.19
					c0.02-0.07,0.04-0.13,0.04-0.18c0-0.06-0.01-0.11-0.05-0.17c-0.05-0.07-0.13-0.15-0.23-0.21c-0.11-0.07-0.23-0.15-0.36-0.22
					c-0.14-0.07-0.28-0.14-0.43-0.2c-0.13-0.06-0.25-0.12-0.36-0.18c-0.12-0.06-0.22-0.12-0.31-0.18c-0.1-0.06-0.18-0.13-0.24-0.2
					c-0.11-0.12-0.12-0.23-0.12-0.3c0.01-0.1,0.07-0.21,0.2-0.32c0.09-0.08,0.21-0.18,0.34-0.29c0.13-0.11,0.27-0.23,0.42-0.36
					c0.14-0.12,0.28-0.26,0.41-0.42c0.12-0.15,0.23-0.31,0.32-0.49c0.08-0.17,0.13-0.35,0.15-0.55c0.02-0.29-0.03-0.53-0.16-0.71
					c-0.13-0.19-0.31-0.34-0.53-0.46c-0.23-0.12-0.48-0.2-0.75-0.25c-0.28-0.05-0.55-0.09-0.8-0.1L275.82,146.63z M275.61,152.93
					c-0.01,0-0.02,0.01-0.03,0.02L275.61,152.93z"/>
			</g>
			<g>
				<path class="st56" d="M285.13,152.65c-0.01-0.05-0.03-0.18-0.06-0.38c-0.03-0.2-0.06-0.42-0.1-0.67
					c-0.1-0.66-0.19-1.32-0.28-1.97c-0.09-0.66-0.17-1.32-0.25-1.98c-0.01-0.07-0.04-0.13-0.08-0.18c-0.05-0.05-0.1-0.08-0.17-0.08
					l-1.22-0.08c-0.07,0-0.13,0.03-0.18,0.11c-0.03,0.04-0.06,0.1-0.1,0.17c-0.04,0.07-0.07,0.12-0.08,0.15
					c-0.21,0.41-0.42,0.83-0.63,1.24c-0.21,0.42-0.41,0.84-0.59,1.26c-0.05,0.12-0.11,0.26-0.18,0.43
					c-0.07,0.17-0.14,0.34-0.22,0.52c-0.08,0.18-0.15,0.36-0.23,0.54c-0.08,0.18-0.14,0.34-0.2,0.49c-0.06,0.14-0.1,0.26-0.14,0.35
					c-0.04,0.09-0.06,0.14-0.06,0.15l-0.03,0.42c-0.01,0.11,0.05,0.18,0.16,0.21c0.12,0.04,0.23,0.06,0.35,0.07l0.03,0l0.07,0
					l0.03,0l0.07,0c0.09,0.01,0.17-0.01,0.23-0.05c0.07-0.04,0.13-0.1,0.19-0.17c0.06-0.07,0.11-0.16,0.16-0.25
					c0.05-0.1,0.1-0.2,0.15-0.31c0.06-0.13,0.12-0.25,0.19-0.37c0.07-0.12,0.15-0.22,0.23-0.3c0.09-0.08,0.19-0.15,0.3-0.19
					c0.11-0.05,0.25-0.06,0.4-0.05c0.14,0.01,0.27,0.04,0.36,0.11c0.1,0.06,0.18,0.14,0.25,0.23c0.07,0.1,0.13,0.2,0.18,0.33
					c0.05,0.12,0.09,0.25,0.12,0.39c0.06,0.21,0.13,0.4,0.2,0.56c0.07,0.16,0.18,0.25,0.32,0.26c0.07,0,0.15,0,0.24,0
					c0.09-0.01,0.18-0.02,0.26-0.05c0.08-0.03,0.16-0.07,0.22-0.12s0.09-0.12,0.1-0.21c0.01-0.11,0.01-0.19,0.01-0.25
					C285.17,152.89,285.16,152.79,285.13,152.65z"/>
				<path class="st57" d="M284.44,153.77c-0.04,0-0.07,0-0.1,0c-0.15-0.01-0.35-0.08-0.47-0.36c-0.07-0.17-0.14-0.36-0.2-0.58
					c-0.03-0.13-0.07-0.25-0.12-0.37c-0.04-0.11-0.09-0.21-0.15-0.29c-0.06-0.08-0.12-0.14-0.2-0.19c-0.07-0.05-0.17-0.07-0.29-0.08
					c-0.13-0.01-0.24,0-0.33,0.04c-0.09,0.04-0.17,0.09-0.25,0.16c-0.07,0.07-0.14,0.16-0.2,0.26c-0.07,0.11-0.13,0.23-0.18,0.35
					c-0.05,0.11-0.11,0.22-0.16,0.32c-0.06,0.11-0.12,0.2-0.18,0.28c-0.07,0.09-0.15,0.16-0.23,0.21c-0.1,0.06-0.21,0.09-0.34,0.08
					l-0.07,0l-0.08,0l-0.04,0c-0.13-0.01-0.26-0.03-0.39-0.07c-0.2-0.06-0.3-0.2-0.29-0.39l0.03-0.42c0-0.03,0.01-0.05,0.07-0.2
					c0.04-0.09,0.08-0.21,0.14-0.35c0.06-0.14,0.12-0.31,0.2-0.49c0.08-0.18,0.15-0.36,0.23-0.54c0.08-0.18,0.15-0.35,0.22-0.52
					c0.07-0.17,0.13-0.31,0.18-0.43c0.19-0.42,0.39-0.85,0.6-1.27c0.21-0.42,0.42-0.83,0.63-1.24c0.02-0.03,0.04-0.08,0.08-0.15
					c0.04-0.08,0.08-0.14,0.11-0.19c0.11-0.18,0.26-0.19,0.34-0.19l1.22,0.08c0.11,0.01,0.21,0.06,0.29,0.14
					c0.07,0.08,0.12,0.17,0.13,0.28c0.08,0.66,0.16,1.32,0.25,1.98c0.09,0.65,0.18,1.31,0.28,1.97c0.03,0.24,0.07,0.46,0.1,0.67
					c0.03,0.2,0.05,0.32,0.06,0.37l0,0c0.02,0.14,0.04,0.25,0.04,0.32c0,0.07,0,0.16-0.01,0.27c-0.01,0.13-0.06,0.25-0.16,0.33
					c-0.08,0.07-0.17,0.12-0.27,0.16c-0.1,0.03-0.2,0.05-0.31,0.06C284.54,153.77,284.49,153.77,284.44,153.77z M282.83,151.54
					c0.03,0,0.06,0,0.1,0c0.17,0.01,0.32,0.06,0.44,0.13c0.12,0.07,0.22,0.17,0.3,0.28c0.08,0.11,0.14,0.23,0.2,0.37
					c0.05,0.13,0.09,0.27,0.13,0.41c0.06,0.2,0.12,0.38,0.19,0.53c0.06,0.13,0.12,0.15,0.17,0.15c0.06,0,0.13,0,0.22,0
					c0.08-0.01,0.15-0.02,0.22-0.04c0.06-0.02,0.11-0.05,0.16-0.09c0.02-0.02,0.04-0.04,0.04-0.09c0.01-0.1,0.01-0.18,0.01-0.24
					c0-0.06-0.01-0.15-0.03-0.27c-0.01-0.05-0.03-0.18-0.06-0.39c-0.03-0.2-0.06-0.43-0.1-0.67c-0.1-0.66-0.19-1.32-0.28-1.97
					c-0.09-0.66-0.17-1.32-0.25-1.98c0-0.03-0.02-0.06-0.04-0.08c-0.02-0.02-0.03-0.03-0.06-0.03l-1.21-0.08
					c0,0-0.01,0.01-0.02,0.03c-0.03,0.04-0.06,0.09-0.1,0.16c-0.04,0.08-0.07,0.13-0.08,0.15c-0.21,0.4-0.42,0.82-0.63,1.23
					c-0.21,0.41-0.41,0.83-0.59,1.25c-0.05,0.12-0.11,0.26-0.18,0.42c-0.07,0.17-0.14,0.34-0.22,0.53
					c-0.08,0.18-0.15,0.36-0.23,0.54s-0.14,0.34-0.2,0.48c-0.06,0.14-0.1,0.26-0.14,0.35c-0.02,0.05-0.04,0.09-0.05,0.11l-0.03,0.4
					c0,0.01,0.01,0.02,0.04,0.03c0.1,0.03,0.21,0.05,0.31,0.06l0.08,0l0.11,0.01c0.05,0,0.09-0.01,0.13-0.03
					c0.05-0.03,0.1-0.08,0.15-0.13c0.05-0.06,0.1-0.14,0.14-0.22c0.05-0.1,0.1-0.2,0.15-0.3c0.06-0.13,0.13-0.26,0.2-0.38
					c0.08-0.13,0.16-0.25,0.26-0.34c0.1-0.1,0.22-0.17,0.36-0.23C282.55,151.56,282.68,151.54,282.83,151.54z"/>
			</g>
			<g>
				<path class="st56" d="M290.97,149.29c-0.12-0.28-0.27-0.55-0.45-0.81c-0.18-0.26-0.38-0.48-0.61-0.68
					c-0.23-0.19-0.48-0.35-0.75-0.48c-0.27-0.13-0.56-0.2-0.86-0.22c-0.14-0.01-0.28,0.01-0.4,0.06c-0.12,0.05-0.23,0.12-0.32,0.21
					c-0.09,0.09-0.16,0.2-0.22,0.32c-0.06,0.12-0.09,0.25-0.1,0.39c-0.01,0.1-0.01,0.3-0.02,0.61c-0.01,0.31-0.01,0.67-0.01,1.08
					c0,0.41,0,0.85,0,1.32c0.01,0.47,0.02,0.91,0.04,1.32c0.02,0.42,0.05,0.78,0.08,1.1c0.03,0.32,0.08,0.53,0.13,0.63
					c0.01,0.03,0.03,0.05,0.07,0.07c0.03,0.01,0.07,0.02,0.1,0.02l0.28,0.03c0.45,0.03,0.87-0.04,1.27-0.21
					c0.39-0.17,0.74-0.41,1.04-0.72c0.3-0.3,0.54-0.66,0.72-1.06c0.18-0.4,0.29-0.82,0.32-1.25c0.02-0.28,0-0.57-0.05-0.87
					C291.18,149.86,291.09,149.57,290.97,149.29z"/>
				<path class="st57" d="M288.14,154.45c-0.07,0-0.14,0-0.21-0.01l-0.29-0.03c-0.04,0-0.09-0.01-0.14-0.03
					c-0.08-0.03-0.15-0.09-0.17-0.18c-0.06-0.1-0.1-0.32-0.14-0.67c-0.03-0.32-0.06-0.69-0.08-1.11c-0.02-0.41-0.04-0.86-0.04-1.33
					c-0.01-0.47-0.01-0.91,0-1.32c0-0.41,0.01-0.78,0.01-1.08c0.01-0.31,0.01-0.52,0.02-0.62c0.01-0.16,0.05-0.31,0.11-0.45
					c0.06-0.14,0.15-0.27,0.26-0.37c0.11-0.11,0.23-0.19,0.38-0.25c0.15-0.06,0.31-0.09,0.48-0.08c0.32,0.02,0.63,0.1,0.92,0.23
					c0.28,0.13,0.55,0.3,0.79,0.51c0.24,0.2,0.45,0.44,0.64,0.71c0.18,0.27,0.34,0.55,0.47,0.84c0.13,0.29,0.22,0.6,0.28,0.91
					c0.06,0.31,0.08,0.62,0.06,0.91c-0.03,0.45-0.14,0.89-0.34,1.31c-0.19,0.42-0.45,0.79-0.76,1.11c-0.31,0.32-0.68,0.57-1.09,0.75
					C288.92,154.37,288.54,154.45,288.14,154.45z M287.65,154.06c0.01,0,0.02,0,0.03,0l0.29,0.03c0.41,0.03,0.81-0.04,1.18-0.2
					c0.37-0.16,0.7-0.39,0.98-0.68c0.28-0.29,0.51-0.63,0.69-1.01c0.17-0.38,0.28-0.78,0.3-1.19c0.02-0.27,0-0.54-0.05-0.83
					c-0.05-0.28-0.14-0.56-0.25-0.83c-0.12-0.27-0.26-0.53-0.43-0.78c-0.17-0.24-0.36-0.46-0.58-0.64
					c-0.21-0.18-0.45-0.34-0.71-0.45c-0.25-0.12-0.52-0.18-0.79-0.2c-0.12-0.01-0.22,0.01-0.32,0.05c-0.1,0.04-0.19,0.1-0.26,0.18
					c-0.08,0.08-0.14,0.17-0.18,0.27c-0.05,0.1-0.07,0.21-0.08,0.33c-0.01,0.1-0.01,0.3-0.02,0.6c-0.01,0.31-0.01,0.67-0.01,1.08
					c0,0.41,0,0.85,0,1.31c0.01,0.47,0.02,0.91,0.04,1.31c0.02,0.41,0.05,0.78,0.08,1.09C287.58,153.86,287.62,154.01,287.65,154.06
					z M287.62,154.05C287.62,154.05,287.62,154.05,287.62,154.05C287.62,154.05,287.62,154.05,287.62,154.05z"/>
			</g>
			<g>
				<path class="st56" d="M296.54,149.3c0-0.19,0.01-0.41,0.01-0.66c-0.01-0.1-0.02-0.18-0.05-0.23c-0.02-0.05-0.06-0.1-0.1-0.13
					c-0.04-0.03-0.1-0.05-0.16-0.06c-0.07-0.01-0.14-0.02-0.23-0.03l-0.11-0.01c-0.05,0-0.11,0-0.17,0c-0.06,0-0.12,0.01-0.17,0.03
					c-0.05,0.02-0.1,0.05-0.14,0.08c-0.04,0.04-0.06,0.09-0.07,0.16c-0.01,0.11-0.03,0.26-0.06,0.45c-0.03,0.19-0.07,0.38-0.12,0.57
					c-0.05,0.19-0.13,0.35-0.22,0.48c-0.09,0.13-0.21,0.2-0.34,0.19c-0.13-0.01-0.23-0.08-0.3-0.21c-0.07-0.13-0.11-0.28-0.14-0.46
					c-0.03-0.18-0.04-0.36-0.03-0.55c0-0.19,0.01-0.34,0.02-0.46c0-0.03-0.01-0.07-0.01-0.1c0-0.04,0-0.07,0-0.1
					c-0.02-0.06-0.05-0.1-0.1-0.12c-0.04-0.02-0.09-0.03-0.14-0.04l-0.08-0.01c-0.21-0.01-0.38,0.01-0.51,0.07
					c-0.13,0.06-0.24,0.15-0.31,0.26c-0.08,0.11-0.13,0.25-0.17,0.4c-0.04,0.15-0.06,0.32-0.07,0.48c-0.01,0.21-0.02,0.42-0.01,0.63
					c0,0.1,0,0.19,0,0.28c0,0.09,0,0.18-0.01,0.26c-0.01,0.21-0.02,0.43-0.03,0.68c0,0.25,0.01,0.49,0.03,0.74
					c0.03,0.25,0.08,0.49,0.14,0.72c0.07,0.23,0.17,0.44,0.3,0.62c0.13,0.18,0.3,0.34,0.5,0.45c0.2,0.12,0.45,0.19,0.74,0.21
					c0.27,0.02,0.51-0.01,0.72-0.1c0.2-0.08,0.38-0.2,0.52-0.35c0.14-0.15,0.26-0.33,0.36-0.53c0.1-0.2,0.17-0.41,0.23-0.64
					c0.06-0.23,0.1-0.45,0.13-0.68c0.03-0.23,0.05-0.44,0.06-0.64c0.01-0.22,0.03-0.42,0.04-0.6c0.01-0.18,0.02-0.35,0.03-0.53
					C296.53,149.68,296.53,149.5,296.54,149.3z"/>
				<path class="st57" d="M294.59,154.09c-0.05,0-0.1,0-0.16-0.01c-0.32-0.02-0.59-0.1-0.82-0.23c-0.22-0.13-0.4-0.3-0.55-0.5
					c-0.14-0.2-0.25-0.43-0.33-0.67c-0.07-0.24-0.12-0.49-0.15-0.75c-0.03-0.25-0.04-0.51-0.03-0.76c0-0.25,0.01-0.48,0.03-0.69
					c0.01-0.08,0.01-0.17,0.01-0.25l0-0.28c0-0.21,0-0.43,0.02-0.64c0.01-0.18,0.04-0.35,0.07-0.51c0.04-0.17,0.11-0.33,0.19-0.46
					c0.09-0.14,0.22-0.25,0.39-0.32c0.16-0.07,0.36-0.1,0.59-0.08l0.08,0.01c0.07,0.01,0.14,0.02,0.21,0.06
					c0.06,0.03,0.14,0.09,0.18,0.22l0.01,0.03l0,0.04c0,0.03,0,0.06,0,0.09c0,0.03,0,0.06,0.01,0.08l0,0.02l0,0.02
					c-0.01,0.12-0.01,0.27-0.02,0.45c0,0.18,0.01,0.35,0.03,0.52c0.02,0.16,0.06,0.29,0.12,0.41c0.05,0.09,0.1,0.11,0.15,0.11
					c0.05,0,0.12-0.01,0.19-0.11c0.08-0.12,0.14-0.27,0.19-0.43c0.05-0.18,0.09-0.36,0.11-0.55l0.06-0.45
					c0.01-0.1,0.05-0.2,0.12-0.27c0.06-0.05,0.12-0.09,0.2-0.12c0.07-0.02,0.14-0.04,0.23-0.04c0.07,0,0.13,0,0.19,0l0.11,0.01
					c0.09,0.01,0.17,0.02,0.25,0.03c0.09,0.02,0.17,0.05,0.24,0.1c0.07,0.05,0.12,0.12,0.15,0.2c0.03,0.07,0.05,0.17,0.06,0.29
					l-0.01,0.68c0,0.19-0.01,0.38-0.01,0.55c-0.01,0.18-0.02,0.36-0.03,0.54l-0.04,0.6c-0.01,0.2-0.04,0.42-0.06,0.65
					c-0.03,0.24-0.07,0.47-0.13,0.7c-0.06,0.24-0.14,0.46-0.24,0.67c-0.1,0.22-0.23,0.41-0.39,0.57c-0.16,0.17-0.35,0.3-0.58,0.39
					C295.04,154.05,294.83,154.09,294.59,154.09z M293.73,148.27c-0.13,0-0.24,0.02-0.32,0.06c-0.1,0.05-0.18,0.11-0.24,0.2
					c-0.06,0.1-0.11,0.21-0.14,0.34c-0.03,0.15-0.06,0.3-0.07,0.46c-0.01,0.21-0.02,0.41-0.01,0.61l0,0.29c0,0.09,0,0.18-0.01,0.28
					c-0.01,0.2-0.02,0.43-0.03,0.67c0,0.24,0.01,0.48,0.03,0.72c0.03,0.23,0.07,0.47,0.14,0.69c0.06,0.21,0.16,0.4,0.28,0.57
					c0.12,0.16,0.27,0.3,0.44,0.4c0.17,0.1,0.4,0.16,0.66,0.18c0.25,0.02,0.46-0.01,0.64-0.08c0.18-0.07,0.33-0.18,0.46-0.31
					c0.13-0.14,0.24-0.3,0.33-0.48c0.09-0.19,0.16-0.39,0.22-0.61c0.05-0.21,0.09-0.44,0.12-0.66c0.03-0.22,0.05-0.43,0.06-0.63
					l0.04-0.6c0.01-0.18,0.02-0.35,0.03-0.52c0.01-0.17,0.01-0.36,0.01-0.55l0.01-0.66c-0.01-0.09-0.02-0.14-0.03-0.16
					c-0.01-0.03-0.03-0.05-0.04-0.06c-0.02-0.01-0.05-0.02-0.08-0.03c-0.06-0.01-0.13-0.02-0.21-0.02l-0.11-0.01
					c-0.04,0-0.1,0-0.15,0c-0.04,0-0.08,0.01-0.12,0.02c-0.03,0.01-0.05,0.03-0.08,0.05c-0.01,0.01-0.01,0.02-0.01,0.05l-0.06,0.46
					c-0.03,0.2-0.07,0.4-0.12,0.6c-0.06,0.2-0.14,0.38-0.24,0.53c-0.16,0.24-0.36,0.28-0.5,0.27c-0.19-0.01-0.35-0.12-0.44-0.3
					c-0.08-0.15-0.13-0.32-0.16-0.52c-0.03-0.18-0.04-0.38-0.03-0.58c0-0.18,0.01-0.33,0.02-0.45c0-0.03-0.01-0.07-0.01-0.11
					c0-0.02,0-0.04,0-0.06c-0.03-0.02-0.05-0.03-0.07-0.03l-0.08-0.01C293.8,148.27,293.76,148.27,293.73,148.27z"/>
			</g>
			<g>
				<path class="st56" d="M302.32,153.83c-0.01-0.05-0.03-0.18-0.06-0.38c-0.03-0.2-0.06-0.42-0.1-0.67
					c-0.1-0.66-0.19-1.32-0.28-1.97c-0.09-0.66-0.17-1.32-0.25-1.98c-0.01-0.07-0.04-0.13-0.08-0.18c-0.05-0.05-0.1-0.08-0.17-0.08
					l-1.22-0.08c-0.07,0-0.13,0.03-0.18,0.11c-0.03,0.04-0.06,0.1-0.1,0.17c-0.04,0.07-0.07,0.12-0.08,0.15
					c-0.21,0.41-0.42,0.83-0.63,1.24c-0.21,0.42-0.41,0.84-0.59,1.26c-0.05,0.12-0.11,0.26-0.18,0.43
					c-0.07,0.17-0.14,0.34-0.22,0.52c-0.08,0.18-0.15,0.36-0.23,0.54c-0.08,0.18-0.14,0.34-0.2,0.49c-0.06,0.14-0.1,0.26-0.14,0.35
					c-0.04,0.09-0.06,0.14-0.06,0.15l-0.03,0.42c-0.01,0.11,0.05,0.18,0.16,0.21c0.12,0.04,0.23,0.06,0.35,0.07l0.03,0l0.07,0
					l0.03,0l0.07,0c0.09,0.01,0.17-0.01,0.23-0.05c0.07-0.04,0.13-0.1,0.19-0.17c0.06-0.07,0.11-0.16,0.16-0.25
					c0.05-0.1,0.1-0.2,0.15-0.31c0.06-0.13,0.12-0.25,0.19-0.37c0.07-0.12,0.15-0.22,0.23-0.3c0.09-0.08,0.19-0.15,0.3-0.19
					c0.11-0.05,0.25-0.06,0.4-0.05c0.14,0.01,0.27,0.04,0.36,0.1c0.1,0.06,0.18,0.14,0.25,0.23c0.07,0.1,0.13,0.2,0.18,0.33
					c0.05,0.12,0.09,0.25,0.12,0.39c0.06,0.21,0.13,0.4,0.2,0.56c0.07,0.16,0.18,0.25,0.32,0.26c0.07,0,0.15,0,0.24,0
					c0.09-0.01,0.18-0.02,0.26-0.05c0.08-0.03,0.16-0.07,0.22-0.12c0.06-0.05,0.09-0.12,0.1-0.21c0.01-0.11,0.01-0.19,0.01-0.25
					C302.36,154.06,302.35,153.96,302.32,153.83z"/>
				<path class="st57" d="M301.63,154.94c-0.04,0-0.07,0-0.11,0c-0.15-0.01-0.35-0.08-0.47-0.36c-0.07-0.17-0.14-0.36-0.2-0.58
					c-0.03-0.13-0.07-0.26-0.12-0.37c-0.04-0.11-0.09-0.21-0.15-0.29c-0.05-0.08-0.12-0.14-0.2-0.19c-0.07-0.05-0.17-0.07-0.29-0.08
					c-0.13-0.01-0.24,0-0.33,0.04c-0.09,0.04-0.17,0.09-0.25,0.16c-0.07,0.07-0.14,0.16-0.2,0.26c-0.07,0.11-0.13,0.23-0.18,0.35
					c-0.05,0.11-0.11,0.22-0.16,0.32c-0.06,0.11-0.12,0.2-0.18,0.28c-0.07,0.09-0.15,0.16-0.23,0.21c-0.1,0.06-0.21,0.09-0.34,0.08
					l-0.07,0l-0.08,0l-0.04,0c-0.13-0.01-0.27-0.03-0.39-0.07c-0.19-0.06-0.3-0.21-0.29-0.39l0.03-0.42c0-0.03,0-0.04,0.07-0.2
					c0.04-0.09,0.08-0.21,0.14-0.35c0.06-0.14,0.12-0.31,0.2-0.49c0.07-0.18,0.15-0.36,0.23-0.54c0.08-0.18,0.15-0.35,0.22-0.52
					c0.07-0.17,0.13-0.31,0.18-0.43c0.18-0.42,0.39-0.85,0.6-1.27c0.21-0.42,0.42-0.83,0.63-1.24c0.02-0.03,0.04-0.08,0.08-0.15
					c0.04-0.08,0.08-0.14,0.11-0.19c0.11-0.18,0.26-0.19,0.34-0.19l1.22,0.08c0.11,0.01,0.21,0.05,0.29,0.14
					c0.07,0.08,0.12,0.17,0.13,0.28c0.08,0.66,0.16,1.32,0.25,1.98c0.09,0.65,0.18,1.31,0.28,1.97c0.03,0.24,0.07,0.46,0.1,0.67
					c0.03,0.2,0.05,0.32,0.06,0.38l0,0c0.02,0.14,0.04,0.25,0.04,0.32c0,0.07,0,0.16-0.01,0.27c-0.01,0.13-0.06,0.25-0.16,0.33
					c-0.08,0.07-0.17,0.12-0.27,0.16c-0.1,0.03-0.2,0.05-0.31,0.06C301.73,154.94,301.68,154.94,301.63,154.94z M300.01,152.72
					c0.03,0,0.07,0,0.1,0c0.17,0.01,0.32,0.06,0.44,0.13c0.12,0.07,0.22,0.17,0.3,0.28c0.08,0.11,0.14,0.23,0.2,0.37
					c0.05,0.12,0.09,0.26,0.13,0.4c0.06,0.2,0.12,0.38,0.19,0.53c0.06,0.15,0.14,0.15,0.17,0.15c0.06,0,0.13,0,0.22,0
					c0.08-0.01,0.15-0.02,0.22-0.04c0.06-0.02,0.11-0.05,0.16-0.09c0.02-0.02,0.04-0.04,0.04-0.09c0.01-0.1,0.01-0.18,0.01-0.24
					c0-0.06-0.01-0.15-0.03-0.27c-0.01-0.05-0.03-0.18-0.06-0.39c-0.03-0.2-0.06-0.42-0.1-0.67c-0.1-0.66-0.19-1.32-0.28-1.97
					c-0.09-0.66-0.17-1.32-0.25-1.98c0-0.03-0.02-0.06-0.04-0.08c-0.02-0.02-0.03-0.03-0.06-0.03l-1.22-0.08
					c0,0-0.01,0.01-0.02,0.03c-0.03,0.04-0.06,0.1-0.1,0.16c-0.04,0.08-0.07,0.13-0.08,0.15c-0.21,0.4-0.42,0.82-0.63,1.23
					c-0.21,0.41-0.41,0.84-0.59,1.25c-0.05,0.12-0.11,0.26-0.18,0.42c-0.07,0.17-0.14,0.34-0.22,0.53
					c-0.08,0.18-0.15,0.36-0.23,0.54c-0.08,0.18-0.14,0.34-0.2,0.48c-0.06,0.14-0.1,0.26-0.14,0.35c-0.02,0.05-0.04,0.09-0.05,0.11
					l-0.03,0.4c0,0.01,0.01,0.02,0.04,0.03c0.1,0.03,0.21,0.05,0.31,0.06l0.08,0l0.11,0.01c0.05,0.01,0.09-0.01,0.13-0.03
					c0.05-0.03,0.1-0.08,0.15-0.13c0.05-0.06,0.1-0.14,0.14-0.22c0.05-0.09,0.1-0.2,0.15-0.3c0.06-0.13,0.13-0.26,0.2-0.38
					c0.08-0.13,0.16-0.25,0.26-0.34c0.1-0.1,0.22-0.17,0.36-0.23C299.74,152.74,299.87,152.72,300.01,152.72z"/>
			</g>
			<g>
				<path class="st56" d="M308.39,149.33c-0.02-0.07-0.06-0.13-0.12-0.17c-0.05-0.05-0.13-0.07-0.22-0.08l-0.08-0.01
					c-0.09,0-0.24,0-0.42-0.01c-0.19,0-0.4-0.01-0.64-0.01c-0.24,0-0.49-0.01-0.75-0.01c-0.26-0.01-0.51-0.01-0.75-0.01
					c-0.24,0-0.45-0.01-0.64-0.01c-0.19,0-0.33,0-0.41,0c-0.04,0-0.08,0-0.14,0.01c-0.06,0.01-0.11,0.03-0.16,0.05
					c-0.05,0.02-0.1,0.06-0.13,0.1c-0.04,0.04-0.06,0.09-0.06,0.15l-0.04,0.64c0,0.04,0.01,0.07,0.04,0.1
					c0.03,0.03,0.05,0.05,0.08,0.07l0.02,0.01c0.04,0.03,0.09,0.04,0.15,0.05l1.03,0.07c0.01,0,0.03,0.01,0.06,0.02
					c0.03,0.01,0.06,0.02,0.09,0.04c0.03,0.01,0.06,0.03,0.09,0.05c0.03,0.02,0.04,0.04,0.04,0.05l-0.28,4.16
					c0,0.06,0.01,0.1,0.04,0.13c0.03,0.03,0.07,0.06,0.11,0.08c0.05,0.02,0.1,0.03,0.15,0.04c0.05,0.01,0.1,0.02,0.14,0.02
					c0.04,0,0.07,0,0.08,0l0.06,0c0.03,0,0.08,0,0.15,0.01c0.07,0,0.14,0,0.2-0.01c0.07-0.01,0.13-0.03,0.18-0.06
					c0.05-0.03,0.08-0.07,0.08-0.13l0.28-4.04c0.01-0.09,0.03-0.16,0.07-0.21c0.04-0.05,0.09-0.09,0.14-0.12
					c0.06-0.02,0.13-0.04,0.21-0.04c0.08,0,0.16,0,0.25,0c0.04,0,0.08,0.01,0.12,0.01c0.04,0,0.08,0.01,0.13,0.02l0.24,0.02
					c0.06,0,0.12,0.01,0.19,0c0.07,0,0.14-0.01,0.2-0.02c0.06-0.01,0.12-0.04,0.17-0.08c0.05-0.04,0.07-0.1,0.08-0.17l0.03-0.26
					c0-0.06,0.01-0.13,0.01-0.21C308.42,149.47,308.41,149.4,308.39,149.33z"/>
				<path class="st57" d="M305.89,155.04c-0.01,0-0.02,0-0.03,0c-0.07,0-0.12,0-0.16-0.01l-0.03,0c-0.03,0-0.07,0-0.11,0
					c-0.05,0-0.1-0.01-0.16-0.02c-0.06-0.01-0.12-0.03-0.18-0.05c-0.07-0.03-0.13-0.07-0.18-0.13c-0.04-0.05-0.09-0.13-0.08-0.26
					l0.28-4.08c-0.01,0-0.01-0.01-0.02-0.01c-0.03-0.01-0.05-0.02-0.08-0.03l-1.04-0.08c-0.09-0.01-0.17-0.03-0.23-0.08
					c-0.05-0.02-0.09-0.06-0.14-0.11c-0.06-0.07-0.08-0.14-0.08-0.23l0.04-0.64c0.01-0.09,0.04-0.18,0.11-0.25
					c0.05-0.06,0.12-0.11,0.19-0.14c0.06-0.03,0.13-0.05,0.2-0.07c0.08-0.02,0.14-0.02,0.19-0.02c0.08,0,0.21,0,0.4,0l1.39,0.02
					c0.26,0.01,0.51,0.01,0.75,0.01l0.64,0.01c0.19,0,0.33,0.01,0.42,0.01l0.09,0.01c0.13,0.01,0.24,0.05,0.32,0.13
					c0.08,0.07,0.13,0.15,0.16,0.25c0.03,0.08,0.05,0.18,0.05,0.27c0,0.08,0,0.16-0.01,0.23l-0.03,0.27
					c-0.01,0.15-0.08,0.24-0.14,0.29c-0.07,0.06-0.15,0.1-0.24,0.12c-0.08,0.02-0.16,0.03-0.24,0.03c-0.08,0-0.15,0-0.21,0
					l-0.24-0.02c-0.06-0.01-0.09-0.02-0.13-0.02l-0.12-0.01c-0.08-0.01-0.16-0.01-0.23,0c-0.06,0-0.11,0.01-0.15,0.03
					c-0.03,0.01-0.05,0.03-0.07,0.06c-0.02,0.03-0.03,0.07-0.03,0.12l-0.28,4.04c-0.01,0.12-0.07,0.21-0.18,0.27
					c-0.07,0.04-0.15,0.06-0.23,0.08C306.02,155.04,305.96,155.04,305.89,155.04z M305.65,154.67l0.01,0.01l0.06,0
					c0.03,0,0.08,0,0.14,0.01c0.06,0,0.11,0,0.17-0.01c0.05-0.01,0.09-0.02,0.13-0.04l0.27-4.02c0.01-0.12,0.04-0.22,0.1-0.3
					c0.06-0.08,0.13-0.14,0.22-0.18c0.08-0.03,0.16-0.05,0.26-0.06c0.09,0,0.18,0,0.27,0l0.12,0.01c0.05,0,0.1,0.01,0.15,0.02
					l0.22,0.01c0.05,0,0.11,0,0.18,0c0.06,0,0.12-0.01,0.17-0.02c0.04-0.01,0.06-0.02,0.09-0.04c0.01-0.01,0.02-0.03,0.02-0.05
					l0.03-0.27c0-0.05,0-0.12,0-0.19c0-0.06-0.01-0.12-0.03-0.16c-0.01-0.04-0.04-0.07-0.07-0.1c-0.02-0.02-0.06-0.03-0.12-0.04
					l-0.08-0.01c-0.08,0-0.22,0-0.41-0.01l-0.64-0.01c-0.24,0-0.49-0.01-0.75-0.01l-1.39-0.02c-0.19,0-0.33,0-0.41,0
					c-0.02,0-0.05,0-0.11,0.01c-0.04,0.01-0.08,0.02-0.12,0.04c-0.03,0.01-0.06,0.03-0.08,0.06c-0.01,0.01-0.02,0.02-0.02,0.04
					l-0.04,0.64c0.01-0.01,0.02,0,0.02,0l0.03,0.02c0.03,0.02,0.05,0.02,0.07,0.02l1.03,0.07c0.03,0,0.07,0.01,0.11,0.03
					c0.04,0.01,0.07,0.03,0.11,0.05c0.04,0.02,0.08,0.04,0.12,0.07c0.08,0.06,0.11,0.13,0.11,0.2l-0.28,4.16
					c0.01,0.02,0.02,0.03,0.04,0.04c0.04,0.02,0.07,0.03,0.11,0.03c0.05,0.01,0.09,0.01,0.12,0.02c0.02,0,0.03,0,0.04,0
					L305.65,154.67z M305.23,150.41C305.23,150.41,305.23,150.41,305.23,150.41L305.23,150.41z"/>
			</g>
			<g>
				<path class="st56" d="M313.92,153.95c-0.04-0.11-0.12-0.17-0.26-0.18l-0.18-0.01c-0.23-0.02-0.46-0.01-0.69,0.02
					c-0.23,0.03-0.46,0.06-0.68,0.1c-0.23,0.04-0.46,0.08-0.68,0.1c-0.22,0.03-0.45,0.04-0.67,0.02c-0.03,0-0.05-0.03-0.04-0.08
					c0.01-0.08,0.06-0.17,0.15-0.27c0.09-0.1,0.22-0.2,0.36-0.3c0.15-0.11,0.31-0.21,0.5-0.32c0.18-0.11,0.37-0.21,0.55-0.32
					c0.16-0.1,0.31-0.19,0.46-0.27c0.15-0.09,0.28-0.17,0.4-0.25c0.12-0.08,0.21-0.16,0.28-0.23c0.07-0.07,0.11-0.14,0.11-0.2
					c0.01-0.11-0.01-0.2-0.05-0.26c-0.04-0.06-0.13-0.09-0.25-0.1c-0.2-0.01-0.4-0.02-0.6-0.02c-0.2,0-0.4,0.01-0.6,0.02
					c-0.19,0.01-0.38,0.01-0.57,0.01c-0.19,0-0.38,0-0.57-0.02c0.02-0.07,0.08-0.15,0.18-0.23c0.1-0.08,0.22-0.16,0.37-0.24
					c0.15-0.08,0.31-0.16,0.49-0.24c0.18-0.08,0.36-0.16,0.54-0.25c0.17-0.08,0.35-0.15,0.51-0.23c0.17-0.08,0.32-0.15,0.44-0.22
					c0.13-0.07,0.23-0.15,0.31-0.22c0.08-0.07,0.12-0.14,0.13-0.21c0.01-0.09-0.01-0.17-0.04-0.23c-0.03-0.07-0.1-0.11-0.2-0.11
					l-0.24-0.03c-0.06,0-0.17-0.01-0.33,0c-0.17,0-0.36,0.01-0.58,0.01c-0.22,0.01-0.46,0.02-0.71,0.04
					c-0.26,0.02-0.5,0.05-0.73,0.09c-0.23,0.04-0.44,0.08-0.64,0.13c-0.19,0.05-0.33,0.11-0.43,0.19c-0.05,0.05-0.08,0.11-0.09,0.19
					l-0.29,4.22c-0.01,0.11-0.01,0.24-0.01,0.39c0,0.14,0.01,0.28,0.04,0.42c0.03,0.13,0.08,0.25,0.14,0.34
					c0.07,0.09,0.16,0.14,0.28,0.15c0.07,0,0.2,0,0.39-0.01c0.19-0.01,0.41-0.02,0.66-0.04c0.25-0.02,0.52-0.05,0.8-0.08
					c0.28-0.03,0.56-0.07,0.81-0.11c0.26-0.04,0.49-0.09,0.7-0.14c0.21-0.05,0.36-0.11,0.46-0.17c0.03-0.02,0.06-0.05,0.07-0.09
					c0.02-0.04,0.03-0.07,0.04-0.11l0.02-0.31C313.98,154.17,313.96,154.05,313.92,153.95z"/>
				<path class="st57" d="M310.12,155.52c-0.04,0-0.08,0-0.11,0c-0.17-0.01-0.31-0.09-0.41-0.22c-0.08-0.11-0.14-0.25-0.17-0.4
					c-0.03-0.14-0.05-0.3-0.05-0.45c0-0.15,0-0.28,0.01-0.4l0.29-4.22c0.01-0.13,0.06-0.24,0.15-0.31c0.12-0.1,0.28-0.17,0.5-0.22
					c0.2-0.05,0.42-0.1,0.65-0.13c0.23-0.04,0.48-0.07,0.75-0.09c0.26-0.02,0.5-0.03,0.72-0.04c0.22-0.01,0.42-0.01,0.58-0.01
					c0.17,0,0.29,0,0.35,0l0.25,0.03c0.21,0.01,0.3,0.14,0.34,0.21c0.05,0.1,0.07,0.2,0.06,0.32c-0.01,0.12-0.07,0.23-0.18,0.33
					c-0.09,0.08-0.21,0.16-0.34,0.24c-0.13,0.08-0.29,0.15-0.46,0.23c-0.17,0.08-0.34,0.15-0.52,0.23l-0.54,0.24
					c-0.18,0.08-0.34,0.16-0.48,0.23c-0.1,0.05-0.18,0.1-0.26,0.16c0.07,0,0.13,0,0.2,0c0.19,0,0.37-0.01,0.56-0.01
					c0.2-0.01,0.4-0.02,0.61-0.02c0.21,0,0.42,0,0.62,0.02c0.18,0.01,0.31,0.07,0.38,0.17c0.07,0.09,0.1,0.22,0.09,0.37
					c-0.01,0.11-0.06,0.21-0.16,0.31c-0.08,0.08-0.18,0.16-0.3,0.25c-0.12,0.08-0.26,0.17-0.41,0.26c-0.15,0.09-0.3,0.18-0.46,0.27
					l-0.55,0.32c-0.17,0.1-0.34,0.21-0.48,0.31c-0.14,0.1-0.25,0.2-0.34,0.28c-0.02,0.02-0.04,0.04-0.05,0.06
					c0.16,0,0.31-0.01,0.47-0.03c0.22-0.03,0.45-0.06,0.67-0.1c0.23-0.04,0.46-0.07,0.69-0.1c0.24-0.03,0.48-0.04,0.73-0.02
					l0.18,0.01c0.28,0.03,0.38,0.2,0.41,0.3l0,0c0.04,0.13,0.06,0.26,0.05,0.41l-0.02,0.31c-0.02,0.07-0.03,0.12-0.05,0.16
					c-0.03,0.07-0.08,0.13-0.14,0.17c-0.12,0.08-0.29,0.14-0.52,0.2c-0.21,0.05-0.45,0.1-0.71,0.14c-0.26,0.04-0.53,0.08-0.82,0.11
					c-0.29,0.03-0.55,0.06-0.81,0.08c-0.25,0.02-0.47,0.04-0.66,0.04C310.29,155.52,310.19,155.52,310.12,155.52z M313.16,149.36
					c-0.04,0-0.08,0-0.12,0c-0.17,0-0.36,0.01-0.58,0.01c-0.22,0.01-0.45,0.02-0.71,0.04c-0.25,0.02-0.49,0.05-0.72,0.08
					c-0.22,0.04-0.43,0.08-0.62,0.13c-0.21,0.05-0.31,0.11-0.36,0.15c0,0-0.02,0.02-0.02,0.07l-0.29,4.22
					c-0.01,0.11-0.01,0.23-0.01,0.37c0,0.13,0.01,0.26,0.04,0.38c0.02,0.11,0.06,0.2,0.11,0.27c0.03,0.05,0.08,0.07,0.15,0.08
					c0.07,0.01,0.19,0,0.37-0.01c0.19-0.01,0.4-0.02,0.65-0.04c0.25-0.02,0.51-0.05,0.8-0.08c0.28-0.03,0.55-0.07,0.8-0.11
					c0.25-0.04,0.48-0.09,0.68-0.14c0.24-0.06,0.35-0.11,0.41-0.15c0.02-0.03,0.02-0.06,0.03-0.09l0.02-0.28
					c0.01-0.09-0.01-0.18-0.03-0.27c-0.01-0.02-0.02-0.05-0.11-0.07l-0.17-0.01c-0.22-0.02-0.44-0.01-0.65,0.02
					c-0.23,0.03-0.45,0.06-0.68,0.1c-0.23,0.04-0.46,0.08-0.68,0.1c-0.23,0.03-0.47,0.04-0.71,0.02c-0.11-0.01-0.22-0.09-0.21-0.27
					c0.01-0.13,0.07-0.25,0.2-0.38c0.1-0.1,0.23-0.21,0.39-0.33c0.16-0.11,0.33-0.22,0.51-0.33l0.55-0.32
					c0.16-0.09,0.31-0.19,0.46-0.27c0.15-0.08,0.27-0.17,0.39-0.24c0.11-0.07,0.19-0.14,0.25-0.21c0.05-0.05,0.06-0.08,0.06-0.09
					c0.01-0.1-0.01-0.13-0.02-0.14l0,0c0,0-0.02-0.02-0.12-0.03c-0.2-0.01-0.39-0.02-0.59-0.02c-0.2,0-0.4,0.01-0.6,0.02
					c-0.19,0.01-0.38,0.01-0.57,0.01c-0.19,0-0.39,0-0.59-0.02l-0.21-0.01l0.05-0.2c0.03-0.11,0.1-0.22,0.24-0.33
					c0.11-0.09,0.24-0.17,0.4-0.26c0.15-0.08,0.32-0.16,0.5-0.24l0.54-0.25c0.18-0.08,0.35-0.15,0.51-0.23
					c0.16-0.07,0.31-0.15,0.43-0.22c0.12-0.07,0.21-0.13,0.28-0.2c0.05-0.05,0.07-0.08,0.07-0.09c0-0.06,0-0.1-0.02-0.14
					c0,0-0.01-0.01-0.05-0.01l-0.25-0.03C313.32,149.36,313.26,149.36,313.16,149.36z"/>
			</g>
		</g>
	</g>
	<g>
		<g>
			<path class="st19" d="M161.51,205c-0.08,0.01-0.15,0.01-0.23-0.01c-0.08-0.02-0.13-0.07-0.16-0.15
				c-0.08-0.22-0.15-0.45-0.21-0.67c-0.05-0.23-0.1-0.46-0.14-0.69c-0.05-0.28-0.09-0.56-0.12-0.84c-0.02-0.14-0.04-0.28-0.06-0.41
				c-0.02-0.14-0.04-0.27-0.07-0.41l-0.13-0.74c0-0.02,0-0.04,0-0.07c0-0.03,0.01-0.06,0.02-0.09c0.01-0.03,0.02-0.06,0.04-0.08
				c0.02-0.02,0.04-0.04,0.06-0.04l0.55-0.09c0.03-0.01,0.06,0,0.08,0.01l0.05,0.03l0.03,0.03c0.03,0.03,0.05,0.07,0.06,0.11
				l0.49,2.88c0.01,0.06,0.04,0.09,0.09,0.1c0.05,0.01,0.1,0.01,0.15,0.01l0.08-0.02l1.01-0.39c0-0.01,0.02-0.01,0.04-0.01l0.03,0
				c0.07-0.01,0.13,0,0.18,0.03c0.05,0.03,0.08,0.07,0.11,0.12c0.03,0.05,0.05,0.1,0.07,0.16c0.01,0.06,0.03,0.12,0.03,0.16
				l0.02,0.12c0,0.05,0,0.1-0.02,0.13c-0.02,0.03-0.05,0.06-0.09,0.08l-0.03,0.01c-0.05,0.02-0.11,0.05-0.17,0.07
				c-0.06,0.03-0.13,0.06-0.2,0.09c-0.12,0.05-0.25,0.11-0.39,0.17c-0.14,0.06-0.27,0.12-0.41,0.17c-0.14,0.05-0.27,0.1-0.4,0.14
				C161.73,204.95,161.61,204.98,161.51,205z"/>
			<path class="st19" d="M165.91,199.77c0.05-0.01,0.1,0,0.14,0.03c0.04,0.03,0.07,0.07,0.09,0.11c0.17,0.46,0.34,0.91,0.52,1.36
				c0.17,0.45,0.35,0.9,0.54,1.35c0.07,0.17,0.13,0.32,0.18,0.46c0.06,0.14,0.09,0.23,0.11,0.26c0.04,0.09,0.06,0.16,0.08,0.2
				c0.01,0.04,0.02,0.1,0.04,0.18c0.01,0.06,0,0.12-0.03,0.17c-0.03,0.05-0.08,0.09-0.13,0.12c-0.05,0.03-0.11,0.06-0.18,0.08
				c-0.06,0.02-0.12,0.03-0.17,0.04c-0.1,0.02-0.19-0.03-0.27-0.13c-0.08-0.1-0.16-0.22-0.24-0.36c-0.05-0.09-0.1-0.17-0.15-0.25
				c-0.06-0.08-0.12-0.15-0.18-0.2c-0.07-0.06-0.14-0.1-0.22-0.12c-0.08-0.03-0.17-0.03-0.28-0.01c-0.11,0.02-0.21,0.05-0.28,0.11
				c-0.07,0.05-0.13,0.11-0.18,0.19c-0.05,0.07-0.09,0.16-0.11,0.25c-0.03,0.1-0.05,0.19-0.07,0.29c-0.02,0.09-0.04,0.17-0.06,0.25
				c-0.02,0.08-0.04,0.15-0.07,0.21c-0.03,0.06-0.06,0.11-0.11,0.15c-0.04,0.04-0.09,0.07-0.16,0.08l-0.05,0.01l-0.02,0l-0.05,0.01
				l-0.02,0c-0.09,0.01-0.17,0.02-0.26,0.01c-0.09-0.01-0.14-0.05-0.15-0.12l-0.05-0.3c0,0,0-0.04,0.02-0.11s0.02-0.16,0.04-0.27
				c0.02-0.11,0.04-0.24,0.06-0.38c0.02-0.14,0.05-0.28,0.07-0.42c0.02-0.14,0.05-0.28,0.07-0.41c0.02-0.13,0.04-0.24,0.06-0.33
				c0.06-0.33,0.13-0.67,0.21-1c0.08-0.33,0.16-0.66,0.24-0.99c0.01-0.02,0.02-0.06,0.03-0.12c0.02-0.06,0.03-0.1,0.04-0.14
				c0.02-0.06,0.06-0.1,0.11-0.11L165.91,199.77z"/>
			<path class="st19" d="M171.14,202.95c-0.07,0.01-0.14,0.04-0.21,0.09c-0.07,0.05-0.14,0.1-0.21,0.15
				c-0.09,0.07-0.18,0.13-0.27,0.18c-0.09,0.06-0.19,0.1-0.3,0.11c-0.26,0.04-0.49,0.02-0.7-0.06c-0.21-0.08-0.39-0.21-0.55-0.37
				c-0.16-0.16-0.28-0.35-0.39-0.57c-0.1-0.22-0.17-0.44-0.21-0.66c-0.06-0.34-0.06-0.68,0-1.03c0.05-0.35,0.16-0.67,0.32-0.96
				c0.16-0.29,0.38-0.55,0.64-0.76c0.27-0.21,0.59-0.35,0.95-0.41c0.06-0.01,0.12,0,0.18,0.04c0.06,0.04,0.1,0.09,0.11,0.15
				c0.01,0.08,0.02,0.17,0.03,0.27c0.01,0.1,0,0.19-0.03,0.27c-0.01,0.03-0.03,0.05-0.06,0.08c-0.03,0.02-0.06,0.04-0.1,0.06
				c-0.04,0.02-0.07,0.03-0.11,0.04c-0.04,0.01-0.08,0.02-0.11,0.03c-0.2,0.06-0.37,0.16-0.5,0.31c-0.13,0.15-0.24,0.32-0.31,0.51
				c-0.07,0.19-0.12,0.4-0.14,0.61c-0.02,0.21-0.01,0.41,0.02,0.6c0.02,0.1,0.04,0.21,0.08,0.33c0.04,0.12,0.09,0.24,0.16,0.34
				c0.07,0.1,0.15,0.19,0.24,0.25c0.09,0.06,0.21,0.08,0.34,0.06c0.04-0.01,0.08-0.01,0.1-0.02c0.03-0.01,0.06-0.03,0.09-0.05
				c0.04-0.05,0.09-0.12,0.15-0.2c0.06-0.08,0.11-0.17,0.16-0.26c0.05-0.09,0.09-0.18,0.12-0.28c0.03-0.09,0.04-0.18,0.03-0.26
				c-0.01-0.01-0.01-0.03-0.02-0.05c-0.01-0.02-0.01-0.03,0-0.03l-0.49,0.08c-0.04,0.01-0.08-0.01-0.13-0.05
				c-0.05-0.04-0.09-0.08-0.14-0.14c-0.04-0.06-0.08-0.11-0.11-0.16c-0.03-0.05-0.05-0.09-0.05-0.11c-0.01-0.08,0.02-0.15,0.1-0.23
				c0.08-0.08,0.18-0.15,0.31-0.22c0.13-0.07,0.27-0.13,0.43-0.19c0.16-0.06,0.32-0.11,0.47-0.16c0.15-0.04,0.29-0.08,0.41-0.11
				c0.12-0.03,0.21-0.05,0.26-0.06c0.07-0.01,0.13,0,0.17,0.03c0.04,0.03,0.08,0.07,0.11,0.12c0.03,0.05,0.05,0.11,0.07,0.17
				c0.01,0.06,0.03,0.12,0.03,0.16l0.01,0.12c0,0.02,0,0.05,0,0.07c0,0.02-0.01,0.05-0.03,0.07c-0.02,0.03-0.04,0.05-0.06,0.06
				c-0.02,0.02-0.04,0.03-0.07,0.05c-0.03,0.02-0.06,0.05-0.08,0.07c-0.02,0.02-0.05,0.05-0.06,0.08l0.08,0.5
				c0.02,0.13,0.05,0.26,0.08,0.39c0.03,0.13,0.07,0.25,0.1,0.38c0.04,0.13,0.07,0.26,0.1,0.38c0.03,0.13,0.06,0.26,0.08,0.39
				c0.01,0.08,0.01,0.15-0.02,0.2c-0.03,0.06-0.06,0.1-0.11,0.13c-0.05,0.03-0.11,0.06-0.18,0.07c-0.07,0.02-0.13,0.03-0.2,0.04
				c-0.07,0.01-0.12,0.01-0.17-0.01s-0.08-0.05-0.11-0.09c-0.03-0.04-0.05-0.08-0.07-0.13c-0.02-0.05-0.03-0.11-0.05-0.16
				c-0.02-0.08-0.05-0.15-0.07-0.21C171.24,202.97,171.2,202.94,171.14,202.95z"/>
			<path class="st19" d="M172.93,200.99c-0.02-0.12-0.03-0.26-0.03-0.42c0-0.16,0.01-0.33,0.03-0.5c0.02-0.17,0.06-0.34,0.11-0.51
				c0.05-0.17,0.12-0.33,0.2-0.47c0.08-0.14,0.18-0.26,0.29-0.36c0.12-0.1,0.25-0.16,0.4-0.18c0.24-0.04,0.47-0.03,0.7,0.02
				c0.23,0.06,0.44,0.15,0.62,0.28c0.18,0.13,0.34,0.29,0.47,0.49c0.13,0.19,0.21,0.41,0.25,0.65c0.04,0.24,0.04,0.5,0.01,0.77
				c-0.04,0.27-0.11,0.52-0.22,0.75c-0.11,0.23-0.27,0.43-0.46,0.6c-0.19,0.17-0.43,0.27-0.7,0.32c-0.22,0.04-0.43,0.02-0.62-0.05
				c-0.19-0.07-0.36-0.17-0.5-0.32c-0.14-0.14-0.26-0.3-0.36-0.49C173.03,201.38,172.97,201.18,172.93,200.99z"/>
			<path class="st19" d="M176.85,200.32c-0.02-0.12-0.03-0.26-0.03-0.42c0-0.16,0.01-0.33,0.03-0.5c0.02-0.17,0.06-0.34,0.11-0.51
				c0.05-0.17,0.12-0.33,0.2-0.47c0.08-0.14,0.18-0.26,0.29-0.36c0.12-0.1,0.25-0.16,0.4-0.18c0.24-0.04,0.47-0.03,0.7,0.02
				c0.23,0.06,0.44,0.15,0.62,0.28c0.18,0.13,0.34,0.29,0.47,0.49c0.13,0.19,0.21,0.41,0.25,0.65c0.04,0.24,0.04,0.5,0.01,0.77
				c-0.04,0.27-0.11,0.52-0.22,0.75c-0.11,0.23-0.27,0.43-0.46,0.6c-0.19,0.17-0.43,0.27-0.7,0.32c-0.22,0.04-0.43,0.02-0.62-0.05
				c-0.19-0.07-0.36-0.17-0.5-0.32c-0.14-0.14-0.26-0.3-0.36-0.49C176.94,200.71,176.88,200.52,176.85,200.32z"/>
			<path class="st19" d="M184.44,201.43c-0.06,0.01-0.13,0-0.19-0.03c-0.06-0.03-0.12-0.07-0.16-0.12
				c-0.05-0.06-0.13-0.15-0.23-0.27c-0.1-0.12-0.22-0.26-0.35-0.41c-0.13-0.15-0.27-0.31-0.41-0.47c-0.14-0.17-0.28-0.32-0.41-0.47
				c-0.13-0.15-0.25-0.28-0.35-0.4c-0.1-0.12-0.18-0.2-0.22-0.26c-0.01-0.01-0.02-0.02-0.03-0.04c-0.01-0.01-0.02-0.03-0.03-0.04
				c-0.04-0.06-0.08-0.12-0.14-0.18c-0.05-0.06-0.11-0.09-0.18-0.08c-0.06,0.01-0.08,0.04-0.08,0.09l0.01,0.02
				c0.01,0.02,0.01,0.03,0.02,0.05c0,0.02,0,0.03,0.01,0.04c0.03,0.16,0.06,0.34,0.08,0.54c0.03,0.2,0.06,0.4,0.09,0.61
				c0.03,0.21,0.06,0.42,0.08,0.62c0.03,0.2,0.05,0.4,0.06,0.57c0.01,0.06-0.01,0.11-0.03,0.14s-0.06,0.07-0.11,0.09
				c-0.04,0.02-0.09,0.04-0.14,0.06c-0.05,0.01-0.1,0.02-0.14,0.03l-0.16,0.03c-0.06,0.01-0.11,0.01-0.15-0.01
				c-0.04-0.01-0.07-0.06-0.08-0.13l-0.21-1.24c-0.04-0.22-0.07-0.42-0.1-0.6c-0.03-0.18-0.06-0.37-0.08-0.55
				c-0.02-0.18-0.05-0.37-0.07-0.57c-0.02-0.2-0.04-0.42-0.06-0.66c0-0.02,0-0.04,0-0.06c0.01-0.06,0.04-0.12,0.08-0.16
				c0.04-0.04,0.09-0.08,0.15-0.11c0.06-0.03,0.12-0.06,0.19-0.07c0.07-0.02,0.14-0.03,0.2-0.05c0.04-0.01,0.07-0.01,0.1-0.01
				c0.03,0,0.06-0.01,0.09-0.01l0.13-0.02c0.13-0.02,0.22-0.01,0.27,0.02c0.05,0.04,0.11,0.1,0.19,0.19l0.04,0.04
				c0.02,0.02,0.05,0.07,0.11,0.13c0.06,0.07,0.12,0.15,0.19,0.23c0.23,0.29,0.46,0.58,0.7,0.86c0.24,0.28,0.48,0.57,0.72,0.85
				l0.02,0.02c0.02,0.03,0.05,0.06,0.08,0.08c0.03,0.03,0.06,0.03,0.1,0.03c0.03-0.01,0.05-0.04,0.05-0.11c0-0.07,0-0.16-0.01-0.27
				c-0.01-0.11-0.02-0.24-0.04-0.39c-0.02-0.15-0.04-0.3-0.07-0.46c-0.04-0.24-0.08-0.48-0.11-0.73c-0.03-0.24-0.05-0.47-0.06-0.68
				c0-0.21,0.02-0.38,0.06-0.51c0.04-0.14,0.12-0.22,0.23-0.23c0.05-0.01,0.11-0.02,0.17-0.03c0.06-0.01,0.13-0.01,0.18,0
				c0.06,0.01,0.11,0.03,0.16,0.06c0.05,0.03,0.07,0.09,0.09,0.16l0.01,0.05c0,0.02,0.01,0.07,0.01,0.14
				c0.01,0.07,0.01,0.15,0.02,0.24c0.02,0.22,0.04,0.43,0.06,0.64c0.02,0.21,0.04,0.43,0.07,0.65c0.01,0.1,0.02,0.19,0.03,0.28
				c0.01,0.09,0.02,0.18,0.03,0.26c0.01,0.08,0.02,0.15,0.02,0.21c0,0.06,0.01,0.1,0.01,0.12c0,0.05,0.01,0.11,0.02,0.18
				c0.01,0.06,0.02,0.13,0.03,0.19l0.04,0.21c0.03,0.18,0.05,0.36,0.07,0.54c0.02,0.18,0.01,0.36-0.02,0.51
				c-0.03,0.16-0.1,0.29-0.19,0.41C184.79,201.32,184.64,201.4,184.44,201.43z"/>
			<path class="st19" d="M166.73,210.07c-0.02,0-0.05-0.01-0.07-0.05c-0.03-0.04-0.04-0.06-0.05-0.09c-0.04-0.14-0.08-0.27-0.1-0.42
				c-0.03-0.14-0.05-0.28-0.08-0.43l-0.07-0.42c-0.03-0.19-0.06-0.36-0.09-0.51c-0.03-0.15-0.05-0.3-0.07-0.45
				c-0.02-0.15-0.05-0.3-0.07-0.46c-0.02-0.16-0.04-0.33-0.07-0.53c-0.01-0.07,0.02-0.13,0.08-0.18c0.06-0.05,0.14-0.09,0.23-0.13
				c0.09-0.04,0.18-0.06,0.27-0.08c0.09-0.02,0.16-0.03,0.21-0.04c0.34-0.06,0.67-0.1,1-0.14c0.08-0.01,0.13,0.02,0.17,0.07
				c0.04,0.05,0.06,0.11,0.07,0.17c0.02,0.11,0.01,0.22-0.04,0.33c-0.04,0.1-0.1,0.2-0.18,0.29c-0.08,0.09-0.17,0.17-0.27,0.25
				c-0.1,0.08-0.2,0.15-0.29,0.22c-0.04,0.03-0.08,0.06-0.12,0.09c-0.04,0.03-0.08,0.06-0.11,0.09l-0.01,0
				c-0.02,0.01-0.03,0.02-0.03,0.03c0,0.01,0,0.02,0,0.04l0,0.02c0.01,0.01,0.01,0.02,0.02,0.03c0.01,0.01,0.01,0.02,0.02,0.02
				l0.03-0.01c0.1-0.03,0.2-0.06,0.29-0.09c0.1-0.03,0.2-0.05,0.3-0.06c0.08-0.01,0.16-0.02,0.23-0.02c0.07,0,0.14,0.01,0.21,0.02
				c0.06,0.02,0.11,0.05,0.16,0.09c0.04,0.04,0.07,0.1,0.08,0.18c0,0.03,0.01,0.06,0.01,0.09c0,0.04,0,0.07,0,0.11
				c0,0.04-0.02,0.07-0.03,0.1c-0.02,0.03-0.05,0.05-0.09,0.06l-1.11,0.26c-0.01,0-0.03,0.01-0.05,0.04
				c-0.02,0.02-0.03,0.04-0.03,0.06l0.2,1.2c0.01,0.05,0,0.09-0.03,0.12c-0.03,0.03-0.07,0.06-0.11,0.06L166.73,210.07z"/>
			<path class="st19" d="M169.51,209.71c-0.04,0.01-0.07,0-0.11-0.03c-0.03-0.03-0.05-0.06-0.05-0.09
				c-0.01-0.04-0.01-0.08-0.02-0.13c-0.01-0.05-0.02-0.1-0.03-0.15c-0.01-0.05-0.02-0.1-0.03-0.14c-0.01-0.04-0.01-0.08-0.02-0.09
				c-0.02-0.1-0.04-0.25-0.07-0.44c-0.03-0.19-0.06-0.41-0.09-0.64c-0.03-0.23-0.06-0.47-0.08-0.72c-0.02-0.25-0.04-0.48-0.04-0.69
				c0-0.21,0.01-0.39,0.04-0.53c0.03-0.14,0.08-0.23,0.15-0.25l0.43-0.08c0.15-0.02,0.3-0.04,0.47-0.05
				c0.17-0.01,0.33,0.01,0.48,0.04c0.15,0.04,0.29,0.11,0.4,0.21c0.11,0.1,0.19,0.25,0.22,0.44c0.02,0.13,0.02,0.25-0.01,0.37
				c-0.03,0.12-0.07,0.23-0.12,0.34c-0.05,0.11-0.11,0.21-0.18,0.3c-0.07,0.09-0.13,0.18-0.19,0.26c-0.06,0.08-0.11,0.15-0.15,0.21
				c-0.04,0.06-0.06,0.1-0.05,0.14c0.01,0.03,0.03,0.06,0.06,0.09c0.04,0.02,0.08,0.05,0.14,0.07c0.06,0.02,0.12,0.04,0.19,0.06
				c0.07,0.02,0.14,0.03,0.22,0.05c0.09,0.02,0.18,0.04,0.27,0.06s0.17,0.05,0.25,0.08c0.07,0.03,0.14,0.06,0.19,0.11
				c0.05,0.04,0.08,0.09,0.09,0.15c0.01,0.04,0.01,0.08,0,0.13c-0.01,0.05-0.02,0.1-0.04,0.15s-0.05,0.09-0.08,0.13
				c-0.03,0.04-0.07,0.06-0.12,0.07l-0.05,0c-0.02,0-0.07-0.01-0.14-0.03c-0.07-0.02-0.16-0.04-0.27-0.07
				c-0.1-0.03-0.21-0.06-0.33-0.1c-0.12-0.04-0.23-0.07-0.34-0.11c-0.11-0.04-0.2-0.07-0.28-0.1c-0.08-0.03-0.14-0.05-0.17-0.06
				l-0.06,0c-0.02,0.01-0.05,0.02-0.08,0.04c-0.03,0.02-0.04,0.04-0.04,0.07l0.11,0.65c0.01,0.04,0,0.07-0.02,0.1l-0.01,0.03
				c0,0-0.01,0.01-0.01,0.01c0,0-0.01,0.01-0.01,0.02l-0.02,0.03c-0.02,0.04-0.05,0.06-0.09,0.07L169.51,209.71z"/>
			<path class="st19" d="M172.15,207.4c-0.02-0.1-0.03-0.21-0.03-0.33c0-0.13,0.01-0.26,0.02-0.39c0.02-0.14,0.05-0.27,0.09-0.41
				c0.04-0.14,0.09-0.26,0.15-0.37c0.06-0.11,0.14-0.21,0.23-0.28s0.2-0.12,0.32-0.15c0.19-0.03,0.38-0.03,0.56,0.02
				c0.18,0.04,0.35,0.12,0.49,0.22c0.15,0.1,0.27,0.23,0.37,0.39c0.1,0.15,0.17,0.33,0.2,0.51c0.03,0.19,0.03,0.4,0.01,0.61
				c-0.03,0.21-0.09,0.41-0.18,0.59c-0.09,0.18-0.21,0.34-0.36,0.47c-0.15,0.13-0.34,0.22-0.56,0.25c-0.18,0.03-0.34,0.02-0.49-0.04
				c-0.15-0.06-0.28-0.14-0.4-0.25c-0.11-0.11-0.21-0.24-0.28-0.39C172.22,207.71,172.17,207.56,172.15,207.4z"/>
			<path class="st19" d="M178.16,208.28c-0.05,0.01-0.1,0-0.15-0.02c-0.05-0.02-0.09-0.06-0.13-0.09c-0.04-0.05-0.1-0.12-0.19-0.22
				c-0.08-0.1-0.17-0.2-0.28-0.32c-0.1-0.12-0.21-0.24-0.32-0.38c-0.11-0.13-0.22-0.26-0.32-0.38c-0.1-0.12-0.19-0.22-0.27-0.32
				c-0.08-0.09-0.14-0.16-0.18-0.21c-0.01-0.01-0.02-0.02-0.02-0.03c-0.01-0.01-0.02-0.02-0.03-0.03c-0.03-0.05-0.07-0.09-0.11-0.14
				c-0.04-0.05-0.09-0.07-0.14-0.06c-0.05,0.01-0.07,0.03-0.06,0.07l0.01,0.02c0.01,0.01,0.01,0.03,0.01,0.04c0,0.01,0,0.02,0,0.03
				c0.02,0.13,0.04,0.27,0.07,0.43s0.05,0.32,0.07,0.48c0.02,0.17,0.04,0.33,0.06,0.49c0.02,0.16,0.04,0.31,0.05,0.45
				c0,0.05,0,0.09-0.02,0.11c-0.02,0.03-0.05,0.05-0.08,0.07c-0.04,0.02-0.07,0.03-0.11,0.04c-0.04,0.01-0.08,0.02-0.11,0.02
				l-0.12,0.02c-0.05,0.01-0.09,0.01-0.12,0c-0.03-0.01-0.05-0.04-0.06-0.1l-0.17-0.98c-0.03-0.17-0.06-0.33-0.08-0.48
				c-0.02-0.15-0.05-0.29-0.07-0.44c-0.02-0.15-0.04-0.3-0.05-0.45c-0.02-0.15-0.03-0.33-0.05-0.52c0-0.01,0-0.03,0-0.04
				c0.01-0.05,0.03-0.09,0.06-0.13c0.03-0.03,0.07-0.06,0.12-0.09c0.05-0.02,0.1-0.04,0.15-0.06c0.05-0.01,0.11-0.03,0.16-0.04
				c0.03,0,0.05-0.01,0.08-0.01c0.02,0,0.05-0.01,0.07-0.01l0.1-0.02c0.1-0.02,0.17-0.01,0.21,0.02c0.04,0.03,0.09,0.08,0.15,0.15
				l0.03,0.03c0.01,0.02,0.04,0.05,0.09,0.11c0.04,0.06,0.09,0.12,0.15,0.18c0.18,0.23,0.37,0.46,0.55,0.68
				c0.19,0.22,0.38,0.45,0.57,0.67l0.02,0.02c0.02,0.02,0.04,0.04,0.06,0.06c0.02,0.02,0.05,0.03,0.08,0.02
				c0.02,0,0.04-0.03,0.04-0.09c0-0.05,0-0.13-0.01-0.21c-0.01-0.09-0.02-0.19-0.04-0.31c-0.02-0.11-0.03-0.24-0.06-0.37
				c-0.03-0.19-0.06-0.38-0.09-0.57c-0.03-0.19-0.04-0.37-0.04-0.54c0-0.16,0.01-0.3,0.05-0.41c0.03-0.11,0.09-0.17,0.18-0.19
				c0.04-0.01,0.08-0.01,0.13-0.02c0.05-0.01,0.1-0.01,0.15,0c0.05,0.01,0.09,0.02,0.12,0.05c0.04,0.03,0.06,0.07,0.07,0.13
				l0.01,0.04c0,0.02,0.01,0.05,0.01,0.11c0,0.06,0.01,0.12,0.01,0.19c0.01,0.17,0.03,0.34,0.04,0.51c0.02,0.17,0.03,0.34,0.06,0.51
				c0.01,0.08,0.02,0.15,0.02,0.22c0.01,0.07,0.01,0.14,0.02,0.21c0.01,0.06,0.01,0.12,0.02,0.17c0,0.05,0.01,0.08,0.01,0.09
				c0,0.04,0.01,0.09,0.02,0.14c0.01,0.05,0.01,0.1,0.02,0.15l0.03,0.17c0.02,0.14,0.04,0.28,0.06,0.43
				c0.02,0.15,0.01,0.28-0.01,0.41c-0.02,0.13-0.08,0.23-0.15,0.32S178.32,208.25,178.16,208.28z"/>
			<path class="st19" d="M179.15,204.46c0.05-0.01,0.13-0.03,0.23-0.05c0.11-0.02,0.23-0.05,0.36-0.08
				c0.13-0.03,0.28-0.06,0.42-0.09c0.15-0.03,0.29-0.06,0.42-0.09c0.13-0.03,0.25-0.06,0.36-0.08c0.11-0.02,0.19-0.04,0.24-0.05
				l0.04-0.01c0.05-0.01,0.1,0,0.13,0.02c0.04,0.02,0.07,0.05,0.09,0.08c0.02,0.03,0.04,0.07,0.05,0.12
				c0.01,0.04,0.02,0.08,0.03,0.12l0.02,0.15c0.01,0.04,0,0.08-0.02,0.11c-0.02,0.03-0.05,0.05-0.08,0.07
				c-0.03,0.02-0.07,0.03-0.11,0.04c-0.04,0.01-0.08,0.02-0.11,0.02l-0.14,0.02c-0.03,0-0.05,0-0.07,0.01
				c-0.02,0-0.05,0.01-0.07,0.01c-0.05,0.01-0.1,0.02-0.14,0.03c-0.04,0.01-0.08,0.03-0.11,0.05c-0.03,0.02-0.05,0.05-0.07,0.09
				c-0.01,0.04-0.02,0.08-0.01,0.13l0.39,2.31c0.01,0.03,0,0.06-0.03,0.08c-0.03,0.02-0.06,0.04-0.09,0.06
				c-0.04,0.02-0.07,0.03-0.11,0.04c-0.04,0.01-0.07,0.01-0.09,0.02l-0.03,0.01c-0.01,0-0.02,0.01-0.05,0.01
				c-0.02,0-0.05,0.01-0.08,0.01c-0.03,0-0.06,0-0.09,0c-0.03,0-0.05-0.01-0.07-0.03c-0.02-0.01-0.03-0.04-0.04-0.07l-0.4-2.38
				c0-0.01-0.01-0.01-0.03-0.02c-0.02-0.01-0.04-0.01-0.06-0.02c-0.02,0-0.04-0.01-0.06-0.01s-0.03,0-0.04,0l-0.59,0.1
				c-0.03,0.01-0.06,0-0.09-0.01l-0.01,0c-0.02,0-0.04-0.01-0.06-0.03c-0.02-0.01-0.03-0.03-0.03-0.05l-0.06-0.36
				c-0.01-0.03,0-0.06,0.01-0.09c0.02-0.03,0.04-0.05,0.06-0.07c0.03-0.02,0.05-0.04,0.08-0.05S179.13,204.46,179.15,204.46z"/>
		</g>
		<path class="st19" d="M162.46,207.86l-1.9,0.32c-0.18,0.03-0.3,0.2-0.27,0.38c0.03,0.18,0.2,0.3,0.38,0.27l1.9-0.32
			c0.18-0.03,0.3-0.2,0.27-0.38C162.8,207.95,162.63,207.83,162.46,207.86z"/>
		<path class="st19" d="M186.85,203.3l-1.9,0.32c-0.18,0.03-0.3,0.2-0.27,0.38c0.03,0.18,0.2,0.3,0.38,0.27l1.9-0.32
			c0.18-0.03,0.3-0.2,0.27-0.38S187.03,203.27,186.85,203.3z"/>
	</g>
</g>
</svg>
